%TF.GenerationSoftware,KiCad,Pcbnew,8.0.0*%
%TF.CreationDate,2024-04-09T16:31:28-05:00*%
%TF.ProjectId,MainBoardv2,4d61696e-426f-4617-9264-76322e6b6963,rev?*%
%TF.SameCoordinates,Original*%
%TF.FileFunction,Drillmap*%
%TF.FilePolarity,Positive*%
%FSLAX45Y45*%
G04 Gerber Fmt 4.5, Leading zero omitted, Abs format (unit mm)*
G04 Created by KiCad (PCBNEW 8.0.0) date 2024-04-09 16:31:28*
%MOMM*%
%LPD*%
G01*
G04 APERTURE LIST*
%ADD10C,0.200000*%
%ADD11C,0.500000*%
G04 APERTURE END LIST*
D10*
X9076500Y-4657000D02*
X19076500Y-4657000D01*
X19076500Y-14657000D01*
X9076500Y-14657000D01*
X9076500Y-4657000D01*
D11*
X9425000Y-5075000D02*
X9925000Y-5575000D01*
X9925000Y-5075000D02*
X9425000Y-5575000D01*
X9425000Y-13725000D02*
X9925000Y-14225000D01*
X9925000Y-13725000D02*
X9425000Y-14225000D01*
X18225000Y-5075000D02*
X18725000Y-5575000D01*
X18725000Y-5075000D02*
X18225000Y-5575000D01*
X18225000Y-13725000D02*
X18725000Y-14225000D01*
X18725000Y-13725000D02*
X18225000Y-14225000D01*
D10*
X9327277Y-14978484D02*
X9327277Y-14778484D01*
X9327277Y-14778484D02*
X9374896Y-14778484D01*
X9374896Y-14778484D02*
X9403467Y-14788008D01*
X9403467Y-14788008D02*
X9422515Y-14807055D01*
X9422515Y-14807055D02*
X9432039Y-14826103D01*
X9432039Y-14826103D02*
X9441563Y-14864198D01*
X9441563Y-14864198D02*
X9441563Y-14892769D01*
X9441563Y-14892769D02*
X9432039Y-14930865D01*
X9432039Y-14930865D02*
X9422515Y-14949912D01*
X9422515Y-14949912D02*
X9403467Y-14968960D01*
X9403467Y-14968960D02*
X9374896Y-14978484D01*
X9374896Y-14978484D02*
X9327277Y-14978484D01*
X9527277Y-14978484D02*
X9527277Y-14845150D01*
X9527277Y-14883246D02*
X9536801Y-14864198D01*
X9536801Y-14864198D02*
X9546324Y-14854674D01*
X9546324Y-14854674D02*
X9565372Y-14845150D01*
X9565372Y-14845150D02*
X9584420Y-14845150D01*
X9651086Y-14978484D02*
X9651086Y-14845150D01*
X9651086Y-14778484D02*
X9641563Y-14788008D01*
X9641563Y-14788008D02*
X9651086Y-14797531D01*
X9651086Y-14797531D02*
X9660610Y-14788008D01*
X9660610Y-14788008D02*
X9651086Y-14778484D01*
X9651086Y-14778484D02*
X9651086Y-14797531D01*
X9774896Y-14978484D02*
X9755848Y-14968960D01*
X9755848Y-14968960D02*
X9746324Y-14949912D01*
X9746324Y-14949912D02*
X9746324Y-14778484D01*
X9879658Y-14978484D02*
X9860610Y-14968960D01*
X9860610Y-14968960D02*
X9851086Y-14949912D01*
X9851086Y-14949912D02*
X9851086Y-14778484D01*
X10108229Y-14978484D02*
X10108229Y-14778484D01*
X10108229Y-14778484D02*
X10174896Y-14921341D01*
X10174896Y-14921341D02*
X10241563Y-14778484D01*
X10241563Y-14778484D02*
X10241563Y-14978484D01*
X10422515Y-14978484D02*
X10422515Y-14873722D01*
X10422515Y-14873722D02*
X10412991Y-14854674D01*
X10412991Y-14854674D02*
X10393944Y-14845150D01*
X10393944Y-14845150D02*
X10355848Y-14845150D01*
X10355848Y-14845150D02*
X10336801Y-14854674D01*
X10422515Y-14968960D02*
X10403467Y-14978484D01*
X10403467Y-14978484D02*
X10355848Y-14978484D01*
X10355848Y-14978484D02*
X10336801Y-14968960D01*
X10336801Y-14968960D02*
X10327277Y-14949912D01*
X10327277Y-14949912D02*
X10327277Y-14930865D01*
X10327277Y-14930865D02*
X10336801Y-14911817D01*
X10336801Y-14911817D02*
X10355848Y-14902293D01*
X10355848Y-14902293D02*
X10403467Y-14902293D01*
X10403467Y-14902293D02*
X10422515Y-14892769D01*
X10517753Y-14845150D02*
X10517753Y-15045150D01*
X10517753Y-14854674D02*
X10536801Y-14845150D01*
X10536801Y-14845150D02*
X10574896Y-14845150D01*
X10574896Y-14845150D02*
X10593944Y-14854674D01*
X10593944Y-14854674D02*
X10603467Y-14864198D01*
X10603467Y-14864198D02*
X10612991Y-14883246D01*
X10612991Y-14883246D02*
X10612991Y-14940388D01*
X10612991Y-14940388D02*
X10603467Y-14959436D01*
X10603467Y-14959436D02*
X10593944Y-14968960D01*
X10593944Y-14968960D02*
X10574896Y-14978484D01*
X10574896Y-14978484D02*
X10536801Y-14978484D01*
X10536801Y-14978484D02*
X10517753Y-14968960D01*
X10698705Y-14959436D02*
X10708229Y-14968960D01*
X10708229Y-14968960D02*
X10698705Y-14978484D01*
X10698705Y-14978484D02*
X10689182Y-14968960D01*
X10689182Y-14968960D02*
X10698705Y-14959436D01*
X10698705Y-14959436D02*
X10698705Y-14978484D01*
X10698705Y-14854674D02*
X10708229Y-14864198D01*
X10708229Y-14864198D02*
X10698705Y-14873722D01*
X10698705Y-14873722D02*
X10689182Y-14864198D01*
X10689182Y-14864198D02*
X10698705Y-14854674D01*
X10698705Y-14854674D02*
X10698705Y-14873722D01*
X8866500Y-15207000D02*
X9066500Y-15407000D01*
X9066500Y-15207000D02*
X8866500Y-15407000D01*
X9422515Y-15198484D02*
X9327277Y-15198484D01*
X9327277Y-15198484D02*
X9317753Y-15293722D01*
X9317753Y-15293722D02*
X9327277Y-15284198D01*
X9327277Y-15284198D02*
X9346324Y-15274674D01*
X9346324Y-15274674D02*
X9393944Y-15274674D01*
X9393944Y-15274674D02*
X9412991Y-15284198D01*
X9412991Y-15284198D02*
X9422515Y-15293722D01*
X9422515Y-15293722D02*
X9432039Y-15312769D01*
X9432039Y-15312769D02*
X9432039Y-15360388D01*
X9432039Y-15360388D02*
X9422515Y-15379436D01*
X9422515Y-15379436D02*
X9412991Y-15388960D01*
X9412991Y-15388960D02*
X9393944Y-15398484D01*
X9393944Y-15398484D02*
X9346324Y-15398484D01*
X9346324Y-15398484D02*
X9327277Y-15388960D01*
X9327277Y-15388960D02*
X9317753Y-15379436D01*
X9517753Y-15379436D02*
X9527277Y-15388960D01*
X9527277Y-15388960D02*
X9517753Y-15398484D01*
X9517753Y-15398484D02*
X9508229Y-15388960D01*
X9508229Y-15388960D02*
X9517753Y-15379436D01*
X9517753Y-15379436D02*
X9517753Y-15398484D01*
X9651086Y-15198484D02*
X9670134Y-15198484D01*
X9670134Y-15198484D02*
X9689182Y-15208008D01*
X9689182Y-15208008D02*
X9698705Y-15217531D01*
X9698705Y-15217531D02*
X9708229Y-15236579D01*
X9708229Y-15236579D02*
X9717753Y-15274674D01*
X9717753Y-15274674D02*
X9717753Y-15322293D01*
X9717753Y-15322293D02*
X9708229Y-15360388D01*
X9708229Y-15360388D02*
X9698705Y-15379436D01*
X9698705Y-15379436D02*
X9689182Y-15388960D01*
X9689182Y-15388960D02*
X9670134Y-15398484D01*
X9670134Y-15398484D02*
X9651086Y-15398484D01*
X9651086Y-15398484D02*
X9632039Y-15388960D01*
X9632039Y-15388960D02*
X9622515Y-15379436D01*
X9622515Y-15379436D02*
X9612991Y-15360388D01*
X9612991Y-15360388D02*
X9603467Y-15322293D01*
X9603467Y-15322293D02*
X9603467Y-15274674D01*
X9603467Y-15274674D02*
X9612991Y-15236579D01*
X9612991Y-15236579D02*
X9622515Y-15217531D01*
X9622515Y-15217531D02*
X9632039Y-15208008D01*
X9632039Y-15208008D02*
X9651086Y-15198484D01*
X9841563Y-15198484D02*
X9860610Y-15198484D01*
X9860610Y-15198484D02*
X9879658Y-15208008D01*
X9879658Y-15208008D02*
X9889182Y-15217531D01*
X9889182Y-15217531D02*
X9898705Y-15236579D01*
X9898705Y-15236579D02*
X9908229Y-15274674D01*
X9908229Y-15274674D02*
X9908229Y-15322293D01*
X9908229Y-15322293D02*
X9898705Y-15360388D01*
X9898705Y-15360388D02*
X9889182Y-15379436D01*
X9889182Y-15379436D02*
X9879658Y-15388960D01*
X9879658Y-15388960D02*
X9860610Y-15398484D01*
X9860610Y-15398484D02*
X9841563Y-15398484D01*
X9841563Y-15398484D02*
X9822515Y-15388960D01*
X9822515Y-15388960D02*
X9812991Y-15379436D01*
X9812991Y-15379436D02*
X9803467Y-15360388D01*
X9803467Y-15360388D02*
X9793944Y-15322293D01*
X9793944Y-15322293D02*
X9793944Y-15274674D01*
X9793944Y-15274674D02*
X9803467Y-15236579D01*
X9803467Y-15236579D02*
X9812991Y-15217531D01*
X9812991Y-15217531D02*
X9822515Y-15208008D01*
X9822515Y-15208008D02*
X9841563Y-15198484D01*
X10032039Y-15198484D02*
X10051086Y-15198484D01*
X10051086Y-15198484D02*
X10070134Y-15208008D01*
X10070134Y-15208008D02*
X10079658Y-15217531D01*
X10079658Y-15217531D02*
X10089182Y-15236579D01*
X10089182Y-15236579D02*
X10098705Y-15274674D01*
X10098705Y-15274674D02*
X10098705Y-15322293D01*
X10098705Y-15322293D02*
X10089182Y-15360388D01*
X10089182Y-15360388D02*
X10079658Y-15379436D01*
X10079658Y-15379436D02*
X10070134Y-15388960D01*
X10070134Y-15388960D02*
X10051086Y-15398484D01*
X10051086Y-15398484D02*
X10032039Y-15398484D01*
X10032039Y-15398484D02*
X10012991Y-15388960D01*
X10012991Y-15388960D02*
X10003467Y-15379436D01*
X10003467Y-15379436D02*
X9993944Y-15360388D01*
X9993944Y-15360388D02*
X9984420Y-15322293D01*
X9984420Y-15322293D02*
X9984420Y-15274674D01*
X9984420Y-15274674D02*
X9993944Y-15236579D01*
X9993944Y-15236579D02*
X10003467Y-15217531D01*
X10003467Y-15217531D02*
X10012991Y-15208008D01*
X10012991Y-15208008D02*
X10032039Y-15198484D01*
X10184420Y-15398484D02*
X10184420Y-15265150D01*
X10184420Y-15284198D02*
X10193944Y-15274674D01*
X10193944Y-15274674D02*
X10212991Y-15265150D01*
X10212991Y-15265150D02*
X10241563Y-15265150D01*
X10241563Y-15265150D02*
X10260610Y-15274674D01*
X10260610Y-15274674D02*
X10270134Y-15293722D01*
X10270134Y-15293722D02*
X10270134Y-15398484D01*
X10270134Y-15293722D02*
X10279658Y-15274674D01*
X10279658Y-15274674D02*
X10298705Y-15265150D01*
X10298705Y-15265150D02*
X10327277Y-15265150D01*
X10327277Y-15265150D02*
X10346325Y-15274674D01*
X10346325Y-15274674D02*
X10355848Y-15293722D01*
X10355848Y-15293722D02*
X10355848Y-15398484D01*
X10451086Y-15398484D02*
X10451086Y-15265150D01*
X10451086Y-15284198D02*
X10460610Y-15274674D01*
X10460610Y-15274674D02*
X10479658Y-15265150D01*
X10479658Y-15265150D02*
X10508229Y-15265150D01*
X10508229Y-15265150D02*
X10527277Y-15274674D01*
X10527277Y-15274674D02*
X10536801Y-15293722D01*
X10536801Y-15293722D02*
X10536801Y-15398484D01*
X10536801Y-15293722D02*
X10546325Y-15274674D01*
X10546325Y-15274674D02*
X10565372Y-15265150D01*
X10565372Y-15265150D02*
X10593944Y-15265150D01*
X10593944Y-15265150D02*
X10612991Y-15274674D01*
X10612991Y-15274674D02*
X10622515Y-15293722D01*
X10622515Y-15293722D02*
X10622515Y-15398484D01*
X11012991Y-15188960D02*
X10841563Y-15446103D01*
X11270134Y-15198484D02*
X11289182Y-15198484D01*
X11289182Y-15198484D02*
X11308229Y-15208008D01*
X11308229Y-15208008D02*
X11317753Y-15217531D01*
X11317753Y-15217531D02*
X11327277Y-15236579D01*
X11327277Y-15236579D02*
X11336801Y-15274674D01*
X11336801Y-15274674D02*
X11336801Y-15322293D01*
X11336801Y-15322293D02*
X11327277Y-15360388D01*
X11327277Y-15360388D02*
X11317753Y-15379436D01*
X11317753Y-15379436D02*
X11308229Y-15388960D01*
X11308229Y-15388960D02*
X11289182Y-15398484D01*
X11289182Y-15398484D02*
X11270134Y-15398484D01*
X11270134Y-15398484D02*
X11251086Y-15388960D01*
X11251086Y-15388960D02*
X11241563Y-15379436D01*
X11241563Y-15379436D02*
X11232039Y-15360388D01*
X11232039Y-15360388D02*
X11222515Y-15322293D01*
X11222515Y-15322293D02*
X11222515Y-15274674D01*
X11222515Y-15274674D02*
X11232039Y-15236579D01*
X11232039Y-15236579D02*
X11241563Y-15217531D01*
X11241563Y-15217531D02*
X11251086Y-15208008D01*
X11251086Y-15208008D02*
X11270134Y-15198484D01*
X11422515Y-15379436D02*
X11432039Y-15388960D01*
X11432039Y-15388960D02*
X11422515Y-15398484D01*
X11422515Y-15398484D02*
X11412991Y-15388960D01*
X11412991Y-15388960D02*
X11422515Y-15379436D01*
X11422515Y-15379436D02*
X11422515Y-15398484D01*
X11622515Y-15398484D02*
X11508229Y-15398484D01*
X11565372Y-15398484D02*
X11565372Y-15198484D01*
X11565372Y-15198484D02*
X11546325Y-15227055D01*
X11546325Y-15227055D02*
X11527277Y-15246103D01*
X11527277Y-15246103D02*
X11508229Y-15255627D01*
X11717753Y-15398484D02*
X11755848Y-15398484D01*
X11755848Y-15398484D02*
X11774896Y-15388960D01*
X11774896Y-15388960D02*
X11784420Y-15379436D01*
X11784420Y-15379436D02*
X11803467Y-15350865D01*
X11803467Y-15350865D02*
X11812991Y-15312769D01*
X11812991Y-15312769D02*
X11812991Y-15236579D01*
X11812991Y-15236579D02*
X11803467Y-15217531D01*
X11803467Y-15217531D02*
X11793944Y-15208008D01*
X11793944Y-15208008D02*
X11774896Y-15198484D01*
X11774896Y-15198484D02*
X11736801Y-15198484D01*
X11736801Y-15198484D02*
X11717753Y-15208008D01*
X11717753Y-15208008D02*
X11708229Y-15217531D01*
X11708229Y-15217531D02*
X11698706Y-15236579D01*
X11698706Y-15236579D02*
X11698706Y-15284198D01*
X11698706Y-15284198D02*
X11708229Y-15303246D01*
X11708229Y-15303246D02*
X11717753Y-15312769D01*
X11717753Y-15312769D02*
X11736801Y-15322293D01*
X11736801Y-15322293D02*
X11774896Y-15322293D01*
X11774896Y-15322293D02*
X11793944Y-15312769D01*
X11793944Y-15312769D02*
X11803467Y-15303246D01*
X11803467Y-15303246D02*
X11812991Y-15284198D01*
X11984420Y-15198484D02*
X11946325Y-15198484D01*
X11946325Y-15198484D02*
X11927277Y-15208008D01*
X11927277Y-15208008D02*
X11917753Y-15217531D01*
X11917753Y-15217531D02*
X11898706Y-15246103D01*
X11898706Y-15246103D02*
X11889182Y-15284198D01*
X11889182Y-15284198D02*
X11889182Y-15360388D01*
X11889182Y-15360388D02*
X11898706Y-15379436D01*
X11898706Y-15379436D02*
X11908229Y-15388960D01*
X11908229Y-15388960D02*
X11927277Y-15398484D01*
X11927277Y-15398484D02*
X11965372Y-15398484D01*
X11965372Y-15398484D02*
X11984420Y-15388960D01*
X11984420Y-15388960D02*
X11993944Y-15379436D01*
X11993944Y-15379436D02*
X12003467Y-15360388D01*
X12003467Y-15360388D02*
X12003467Y-15312769D01*
X12003467Y-15312769D02*
X11993944Y-15293722D01*
X11993944Y-15293722D02*
X11984420Y-15284198D01*
X11984420Y-15284198D02*
X11965372Y-15274674D01*
X11965372Y-15274674D02*
X11927277Y-15274674D01*
X11927277Y-15274674D02*
X11908229Y-15284198D01*
X11908229Y-15284198D02*
X11898706Y-15293722D01*
X11898706Y-15293722D02*
X11889182Y-15312769D01*
X12098706Y-15398484D02*
X12136801Y-15398484D01*
X12136801Y-15398484D02*
X12155848Y-15388960D01*
X12155848Y-15388960D02*
X12165372Y-15379436D01*
X12165372Y-15379436D02*
X12184420Y-15350865D01*
X12184420Y-15350865D02*
X12193944Y-15312769D01*
X12193944Y-15312769D02*
X12193944Y-15236579D01*
X12193944Y-15236579D02*
X12184420Y-15217531D01*
X12184420Y-15217531D02*
X12174896Y-15208008D01*
X12174896Y-15208008D02*
X12155848Y-15198484D01*
X12155848Y-15198484D02*
X12117753Y-15198484D01*
X12117753Y-15198484D02*
X12098706Y-15208008D01*
X12098706Y-15208008D02*
X12089182Y-15217531D01*
X12089182Y-15217531D02*
X12079658Y-15236579D01*
X12079658Y-15236579D02*
X12079658Y-15284198D01*
X12079658Y-15284198D02*
X12089182Y-15303246D01*
X12089182Y-15303246D02*
X12098706Y-15312769D01*
X12098706Y-15312769D02*
X12117753Y-15322293D01*
X12117753Y-15322293D02*
X12155848Y-15322293D01*
X12155848Y-15322293D02*
X12174896Y-15312769D01*
X12174896Y-15312769D02*
X12184420Y-15303246D01*
X12184420Y-15303246D02*
X12193944Y-15284198D01*
X12270134Y-15198484D02*
X12270134Y-15236579D01*
X12346325Y-15198484D02*
X12346325Y-15236579D01*
X12641563Y-15474674D02*
X12632039Y-15465150D01*
X12632039Y-15465150D02*
X12612991Y-15436579D01*
X12612991Y-15436579D02*
X12603468Y-15417531D01*
X12603468Y-15417531D02*
X12593944Y-15388960D01*
X12593944Y-15388960D02*
X12584420Y-15341341D01*
X12584420Y-15341341D02*
X12584420Y-15303246D01*
X12584420Y-15303246D02*
X12593944Y-15255627D01*
X12593944Y-15255627D02*
X12603468Y-15227055D01*
X12603468Y-15227055D02*
X12612991Y-15208008D01*
X12612991Y-15208008D02*
X12632039Y-15179436D01*
X12632039Y-15179436D02*
X12641563Y-15169912D01*
X12803468Y-15265150D02*
X12803468Y-15398484D01*
X12755848Y-15188960D02*
X12708229Y-15331817D01*
X12708229Y-15331817D02*
X12832039Y-15331817D01*
X13060610Y-15398484D02*
X13060610Y-15198484D01*
X13146325Y-15398484D02*
X13146325Y-15293722D01*
X13146325Y-15293722D02*
X13136801Y-15274674D01*
X13136801Y-15274674D02*
X13117753Y-15265150D01*
X13117753Y-15265150D02*
X13089182Y-15265150D01*
X13089182Y-15265150D02*
X13070134Y-15274674D01*
X13070134Y-15274674D02*
X13060610Y-15284198D01*
X13270134Y-15398484D02*
X13251087Y-15388960D01*
X13251087Y-15388960D02*
X13241563Y-15379436D01*
X13241563Y-15379436D02*
X13232039Y-15360388D01*
X13232039Y-15360388D02*
X13232039Y-15303246D01*
X13232039Y-15303246D02*
X13241563Y-15284198D01*
X13241563Y-15284198D02*
X13251087Y-15274674D01*
X13251087Y-15274674D02*
X13270134Y-15265150D01*
X13270134Y-15265150D02*
X13298706Y-15265150D01*
X13298706Y-15265150D02*
X13317753Y-15274674D01*
X13317753Y-15274674D02*
X13327277Y-15284198D01*
X13327277Y-15284198D02*
X13336801Y-15303246D01*
X13336801Y-15303246D02*
X13336801Y-15360388D01*
X13336801Y-15360388D02*
X13327277Y-15379436D01*
X13327277Y-15379436D02*
X13317753Y-15388960D01*
X13317753Y-15388960D02*
X13298706Y-15398484D01*
X13298706Y-15398484D02*
X13270134Y-15398484D01*
X13451087Y-15398484D02*
X13432039Y-15388960D01*
X13432039Y-15388960D02*
X13422515Y-15369912D01*
X13422515Y-15369912D02*
X13422515Y-15198484D01*
X13603468Y-15388960D02*
X13584420Y-15398484D01*
X13584420Y-15398484D02*
X13546325Y-15398484D01*
X13546325Y-15398484D02*
X13527277Y-15388960D01*
X13527277Y-15388960D02*
X13517753Y-15369912D01*
X13517753Y-15369912D02*
X13517753Y-15293722D01*
X13517753Y-15293722D02*
X13527277Y-15274674D01*
X13527277Y-15274674D02*
X13546325Y-15265150D01*
X13546325Y-15265150D02*
X13584420Y-15265150D01*
X13584420Y-15265150D02*
X13603468Y-15274674D01*
X13603468Y-15274674D02*
X13612991Y-15293722D01*
X13612991Y-15293722D02*
X13612991Y-15312769D01*
X13612991Y-15312769D02*
X13517753Y-15331817D01*
X13689182Y-15388960D02*
X13708230Y-15398484D01*
X13708230Y-15398484D02*
X13746325Y-15398484D01*
X13746325Y-15398484D02*
X13765372Y-15388960D01*
X13765372Y-15388960D02*
X13774896Y-15369912D01*
X13774896Y-15369912D02*
X13774896Y-15360388D01*
X13774896Y-15360388D02*
X13765372Y-15341341D01*
X13765372Y-15341341D02*
X13746325Y-15331817D01*
X13746325Y-15331817D02*
X13717753Y-15331817D01*
X13717753Y-15331817D02*
X13698706Y-15322293D01*
X13698706Y-15322293D02*
X13689182Y-15303246D01*
X13689182Y-15303246D02*
X13689182Y-15293722D01*
X13689182Y-15293722D02*
X13698706Y-15274674D01*
X13698706Y-15274674D02*
X13717753Y-15265150D01*
X13717753Y-15265150D02*
X13746325Y-15265150D01*
X13746325Y-15265150D02*
X13765372Y-15274674D01*
X13841563Y-15474674D02*
X13851087Y-15465150D01*
X13851087Y-15465150D02*
X13870134Y-15436579D01*
X13870134Y-15436579D02*
X13879658Y-15417531D01*
X13879658Y-15417531D02*
X13889182Y-15388960D01*
X13889182Y-15388960D02*
X13898706Y-15341341D01*
X13898706Y-15341341D02*
X13898706Y-15303246D01*
X13898706Y-15303246D02*
X13889182Y-15255627D01*
X13889182Y-15255627D02*
X13879658Y-15227055D01*
X13879658Y-15227055D02*
X13870134Y-15208008D01*
X13870134Y-15208008D02*
X13851087Y-15179436D01*
X13851087Y-15179436D02*
X13841563Y-15169912D01*
X14203468Y-15474674D02*
X14193944Y-15465150D01*
X14193944Y-15465150D02*
X14174896Y-15436579D01*
X14174896Y-15436579D02*
X14165372Y-15417531D01*
X14165372Y-15417531D02*
X14155849Y-15388960D01*
X14155849Y-15388960D02*
X14146325Y-15341341D01*
X14146325Y-15341341D02*
X14146325Y-15303246D01*
X14146325Y-15303246D02*
X14155849Y-15255627D01*
X14155849Y-15255627D02*
X14165372Y-15227055D01*
X14165372Y-15227055D02*
X14174896Y-15208008D01*
X14174896Y-15208008D02*
X14193944Y-15179436D01*
X14193944Y-15179436D02*
X14203468Y-15169912D01*
X14279658Y-15265150D02*
X14279658Y-15398484D01*
X14279658Y-15284198D02*
X14289182Y-15274674D01*
X14289182Y-15274674D02*
X14308230Y-15265150D01*
X14308230Y-15265150D02*
X14336801Y-15265150D01*
X14336801Y-15265150D02*
X14355849Y-15274674D01*
X14355849Y-15274674D02*
X14365372Y-15293722D01*
X14365372Y-15293722D02*
X14365372Y-15398484D01*
X14489182Y-15398484D02*
X14470134Y-15388960D01*
X14470134Y-15388960D02*
X14460611Y-15379436D01*
X14460611Y-15379436D02*
X14451087Y-15360388D01*
X14451087Y-15360388D02*
X14451087Y-15303246D01*
X14451087Y-15303246D02*
X14460611Y-15284198D01*
X14460611Y-15284198D02*
X14470134Y-15274674D01*
X14470134Y-15274674D02*
X14489182Y-15265150D01*
X14489182Y-15265150D02*
X14517753Y-15265150D01*
X14517753Y-15265150D02*
X14536801Y-15274674D01*
X14536801Y-15274674D02*
X14546325Y-15284198D01*
X14546325Y-15284198D02*
X14555849Y-15303246D01*
X14555849Y-15303246D02*
X14555849Y-15360388D01*
X14555849Y-15360388D02*
X14546325Y-15379436D01*
X14546325Y-15379436D02*
X14536801Y-15388960D01*
X14536801Y-15388960D02*
X14517753Y-15398484D01*
X14517753Y-15398484D02*
X14489182Y-15398484D01*
X14612992Y-15265150D02*
X14689182Y-15265150D01*
X14641563Y-15198484D02*
X14641563Y-15369912D01*
X14641563Y-15369912D02*
X14651087Y-15388960D01*
X14651087Y-15388960D02*
X14670134Y-15398484D01*
X14670134Y-15398484D02*
X14689182Y-15398484D01*
X14908230Y-15265150D02*
X14908230Y-15465150D01*
X14908230Y-15274674D02*
X14927277Y-15265150D01*
X14927277Y-15265150D02*
X14965373Y-15265150D01*
X14965373Y-15265150D02*
X14984420Y-15274674D01*
X14984420Y-15274674D02*
X14993944Y-15284198D01*
X14993944Y-15284198D02*
X15003468Y-15303246D01*
X15003468Y-15303246D02*
X15003468Y-15360388D01*
X15003468Y-15360388D02*
X14993944Y-15379436D01*
X14993944Y-15379436D02*
X14984420Y-15388960D01*
X14984420Y-15388960D02*
X14965373Y-15398484D01*
X14965373Y-15398484D02*
X14927277Y-15398484D01*
X14927277Y-15398484D02*
X14908230Y-15388960D01*
X15117753Y-15398484D02*
X15098706Y-15388960D01*
X15098706Y-15388960D02*
X15089182Y-15369912D01*
X15089182Y-15369912D02*
X15089182Y-15198484D01*
X15279658Y-15398484D02*
X15279658Y-15293722D01*
X15279658Y-15293722D02*
X15270134Y-15274674D01*
X15270134Y-15274674D02*
X15251087Y-15265150D01*
X15251087Y-15265150D02*
X15212992Y-15265150D01*
X15212992Y-15265150D02*
X15193944Y-15274674D01*
X15279658Y-15388960D02*
X15260611Y-15398484D01*
X15260611Y-15398484D02*
X15212992Y-15398484D01*
X15212992Y-15398484D02*
X15193944Y-15388960D01*
X15193944Y-15388960D02*
X15184420Y-15369912D01*
X15184420Y-15369912D02*
X15184420Y-15350865D01*
X15184420Y-15350865D02*
X15193944Y-15331817D01*
X15193944Y-15331817D02*
X15212992Y-15322293D01*
X15212992Y-15322293D02*
X15260611Y-15322293D01*
X15260611Y-15322293D02*
X15279658Y-15312769D01*
X15346325Y-15265150D02*
X15422515Y-15265150D01*
X15374896Y-15198484D02*
X15374896Y-15369912D01*
X15374896Y-15369912D02*
X15384420Y-15388960D01*
X15384420Y-15388960D02*
X15403468Y-15398484D01*
X15403468Y-15398484D02*
X15422515Y-15398484D01*
X15565373Y-15388960D02*
X15546325Y-15398484D01*
X15546325Y-15398484D02*
X15508230Y-15398484D01*
X15508230Y-15398484D02*
X15489182Y-15388960D01*
X15489182Y-15388960D02*
X15479658Y-15369912D01*
X15479658Y-15369912D02*
X15479658Y-15293722D01*
X15479658Y-15293722D02*
X15489182Y-15274674D01*
X15489182Y-15274674D02*
X15508230Y-15265150D01*
X15508230Y-15265150D02*
X15546325Y-15265150D01*
X15546325Y-15265150D02*
X15565373Y-15274674D01*
X15565373Y-15274674D02*
X15574896Y-15293722D01*
X15574896Y-15293722D02*
X15574896Y-15312769D01*
X15574896Y-15312769D02*
X15479658Y-15331817D01*
X15746325Y-15398484D02*
X15746325Y-15198484D01*
X15746325Y-15388960D02*
X15727277Y-15398484D01*
X15727277Y-15398484D02*
X15689182Y-15398484D01*
X15689182Y-15398484D02*
X15670134Y-15388960D01*
X15670134Y-15388960D02*
X15660611Y-15379436D01*
X15660611Y-15379436D02*
X15651087Y-15360388D01*
X15651087Y-15360388D02*
X15651087Y-15303246D01*
X15651087Y-15303246D02*
X15660611Y-15284198D01*
X15660611Y-15284198D02*
X15670134Y-15274674D01*
X15670134Y-15274674D02*
X15689182Y-15265150D01*
X15689182Y-15265150D02*
X15727277Y-15265150D01*
X15727277Y-15265150D02*
X15746325Y-15274674D01*
X15822515Y-15474674D02*
X15832039Y-15465150D01*
X15832039Y-15465150D02*
X15851087Y-15436579D01*
X15851087Y-15436579D02*
X15860611Y-15417531D01*
X15860611Y-15417531D02*
X15870134Y-15388960D01*
X15870134Y-15388960D02*
X15879658Y-15341341D01*
X15879658Y-15341341D02*
X15879658Y-15303246D01*
X15879658Y-15303246D02*
X15870134Y-15255627D01*
X15870134Y-15255627D02*
X15860611Y-15227055D01*
X15860611Y-15227055D02*
X15851087Y-15208008D01*
X15851087Y-15208008D02*
X15832039Y-15179436D01*
X15832039Y-15179436D02*
X15822515Y-15169912D01*
M02*
