M48
; DRILL file {KiCad 8.0.0} date 2024-04-09T16:31:25-0500
; FORMAT={-:-/ absolute / inch / decimal}
; #@! TF.CreationDate,2024-04-09T16:31:25-05:00
; #@! TF.GenerationSoftware,Kicad,Pcbnew,8.0.0
; #@! TF.FileFunction,Plated,1,2,PTH
FMAT,2
INCH
; #@! TA.AperFunction,Plated,PTH,ViaDrill
T1C0.0118
; #@! TA.AperFunction,Plated,PTH,ComponentDrill
T2C0.0295
; #@! TA.AperFunction,Plated,PTH,ComponentDrill
T3C0.0300
; #@! TA.AperFunction,Plated,PTH,ComponentDrill
T4C0.0315
; #@! TA.AperFunction,Plated,PTH,ComponentDrill
T5C0.0394
; #@! TA.AperFunction,Plated,PTH,ComponentDrill
T6C0.0433
; #@! TA.AperFunction,Plated,PTH,ComponentDrill
T7C0.0669
; #@! TA.AperFunction,Plated,PTH,ComponentDrill
T8C0.0690
%
G90
G05
T1
X4.2638Y-2.2362
X4.5197Y-2.2283
X4.5394Y-2.9213
X4.5433Y-3.9094
X4.5433Y-4.878
X4.6614Y-4.9291
X4.6614Y-5.0512
X4.6614Y-5.1614
X4.6614Y-5.2268
X4.689Y-2.2165
X4.7165Y-4.9291
X4.7756Y-2.2283
X4.7953Y-4.0906
X4.8661Y-4.0906
X4.9764Y-3.2717
X5.0079Y-5.563
X5.0551Y-4.4646
X5.0709Y-3.3661
X5.0827Y-4.3976
X5.114Y-4.4333
X5.1142Y-4.5118
X5.2087Y-3.1457
X5.2087Y-3.189
X5.2087Y-3.2244
X5.2441Y-3.1457
X5.2441Y-3.185
X5.2441Y-3.2244
X5.2795Y-3.1457
X5.2795Y-3.185
X5.2795Y-3.2244
X5.3386Y-5.3858
X5.3622Y-4.0748
X5.4016Y-5.3819
X5.4646Y-5.4606
X5.4803Y-5.5472
X5.5039Y-3.3031
X5.5197Y-4.0787
X5.563Y-2.2402
X5.622Y-3.2244
X5.6299Y-4.2717
X5.6457Y-2.3228
X5.6535Y-2.4213
X5.6535Y-4.3465
X5.6614Y-3.2244
X5.689Y-4.2126
X5.7087Y-4.3465
X5.7638Y-3.3622
X5.7638Y-3.3937
X5.7638Y-3.4252
X5.8307Y-4.0039
X5.8667Y-5.2087
X5.874Y-3.9449
X5.878Y-4.3307
X5.8898Y-4.0157
X5.8976Y-4.6693
X5.9409Y-3.9488
X5.9606Y-4.6024
X6.0157Y-3.8504
X6.2402Y-3.2362
X6.2717Y-4.2008
X6.2913Y-3.8268
X6.2953Y-3.6378
X6.2953Y-3.9528
X6.2953Y-4.1102
X6.3228Y-4.5472
X6.3268Y-3.9252
X6.3307Y-4.1417
X6.3346Y-3.4134
X6.3583Y-3.0748
X6.3583Y-3.3071
X6.378Y-3.4882
X6.378Y-3.5394
X6.3976Y-4.5551
X6.4311Y-3.4115
X6.437Y-3.2677
X6.4606Y-3.8425
X6.4685Y-3.9016
X6.4724Y-4.063
X6.4785Y-3.5963
X6.4882Y-3.1535
X6.4921Y-3.4113
X6.5079Y-3.2638
X6.5197Y-3.5591
X6.5197Y-3.9488
X6.5394Y-3.3504
X6.5443Y-3.4635
X6.5512Y-3.3071
X6.5709Y-3.7913
X6.5827Y-3.6496
X6.5827Y-3.8504
X6.6102Y-2.7717
X6.6102Y-2.8425
X6.622Y-3.8543
X6.626Y-4.2992
X6.6299Y-3.6535
X6.6654Y-3.8189
X6.6718Y-3.5118
X6.6772Y-3.4567
X6.6772Y-3.7441
X6.6772Y-3.7835
X6.7008Y-3.7008
X6.7047Y-3.5315
X6.7047Y-3.8661
X6.7283Y-4.1614
X6.748Y-3.8661
X6.752Y-4.0787
X6.7598Y-3.5315
X6.7717Y-3.7008
X6.7963Y-4.0451
X6.815Y-3.9331
X6.8465Y-3.6181
X6.8976Y-2.7598
X6.9094Y-2.2795
X6.9252Y-4.0748
X6.937Y-3.7598
X6.9563Y-3.6409
X6.9606Y-3.8661
X6.9778Y-3.6791
X7.0Y-4.0
X7.0197Y-2.2795
X7.1339Y-4.3031
X7.1693Y-4.1732
X7.1693Y-4.2402
X7.2362Y-3.6772
X7.2636Y-3.7487
X7.2795Y-3.6535
X7.3661Y-3.0276
X7.4331Y-3.0433
T2
X4.186Y-5.622
X4.2648Y-5.622
X4.3435Y-5.622
X4.4222Y-5.622
X4.6535Y-5.622
X4.7323Y-5.622
X4.811Y-5.622
X4.8898Y-5.622
X5.1211Y-5.622
X5.1998Y-5.622
X5.2785Y-5.622
X5.3573Y-5.622
T4
X5.5982Y-5.3268
X5.8982Y-5.3268
X6.0157Y-4.826
X6.0157Y-5.126
X6.0461Y-5.3268
X6.1157Y-4.826
X6.1157Y-5.126
X6.1486Y-3.628
X6.1486Y-3.8201
X6.2157Y-4.826
X6.2157Y-5.126
X6.3157Y-4.826
X6.3157Y-5.126
X6.3461Y-5.3268
X6.4157Y-4.826
X6.4157Y-5.126
X6.4939Y-5.3268
X6.5157Y-4.826
X6.5157Y-5.126
X6.6157Y-4.826
X6.6157Y-5.126
X6.7939Y-5.3268
T5
X3.8533Y-3.0077
X3.8533Y-3.1077
X3.8533Y-3.2077
X3.8533Y-3.988
X3.8533Y-4.088
X3.8533Y-4.188
X3.8533Y-4.9683
X3.8533Y-5.0683
X3.8533Y-5.1683
X4.1368Y-1.9744
X4.247Y-3.1083
X4.247Y-4.0886
X4.247Y-5.0689
X4.3927Y-1.9744
X4.6486Y-1.9744
X4.7598Y-5.0953
X4.7598Y-5.1953
X4.7598Y-5.2953
X4.9045Y-1.9744
X4.9449Y-5.0953
X4.9449Y-5.1953
X4.9449Y-5.2953
X5.1273Y-5.0953
X5.1273Y-5.1953
X5.1273Y-5.2953
X5.311Y-5.0953
X5.311Y-5.1953
X5.311Y-5.2953
X5.6476Y-5.5079
X5.7476Y-5.5079
X5.8476Y-5.5079
X5.8504Y-3.7323
X6.0955Y-5.5079
X6.1955Y-5.5079
X6.2955Y-5.5079
X6.3606Y-2.8079
X6.3606Y-2.9079
X6.3606Y-3.0079
X6.4606Y-2.8079
X6.4606Y-2.9079
X6.4606Y-3.0079
X6.5197Y-4.5512
X6.5433Y-5.5079
X6.6433Y-5.5079
X6.7433Y-5.5079
X6.8504Y-4.2992
X6.8583Y-4.748
X6.8583Y-5.1969
X6.9921Y-4.2047
X6.9921Y-4.5512
X6.9921Y-4.8937
X7.0193Y-3.2638
X7.1193Y-3.2638
X7.2193Y-3.2638
X7.2392Y-4.0039
X7.2392Y-4.1039
X7.2392Y-4.2039
X7.2392Y-4.3039
X7.2392Y-4.4504
X7.2392Y-4.5504
X7.2392Y-4.6504
X7.2392Y-4.7504
X7.2392Y-4.8969
X7.2392Y-4.9969
X7.2392Y-5.0969
X7.2392Y-5.1969
X7.2701Y-2.5063
X7.2701Y-2.6063
X7.2701Y-2.7063
X7.3193Y-3.2638
X7.3701Y-2.5063
X7.3701Y-2.6063
X7.3701Y-2.7063
X7.4193Y-3.2638
T6
X6.624Y-3.065
X6.624Y-3.2421
X6.8799Y-3.065
X6.8799Y-3.2421
T7
X3.9355Y-2.753
X3.9355Y-3.7333
X3.9355Y-4.7136
X4.3095Y-2.503
X4.3095Y-3.4833
X4.3095Y-4.4636
X5.8841Y-2.1929
X6.1341Y-2.5669
X6.5866Y-2.1929
X6.8366Y-2.5669
T8
X5.2246Y-4.1711
X5.2246Y-4.4291
X5.2246Y-4.6011
X5.4056Y-4.1711
X5.4056Y-4.4291
X5.4056Y-4.6011
X5.5866Y-4.1711
X5.5866Y-4.4291
X5.5866Y-4.6011
T3
G00X5.1402Y-2.8419
M15
G01X5.1402Y-2.8719
M16
G05
G00X5.1402Y-2.9919
M15
G01X5.1402Y-3.0219
M16
G05
G00X5.2402Y-2.3569
M15
G01X5.2102Y-2.3569
M16
G05
G00X5.3252Y-2.8419
M15
G01X5.3252Y-2.8719
M16
G05
G00X5.3252Y-2.9919
M15
G01X5.3252Y-3.0219
M16
G05
G00X5.4402Y-2.3569
M15
G01X5.4102Y-2.3569
M16
G05
G00X5.5102Y-2.8419
M15
G01X5.5102Y-2.8719
M16
G05
G00X5.5102Y-2.9919
M15
G01X5.5102Y-3.0219
M16
G05
M30
