%TF.GenerationSoftware,KiCad,Pcbnew,8.0.0*%
%TF.CreationDate,2024-04-09T16:31:16-05:00*%
%TF.ProjectId,MainBoardv2,4d61696e-426f-4617-9264-76322e6b6963,rev?*%
%TF.SameCoordinates,Original*%
%TF.FileFunction,Copper,L1,Top*%
%TF.FilePolarity,Positive*%
%FSLAX46Y46*%
G04 Gerber Fmt 4.6, Leading zero omitted, Abs format (unit mm)*
G04 Created by KiCad (PCBNEW 8.0.0) date 2024-04-09 16:31:16*
%MOMM*%
%LPD*%
G01*
G04 APERTURE LIST*
G04 Aperture macros list*
%AMRoundRect*
0 Rectangle with rounded corners*
0 $1 Rounding radius*
0 $2 $3 $4 $5 $6 $7 $8 $9 X,Y pos of 4 corners*
0 Add a 4 corners polygon primitive as box body*
4,1,4,$2,$3,$4,$5,$6,$7,$8,$9,$2,$3,0*
0 Add four circle primitives for the rounded corners*
1,1,$1+$1,$2,$3*
1,1,$1+$1,$4,$5*
1,1,$1+$1,$6,$7*
1,1,$1+$1,$8,$9*
0 Add four rect primitives between the rounded corners*
20,1,$1+$1,$2,$3,$4,$5,0*
20,1,$1+$1,$4,$5,$6,$7,0*
20,1,$1+$1,$6,$7,$8,$9,0*
20,1,$1+$1,$8,$9,$2,$3,0*%
%AMFreePoly0*
4,1,6,1.000000,0.000000,0.500000,-0.750000,-0.500000,-0.750000,-0.500000,0.750000,0.500000,0.750000,1.000000,0.000000,1.000000,0.000000,$1*%
%AMFreePoly1*
4,1,6,0.500000,-0.750000,-0.650000,-0.750000,-0.150000,0.000000,-0.650000,0.750000,0.500000,0.750000,0.500000,-0.750000,0.500000,-0.750000,$1*%
%AMFreePoly2*
4,1,23,1.050001,-0.200000,0.225001,-0.200000,0.225001,-0.699998,0.175001,-0.749998,0.025001,-0.749998,-0.024999,-0.699998,-0.024999,-0.200000,-0.274998,-0.200000,-0.274998,-0.699998,-0.324998,-0.749998,-0.474998,-0.749998,-0.524998,-0.699998,-0.524998,-0.200000,-0.775000,-0.200000,-0.775000,-0.699998,-0.825000,-0.749998,-0.975000,-0.749998,-1.025000,-0.699998,-1.025000,-0.200000,-1.050000,-0.200000,
-1.050000,0.199999,1.050001,0.199999,1.050001,-0.200000,1.050001,-0.200000,$1*%
G04 Aperture macros list end*
%TA.AperFunction,ComponentPad*%
%ADD10C,2.000000*%
%TD*%
%TA.AperFunction,SMDPad,CuDef*%
%ADD11RoundRect,0.200000X-0.275000X0.200000X-0.275000X-0.200000X0.275000X-0.200000X0.275000X0.200000X0*%
%TD*%
%TA.AperFunction,ComponentPad*%
%ADD12R,1.700000X1.700000*%
%TD*%
%TA.AperFunction,ComponentPad*%
%ADD13O,1.700000X1.700000*%
%TD*%
%TA.AperFunction,SMDPad,CuDef*%
%ADD14RoundRect,0.250000X0.250000X0.475000X-0.250000X0.475000X-0.250000X-0.475000X0.250000X-0.475000X0*%
%TD*%
%TA.AperFunction,SMDPad,CuDef*%
%ADD15RoundRect,0.225000X0.225000X0.250000X-0.225000X0.250000X-0.225000X-0.250000X0.225000X-0.250000X0*%
%TD*%
%TA.AperFunction,ComponentPad*%
%ADD16R,2.628900X2.628900*%
%TD*%
%TA.AperFunction,ComponentPad*%
%ADD17C,2.628900*%
%TD*%
%TA.AperFunction,ComponentPad*%
%ADD18C,1.500000*%
%TD*%
%TA.AperFunction,SMDPad,CuDef*%
%ADD19RoundRect,0.218750X0.256250X-0.218750X0.256250X0.218750X-0.256250X0.218750X-0.256250X-0.218750X0*%
%TD*%
%TA.AperFunction,SMDPad,CuDef*%
%ADD20RoundRect,0.200000X-0.200000X-0.275000X0.200000X-0.275000X0.200000X0.275000X-0.200000X0.275000X0*%
%TD*%
%TA.AperFunction,ComponentPad*%
%ADD21RoundRect,0.250000X-0.350000X-0.625000X0.350000X-0.625000X0.350000X0.625000X-0.350000X0.625000X0*%
%TD*%
%TA.AperFunction,ComponentPad*%
%ADD22O,1.200000X1.750000*%
%TD*%
%TA.AperFunction,ComponentPad*%
%ADD23R,2.550000X2.550000*%
%TD*%
%TA.AperFunction,ComponentPad*%
%ADD24C,2.550000*%
%TD*%
%TA.AperFunction,SMDPad,CuDef*%
%ADD25RoundRect,0.225000X-0.225000X-0.250000X0.225000X-0.250000X0.225000X0.250000X-0.225000X0.250000X0*%
%TD*%
%TA.AperFunction,SMDPad,CuDef*%
%ADD26RoundRect,0.225000X0.250000X-0.225000X0.250000X0.225000X-0.250000X0.225000X-0.250000X-0.225000X0*%
%TD*%
%TA.AperFunction,SMDPad,CuDef*%
%ADD27RoundRect,0.250000X0.850000X0.350000X-0.850000X0.350000X-0.850000X-0.350000X0.850000X-0.350000X0*%
%TD*%
%TA.AperFunction,SMDPad,CuDef*%
%ADD28RoundRect,0.250000X1.275000X1.125000X-1.275000X1.125000X-1.275000X-1.125000X1.275000X-1.125000X0*%
%TD*%
%TA.AperFunction,SMDPad,CuDef*%
%ADD29RoundRect,0.249997X2.950003X2.650003X-2.950003X2.650003X-2.950003X-2.650003X2.950003X-2.650003X0*%
%TD*%
%TA.AperFunction,SMDPad,CuDef*%
%ADD30RoundRect,0.250000X-0.262500X-0.450000X0.262500X-0.450000X0.262500X0.450000X-0.262500X0.450000X0*%
%TD*%
%TA.AperFunction,SMDPad,CuDef*%
%ADD31RoundRect,0.075000X-0.662500X-0.075000X0.662500X-0.075000X0.662500X0.075000X-0.662500X0.075000X0*%
%TD*%
%TA.AperFunction,SMDPad,CuDef*%
%ADD32RoundRect,0.075000X-0.075000X-0.662500X0.075000X-0.662500X0.075000X0.662500X-0.075000X0.662500X0*%
%TD*%
%TA.AperFunction,SMDPad,CuDef*%
%ADD33RoundRect,0.250000X0.262500X0.450000X-0.262500X0.450000X-0.262500X-0.450000X0.262500X-0.450000X0*%
%TD*%
%TA.AperFunction,ComponentPad*%
%ADD34C,1.600000*%
%TD*%
%TA.AperFunction,ComponentPad*%
%ADD35O,1.600000X1.600000*%
%TD*%
%TA.AperFunction,SMDPad,CuDef*%
%ADD36FreePoly0,180.000000*%
%TD*%
%TA.AperFunction,SMDPad,CuDef*%
%ADD37FreePoly1,180.000000*%
%TD*%
%TA.AperFunction,SMDPad,CuDef*%
%ADD38RoundRect,0.225000X-0.250000X0.225000X-0.250000X-0.225000X0.250000X-0.225000X0.250000X0.225000X0*%
%TD*%
%TA.AperFunction,ComponentPad*%
%ADD39R,1.600000X2.400000*%
%TD*%
%TA.AperFunction,ComponentPad*%
%ADD40O,1.600000X2.400000*%
%TD*%
%TA.AperFunction,SMDPad,CuDef*%
%ADD41R,2.413000X5.334000*%
%TD*%
%TA.AperFunction,SMDPad,CuDef*%
%ADD42R,0.355600X1.409700*%
%TD*%
%TA.AperFunction,SMDPad,CuDef*%
%ADD43RoundRect,0.250000X-1.100000X0.325000X-1.100000X-0.325000X1.100000X-0.325000X1.100000X0.325000X0*%
%TD*%
%TA.AperFunction,SMDPad,CuDef*%
%ADD44RoundRect,0.250000X0.475000X-0.250000X0.475000X0.250000X-0.475000X0.250000X-0.475000X-0.250000X0*%
%TD*%
%TA.AperFunction,SMDPad,CuDef*%
%ADD45RoundRect,0.250000X-0.712500X-2.475000X0.712500X-2.475000X0.712500X2.475000X-0.712500X2.475000X0*%
%TD*%
%TA.AperFunction,ComponentPad*%
%ADD46O,1.778000X2.540000*%
%TD*%
%TA.AperFunction,ComponentPad*%
%ADD47O,2.286000X1.524000*%
%TD*%
%TA.AperFunction,SMDPad,CuDef*%
%ADD48RoundRect,0.250000X-0.475000X0.250000X-0.475000X-0.250000X0.475000X-0.250000X0.475000X0.250000X0*%
%TD*%
%TA.AperFunction,SMDPad,CuDef*%
%ADD49FreePoly0,0.000000*%
%TD*%
%TA.AperFunction,SMDPad,CuDef*%
%ADD50FreePoly1,0.000000*%
%TD*%
%TA.AperFunction,SMDPad,CuDef*%
%ADD51RoundRect,0.200000X0.200000X0.275000X-0.200000X0.275000X-0.200000X-0.275000X0.200000X-0.275000X0*%
%TD*%
%TA.AperFunction,SMDPad,CuDef*%
%ADD52R,0.249999X0.599999*%
%TD*%
%TA.AperFunction,SMDPad,CuDef*%
%ADD53R,0.599999X0.249999*%
%TD*%
%TA.AperFunction,SMDPad,CuDef*%
%ADD54R,1.699999X0.249999*%
%TD*%
%TA.AperFunction,SMDPad,CuDef*%
%ADD55FreePoly2,180.000000*%
%TD*%
%TA.AperFunction,SMDPad,CuDef*%
%ADD56R,2.100001X0.399999*%
%TD*%
%TA.AperFunction,SMDPad,CuDef*%
%ADD57R,1.350000X0.400000*%
%TD*%
%TA.AperFunction,SMDPad,CuDef*%
%ADD58R,1.600000X2.100000*%
%TD*%
%TA.AperFunction,SMDPad,CuDef*%
%ADD59R,1.900000X1.800000*%
%TD*%
%TA.AperFunction,SMDPad,CuDef*%
%ADD60R,1.900000X1.900000*%
%TD*%
%TA.AperFunction,ViaPad*%
%ADD61C,0.700000*%
%TD*%
%TA.AperFunction,ViaPad*%
%ADD62C,0.600000*%
%TD*%
%TA.AperFunction,Conductor*%
%ADD63C,0.300000*%
%TD*%
%TA.AperFunction,Conductor*%
%ADD64C,0.500000*%
%TD*%
%TA.AperFunction,Conductor*%
%ADD65C,0.200000*%
%TD*%
G04 APERTURE END LIST*
D10*
%TO.P,TP3,1,1*%
%TO.N,/SPI1_NSS_RasPi*%
X174000000Y-109200000D03*
%TD*%
D11*
%TO.P,R9,1*%
%TO.N,/Motors/M2_Fault_LED_Cathode*%
X115380000Y-96375000D03*
%TO.P,R9,2*%
%TO.N,GND*%
X115380000Y-98025000D03*
%TD*%
D12*
%TO.P,J9,1,Pin_1*%
%TO.N,/SPI1_MOSI*%
X183875000Y-124380000D03*
D13*
%TO.P,J9,2,Pin_2*%
%TO.N,/SPI1_MISO*%
X183875000Y-126920000D03*
%TO.P,J9,3,Pin_3*%
%TO.N,/SPI1_SCK*%
X183875000Y-129460000D03*
%TO.P,J9,4,Pin_4*%
%TO.N,/SPI1_NSS_ESP2*%
X183875000Y-132000000D03*
%TD*%
D14*
%TO.P,Cin1,1*%
%TO.N,+12V*%
X137200000Y-81000000D03*
%TO.P,Cin1,2*%
%TO.N,GND*%
X135300000Y-81000000D03*
%TD*%
D15*
%TO.P,C3,1*%
%TO.N,+3.3V*%
X161475000Y-103250000D03*
%TO.P,C3,2*%
%TO.N,GND*%
X159925000Y-103250000D03*
%TD*%
D16*
%TO.P,SW3,1,A*%
%TO.N,/TIM1_CH1*%
X132705200Y-105946800D03*
D17*
%TO.P,SW3,2,B*%
%TO.N,/PWM & Encoders & Limit Switches/M1_PWM*%
X137302600Y-105946800D03*
%TO.P,SW3,3,C*%
%TO.N,/PWM & Encoders & Limit Switches/RC_PWM1*%
X141900000Y-105946800D03*
%TO.P,SW3,4,A*%
%TO.N,/TIM1_CH2*%
X132705200Y-112500000D03*
%TO.P,SW3,5,B*%
%TO.N,/PWM & Encoders & Limit Switches/M2_PWM*%
X137302600Y-112500000D03*
%TO.P,SW3,6,C*%
%TO.N,/PWM & Encoders & Limit Switches/RC_PWM2*%
X141900000Y-112500000D03*
%TO.P,SW3,7,A*%
%TO.N,/TIM1_CH3*%
X132705200Y-116868800D03*
%TO.P,SW3,8,B*%
%TO.N,/PWM & Encoders & Limit Switches/M3_PWM*%
X137302600Y-116868800D03*
%TO.P,SW3,9,C*%
%TO.N,/PWM & Encoders & Limit Switches/RC_PWM3*%
X141900000Y-116868800D03*
%TD*%
D18*
%TO.P,Y1,1,1*%
%TO.N,/OSC_IN*%
X156175000Y-92150000D03*
%TO.P,Y1,2,2*%
%TO.N,/OSC_OUT*%
X156175000Y-97030000D03*
%TD*%
D10*
%TO.P,TP5,1,1*%
%TO.N,/SPI1_MISO*%
X177600000Y-115600000D03*
%TD*%
D11*
%TO.P,R3,1*%
%TO.N,/PWR_LED_12V_Cathode*%
X108325001Y-53905000D03*
%TO.P,R3,2*%
%TO.N,GND*%
X108325001Y-55555000D03*
%TD*%
D15*
%TO.P,C6,1*%
%TO.N,+3.3V*%
X173450000Y-101600000D03*
%TO.P,C6,2*%
%TO.N,GND*%
X171900000Y-101600000D03*
%TD*%
D19*
%TO.P,D3,1,K*%
%TO.N,/PWR_LED_12V_Cathode*%
X108325001Y-51017500D03*
%TO.P,D3,2,A*%
%TO.N,+12V*%
X108325001Y-49442500D03*
%TD*%
D20*
%TO.P,R5,1*%
%TO.N,+3.3V*%
X162550000Y-85800000D03*
%TO.P,R5,2*%
%TO.N,/NRST*%
X164200000Y-85800000D03*
%TD*%
D12*
%TO.P,J11,1,Pin_1*%
%TO.N,GND*%
X134900000Y-134500000D03*
D13*
%TO.P,J11,2,Pin_2*%
%TO.N,unconnected-(J11-Pin_2-Pad2)*%
X134900000Y-131960000D03*
%TO.P,J11,3,Pin_3*%
%TO.N,/PWM & Encoders & Limit Switches/RC_PWM1*%
X134900000Y-129420000D03*
%TD*%
D21*
%TO.P,J15,1,Pin_1*%
%TO.N,+3.3V*%
X118200000Y-142800000D03*
D22*
%TO.P,J15,2,Pin_2*%
%TO.N,GND*%
X120200000Y-142800000D03*
%TO.P,J15,3,Pin_3*%
%TO.N,/TIM3_CH1*%
X122200000Y-142800000D03*
%TO.P,J15,4,Pin_4*%
%TO.N,/TIM3_CH2*%
X124200000Y-142800000D03*
%TD*%
D12*
%TO.P,J13,1,Pin_1*%
%TO.N,GND*%
X97875000Y-106375000D03*
D13*
%TO.P,J13,2,Pin_2*%
%TO.N,+5V*%
X97875000Y-103835000D03*
%TO.P,J13,3,Pin_3*%
%TO.N,/PWM & Encoders & Limit Switches/M2_PWM*%
X97875000Y-101295000D03*
%TD*%
D12*
%TO.P,J17,1,Pin_1*%
%TO.N,GND*%
X125600000Y-134500000D03*
D13*
%TO.P,J17,2,Pin_2*%
%TO.N,unconnected-(J17-Pin_2-Pad2)*%
X125600000Y-131960000D03*
%TO.P,J17,3,Pin_3*%
%TO.N,/PWM & Encoders & Limit Switches/RC_PWM3*%
X125600000Y-129420000D03*
%TD*%
D12*
%TO.P,J3,1,Pin_1*%
%TO.N,+3.3V*%
X161560000Y-71320000D03*
D13*
%TO.P,J3,2,Pin_2*%
X164100000Y-71320000D03*
%TO.P,J3,3,Pin_3*%
%TO.N,/BOOT0*%
X161560000Y-73860000D03*
%TO.P,J3,4,Pin_4*%
%TO.N,/BOOT1*%
X164100000Y-73860000D03*
%TO.P,J3,5,Pin_5*%
%TO.N,GND*%
X161560000Y-76400000D03*
%TO.P,J3,6,Pin_6*%
X164100000Y-76400000D03*
%TD*%
D12*
%TO.P,J1,1,Pin_1*%
%TO.N,/5V_EXT*%
X184660000Y-63660000D03*
D13*
%TO.P,J1,2,Pin_2*%
%TO.N,+5V*%
X187200000Y-63660000D03*
%TO.P,J1,3,Pin_3*%
%TO.N,/5V_BUCK*%
X184660000Y-66200000D03*
%TO.P,J1,4,Pin_4*%
%TO.N,+5V*%
X187200000Y-66200000D03*
%TO.P,J1,5,Pin_5*%
%TO.N,VBUS*%
X184660000Y-68740000D03*
%TO.P,J1,6,Pin_6*%
%TO.N,+5V*%
X187200000Y-68740000D03*
%TD*%
D10*
%TO.P,TP4,1,1*%
%TO.N,/SPI1_SCK*%
X177600000Y-106800000D03*
%TD*%
D23*
%TO.P,J20,1,Pin_1*%
%TO.N,GND*%
X109462500Y-63575000D03*
D24*
%TO.P,J20,2,Pin_2*%
%TO.N,/Motors/Motor1PowerOut*%
X99962500Y-69925000D03*
%TD*%
D12*
%TO.P,J24,1,Pin_1*%
%TO.N,GND*%
X159905000Y-139900000D03*
D13*
%TO.P,J24,2,Pin_2*%
%TO.N,+5V*%
X157365000Y-139900000D03*
%TO.P,J24,3,Pin_3*%
%TO.N,/LimitSwitchOR3/LimitSwitch2*%
X154825000Y-139900000D03*
%TD*%
D21*
%TO.P,J12,1,Pin_1*%
%TO.N,+3.3V*%
X106325000Y-142800000D03*
D22*
%TO.P,J12,2,Pin_2*%
%TO.N,GND*%
X108325000Y-142800000D03*
%TO.P,J12,3,Pin_3*%
%TO.N,/TIM4_CH1*%
X110325000Y-142800000D03*
%TO.P,J12,4,Pin_4*%
%TO.N,/TIM4_CH2*%
X112325000Y-142800000D03*
%TD*%
D25*
%TO.P,C8,1*%
%TO.N,+3.3V*%
X175125000Y-101600000D03*
%TO.P,C8,2*%
%TO.N,GND*%
X176675000Y-101600000D03*
%TD*%
D26*
%TO.P,C4,1*%
%TO.N,+3.3V*%
X163175000Y-92125000D03*
%TO.P,C4,2*%
%TO.N,GND*%
X163175000Y-90575000D03*
%TD*%
D12*
%TO.P,J19,1,Pin_1*%
%TO.N,GND*%
X120900000Y-134500000D03*
D13*
%TO.P,J19,2,Pin_2*%
%TO.N,+5V*%
X120900000Y-131960000D03*
%TO.P,J19,3,Pin_3*%
%TO.N,unconnected-(J19-Pin_3-Pad3)*%
X120900000Y-129420000D03*
%TD*%
D27*
%TO.P,U1,1,GND*%
%TO.N,GND*%
X186600000Y-78060000D03*
D28*
%TO.P,U1,2,VO*%
%TO.N,/REG_OUT*%
X181975000Y-77305000D03*
X181975000Y-74255000D03*
D29*
X180300000Y-75780000D03*
D28*
X178625000Y-77305000D03*
X178625000Y-74255000D03*
D27*
%TO.P,U1,3,VI*%
%TO.N,+5V*%
X186600000Y-73500000D03*
%TD*%
D30*
%TO.P,Rpg1,1*%
%TO.N,/PG*%
X147887500Y-84750000D03*
%TO.P,Rpg1,2*%
%TO.N,/5V_BUCK_JumperIN*%
X149712500Y-84750000D03*
%TD*%
D10*
%TO.P,TP13,1,1*%
%TO.N,/PWM & Encoders & Limit Switches/M1_PWM*%
X107875000Y-78950000D03*
%TD*%
D31*
%TO.P,U2,1,VBAT*%
%TO.N,+3.3V*%
X165350000Y-92600000D03*
%TO.P,U2,2,PC13*%
%TO.N,unconnected-(U2-PC13-Pad2)*%
X165350000Y-93100000D03*
%TO.P,U2,3,PC14*%
%TO.N,unconnected-(U2-PC14-Pad3)*%
X165350000Y-93600000D03*
%TO.P,U2,4,PC15*%
%TO.N,unconnected-(U2-PC15-Pad4)*%
X165350000Y-94100000D03*
%TO.P,U2,5,PD0*%
%TO.N,/OSC_IN*%
X165350000Y-94600000D03*
%TO.P,U2,6,PD1*%
%TO.N,/OSC_OUT*%
X165350000Y-95100000D03*
%TO.P,U2,7,NRST*%
%TO.N,/NRST*%
X165350000Y-95600000D03*
%TO.P,U2,8,VSSA*%
%TO.N,GND*%
X165350000Y-96100000D03*
%TO.P,U2,9,VDDA*%
%TO.N,+3.3VA*%
X165350000Y-96600000D03*
%TO.P,U2,10,PA0*%
%TO.N,/TIM2_CH1*%
X165350000Y-97100000D03*
%TO.P,U2,11,PA1*%
%TO.N,/TIM2_CH2*%
X165350000Y-97600000D03*
%TO.P,U2,12,PA2*%
%TO.N,/SPI1_NSS_RasPi*%
X165350000Y-98100000D03*
D32*
%TO.P,U2,13,PA3*%
%TO.N,/SPI1_NSS_ESP2*%
X166762500Y-99512500D03*
%TO.P,U2,14,PA4*%
%TO.N,/SPI1_NSS_ESP1*%
X167262500Y-99512500D03*
%TO.P,U2,15,PA5*%
%TO.N,/SPI1_SCK*%
X167762500Y-99512500D03*
%TO.P,U2,16,PA6*%
%TO.N,/SPI1_MISO*%
X168262500Y-99512500D03*
%TO.P,U2,17,PA7*%
%TO.N,/SPI1_MOSI*%
X168762500Y-99512500D03*
%TO.P,U2,18,PB0*%
%TO.N,unconnected-(U2-PB0-Pad18)*%
X169262500Y-99512500D03*
%TO.P,U2,19,PB1*%
%TO.N,unconnected-(U2-PB1-Pad19)*%
X169762500Y-99512500D03*
%TO.P,U2,20,PB2*%
%TO.N,/BOOT1*%
X170262500Y-99512500D03*
%TO.P,U2,21,PB10*%
%TO.N,unconnected-(U2-PB10-Pad21)*%
X170762500Y-99512500D03*
%TO.P,U2,22,PB11*%
%TO.N,unconnected-(U2-PB11-Pad22)*%
X171262500Y-99512500D03*
%TO.P,U2,23,VSS*%
%TO.N,GND*%
X171762500Y-99512500D03*
%TO.P,U2,24,VDD*%
%TO.N,+3.3V*%
X172262500Y-99512500D03*
D31*
%TO.P,U2,25,PB12*%
%TO.N,unconnected-(U2-PB12-Pad25)*%
X173675000Y-98100000D03*
%TO.P,U2,26,PB13*%
%TO.N,unconnected-(U2-PB13-Pad26)*%
X173675000Y-97600000D03*
%TO.P,U2,27,PB14*%
%TO.N,unconnected-(U2-PB14-Pad27)*%
X173675000Y-97100000D03*
%TO.P,U2,28,PB15*%
%TO.N,unconnected-(U2-PB15-Pad28)*%
X173675000Y-96600000D03*
%TO.P,U2,29,PA8*%
%TO.N,/TIM1_CH1*%
X173675000Y-96100000D03*
%TO.P,U2,30,PA9*%
%TO.N,/TIM1_CH2*%
X173675000Y-95600000D03*
%TO.P,U2,31,PA10*%
%TO.N,/TIM1_CH3*%
X173675000Y-95100000D03*
%TO.P,U2,32,PA11*%
%TO.N,/USB_D-*%
X173675000Y-94600000D03*
%TO.P,U2,33,PA12*%
%TO.N,/USB_D+*%
X173675000Y-94100000D03*
%TO.P,U2,34,PA13*%
%TO.N,/SWDIO*%
X173675000Y-93600000D03*
%TO.P,U2,35,VSS*%
%TO.N,GND*%
X173675000Y-93100000D03*
%TO.P,U2,36,VDD*%
%TO.N,+3.3V*%
X173675000Y-92600000D03*
D32*
%TO.P,U2,37,PA14*%
%TO.N,/SWCLK*%
X172262500Y-91187500D03*
%TO.P,U2,38,PA15*%
%TO.N,unconnected-(U2-PA15-Pad38)*%
X171762500Y-91187500D03*
%TO.P,U2,39,PB3*%
%TO.N,unconnected-(U2-PB3-Pad39)*%
X171262500Y-91187500D03*
%TO.P,U2,40,PB4*%
%TO.N,/TIM3_CH1*%
X170762500Y-91187500D03*
%TO.P,U2,41,PB5*%
%TO.N,/TIM3_CH2*%
X170262500Y-91187500D03*
%TO.P,U2,42,PB6*%
%TO.N,/TIM4_CH1*%
X169762500Y-91187500D03*
%TO.P,U2,43,PB7*%
%TO.N,/TIM4_CH2*%
X169262500Y-91187500D03*
%TO.P,U2,44,BOOT0*%
%TO.N,/BOOT0*%
X168762500Y-91187500D03*
%TO.P,U2,45,PB8*%
%TO.N,unconnected-(U2-PB8-Pad45)*%
X168262500Y-91187500D03*
%TO.P,U2,46,PB9*%
%TO.N,/OR3*%
X167762500Y-91187500D03*
%TO.P,U2,47,VSS*%
%TO.N,GND*%
X167262500Y-91187500D03*
%TO.P,U2,48,VDD*%
%TO.N,+3.3V*%
X166762500Y-91187500D03*
%TD*%
D12*
%TO.P,J23,1,Pin_1*%
%TO.N,GND*%
X148530000Y-139900000D03*
D13*
%TO.P,J23,2,Pin_2*%
%TO.N,+5V*%
X145990000Y-139900000D03*
%TO.P,J23,3,Pin_3*%
%TO.N,/LimitSwitchOR3/LimitSwitch1*%
X143450000Y-139900000D03*
%TD*%
D15*
%TO.P,C2,1*%
%TO.N,+3.3VA*%
X161475000Y-101500000D03*
%TO.P,C2,2*%
%TO.N,GND*%
X159925000Y-101500000D03*
%TD*%
D10*
%TO.P,TP9,1,1*%
%TO.N,/SPI1_NSS_ESP1*%
X174200000Y-120600000D03*
%TD*%
D11*
%TO.P,R2,1*%
%TO.N,/PWR_LED_5V_Cathode*%
X114825000Y-53942500D03*
%TO.P,R2,2*%
%TO.N,GND*%
X114825000Y-55592500D03*
%TD*%
D33*
%TO.P,Rfbb1,1*%
%TO.N,GND*%
X145162500Y-86250000D03*
%TO.P,Rfbb1,2*%
%TO.N,/FB*%
X143337500Y-86250000D03*
%TD*%
D12*
%TO.P,J10,1,Pin_1*%
%TO.N,GND*%
X97875000Y-81475000D03*
D13*
%TO.P,J10,2,Pin_2*%
%TO.N,+5V*%
X97875000Y-78935000D03*
%TO.P,J10,3,Pin_3*%
%TO.N,/PWM & Encoders & Limit Switches/M1_PWM*%
X97875000Y-76395000D03*
%TD*%
D34*
%TO.P,R13,1*%
%TO.N,+5V*%
X172565000Y-135300000D03*
D35*
%TO.P,R13,2*%
%TO.N,/LimitSwitchOR3/LimitSwitch3*%
X164945000Y-135300000D03*
%TD*%
D19*
%TO.P,D4,1,K*%
%TO.N,/Motors/M1_Fault_LED_Cathode*%
X115400000Y-69387500D03*
%TO.P,D4,2,A*%
%TO.N,/Motors/Motor1PowerOut*%
X115400000Y-67812500D03*
%TD*%
%TO.P,D5,1,K*%
%TO.N,/Motors/M2_Fault_LED_Cathode*%
X115420000Y-94187500D03*
%TO.P,D5,2,A*%
%TO.N,/Motors/Motor2PowerOut*%
X115420000Y-92612500D03*
%TD*%
D36*
%TO.P,JP2,1,A*%
%TO.N,/REG_OUT*%
X172825000Y-72400000D03*
D37*
%TO.P,JP2,2,B*%
%TO.N,+3.3V*%
X171375000Y-72400000D03*
%TD*%
D10*
%TO.P,TP11,1,1*%
%TO.N,/PWM & Encoders & Limit Switches/M3_PWM*%
X107875000Y-128750000D03*
%TD*%
D38*
%TO.P,C5,1*%
%TO.N,+3.3V*%
X175675000Y-91625000D03*
%TO.P,C5,2*%
%TO.N,GND*%
X175675000Y-93175000D03*
%TD*%
%TO.P,C13,1*%
%TO.N,GND*%
X161000000Y-92375000D03*
%TO.P,C13,2*%
%TO.N,/OSC_IN*%
X161000000Y-93925000D03*
%TD*%
D12*
%TO.P,J8,1,Pin_1*%
%TO.N,/SPI1_MOSI*%
X183875000Y-113040000D03*
D13*
%TO.P,J8,2,Pin_2*%
%TO.N,/SPI1_MISO*%
X183875000Y-115580000D03*
%TO.P,J8,3,Pin_3*%
%TO.N,/SPI1_SCK*%
X183875000Y-118120000D03*
%TO.P,J8,4,Pin_4*%
%TO.N,/SPI1_NSS_ESP1*%
X183875000Y-120660000D03*
%TD*%
D10*
%TO.P,TP15,1,1*%
%TO.N,/5V_BUCK_JumperIN*%
X148600000Y-94800000D03*
%TD*%
D34*
%TO.P,R11,1*%
%TO.N,+5V*%
X149815000Y-135300000D03*
D35*
%TO.P,R11,2*%
%TO.N,/LimitSwitchOR3/LimitSwitch1*%
X142195000Y-135300000D03*
%TD*%
D39*
%TO.P,U4,1,1A*%
%TO.N,/LimitSwitchOR3/LimitSwitch1*%
X152800000Y-130200000D03*
D40*
%TO.P,U4,2,1B*%
X155340000Y-130200000D03*
%TO.P,U4,3,1Y*%
%TO.N,/LimitSwitchOR3/LimitSwitchOUT1*%
X157880000Y-130200000D03*
%TO.P,U4,4,2A*%
%TO.N,/LimitSwitchOR3/LimitSwitch2*%
X160420000Y-130200000D03*
%TO.P,U4,5,2B*%
X162960000Y-130200000D03*
%TO.P,U4,6,2Y*%
%TO.N,/LimitSwitchOR3/LimitSwitchOUT2*%
X165500000Y-130200000D03*
%TO.P,U4,7,GND*%
%TO.N,GND*%
X168040000Y-130200000D03*
%TO.P,U4,8,3Y*%
%TO.N,/LimitSwitchOR3/LimitSwitchOUT3*%
X168040000Y-122580000D03*
%TO.P,U4,9,3A*%
%TO.N,/LimitSwitchOR3/LimitSwitch3*%
X165500000Y-122580000D03*
%TO.P,U4,10,3B*%
X162960000Y-122580000D03*
%TO.P,U4,11,4Y*%
%TO.N,unconnected-(U4-4Y-Pad11)*%
X160420000Y-122580000D03*
%TO.P,U4,12,4A*%
%TO.N,unconnected-(U4-4A-Pad12)*%
X157880000Y-122580000D03*
%TO.P,U4,13,4B*%
%TO.N,unconnected-(U4-4B-Pad13)*%
X155340000Y-122580000D03*
%TO.P,U4,14,VCC*%
%TO.N,+5V*%
X152800000Y-122580000D03*
%TD*%
D10*
%TO.P,SW1,1,1*%
%TO.N,GND*%
X168250000Y-77850000D03*
X174750000Y-77850000D03*
%TO.P,SW1,2,2*%
%TO.N,/NRST*%
X168250000Y-82350000D03*
X174750000Y-82350000D03*
%TD*%
%TO.P,TP12,1,1*%
%TO.N,/PWM & Encoders & Limit Switches/M2_PWM*%
X107875000Y-103850000D03*
%TD*%
D41*
%TO.P,L1,1,1*%
%TO.N,/SW*%
X149630500Y-77000000D03*
%TO.P,L1,2,2*%
%TO.N,/5V_BUCK_JumperIN*%
X156869500Y-77000000D03*
%TD*%
D26*
%TO.P,C12,1*%
%TO.N,GND*%
X161000000Y-97175000D03*
%TO.P,C12,2*%
%TO.N,/OSC_OUT*%
X161000000Y-95625000D03*
%TD*%
D10*
%TO.P,TP7,1,1*%
%TO.N,GND*%
X105075002Y-50150000D03*
%TD*%
D12*
%TO.P,J25,1,Pin_1*%
%TO.N,GND*%
X171280000Y-139900000D03*
D13*
%TO.P,J25,2,Pin_2*%
%TO.N,+5V*%
X168740000Y-139900000D03*
%TO.P,J25,3,Pin_3*%
%TO.N,/LimitSwitchOR3/LimitSwitch3*%
X166200000Y-139900000D03*
%TD*%
D10*
%TO.P,TP1,1,1*%
%TO.N,+5V*%
X118075001Y-50150000D03*
%TD*%
D42*
%TO.P,U5,1,2A*%
%TO.N,+5V*%
X156650070Y-117000000D03*
%TO.P,U5,2,2B*%
X157300056Y-117000000D03*
%TO.P,U5,3,1A*%
%TO.N,/LimitSwitchOR3/LimitSwitchOUT1*%
X157950042Y-117000000D03*
%TO.P,U5,4,1B*%
%TO.N,/LimitSwitchOR3/LimitSwitchOUT2*%
X158600028Y-117000000D03*
%TO.P,U5,5,1C*%
%TO.N,/LimitSwitchOR3/LimitSwitchOUT3*%
X159250014Y-117000000D03*
%TO.P,U5,6,1Y*%
%TO.N,/OR3*%
X159900000Y-117000000D03*
%TO.P,U5,7,GND*%
%TO.N,GND*%
X160549986Y-117000000D03*
%TO.P,U5,8,2C*%
%TO.N,+5V*%
X160549986Y-111094500D03*
%TO.P,U5,9,2Y*%
%TO.N,unconnected-(U5-2Y-Pad9)*%
X159900000Y-111094500D03*
%TO.P,U5,10,3Y*%
%TO.N,unconnected-(U5-3Y-Pad10)*%
X159250014Y-111094500D03*
%TO.P,U5,11,3A*%
%TO.N,+5V*%
X158600028Y-111094500D03*
%TO.P,U5,12,3B*%
X157950042Y-111094500D03*
%TO.P,U5,13,3C*%
X157300056Y-111094500D03*
%TO.P,U5,14,VCC*%
X156650070Y-111094500D03*
%TD*%
D12*
%TO.P,J4,1,Pin_1*%
%TO.N,+3.3V*%
X188450000Y-82900000D03*
D13*
%TO.P,J4,2,Pin_2*%
%TO.N,/SWDIO*%
X185910000Y-82900000D03*
%TO.P,J4,3,Pin_3*%
%TO.N,/SWCLK*%
X183370000Y-82900000D03*
%TO.P,J4,4,Pin_4*%
%TO.N,/NRST*%
X180830000Y-82900000D03*
%TO.P,J4,5,Pin_5*%
%TO.N,GND*%
X178290000Y-82900000D03*
%TD*%
D19*
%TO.P,D6,1,K*%
%TO.N,/Motors/M3_Fault_LED_Cathode*%
X115420000Y-119187500D03*
%TO.P,D6,2,A*%
%TO.N,/Motors/Motor3PowerOut*%
X115420000Y-117612500D03*
%TD*%
D43*
%TO.P,Cout1,1*%
%TO.N,/5V_BUCK_JumperIN*%
X160500000Y-79275000D03*
%TO.P,Cout1,2*%
%TO.N,GND*%
X160500000Y-82225000D03*
%TD*%
D23*
%TO.P,J7,1,Pin_1*%
%TO.N,GND*%
X173650000Y-65200000D03*
D24*
%TO.P,J7,2,Pin_2*%
%TO.N,/5V_EXT*%
X167300000Y-55700000D03*
%TD*%
D11*
%TO.P,R1,1*%
%TO.N,/PWR_LED_3V3_Cathode*%
X121250000Y-53925000D03*
%TO.P,R1,2*%
%TO.N,GND*%
X121250000Y-55575000D03*
%TD*%
D34*
%TO.P,R12,1*%
%TO.N,+5V*%
X161190000Y-135300000D03*
D35*
%TO.P,R12,2*%
%TO.N,/LimitSwitchOR3/LimitSwitch2*%
X153570000Y-135300000D03*
%TD*%
D23*
%TO.P,J5,1,Pin_1*%
%TO.N,GND*%
X155805000Y-65200000D03*
D24*
%TO.P,J5,2,Pin_2*%
%TO.N,/12VPowerInput*%
X149455000Y-55700000D03*
%TD*%
D44*
%TO.P,Cboot1,1*%
%TO.N,/BOOT*%
X146500000Y-79350000D03*
%TO.P,Cboot1,2*%
%TO.N,/SW*%
X146500000Y-77450000D03*
%TD*%
D23*
%TO.P,J21,1,Pin_1*%
%TO.N,GND*%
X109462500Y-88475000D03*
D24*
%TO.P,J21,2,Pin_2*%
%TO.N,/Motors/Motor2PowerOut*%
X99962500Y-94825000D03*
%TD*%
D12*
%TO.P,J16,1,Pin_1*%
%TO.N,GND*%
X97875000Y-131275000D03*
D13*
%TO.P,J16,2,Pin_2*%
%TO.N,+5V*%
X97875000Y-128735000D03*
%TO.P,J16,3,Pin_3*%
%TO.N,/PWM & Encoders & Limit Switches/M3_PWM*%
X97875000Y-126195000D03*
%TD*%
D10*
%TO.P,TP2,1,1*%
%TO.N,+3.3V*%
X124575002Y-50150000D03*
%TD*%
D45*
%TO.P,F3,1*%
%TO.N,/Motors/Motor3PowerOut*%
X115862500Y-112530000D03*
%TO.P,F3,2*%
%TO.N,+12V*%
X122637500Y-112530000D03*
%TD*%
D38*
%TO.P,C14,1*%
%TO.N,+5V*%
X162500028Y-113172250D03*
%TO.P,C14,2*%
%TO.N,GND*%
X162500028Y-114722250D03*
%TD*%
D12*
%TO.P,J6,1,Pin_1*%
%TO.N,/SPI1_MOSI*%
X183875000Y-101700000D03*
D13*
%TO.P,J6,2,Pin_2*%
%TO.N,/SPI1_MISO*%
X183875000Y-104240000D03*
%TO.P,J6,3,Pin_3*%
%TO.N,/SPI1_SCK*%
X183875000Y-106780000D03*
%TO.P,J6,4,Pin_4*%
%TO.N,/SPI1_NSS_RasPi*%
X183875000Y-109320000D03*
%TD*%
D11*
%TO.P,R4,1*%
%TO.N,+3.3V*%
X178500000Y-92075000D03*
%TO.P,R4,2*%
%TO.N,/USB_D+*%
X178500000Y-93725000D03*
%TD*%
D21*
%TO.P,J18,1,Pin_1*%
%TO.N,+3.3V*%
X130075000Y-142800000D03*
D22*
%TO.P,J18,2,Pin_2*%
%TO.N,GND*%
X132075000Y-142800000D03*
%TO.P,J18,3,Pin_3*%
%TO.N,/TIM2_CH1*%
X134075000Y-142800000D03*
%TO.P,J18,4,Pin_4*%
%TO.N,/TIM2_CH2*%
X136075000Y-142800000D03*
%TD*%
D46*
%TO.P,SW2,1,A*%
%TO.N,/12VPowerInput*%
X139959000Y-76375000D03*
%TO.P,SW2,2,B*%
%TO.N,+12V*%
X135260000Y-76375000D03*
%TO.P,SW2,3,C*%
%TO.N,/PowerSwitchOff*%
X130561000Y-76375000D03*
%TO.P,SW2,4,A*%
%TO.N,/12VPowerInput*%
X139959000Y-72565000D03*
%TO.P,SW2,5,B*%
%TO.N,+12V*%
X135260000Y-72565000D03*
%TO.P,SW2,6,C*%
%TO.N,/PowerSwitchOff*%
X130561000Y-72565000D03*
D47*
%TO.P,SW2,7*%
%TO.N,N/C*%
X137800000Y-59865000D03*
%TO.P,SW2,8*%
X132720000Y-59865000D03*
%TD*%
D48*
%TO.P,Cinx1,1*%
%TO.N,+12V*%
X139750000Y-80800000D03*
%TO.P,Cinx1,2*%
%TO.N,GND*%
X139750000Y-82700000D03*
%TD*%
D19*
%TO.P,D2,1,K*%
%TO.N,/PWR_LED_5V_Cathode*%
X114825000Y-51017500D03*
%TO.P,D2,2,A*%
%TO.N,+5V*%
X114825000Y-49442500D03*
%TD*%
D10*
%TO.P,TP14,1,1*%
%TO.N,/OR3*%
X165600000Y-115600000D03*
%TD*%
D49*
%TO.P,JP1,1,A*%
%TO.N,/5V_BUCK_JumperIN*%
X153400000Y-84700000D03*
D50*
%TO.P,JP1,2,B*%
%TO.N,/5V_BUCK*%
X154850000Y-84700000D03*
%TD*%
D10*
%TO.P,TP8,1,1*%
%TO.N,+12V*%
X111575001Y-50150000D03*
%TD*%
D14*
%TO.P,Cff1,1*%
%TO.N,/Cff_Rff*%
X145200000Y-89500000D03*
%TO.P,Cff1,2*%
%TO.N,/FB*%
X143300000Y-89500000D03*
%TD*%
D38*
%TO.P,C9,1*%
%TO.N,+5V*%
X188800000Y-74725000D03*
%TO.P,C9,2*%
%TO.N,GND*%
X188800000Y-76275000D03*
%TD*%
D10*
%TO.P,TP10,1,1*%
%TO.N,/SPI1_NSS_ESP2*%
X174200000Y-132000000D03*
%TD*%
D23*
%TO.P,J22,1,Pin_1*%
%TO.N,GND*%
X109462500Y-113375000D03*
D24*
%TO.P,J22,2,Pin_2*%
%TO.N,/Motors/Motor3PowerOut*%
X99962500Y-119725000D03*
%TD*%
D45*
%TO.P,F2,1*%
%TO.N,/Motors/Motor2PowerOut*%
X115862500Y-87630000D03*
%TO.P,F2,2*%
%TO.N,+12V*%
X122637500Y-87630000D03*
%TD*%
D11*
%TO.P,R7,1*%
%TO.N,/BOOT1*%
X170250000Y-101975000D03*
%TO.P,R7,2*%
%TO.N,GND*%
X170250000Y-103625000D03*
%TD*%
%TO.P,R8,1*%
%TO.N,/Motors/M1_Fault_LED_Cathode*%
X115380000Y-71445000D03*
%TO.P,R8,2*%
%TO.N,GND*%
X115380000Y-73095000D03*
%TD*%
%TO.P,R10,1*%
%TO.N,/Motors/M3_Fault_LED_Cathode*%
X115380000Y-121245000D03*
%TO.P,R10,2*%
%TO.N,GND*%
X115380000Y-122895000D03*
%TD*%
D51*
%TO.P,R6,1*%
%TO.N,/BOOT0*%
X167825000Y-86200000D03*
%TO.P,R6,2*%
%TO.N,GND*%
X166175000Y-86200000D03*
%TD*%
D44*
%TO.P,C10,1*%
%TO.N,/REG_OUT*%
X175200000Y-73150000D03*
%TO.P,C10,2*%
%TO.N,GND*%
X175200000Y-71250000D03*
%TD*%
D12*
%TO.P,J14,1,Pin_1*%
%TO.N,GND*%
X130233334Y-134500000D03*
D13*
%TO.P,J14,2,Pin_2*%
%TO.N,unconnected-(J14-Pin_2-Pad2)*%
X130233334Y-131960000D03*
%TO.P,J14,3,Pin_3*%
%TO.N,/PWM & Encoders & Limit Switches/RC_PWM2*%
X130233334Y-129420000D03*
%TD*%
D15*
%TO.P,C11,1*%
%TO.N,/NRST*%
X164175000Y-87500000D03*
%TO.P,C11,2*%
%TO.N,GND*%
X162625000Y-87500000D03*
%TD*%
D52*
%TO.P,U3,1,EN*%
%TO.N,unconnected-(U3-EN-Pad1)*%
X143399998Y-83100001D03*
%TO.P,U3,2,FB*%
%TO.N,/FB*%
X143899999Y-83100001D03*
%TO.P,U3,3,AGND*%
%TO.N,GND*%
X144399999Y-83100001D03*
%TO.P,U3,4,PG*%
%TO.N,/PG*%
X144899997Y-83100001D03*
D53*
%TO.P,U3,5,NC*%
%TO.N,unconnected-(U3-NC-Pad5)*%
X145549999Y-82630002D03*
D54*
%TO.P,U3,6,SW*%
%TO.N,/SW*%
X145000000Y-81330002D03*
D53*
%TO.P,U3,7,BOOT*%
%TO.N,/BOOT*%
X145549999Y-80830000D03*
D55*
%TO.P,U3,8,VIN*%
%TO.N,+12V*%
X143500000Y-80750000D03*
D56*
%TO.P,U3,9,PGND*%
%TO.N,GND*%
X143500000Y-81910001D03*
D53*
%TO.P,U3,10,MODE*%
X142749999Y-82630002D03*
%TD*%
D30*
%TO.P,Rff1,1*%
%TO.N,/Cff_Rff*%
X147587500Y-89500000D03*
%TO.P,Rff1,2*%
%TO.N,/5V_BUCK_JumperIN*%
X149412500Y-89500000D03*
%TD*%
D19*
%TO.P,FB1,1*%
%TO.N,+3.3V*%
X163300000Y-103187500D03*
%TO.P,FB1,2*%
%TO.N,+3.3VA*%
X163300000Y-101612500D03*
%TD*%
D30*
%TO.P,Rfbt1,1*%
%TO.N,/FB*%
X143337500Y-92750000D03*
%TO.P,Rfbt1,2*%
%TO.N,/5V_BUCK_JumperIN*%
X145162500Y-92750000D03*
%TD*%
D10*
%TO.P,TP6,1,1*%
%TO.N,/SPI1_MOSI*%
X177600000Y-124300000D03*
%TD*%
D45*
%TO.P,F1,1*%
%TO.N,/Motors/Motor1PowerOut*%
X115862500Y-62730000D03*
%TO.P,F1,2*%
%TO.N,+12V*%
X122637500Y-62730000D03*
%TD*%
D25*
%TO.P,C7,1*%
%TO.N,+3.3V*%
X166225000Y-89100000D03*
%TO.P,C7,2*%
%TO.N,GND*%
X167775000Y-89100000D03*
%TD*%
D57*
%TO.P,J2,1,VBUS*%
%TO.N,VBUS*%
X186500000Y-95400000D03*
%TO.P,J2,2,D-*%
%TO.N,/USB_D-*%
X186500000Y-94750000D03*
%TO.P,J2,3,D+*%
%TO.N,/USB_D+*%
X186500000Y-94100000D03*
%TO.P,J2,4,ID*%
%TO.N,unconnected-(J2-ID-Pad4)*%
X186500000Y-93450000D03*
%TO.P,J2,5,GND*%
%TO.N,GND*%
X186500000Y-92800000D03*
D58*
%TO.P,J2,S1*%
%TO.N,N/C*%
X186625000Y-97200000D03*
%TO.P,J2,S2*%
X186625000Y-91000000D03*
D59*
%TO.P,J2,S3*%
X189175000Y-97900000D03*
D60*
%TO.P,J2,S4*%
X189175000Y-95300000D03*
%TO.P,J2,S5*%
X189175000Y-92900000D03*
D59*
%TO.P,J2,S6*%
X189175000Y-90300000D03*
%TD*%
D19*
%TO.P,D1,1,K*%
%TO.N,/PWR_LED_3V3_Cathode*%
X121305000Y-51017500D03*
%TO.P,D1,2,A*%
%TO.N,+3.3V*%
X121305000Y-49442500D03*
%TD*%
D26*
%TO.P,C1,1*%
%TO.N,+3.3VA*%
X163000000Y-97575000D03*
%TO.P,C1,2*%
%TO.N,GND*%
X163000000Y-96025000D03*
%TD*%
D61*
%TO.N,GND*%
X171400000Y-98200000D03*
X159900000Y-92400000D03*
X132300000Y-81000000D03*
X133200000Y-79900000D03*
X146400000Y-87000000D03*
X158500000Y-82200000D03*
X162000000Y-89900000D03*
X132300000Y-79900000D03*
X134100000Y-79900000D03*
X139800000Y-83900000D03*
X172626543Y-102746643D03*
D62*
X142800000Y-81900000D03*
D61*
X108300000Y-56800000D03*
D62*
X143800000Y-81900000D03*
D61*
X176688807Y-92478757D03*
X132300000Y-81900000D03*
X115400000Y-99300000D03*
X166100000Y-85100000D03*
X115300000Y-74200000D03*
X133200000Y-81900000D03*
X146400000Y-86200000D03*
X184900000Y-92800000D03*
X146400000Y-85400000D03*
X167200000Y-92700000D03*
X160600000Y-115500000D03*
X115400000Y-123900000D03*
X121300000Y-56600000D03*
X187100000Y-76900000D03*
X159800000Y-97200000D03*
X188800000Y-77300000D03*
X171500000Y-103600000D03*
X133200000Y-80900000D03*
X166900000Y-96300000D03*
X159900000Y-100400000D03*
X175200000Y-70100000D03*
X162500000Y-115700000D03*
X159900000Y-104400000D03*
X162000000Y-88600000D03*
X177800000Y-101600000D03*
X134100000Y-80900000D03*
X134100000Y-81900000D03*
X114800000Y-56600000D03*
%TO.N,+3.3V*%
X171700000Y-89700000D03*
X164555025Y-91344975D03*
X141300000Y-56900000D03*
X166225000Y-87971657D03*
X151400000Y-116900000D03*
X159300000Y-106700000D03*
X164900000Y-86646657D03*
X173100000Y-99900000D03*
X163349145Y-86650855D03*
X135600000Y-136800000D03*
X164400000Y-103200000D03*
X165600000Y-90400000D03*
X160800000Y-105200000D03*
X143400000Y-59000000D03*
X169600000Y-87800000D03*
X149800000Y-118600000D03*
X173900000Y-91900000D03*
X177235571Y-93450000D03*
%TO.N,+5V*%
X175500000Y-57900000D03*
X178300000Y-57900000D03*
X119100000Y-56300000D03*
%TO.N,/5V_BUCK*%
X167900000Y-70400000D03*
X167900000Y-72200000D03*
X163500000Y-83000000D03*
X161500000Y-84000000D03*
%TO.N,VBUS*%
X184494452Y-95216645D03*
X183800000Y-93400000D03*
%TO.N,/BOOT0*%
X166400000Y-84000000D03*
X165300000Y-82900000D03*
X164800000Y-80100000D03*
X161500000Y-78100000D03*
%TO.N,/BOOT1*%
X170300000Y-98200000D03*
%TO.N,/SPI1_NSS_RasPi*%
X168300000Y-109200000D03*
X165600000Y-100300000D03*
X181200000Y-109300000D03*
X164300000Y-99100000D03*
%TO.N,/SPI1_MISO*%
X182100000Y-107700000D03*
X182100000Y-106000000D03*
%TO.N,/PWM & Encoders & Limit Switches/M1_PWM*%
X128800000Y-85500000D03*
X126400000Y-83100000D03*
%TO.N,/TIM4_CH1*%
X150900000Y-100300000D03*
X152800000Y-97800000D03*
X143000000Y-108500000D03*
X170300000Y-89700000D03*
X119800000Y-125200000D03*
X129894975Y-112605025D03*
X129900000Y-114600000D03*
X149600000Y-102000000D03*
X144500000Y-107000000D03*
%TO.N,/TIM4_CH2*%
X128400000Y-113400000D03*
X129100000Y-111700000D03*
X118400000Y-128300000D03*
X118400000Y-132760000D03*
X118400000Y-125200000D03*
X118400000Y-131100000D03*
X136200000Y-103500000D03*
X148100000Y-101700000D03*
X160900000Y-86700000D03*
X169462500Y-89200000D03*
X140200000Y-103600000D03*
X149200000Y-100200000D03*
%TO.N,/PWM & Encoders & Limit Switches/M2_PWM*%
X121800000Y-103900000D03*
X123600000Y-103900000D03*
%TO.N,/TIM3_CH1*%
X139200000Y-140900000D03*
X168200000Y-97900000D03*
X127200000Y-141300000D03*
%TO.N,/TIM3_CH2*%
X167200000Y-97800000D03*
X138800000Y-138700000D03*
%TO.N,/TIM2_CH2*%
X164100000Y-97600000D03*
%TO.N,/TIM2_CH1*%
X137200000Y-136700000D03*
%TO.N,/12VPowerInput*%
X143600000Y-61500000D03*
%TO.N,/TIM1_CH3*%
X169600000Y-95100000D03*
%TO.N,/TIM1_CH1*%
X169300000Y-97000000D03*
X160700000Y-99700000D03*
%TO.N,/TIM1_CH2*%
X169600000Y-96100000D03*
X145000000Y-110400000D03*
X149300000Y-110000000D03*
X143600000Y-110400000D03*
%TO.N,/OR3*%
X170200000Y-94000000D03*
X172000000Y-94000000D03*
X176200000Y-95500000D03*
X170900000Y-105700000D03*
X175900000Y-103500000D03*
X176800000Y-98200000D03*
X168400000Y-92800000D03*
%TO.N,/LimitSwitchOR3/LimitSwitch1*%
X149015000Y-132300000D03*
%TD*%
D63*
%TO.N,+3.3VA*%
X163000000Y-98200000D02*
X161475000Y-99725000D01*
X163975000Y-96600000D02*
X163000000Y-97575000D01*
X162300000Y-101500000D02*
X162412500Y-101612500D01*
X162412500Y-101612500D02*
X163300000Y-101612500D01*
X161475000Y-101500000D02*
X162300000Y-101500000D01*
X163000000Y-97575000D02*
X163000000Y-98200000D01*
X165350000Y-96600000D02*
X163975000Y-96600000D01*
X161475000Y-99725000D02*
X161475000Y-101500000D01*
D64*
%TO.N,GND*%
X108325001Y-56774999D02*
X108300000Y-56800000D01*
D63*
X175200000Y-71250000D02*
X175200000Y-70100000D01*
D64*
X115380000Y-123880000D02*
X115400000Y-123900000D01*
D63*
X170275000Y-103600000D02*
X170250000Y-103625000D01*
D64*
X160475000Y-82200000D02*
X160500000Y-82225000D01*
D63*
X159925000Y-100425000D02*
X159900000Y-100400000D01*
X175992564Y-93175000D02*
X175675000Y-93175000D01*
D64*
X115380000Y-98025000D02*
X115380000Y-99280000D01*
D63*
X167262500Y-92028120D02*
X167262500Y-91187500D01*
D64*
X115380000Y-74120000D02*
X115300000Y-74200000D01*
D63*
X167200000Y-92090620D02*
X167262500Y-92028120D01*
X142749999Y-82630002D02*
X142749999Y-81950001D01*
X171762500Y-100662500D02*
X171900000Y-100800000D01*
X162500028Y-115699972D02*
X162500000Y-115700000D01*
X171900000Y-100800000D02*
X171900000Y-101600000D01*
X165350000Y-96100000D02*
X166700000Y-96100000D01*
X162625000Y-87500000D02*
X162625000Y-87975000D01*
X166175000Y-86200000D02*
X166175000Y-85175000D01*
X159925000Y-101500000D02*
X159925000Y-103250000D01*
D64*
X115380000Y-73095000D02*
X115380000Y-74120000D01*
D63*
X142749999Y-81950001D02*
X142800000Y-81900000D01*
X160549986Y-117000000D02*
X160549986Y-115550014D01*
X161000000Y-97175000D02*
X161850000Y-97175000D01*
X160549986Y-115550014D02*
X160600000Y-115500000D01*
X166700000Y-96100000D02*
X166900000Y-96300000D01*
X176675000Y-101600000D02*
X177800000Y-101600000D01*
D64*
X114825000Y-56575000D02*
X114800000Y-56600000D01*
D63*
X167775000Y-89834380D02*
X167775000Y-89100000D01*
X174800000Y-93100000D02*
X174875000Y-93175000D01*
X164100000Y-96100000D02*
X164025000Y-96025000D01*
X171762500Y-98562500D02*
X171400000Y-98200000D01*
X171762500Y-99512500D02*
X171762500Y-100662500D01*
X161000000Y-97175000D02*
X159825000Y-97175000D01*
X159825000Y-97175000D02*
X159800000Y-97200000D01*
X161850000Y-97175000D02*
X163000000Y-96025000D01*
X161000000Y-92375000D02*
X159925000Y-92375000D01*
X173675000Y-93100000D02*
X174800000Y-93100000D01*
X162675000Y-90575000D02*
X163175000Y-90575000D01*
X176688807Y-92478757D02*
X175992564Y-93175000D01*
X159925000Y-101500000D02*
X159925000Y-100425000D01*
X162000000Y-89900000D02*
X162675000Y-90575000D01*
X162500028Y-114722250D02*
X162500028Y-115699972D01*
D64*
X121250000Y-56550000D02*
X121300000Y-56600000D01*
X158500000Y-82200000D02*
X160475000Y-82200000D01*
D63*
X165350000Y-96100000D02*
X164100000Y-96100000D01*
D64*
X115380000Y-99280000D02*
X115400000Y-99300000D01*
X115380000Y-122895000D02*
X115380000Y-123880000D01*
D63*
X144399999Y-83100001D02*
X144399999Y-83599999D01*
X164025000Y-96025000D02*
X163000000Y-96025000D01*
X186500000Y-92800000D02*
X184900000Y-92800000D01*
X171762500Y-99512500D02*
X171762500Y-98562500D01*
X172626543Y-102326543D02*
X171900000Y-101600000D01*
X172626543Y-102746643D02*
X172626543Y-102326543D01*
X159925000Y-103250000D02*
X159925000Y-104375000D01*
X167262500Y-91187500D02*
X167262500Y-90346880D01*
X159925000Y-104375000D02*
X159900000Y-104400000D01*
D64*
X121250000Y-55575000D02*
X121250000Y-56550000D01*
D63*
X167262500Y-90346880D02*
X167775000Y-89834380D01*
X171500000Y-103600000D02*
X170275000Y-103600000D01*
X174875000Y-93175000D02*
X175675000Y-93175000D01*
D64*
X114825000Y-55592500D02*
X114825000Y-56575000D01*
D63*
X167200000Y-92700000D02*
X167200000Y-92090620D01*
X139750000Y-83850000D02*
X139800000Y-83900000D01*
X139750000Y-82700000D02*
X139750000Y-83850000D01*
X162625000Y-87975000D02*
X162000000Y-88600000D01*
X159925000Y-92375000D02*
X159900000Y-92400000D01*
D64*
X108325001Y-55555000D02*
X108325001Y-56774999D01*
D63*
X166175000Y-85175000D02*
X166100000Y-85100000D01*
%TO.N,+3.3V*%
X161475000Y-104525000D02*
X160800000Y-105200000D01*
X161475000Y-103250000D02*
X162350000Y-103250000D01*
X179275000Y-92075000D02*
X188450000Y-82900000D01*
X164100000Y-71320000D02*
X161560000Y-71320000D01*
X169700000Y-72400000D02*
X168620000Y-71320000D01*
X177235571Y-93450000D02*
X177500000Y-93185571D01*
X177500000Y-92300000D02*
X177275000Y-92075000D01*
X166225000Y-89775000D02*
X166225000Y-89725000D01*
X161475000Y-103250000D02*
X161475000Y-104525000D01*
X163825000Y-92125000D02*
X163175000Y-92125000D01*
X162350000Y-103250000D02*
X162412500Y-103187500D01*
X173675000Y-92600000D02*
X174700000Y-92600000D01*
X171500000Y-89700000D02*
X169600000Y-87800000D01*
X172712500Y-99512500D02*
X173100000Y-99900000D01*
X118200000Y-142800000D02*
X116975000Y-144025000D01*
X173450000Y-101600000D02*
X175125000Y-101600000D01*
X162550000Y-78150000D02*
X162800000Y-77900000D01*
X165600000Y-90400000D02*
X166225000Y-89775000D01*
X119425000Y-144025000D02*
X118200000Y-142800000D01*
X174700000Y-92600000D02*
X175675000Y-91625000D01*
X173675000Y-92125000D02*
X173900000Y-91900000D01*
X166762500Y-91187500D02*
X166762500Y-90262500D01*
X168620000Y-71320000D02*
X164100000Y-71320000D01*
X163349145Y-86650855D02*
X163349145Y-86599145D01*
X166225000Y-89725000D02*
X166225000Y-89100000D01*
X159300000Y-106700000D02*
X151400000Y-114600000D01*
X173675000Y-92600000D02*
X173675000Y-92125000D01*
X162412500Y-103187500D02*
X163300000Y-103187500D01*
X128850000Y-144025000D02*
X119425000Y-144025000D01*
X149800000Y-122600000D02*
X135600000Y-136800000D01*
X165350000Y-92600000D02*
X164300000Y-92600000D01*
X141300000Y-56900000D02*
X134550000Y-50150000D01*
D64*
X121305000Y-49442500D02*
X121842500Y-49442500D01*
D63*
X162550000Y-85800000D02*
X162550000Y-78150000D01*
X161560000Y-71320000D02*
X155720000Y-71320000D01*
X164387500Y-103187500D02*
X164400000Y-103200000D01*
X164300000Y-92600000D02*
X163825000Y-92125000D01*
X177500000Y-93185571D02*
X177500000Y-92300000D01*
X178500000Y-92075000D02*
X179275000Y-92075000D01*
D64*
X121842500Y-49442500D02*
X122550000Y-50150000D01*
D63*
X172262500Y-100362500D02*
X173450000Y-101550000D01*
X155720000Y-71320000D02*
X143400000Y-59000000D01*
X163300000Y-103187500D02*
X164387500Y-103187500D01*
X166762500Y-90262500D02*
X166225000Y-89725000D01*
X171700000Y-89700000D02*
X171500000Y-89700000D01*
X151400000Y-114600000D02*
X151400000Y-116900000D01*
D64*
X122550000Y-50150000D02*
X124575002Y-50150000D01*
D63*
X163349145Y-86599145D02*
X162550000Y-85800000D01*
X163775000Y-92125000D02*
X164555025Y-91344975D01*
X162800000Y-77900000D02*
X162800000Y-73300000D01*
X149800000Y-118600000D02*
X149800000Y-122600000D01*
X173450000Y-101550000D02*
X173450000Y-101600000D01*
X171375000Y-72400000D02*
X169700000Y-72400000D01*
X172262500Y-99512500D02*
X172262500Y-100362500D01*
X177275000Y-92075000D02*
X178500000Y-92075000D01*
X172262500Y-99512500D02*
X172712500Y-99512500D01*
X162800000Y-73300000D02*
X161560000Y-72060000D01*
X176825000Y-91625000D02*
X177275000Y-92075000D01*
X161560000Y-72060000D02*
X161560000Y-71320000D01*
X130075000Y-142800000D02*
X128850000Y-144025000D01*
X116975000Y-144025000D02*
X107550000Y-144025000D01*
X163175000Y-92125000D02*
X163775000Y-92125000D01*
X166225000Y-89100000D02*
X166225000Y-87971657D01*
X166225000Y-87971657D02*
X164900000Y-86646657D01*
X107550000Y-144025000D02*
X106325000Y-142800000D01*
X134550000Y-50150000D02*
X124575002Y-50150000D01*
X175675000Y-91625000D02*
X176825000Y-91625000D01*
%TO.N,+5V*%
X160549986Y-112049986D02*
X161672250Y-113172250D01*
D64*
X143990000Y-137900000D02*
X145990000Y-139900000D01*
X178300000Y-57900000D02*
X179300000Y-57900000D01*
X101100000Y-131960000D02*
X120900000Y-131960000D01*
D63*
X160549986Y-111094500D02*
X160549986Y-112049986D01*
D64*
X97875000Y-78935000D02*
X96575000Y-80235000D01*
X163290000Y-137400000D02*
X166240000Y-137400000D01*
D63*
X156650070Y-118729930D02*
X152800000Y-122580000D01*
D64*
X119100000Y-56300000D02*
X119100000Y-50700000D01*
X172565000Y-136075000D02*
X172565000Y-135300000D01*
X118550000Y-50150000D02*
X118075001Y-50150000D01*
X96575000Y-102535000D02*
X97875000Y-103835000D01*
X96575000Y-80235000D02*
X96575000Y-102535000D01*
X116050000Y-50150000D02*
X118075001Y-50150000D01*
D63*
X160549986Y-111094500D02*
X160549986Y-110249986D01*
D64*
X161190000Y-135300000D02*
X163290000Y-137400000D01*
X157365000Y-139900000D02*
X161190000Y-136075000D01*
X152015000Y-137500000D02*
X154965000Y-137500000D01*
X120700000Y-57900000D02*
X119100000Y-56300000D01*
D63*
X160549986Y-110249986D02*
X160300000Y-110000000D01*
D64*
X123200000Y-134260000D02*
X123200000Y-136600000D01*
X149815000Y-135300000D02*
X152015000Y-137500000D01*
X175500000Y-57900000D02*
X120700000Y-57900000D01*
X154965000Y-137500000D02*
X157365000Y-139900000D01*
X168740000Y-139900000D02*
X172565000Y-136075000D01*
X145990000Y-139900000D02*
X146600000Y-139290000D01*
X114825000Y-49442500D02*
X115342500Y-49442500D01*
X149500000Y-135300000D02*
X149815000Y-135300000D01*
X146600000Y-139290000D02*
X146600000Y-138200000D01*
X96575000Y-105135000D02*
X96575000Y-127435000D01*
D63*
X158600028Y-110199972D02*
X158600028Y-111094500D01*
X160300000Y-110000000D02*
X158800000Y-110000000D01*
D64*
X146600000Y-138200000D02*
X149500000Y-135300000D01*
X149815000Y-125565000D02*
X149815000Y-135300000D01*
X119100000Y-50700000D02*
X118550000Y-50150000D01*
X97875000Y-128735000D02*
X101100000Y-131960000D01*
X179300000Y-57900000D02*
X182600000Y-61200000D01*
X97875000Y-103835000D02*
X96575000Y-105135000D01*
D63*
X156650070Y-117000000D02*
X156650070Y-118729930D01*
D64*
X123200000Y-136600000D02*
X124500000Y-137900000D01*
D63*
X161672250Y-113172250D02*
X162500028Y-113172250D01*
D64*
X166240000Y-137400000D02*
X168740000Y-139900000D01*
X161190000Y-136075000D02*
X161190000Y-135300000D01*
X152800000Y-122580000D02*
X149815000Y-125565000D01*
X184740000Y-61200000D02*
X187200000Y-63660000D01*
D63*
X158800000Y-110000000D02*
X158600028Y-110199972D01*
D64*
X115342500Y-49442500D02*
X116050000Y-50150000D01*
X96575000Y-127435000D02*
X97875000Y-128735000D01*
X120900000Y-131960000D02*
X123200000Y-134260000D01*
X124500000Y-137900000D02*
X143990000Y-137900000D01*
X182600000Y-61200000D02*
X184740000Y-61200000D01*
D63*
%TO.N,/NRST*%
X165350000Y-95600000D02*
X166190620Y-95600000D01*
X168250000Y-82350000D02*
X174750000Y-82350000D01*
X164175000Y-87500000D02*
X164175000Y-86825000D01*
X164175000Y-86825000D02*
X164200000Y-86800000D01*
X164800000Y-90600000D02*
X164800000Y-88125000D01*
X164800000Y-88125000D02*
X164175000Y-87500000D01*
X179280000Y-81350000D02*
X180830000Y-82900000D01*
X174750000Y-82350000D02*
X175750000Y-81350000D01*
X166437500Y-92237500D02*
X164800000Y-90600000D01*
X166437500Y-95353120D02*
X166437500Y-92237500D01*
X175750000Y-81350000D02*
X179280000Y-81350000D01*
X166950000Y-82350000D02*
X168250000Y-82350000D01*
X166190620Y-95600000D02*
X166437500Y-95353120D01*
X164200000Y-85100000D02*
X166950000Y-82350000D01*
X164200000Y-85800000D02*
X164200000Y-85100000D01*
X164200000Y-86800000D02*
X164200000Y-85800000D01*
%TO.N,/OSC_OUT*%
X161675000Y-95625000D02*
X161000000Y-95625000D01*
X158170000Y-97030000D02*
X156175000Y-97030000D01*
X161000000Y-95625000D02*
X159575000Y-95625000D01*
X162200000Y-95100000D02*
X161675000Y-95625000D01*
X165350000Y-95100000D02*
X162200000Y-95100000D01*
X159575000Y-95625000D02*
X158170000Y-97030000D01*
%TO.N,/OSC_IN*%
X163225000Y-93925000D02*
X161000000Y-93925000D01*
X159625000Y-93925000D02*
X157850000Y-92150000D01*
X157850000Y-92150000D02*
X156175000Y-92150000D01*
X161000000Y-93925000D02*
X159625000Y-93925000D01*
X165350000Y-94600000D02*
X163900000Y-94600000D01*
X163900000Y-94600000D02*
X163225000Y-93925000D01*
%TO.N,/BOOT*%
X146070000Y-80830000D02*
X146500000Y-80400000D01*
X146500000Y-80400000D02*
X146500000Y-79350000D01*
X145549999Y-80830000D02*
X146070000Y-80830000D01*
%TO.N,/FB*%
X143337500Y-86250000D02*
X143337500Y-84162500D01*
X143337500Y-84162500D02*
X143899999Y-83600001D01*
X143337500Y-91337500D02*
X143300000Y-91300000D01*
X143300000Y-91300000D02*
X143300000Y-89500000D01*
X143300000Y-87900000D02*
X143300000Y-89500000D01*
X143337500Y-92750000D02*
X143337500Y-91337500D01*
X143337500Y-87862500D02*
X143300000Y-87900000D01*
X143899999Y-83600001D02*
X143899999Y-83100001D01*
X143337500Y-86250000D02*
X143337500Y-87862500D01*
D64*
%TO.N,/Cff_Rff*%
X145200000Y-89500000D02*
X147587500Y-89500000D01*
%TO.N,+12V*%
X125967500Y-84300000D02*
X122637500Y-87630000D01*
X137200000Y-81000000D02*
X137200000Y-82100000D01*
X135000000Y-84300000D02*
X125967500Y-84300000D01*
X108325001Y-49442500D02*
X109042500Y-49442500D01*
X116332720Y-58500000D02*
X113800000Y-58500000D01*
X122637500Y-87630000D02*
X122637500Y-112530000D01*
X125425000Y-62730000D02*
X122637500Y-62730000D01*
X135260000Y-72565000D02*
X125425000Y-62730000D01*
X120562720Y-62730000D02*
X116332720Y-58500000D01*
X113800000Y-58500000D02*
X111575001Y-56275001D01*
X137200000Y-82100000D02*
X135000000Y-84300000D01*
X109042500Y-49442500D02*
X109750000Y-50150000D01*
X109750000Y-50150000D02*
X111575001Y-50150000D01*
X122637500Y-62730000D02*
X120562720Y-62730000D01*
X111575001Y-56275001D02*
X111575001Y-50150000D01*
%TO.N,/5V_BUCK*%
X161500000Y-84000000D02*
X157400000Y-84000000D01*
X177968629Y-66200000D02*
X175368629Y-68800000D01*
X169500000Y-68800000D02*
X167900000Y-70400000D01*
X157400000Y-84000000D02*
X156700000Y-84700000D01*
X163500000Y-83000000D02*
X163500000Y-80200000D01*
X156700000Y-84700000D02*
X154854903Y-84700000D01*
X163500000Y-80200000D02*
X167900000Y-75800000D01*
X175368629Y-68800000D02*
X169500000Y-68800000D01*
X184660000Y-66200000D02*
X177968629Y-66200000D01*
X167900000Y-75800000D02*
X167900000Y-72200000D01*
%TO.N,/PWR_LED_3V3_Cathode*%
X121305000Y-51017500D02*
X121305000Y-53870000D01*
X121305000Y-53870000D02*
X121250000Y-53925000D01*
%TO.N,/PWR_LED_5V_Cathode*%
X114825000Y-51017500D02*
X114825000Y-53942500D01*
%TO.N,/PWR_LED_12V_Cathode*%
X108325001Y-51017500D02*
X108325001Y-53905000D01*
%TO.N,/Motors/M1_Fault_LED_Cathode*%
X115400000Y-71425000D02*
X115380000Y-71445000D01*
X115400000Y-69387500D02*
X115400000Y-71425000D01*
%TO.N,/Motors/M2_Fault_LED_Cathode*%
X115420000Y-96335000D02*
X115380000Y-96375000D01*
X115420000Y-94187500D02*
X115420000Y-96335000D01*
%TO.N,/Motors/M3_Fault_LED_Cathode*%
X115420000Y-121205000D02*
X115380000Y-121245000D01*
X115420000Y-119187500D02*
X115420000Y-121205000D01*
D63*
%TO.N,VBUS*%
X183800000Y-93400000D02*
X183800000Y-90400000D01*
X184677807Y-95400000D02*
X184494452Y-95216645D01*
X189900000Y-81950000D02*
X187950000Y-80000000D01*
X189900000Y-84300000D02*
X189900000Y-81950000D01*
X183800000Y-90400000D02*
X189900000Y-84300000D01*
X187950000Y-80000000D02*
X185300000Y-80000000D01*
X185300000Y-80000000D02*
X184660000Y-79360000D01*
X186500000Y-95400000D02*
X184677807Y-95400000D01*
X184660000Y-79360000D02*
X184660000Y-68740000D01*
D64*
%TO.N,/5V_EXT*%
X174600000Y-55700000D02*
X182560000Y-63660000D01*
X182560000Y-63660000D02*
X184660000Y-63660000D01*
X167300000Y-55700000D02*
X174600000Y-55700000D01*
D65*
%TO.N,/USB_D-*%
X186350000Y-94600000D02*
X186500000Y-94750000D01*
X173675000Y-94600000D02*
X173724999Y-94550001D01*
X184650001Y-94550001D02*
X184700000Y-94600000D01*
X173724999Y-94550001D02*
X184650001Y-94550001D01*
X184700000Y-94600000D02*
X186350000Y-94600000D01*
%TO.N,/USB_D+*%
X173675000Y-94100000D02*
X186500000Y-94100000D01*
D63*
%TO.N,/BOOT0*%
X160360000Y-75060000D02*
X161560000Y-73860000D01*
X168762500Y-87137500D02*
X167825000Y-86200000D01*
X165300000Y-82900000D02*
X164800000Y-82400000D01*
X164800000Y-82400000D02*
X164800000Y-80100000D01*
X168762500Y-91187500D02*
X168762500Y-87137500D01*
X167825000Y-86200000D02*
X167825000Y-85425000D01*
X167825000Y-85425000D02*
X166400000Y-84000000D01*
X160360000Y-76960000D02*
X160360000Y-75060000D01*
X161500000Y-78100000D02*
X160360000Y-76960000D01*
%TO.N,/BOOT1*%
X170262500Y-100937500D02*
X170250000Y-100950000D01*
X170262500Y-99512500D02*
X170262500Y-100937500D01*
X170262500Y-99512500D02*
X170262500Y-98237500D01*
X170262500Y-98237500D02*
X170300000Y-98200000D01*
X170250000Y-100950000D02*
X170250000Y-101975000D01*
%TO.N,/SWDIO*%
X172587500Y-92212500D02*
X177200000Y-87600000D01*
X172587500Y-93353120D02*
X172587500Y-92212500D01*
X172834380Y-93600000D02*
X172587500Y-93353120D01*
X177200000Y-87600000D02*
X181210000Y-87600000D01*
X173675000Y-93600000D02*
X172834380Y-93600000D01*
X181210000Y-87600000D02*
X185910000Y-82900000D01*
%TO.N,/SWCLK*%
X179870000Y-86400000D02*
X183370000Y-82900000D01*
X172262500Y-90137500D02*
X176000000Y-86400000D01*
X176000000Y-86400000D02*
X179870000Y-86400000D01*
X172262500Y-91187500D02*
X172262500Y-90137500D01*
%TO.N,/SPI1_NSS_RasPi*%
X181200000Y-109300000D02*
X180600000Y-109300000D01*
X164600000Y-98100000D02*
X165350000Y-98100000D01*
X180500000Y-109200000D02*
X174000000Y-109200000D01*
X180600000Y-109300000D02*
X180500000Y-109200000D01*
X166100000Y-107000000D02*
X168300000Y-109200000D01*
X166100000Y-100800000D02*
X166100000Y-107000000D01*
X164300000Y-98400000D02*
X164600000Y-98100000D01*
X165600000Y-100300000D02*
X166100000Y-100800000D01*
X164300000Y-99100000D02*
X164300000Y-98400000D01*
%TO.N,/SPI1_MOSI*%
X173234380Y-99000000D02*
X178300000Y-99000000D01*
X181200000Y-124300000D02*
X181280000Y-124380000D01*
X178300000Y-99000000D02*
X181000000Y-101700000D01*
X181000000Y-101700000D02*
X183875000Y-101700000D01*
X168762500Y-99512500D02*
X168762500Y-98671880D01*
X185600000Y-103425000D02*
X185600000Y-111315000D01*
X177600000Y-124300000D02*
X181200000Y-124300000D01*
X185600000Y-111315000D02*
X183875000Y-113040000D01*
X169934380Y-97500000D02*
X171734380Y-97500000D01*
X181280000Y-124380000D02*
X183875000Y-124380000D01*
X168762500Y-98671880D02*
X169934380Y-97500000D01*
X171734380Y-97500000D02*
X173234380Y-99000000D01*
X183875000Y-101700000D02*
X185600000Y-103425000D01*
%TO.N,/SPI1_SCK*%
X167762500Y-99512500D02*
X167762500Y-103862500D01*
X170700000Y-106800000D02*
X177600000Y-106800000D01*
X180000000Y-106800000D02*
X180020000Y-106780000D01*
X177600000Y-106800000D02*
X180000000Y-106800000D01*
X167762500Y-103862500D02*
X170700000Y-106800000D01*
X180020000Y-106780000D02*
X183875000Y-106780000D01*
%TO.N,/SPI1_MISO*%
X183875000Y-115580000D02*
X185600000Y-117305000D01*
X174710050Y-103700000D02*
X175610050Y-102800000D01*
X182100000Y-107700000D02*
X182100000Y-113805000D01*
X183875000Y-104240000D02*
X183860000Y-104240000D01*
X171689950Y-102800000D02*
X172589950Y-103700000D01*
X183860000Y-104240000D02*
X182100000Y-106000000D01*
X168262500Y-99512500D02*
X168262500Y-101462500D01*
X172589950Y-103700000D02*
X174710050Y-103700000D01*
X182435000Y-102800000D02*
X183875000Y-104240000D01*
X169600000Y-102800000D02*
X171689950Y-102800000D01*
X183875000Y-115580000D02*
X177620000Y-115580000D01*
X175610050Y-102800000D02*
X182435000Y-102800000D01*
X185600000Y-125195000D02*
X183875000Y-126920000D01*
X168262500Y-101462500D02*
X169600000Y-102800000D01*
X185600000Y-117305000D02*
X185600000Y-125195000D01*
X182100000Y-113805000D02*
X183875000Y-115580000D01*
X177620000Y-115580000D02*
X177600000Y-115600000D01*
%TO.N,/SPI1_NSS_ESP1*%
X178260000Y-120660000D02*
X183875000Y-120660000D01*
X170000000Y-107000000D02*
X170000000Y-116400000D01*
X178200000Y-120600000D02*
X178260000Y-120660000D01*
X167262500Y-99512500D02*
X167262500Y-104262500D01*
X167262500Y-104262500D02*
X170000000Y-107000000D01*
X174200000Y-120600000D02*
X178200000Y-120600000D01*
X170000000Y-116400000D02*
X174200000Y-120600000D01*
%TO.N,/SPI1_NSS_ESP2*%
X166762500Y-105762500D02*
X169100000Y-108100000D01*
X169100000Y-108100000D02*
X169100000Y-118800000D01*
X171800000Y-121500000D02*
X171800000Y-129600000D01*
X174200000Y-132000000D02*
X183875000Y-132000000D01*
X169100000Y-118800000D02*
X171800000Y-121500000D01*
X166762500Y-99512500D02*
X166762500Y-105762500D01*
X171800000Y-129600000D02*
X174200000Y-132000000D01*
%TO.N,/PWM & Encoders & Limit Switches/M1_PWM*%
X105320000Y-76395000D02*
X107875000Y-78950000D01*
X137302600Y-105946800D02*
X137302600Y-94002600D01*
X122250000Y-78950000D02*
X107875000Y-78950000D01*
X126400000Y-83100000D02*
X122250000Y-78950000D01*
X137302600Y-94002600D02*
X128800000Y-85500000D01*
X97875000Y-76395000D02*
X105320000Y-76395000D01*
%TO.N,/PWM & Encoders & Limit Switches/RC_PWM1*%
X134900000Y-129420000D02*
X144300000Y-120020000D01*
X144300000Y-108346800D02*
X141900000Y-105946800D01*
X144300000Y-120020000D02*
X144300000Y-108346800D01*
%TO.N,/TIM4_CH1*%
X134000000Y-108500000D02*
X129894975Y-112605025D01*
X149600000Y-102000000D02*
X144600000Y-107000000D01*
X143000000Y-108500000D02*
X134000000Y-108500000D01*
X152800000Y-98400000D02*
X150900000Y-100300000D01*
X144600000Y-107000000D02*
X144500000Y-107000000D01*
X119800000Y-124700000D02*
X119800000Y-125200000D01*
X170300000Y-89700000D02*
X169762500Y-90237500D01*
X152800000Y-97800000D02*
X152800000Y-98400000D01*
X129900000Y-114600000D02*
X119800000Y-124700000D01*
X169762500Y-90237500D02*
X169762500Y-91187500D01*
%TO.N,/TIM4_CH2*%
X153100000Y-92209189D02*
X150700000Y-94609189D01*
X158400000Y-86700000D02*
X156400000Y-86700000D01*
X128400000Y-113400000D02*
X128400000Y-115200000D01*
X150700000Y-97900000D02*
X149200000Y-99400000D01*
X169262500Y-91187500D02*
X169262500Y-89400000D01*
X150700000Y-94609189D02*
X150700000Y-96200000D01*
X160069365Y-86700000D02*
X158400000Y-86700000D01*
X129100000Y-106223100D02*
X129100000Y-111700000D01*
X118400000Y-132760000D02*
X112325000Y-138835000D01*
X131823100Y-103500000D02*
X129100000Y-106223100D01*
X112325000Y-138835000D02*
X112325000Y-142800000D01*
X169262500Y-89400000D02*
X169462500Y-89200000D01*
X149200000Y-99400000D02*
X149200000Y-100200000D01*
X150700000Y-96200000D02*
X150700000Y-97900000D01*
X153100000Y-90000000D02*
X153100000Y-92209189D01*
X136200000Y-103500000D02*
X131823100Y-103500000D01*
X148100000Y-101700000D02*
X146200000Y-103600000D01*
X146200000Y-103600000D02*
X140200000Y-103600000D01*
X118400000Y-128300000D02*
X118400000Y-131100000D01*
X156400000Y-86700000D02*
X153100000Y-90000000D01*
X128400000Y-115200000D02*
X118400000Y-125200000D01*
X160900000Y-86700000D02*
X160069365Y-86700000D01*
%TO.N,/PWM & Encoders & Limit Switches/M2_PWM*%
X130464450Y-114164450D02*
X128100000Y-111800000D01*
X137302600Y-112500000D02*
X135638150Y-114164450D01*
X135638150Y-114164450D02*
X130464450Y-114164450D01*
X124800000Y-103900000D02*
X123600000Y-103900000D01*
X97875000Y-101295000D02*
X105320000Y-101295000D01*
X121800000Y-103900000D02*
X121750000Y-103850000D01*
X121750000Y-103850000D02*
X107875000Y-103850000D01*
X128100000Y-107200000D02*
X124800000Y-103900000D01*
X105320000Y-101295000D02*
X107875000Y-103850000D01*
X128100000Y-111800000D02*
X128100000Y-107200000D01*
%TO.N,/PWM & Encoders & Limit Switches/RC_PWM2*%
X134722688Y-126400000D02*
X143564450Y-117558238D01*
X143564450Y-117558238D02*
X143564450Y-114164450D01*
X131400000Y-126400000D02*
X134722688Y-126400000D01*
X143564450Y-114164450D02*
X141900000Y-112500000D01*
X130233334Y-129420000D02*
X130233334Y-127566666D01*
X130233334Y-127566666D02*
X131400000Y-126400000D01*
%TO.N,/TIM3_CH1*%
X127200000Y-141300000D02*
X127600000Y-140900000D01*
X170762500Y-92235226D02*
X168200000Y-94797726D01*
X168200000Y-94797726D02*
X168200000Y-97900000D01*
X170762500Y-91187500D02*
X170762500Y-92235226D01*
X127600000Y-140900000D02*
X139200000Y-140900000D01*
%TO.N,/TIM3_CH2*%
X167600000Y-97400000D02*
X167200000Y-97800000D01*
X167600000Y-94690620D02*
X167600000Y-97400000D01*
X127700000Y-139300000D02*
X124200000Y-142800000D01*
X138800000Y-138700000D02*
X138200000Y-139300000D01*
X138200000Y-139300000D02*
X127700000Y-139300000D01*
X170262500Y-92028120D02*
X167600000Y-94690620D01*
X170262500Y-91187500D02*
X170262500Y-92028120D01*
%TO.N,/PWM & Encoders & Limit Switches/M3_PWM*%
X107875000Y-128750000D02*
X108405000Y-128220000D01*
X108405000Y-128220000D02*
X113980000Y-128220000D01*
X116200000Y-126000000D02*
X128171400Y-126000000D01*
X97875000Y-126195000D02*
X105320000Y-126195000D01*
X105320000Y-126195000D02*
X107875000Y-128750000D01*
X128171400Y-126000000D02*
X137302600Y-116868800D01*
X113980000Y-128220000D02*
X116200000Y-126000000D01*
%TO.N,/PWM & Encoders & Limit Switches/RC_PWM3*%
X126400000Y-127200000D02*
X128800000Y-127200000D01*
X131100000Y-124900000D02*
X133868800Y-124900000D01*
X128800000Y-127200000D02*
X131100000Y-124900000D01*
X125600000Y-128000000D02*
X126400000Y-127200000D01*
X133868800Y-124900000D02*
X141900000Y-116868800D01*
X125600000Y-129420000D02*
X125600000Y-128000000D01*
%TO.N,/TIM2_CH2*%
X165350000Y-97600000D02*
X164100000Y-97600000D01*
%TO.N,/TIM2_CH1*%
X150500000Y-109800000D02*
X150500000Y-123400000D01*
X162900000Y-106000000D02*
X154300000Y-106000000D01*
X166437500Y-97346880D02*
X166437500Y-98353120D01*
X165200000Y-100889950D02*
X165200000Y-103700000D01*
X154300000Y-106000000D02*
X150500000Y-109800000D01*
X164900000Y-100589950D02*
X165200000Y-100889950D01*
X166437500Y-98353120D02*
X164900000Y-99890620D01*
X165350000Y-97100000D02*
X166190620Y-97100000D01*
X165200000Y-103700000D02*
X162900000Y-106000000D01*
X150500000Y-123400000D02*
X137200000Y-136700000D01*
X164900000Y-99890620D02*
X164900000Y-100589950D01*
X166190620Y-97100000D02*
X166437500Y-97346880D01*
%TO.N,/PG*%
X147037500Y-83900000D02*
X147887500Y-84750000D01*
X144899997Y-83399997D02*
X145400000Y-83900000D01*
X145400000Y-83900000D02*
X147037500Y-83900000D01*
X144899997Y-83100001D02*
X144899997Y-83399997D01*
D64*
%TO.N,/PowerSwitchOff*%
X130561000Y-72565000D02*
X130561000Y-76375000D01*
%TO.N,/12VPowerInput*%
X143600000Y-61500000D02*
X139959000Y-65141000D01*
X139959000Y-65141000D02*
X139959000Y-72565000D01*
D63*
%TO.N,/TIM1_CH3*%
X173675000Y-95100000D02*
X169600000Y-95100000D01*
%TO.N,/TIM1_CH1*%
X170589950Y-96100000D02*
X169689950Y-97000000D01*
X169689950Y-97000000D02*
X169300000Y-97000000D01*
X139500000Y-102774388D02*
X139500000Y-106800000D01*
X138300000Y-108000000D02*
X134758400Y-108000000D01*
X160700000Y-99700000D02*
X158900000Y-99700000D01*
X158900000Y-99700000D02*
X157600000Y-101000000D01*
X173675000Y-96100000D02*
X170589950Y-96100000D01*
X141274388Y-101000000D02*
X139500000Y-102774388D01*
X134758400Y-108000000D02*
X132705200Y-105946800D01*
X139500000Y-106800000D02*
X138300000Y-108000000D01*
X157600000Y-101000000D02*
X141274388Y-101000000D01*
%TO.N,/TIM1_CH2*%
X170100000Y-95600000D02*
X169600000Y-96100000D01*
X145000000Y-110400000D02*
X145400000Y-110000000D01*
X173675000Y-95600000D02*
X170100000Y-95600000D01*
X143600000Y-110400000D02*
X134805200Y-110400000D01*
X145400000Y-110000000D02*
X149300000Y-110000000D01*
X134805200Y-110400000D02*
X132705200Y-112500000D01*
%TO.N,/OR3*%
X176800000Y-96100000D02*
X176800000Y-98200000D01*
X159900000Y-117875544D02*
X160424456Y-118400000D01*
X162800000Y-118400000D02*
X165600000Y-115600000D01*
X167762500Y-92162500D02*
X168400000Y-92800000D01*
X173700000Y-105700000D02*
X170900000Y-105700000D01*
X160424456Y-118400000D02*
X162800000Y-118400000D01*
X170200000Y-94000000D02*
X172000000Y-94000000D01*
X175900000Y-103500000D02*
X173700000Y-105700000D01*
X159900000Y-117000000D02*
X159900000Y-117875544D01*
X176200000Y-95500000D02*
X176800000Y-96100000D01*
X167762500Y-91187500D02*
X167762500Y-92162500D01*
%TO.N,/LimitSwitchOR3/LimitSwitch1*%
X152800000Y-130200000D02*
X155340000Y-130200000D01*
X146015000Y-135300000D02*
X149015000Y-132300000D01*
X142195000Y-135300000D02*
X146015000Y-135300000D01*
%TO.N,/LimitSwitchOR3/LimitSwitch2*%
X160420000Y-130200000D02*
X162960000Y-130200000D01*
X153570000Y-135300000D02*
X155320000Y-135300000D01*
X155320000Y-135300000D02*
X160420000Y-130200000D01*
D64*
%TO.N,/Motors/Motor1PowerOut*%
X115862500Y-66037500D02*
X115400000Y-66500000D01*
X113275000Y-69925000D02*
X99962500Y-69925000D01*
X115862500Y-62730000D02*
X115862500Y-66037500D01*
X114187500Y-69012500D02*
X113275000Y-69925000D01*
X115400000Y-67812500D02*
X114200000Y-69012500D01*
X115400000Y-66500000D02*
X115400000Y-67812500D01*
X114200000Y-69012500D02*
X114187500Y-69012500D01*
%TO.N,/Motors/Motor2PowerOut*%
X115862500Y-87630000D02*
X115862500Y-91137500D01*
X115420000Y-91580000D02*
X115420000Y-92612500D01*
X113275000Y-94825000D02*
X99962500Y-94825000D01*
X115420000Y-92680000D02*
X113275000Y-94825000D01*
X115420000Y-92612500D02*
X115420000Y-92680000D01*
X115862500Y-91137500D02*
X115420000Y-91580000D01*
%TO.N,/Motors/Motor3PowerOut*%
X115862500Y-112530000D02*
X115862500Y-116037500D01*
X115420000Y-117612500D02*
X113307500Y-119725000D01*
X115862500Y-116037500D02*
X115420000Y-116480000D01*
X113307500Y-119725000D02*
X99962500Y-119725000D01*
X115420000Y-116480000D02*
X115420000Y-117612500D01*
D63*
%TO.N,/LimitSwitchOR3/LimitSwitch3*%
X166800000Y-123880000D02*
X165500000Y-122580000D01*
X165500000Y-122580000D02*
X162960000Y-122580000D01*
X164945000Y-135300000D02*
X166800000Y-133445000D01*
X166800000Y-133445000D02*
X166800000Y-123880000D01*
%TO.N,/LimitSwitchOR3/LimitSwitchOUT1*%
X156600000Y-128920000D02*
X156600000Y-120100000D01*
X157880000Y-130200000D02*
X156600000Y-128920000D01*
X156600000Y-120100000D02*
X157950042Y-118749958D01*
X157950042Y-118749958D02*
X157950042Y-117000000D01*
%TO.N,/LimitSwitchOR3/LimitSwitchOUT3*%
X159250014Y-117932664D02*
X159250014Y-117000000D01*
X164960000Y-119500000D02*
X160300000Y-119500000D01*
X159700000Y-118382650D02*
X159250014Y-117932664D01*
X168040000Y-122580000D02*
X164960000Y-119500000D01*
X160300000Y-119500000D02*
X159700000Y-118900000D01*
X159700000Y-118900000D02*
X159700000Y-118382650D01*
%TO.N,/LimitSwitchOR3/LimitSwitchOUT2*%
X165500000Y-130200000D02*
X159200000Y-123900000D01*
X159200000Y-123900000D02*
X159200000Y-118589756D01*
X158600028Y-117989784D02*
X158600028Y-117000000D01*
X159200000Y-118589756D02*
X158600028Y-117989784D01*
D64*
%TO.N,/5V_BUCK_JumperIN*%
X149712500Y-86987500D02*
X149712500Y-84750000D01*
X153400000Y-78600000D02*
X155000000Y-77000000D01*
X145162500Y-93762500D02*
X146200000Y-94800000D01*
X153400000Y-84700000D02*
X153400000Y-78600000D01*
X145162500Y-92750000D02*
X145162500Y-91837500D01*
X155000000Y-77000000D02*
X156869500Y-77000000D01*
X151600000Y-84700000D02*
X153400000Y-84700000D01*
X158225000Y-77000000D02*
X160500000Y-79275000D01*
X145162500Y-91837500D02*
X145400000Y-91600000D01*
X149712500Y-84750000D02*
X151550000Y-84750000D01*
X149412500Y-87287500D02*
X149712500Y-86987500D01*
X149412500Y-89500000D02*
X149412500Y-87287500D01*
X145162500Y-92750000D02*
X145162500Y-93762500D01*
X156869500Y-77000000D02*
X158225000Y-77000000D01*
X146200000Y-94800000D02*
X148600000Y-94800000D01*
X147312500Y-91600000D02*
X149412500Y-89500000D01*
X145400000Y-91600000D02*
X147312500Y-91600000D01*
X151550000Y-84750000D02*
X151600000Y-84700000D01*
%TD*%
%TA.AperFunction,Conductor*%
%TO.N,+12V*%
G36*
X136115677Y-70919685D02*
G01*
X136136319Y-70936319D01*
X136464520Y-71264520D01*
X136498005Y-71325843D01*
X136500822Y-71350168D01*
X136599999Y-77399998D01*
X136600000Y-77400000D01*
X138600000Y-79300000D01*
X144306467Y-79300000D01*
X144373506Y-79319685D01*
X144419261Y-79372489D01*
X144425696Y-79389935D01*
X144595229Y-79983301D01*
X144600000Y-80017366D01*
X144600000Y-80776000D01*
X144580315Y-80843039D01*
X144527511Y-80888794D01*
X144476000Y-80900000D01*
X144100000Y-80900000D01*
X144099999Y-80900000D01*
X144098100Y-80900448D01*
X144081049Y-80906957D01*
X143977234Y-80952796D01*
X143974291Y-80955740D01*
X143942064Y-80978968D01*
X143926182Y-80986909D01*
X143870728Y-81000000D01*
X142299999Y-81000000D01*
X142036122Y-81439797D01*
X141984751Y-81487156D01*
X141929793Y-81500000D01*
X138600000Y-81500000D01*
X137873623Y-82044783D01*
X137833067Y-82075200D01*
X137767625Y-82099676D01*
X137758667Y-82100000D01*
X136666363Y-82100000D01*
X136599324Y-82080315D01*
X136563189Y-82044783D01*
X136220826Y-81531239D01*
X136200018Y-81464540D01*
X136200000Y-81462456D01*
X136200000Y-79799999D01*
X134040589Y-77836899D01*
X134004225Y-77777238D01*
X134000000Y-77745146D01*
X134000000Y-71544893D01*
X134019685Y-71477854D01*
X134028736Y-71465516D01*
X134462819Y-70944616D01*
X134520858Y-70905718D01*
X134558078Y-70900000D01*
X136048638Y-70900000D01*
X136115677Y-70919685D01*
G37*
%TD.AperFunction*%
%TD*%
%TA.AperFunction,Conductor*%
%TO.N,+5V*%
G36*
X188125706Y-62519685D02*
G01*
X188133062Y-62524796D01*
X188450400Y-62762800D01*
X188492221Y-62818771D01*
X188500000Y-62862000D01*
X188500000Y-70700000D01*
X189100000Y-72200000D01*
X189491131Y-73177827D01*
X189500000Y-73223879D01*
X189500000Y-75048638D01*
X189480315Y-75115677D01*
X189463681Y-75136319D01*
X189236319Y-75363681D01*
X189174996Y-75397166D01*
X189148638Y-75400000D01*
X188529272Y-75400000D01*
X188473818Y-75386909D01*
X188117998Y-75208999D01*
X188085771Y-75185771D01*
X187800001Y-74900001D01*
X187799997Y-74899998D01*
X187259998Y-74659999D01*
X186900000Y-74500000D01*
X186585029Y-74451543D01*
X185640121Y-74306172D01*
X185576854Y-74276523D01*
X185571295Y-74271295D01*
X185336319Y-74036319D01*
X185302834Y-73974996D01*
X185300000Y-73948638D01*
X185300000Y-73029272D01*
X185313091Y-72973818D01*
X185500000Y-72600000D01*
X185700000Y-72200000D01*
X185900000Y-70800000D01*
X186098746Y-62949515D01*
X186120121Y-62882997D01*
X186135020Y-62864979D01*
X186463681Y-62536319D01*
X186525004Y-62502834D01*
X186551362Y-62500000D01*
X188058667Y-62500000D01*
X188125706Y-62519685D01*
G37*
%TD.AperFunction*%
%TD*%
%TA.AperFunction,Conductor*%
%TO.N,GND*%
G36*
X144500167Y-83708555D02*
G01*
X144547781Y-83759688D01*
X144560286Y-83802862D01*
X144600000Y-84200000D01*
X144600000Y-84200001D01*
X145144442Y-84666665D01*
X145300000Y-84800000D01*
X146462456Y-84800000D01*
X146529495Y-84819685D01*
X146531239Y-84820826D01*
X146744784Y-84963189D01*
X146789644Y-85016753D01*
X146800000Y-85066362D01*
X146800000Y-87148638D01*
X146780315Y-87215677D01*
X146763681Y-87236319D01*
X146536319Y-87463681D01*
X146474996Y-87497166D01*
X146448638Y-87500000D01*
X145151362Y-87500000D01*
X145084323Y-87480315D01*
X145063681Y-87463681D01*
X144536319Y-86936319D01*
X144502834Y-86874996D01*
X144500000Y-86848638D01*
X144500000Y-85299999D01*
X144217671Y-84829451D01*
X144200000Y-84765654D01*
X144200000Y-84007723D01*
X144200958Y-83992343D01*
X144203709Y-83970335D01*
X144231556Y-83906254D01*
X144239060Y-83898043D01*
X144260489Y-83876615D01*
X144319798Y-83773888D01*
X144319800Y-83773877D01*
X144322336Y-83767757D01*
X144366173Y-83713350D01*
X144432466Y-83691280D01*
X144500167Y-83708555D01*
G37*
%TD.AperFunction*%
%TD*%
%TA.AperFunction,Conductor*%
%TO.N,/SW*%
G36*
X150900676Y-74119685D02*
G01*
X150936811Y-74155217D01*
X151079174Y-74368761D01*
X151099982Y-74435460D01*
X151100000Y-74437544D01*
X151100000Y-81248638D01*
X151080315Y-81315677D01*
X151063681Y-81336319D01*
X150636319Y-81763681D01*
X150574996Y-81797166D01*
X150548638Y-81800000D01*
X145266363Y-81800000D01*
X145199324Y-81780315D01*
X145163189Y-81744783D01*
X145000000Y-81500000D01*
X144924000Y-81500000D01*
X144856961Y-81480315D01*
X144811206Y-81427511D01*
X144800000Y-81376000D01*
X144800000Y-81324000D01*
X144819685Y-81256961D01*
X144872489Y-81211206D01*
X144924000Y-81200000D01*
X145034757Y-81200000D01*
X145084843Y-81210566D01*
X145173698Y-81249799D01*
X145180008Y-81252585D01*
X145205134Y-81255500D01*
X145381060Y-81255499D01*
X145413155Y-81259724D01*
X145490690Y-81280500D01*
X145490692Y-81280500D01*
X146129307Y-81280500D01*
X146129309Y-81280500D01*
X146222610Y-81255500D01*
X146243887Y-81249799D01*
X146289488Y-81223471D01*
X146301367Y-81216613D01*
X146363367Y-81200000D01*
X146699999Y-81200000D01*
X146700000Y-81200000D01*
X148100000Y-79900000D01*
X148100000Y-78500000D01*
X147200000Y-78100000D01*
X147199998Y-78100000D01*
X145766363Y-78100000D01*
X145699324Y-78080315D01*
X145663189Y-78044783D01*
X145520826Y-77831239D01*
X145500018Y-77764540D01*
X145500000Y-77762456D01*
X145500000Y-77141333D01*
X145519685Y-77074294D01*
X145524800Y-77066933D01*
X145762800Y-76749600D01*
X145818771Y-76707779D01*
X145862000Y-76700000D01*
X147199999Y-76700000D01*
X147200000Y-76700000D01*
X148200000Y-75900000D01*
X148200000Y-74451362D01*
X148219685Y-74384323D01*
X148236319Y-74363681D01*
X148463681Y-74136319D01*
X148525004Y-74102834D01*
X148551362Y-74100000D01*
X150833637Y-74100000D01*
X150900676Y-74119685D01*
G37*
%TD.AperFunction*%
%TD*%
%TA.AperFunction,Conductor*%
%TO.N,/REG_OUT*%
G36*
X173523542Y-71619685D02*
G01*
X173533965Y-71627172D01*
X174500000Y-72400000D01*
X176476121Y-72400000D01*
X176522172Y-72408868D01*
X177000000Y-72600000D01*
X183576000Y-72600000D01*
X183643039Y-72619685D01*
X183688794Y-72672489D01*
X183700000Y-72724000D01*
X183700000Y-78365654D01*
X183682329Y-78429451D01*
X183436122Y-78839797D01*
X183384751Y-78887156D01*
X183329793Y-78900000D01*
X177343497Y-78900000D01*
X177276458Y-78880315D01*
X177266035Y-78872828D01*
X176846538Y-78537230D01*
X176806486Y-78479979D01*
X176800000Y-78440402D01*
X176800000Y-74600000D01*
X176799999Y-74599999D01*
X176200000Y-74100000D01*
X172783952Y-74100000D01*
X172716913Y-74080315D01*
X172671158Y-74027511D01*
X172668821Y-74022053D01*
X172334037Y-73185092D01*
X172325240Y-73143212D01*
X172323243Y-73083807D01*
X172309944Y-73052630D01*
X172300000Y-73003976D01*
X172300000Y-71801645D01*
X172311424Y-71749658D01*
X172318838Y-71733604D01*
X172320788Y-71712561D01*
X172346573Y-71647623D01*
X172403373Y-71606935D01*
X172444259Y-71600000D01*
X173456503Y-71600000D01*
X173523542Y-71619685D01*
G37*
%TD.AperFunction*%
%TD*%
%TA.AperFunction,Conductor*%
%TO.N,+5V*%
G36*
X158690403Y-110219685D02*
G01*
X158734273Y-110268546D01*
X158758623Y-110317246D01*
X158771714Y-110372700D01*
X158771714Y-111844206D01*
X158771716Y-111844232D01*
X158774627Y-111869337D01*
X158774628Y-111869338D01*
X158783371Y-111889139D01*
X158792443Y-111958417D01*
X158762620Y-112021602D01*
X158740519Y-112041178D01*
X157500000Y-112899999D01*
X157500000Y-116141603D01*
X157489435Y-116191688D01*
X157474657Y-116225156D01*
X157474657Y-116225158D01*
X157471742Y-116250281D01*
X157471742Y-117637491D01*
X157452057Y-117704530D01*
X157403198Y-117748399D01*
X157326183Y-117786908D01*
X157270727Y-117800000D01*
X156505044Y-117800000D01*
X156438005Y-117780315D01*
X156392250Y-117727511D01*
X156382731Y-117696386D01*
X156301687Y-117210123D01*
X156300000Y-117189737D01*
X156300000Y-110388465D01*
X156319685Y-110321426D01*
X156336319Y-110300784D01*
X156359977Y-110277126D01*
X156392204Y-110253898D01*
X156473818Y-110213091D01*
X156529272Y-110200000D01*
X158623364Y-110200000D01*
X158690403Y-110219685D01*
G37*
%TD.AperFunction*%
%TD*%
%TA.AperFunction,Conductor*%
%TO.N,GND*%
G36*
X134583087Y-79519685D02*
G01*
X134628842Y-79572489D01*
X134631179Y-79577948D01*
X134799999Y-79999999D01*
X134800000Y-80000000D01*
X135633637Y-80000000D01*
X135700676Y-80019685D01*
X135736811Y-80055217D01*
X135873674Y-80260511D01*
X135894482Y-80327210D01*
X135894500Y-80329294D01*
X135894500Y-81462450D01*
X135894511Y-81465178D01*
X135894528Y-81467166D01*
X135894530Y-81467186D01*
X135898503Y-81492523D01*
X135900000Y-81511732D01*
X135900000Y-81962456D01*
X135880315Y-82029495D01*
X135879174Y-82031239D01*
X135736811Y-82244783D01*
X135683246Y-82289644D01*
X135633637Y-82300000D01*
X134300000Y-82300000D01*
X132151362Y-82300000D01*
X132084323Y-82280315D01*
X132063681Y-82263681D01*
X131936319Y-82136319D01*
X131902834Y-82074996D01*
X131900000Y-82048638D01*
X131900000Y-79689374D01*
X131919685Y-79622335D01*
X131972489Y-79576580D01*
X131984782Y-79571739D01*
X132180911Y-79506363D01*
X132220123Y-79500000D01*
X134516048Y-79500000D01*
X134583087Y-79519685D01*
G37*
%TD.AperFunction*%
%TD*%
%TA.AperFunction,Conductor*%
%TO.N,GND*%
G36*
X188529258Y-75705498D02*
G01*
X188529272Y-75705500D01*
X188529286Y-75705500D01*
X189081728Y-75705500D01*
X189137182Y-75718591D01*
X189431454Y-75865727D01*
X189482613Y-75913314D01*
X189500000Y-75976636D01*
X189500000Y-77234772D01*
X189480315Y-77301811D01*
X189446250Y-77336953D01*
X187900000Y-78400000D01*
X187900000Y-78548638D01*
X187880315Y-78615677D01*
X187863681Y-78636319D01*
X187636319Y-78863681D01*
X187574996Y-78897166D01*
X187548638Y-78900000D01*
X185551362Y-78900000D01*
X185484323Y-78880315D01*
X185463681Y-78863681D01*
X185336319Y-78736319D01*
X185302834Y-78674996D01*
X185300000Y-78648638D01*
X185300000Y-77462000D01*
X185319685Y-77394961D01*
X185349600Y-77362800D01*
X186466933Y-76524800D01*
X186532375Y-76500324D01*
X186541333Y-76500000D01*
X187800000Y-76500000D01*
X188100000Y-76200000D01*
X188100000Y-75976636D01*
X188119685Y-75909597D01*
X188168543Y-75865728D01*
X188463592Y-75718203D01*
X188526244Y-75705323D01*
X188529258Y-75705498D01*
G37*
%TD.AperFunction*%
%TD*%
M02*
