M48
; DRILL file {KiCad 8.0.0} date 2024-03-19T14:17:13-0500
; FORMAT={-:-/ absolute / inch / decimal}
; #@! TF.CreationDate,2024-03-19T14:17:13-05:00
; #@! TF.GenerationSoftware,Kicad,Pcbnew,8.0.0
; #@! TF.FileFunction,Plated,1,2,PTH
FMAT,2
INCH
; #@! TA.AperFunction,Plated,PTH,ViaDrill
T1C0.0118
; #@! TA.AperFunction,Plated,PTH,ComponentDrill
T2C0.0315
; #@! TA.AperFunction,Plated,PTH,ComponentDrill
T3C0.0354
; #@! TA.AperFunction,Plated,PTH,ComponentDrill
T4C0.0374
; #@! TA.AperFunction,Plated,PTH,ComponentDrill
T5C0.0394
; #@! TA.AperFunction,Plated,PTH,ComponentDrill
T6C0.0433
; #@! TA.AperFunction,Plated,PTH,ComponentDrill
T7C0.0512
%
G90
G05
T1
X4.1181Y-3.6614
X4.1201Y-4.4626
X4.3071Y-3.6713
X4.3287Y-4.7598
X4.3858Y-4.0984
X4.3996Y-3.622
X4.6043Y-3.3917
X4.9174Y-4.1007
X4.9213Y-3.7402
X4.9311Y-3.1693
X4.9488Y-4.9921
X4.9508Y-3.5531
X4.9508Y-4.2933
X5.0591Y-3.7894
X5.0591Y-3.8878
X5.0984Y-3.3465
X5.3839Y-5.2559
X5.4661Y-4.6555
X5.7382Y-3.9173
X6.1786Y-4.0822
X6.2106Y-2.8642
X6.2946Y-3.3815
X6.7421Y-4.0945
X6.752Y-4.3445
X7.0Y-4.061
X7.0229Y-4.2395
X7.0406Y-4.2094
X7.0411Y-4.3984
X7.0472Y-5.0197
X7.0822Y-4.3738
X7.1048Y-4.3967
X7.1417Y-4.5123
X7.2004Y-4.3649
X7.2421Y-4.4961
X7.2776Y-4.1398
X7.313Y-3.2185
X7.3189Y-4.6516
X7.474Y-3.8501
T2
X4.6624Y-2.377
X4.6624Y-2.477
X4.6624Y-2.577
X4.6624Y-2.677
X4.6624Y-2.777
X4.6624Y-2.877
X4.6624Y-2.977
X4.9624Y-2.377
X4.9624Y-2.477
X4.9624Y-2.577
X4.9624Y-2.677
X4.9624Y-2.777
X4.9624Y-2.877
X4.9624Y-2.977
X5.2234Y-2.377
X5.2234Y-2.477
X5.2234Y-2.577
X5.2234Y-2.677
X5.2234Y-2.777
X5.2234Y-2.877
X5.2234Y-2.977
X5.4538Y-4.4488
X5.4637Y-5.1476
X5.5234Y-2.377
X5.5234Y-2.477
X5.5234Y-2.577
X5.5234Y-2.677
X5.5234Y-2.777
X5.5234Y-2.877
X5.5234Y-2.977
X5.6374Y-3.7205
X5.7538Y-4.4488
X5.7579Y-2.3205
X5.7579Y-2.6205
X5.7637Y-5.1476
X5.9066Y-5.1476
X5.9263Y-4.4488
X5.9374Y-3.7205
X6.0705Y-3.7205
X6.0728Y-2.3205
X6.0728Y-2.6205
X6.2066Y-5.1476
X6.2263Y-4.4488
X6.3705Y-3.7205
X6.3812Y-2.3205
X6.3812Y-2.6205
X6.7126Y-2.3205
X6.7126Y-2.6205
T3
X5.7874Y-2.0654
X5.7874Y-2.1654
X6.1024Y-2.0654
X6.1024Y-2.1654
X6.4108Y-2.0654
X6.4108Y-2.1654
X6.7126Y-2.062
X6.7126Y-2.162
T4
X7.7362Y-2.4803
X7.7362Y-2.5787
X7.7362Y-2.6772
X7.7362Y-2.7756
X7.7362Y-3.4512
X7.7362Y-3.5496
X7.7362Y-3.648
X7.7362Y-3.7465
X7.7362Y-4.422
X7.7362Y-4.5205
X7.7362Y-4.6189
X7.7362Y-4.7173
T5
X4.2028Y-3.1496
X4.2028Y-3.2496
X4.2028Y-3.3496
X4.2028Y-3.4496
X4.2028Y-3.7598
X4.2028Y-3.8598
X4.2028Y-3.9598
X4.2028Y-4.0598
X4.2028Y-4.1598
X4.2028Y-4.2598
X4.2028Y-4.5571
X4.2028Y-4.6571
X4.2028Y-4.7571
X4.2028Y-4.8571
X4.2028Y-4.9571
X4.2028Y-5.0571
X4.9969Y-2.1161
X5.0969Y-2.1161
X5.1969Y-2.1161
X5.7318Y-4.1831
X5.7318Y-4.8622
X5.7712Y-3.4547
X5.9975Y-4.8622
X6.0074Y-4.1831
X6.0664Y-3.4547
X6.1982Y-5.5118
X6.2982Y-5.5118
X6.3982Y-5.5118
X6.6605Y-5.5118
X6.7605Y-5.5118
X6.8605Y-5.5118
X7.1228Y-5.5118
X7.2228Y-5.5118
X7.3228Y-5.5118
T6
X6.5782Y-3.7205
X6.5782Y-3.8976
X6.8342Y-3.7205
X6.8342Y-3.8976
T7
X4.31Y-2.5886
X4.31Y-2.7854
X4.685Y-5.4823
X4.8819Y-5.4823
X5.1919Y-5.4823
X5.3888Y-5.4823
X5.6988Y-5.4823
X5.8957Y-5.4823
X7.126Y-2.0669
X7.3228Y-2.0669
M30
