%TF.GenerationSoftware,KiCad,Pcbnew,8.0.0*%
%TF.CreationDate,2024-03-19T14:17:14-05:00*%
%TF.ProjectId,MainBoard,4d61696e-426f-4617-9264-2e6b69636164,rev?*%
%TF.SameCoordinates,Original*%
%TF.FileFunction,Drillmap*%
%TF.FilePolarity,Positive*%
%FSLAX45Y45*%
G04 Gerber Fmt 4.5, Leading zero omitted, Abs format (unit mm)*
G04 Created by KiCad (PCBNEW 8.0.0) date 2024-03-19 14:17:14*
%MOMM*%
%LPD*%
G01*
G04 APERTURE LIST*
%ADD10C,0.200000*%
%ADD11C,0.500000*%
G04 APERTURE END LIST*
D10*
X10251500Y-4632000D02*
X20251500Y-4632000D01*
X20251500Y-14632000D01*
X10251500Y-14632000D01*
X10251500Y-4632000D01*
D11*
X10600000Y-5050000D02*
X11100000Y-5550000D01*
X11100000Y-5050000D02*
X10600000Y-5550000D01*
X10600000Y-13700000D02*
X11100000Y-14200000D01*
X11100000Y-13700000D02*
X10600000Y-14200000D01*
X19400000Y-5050000D02*
X19900000Y-5550000D01*
X19900000Y-5050000D02*
X19400000Y-5550000D01*
X19400000Y-13700000D02*
X19900000Y-14200000D01*
X19900000Y-13700000D02*
X19400000Y-14200000D01*
D10*
X10502277Y-14953484D02*
X10502277Y-14753484D01*
X10502277Y-14753484D02*
X10549896Y-14753484D01*
X10549896Y-14753484D02*
X10578467Y-14763008D01*
X10578467Y-14763008D02*
X10597515Y-14782055D01*
X10597515Y-14782055D02*
X10607039Y-14801103D01*
X10607039Y-14801103D02*
X10616563Y-14839198D01*
X10616563Y-14839198D02*
X10616563Y-14867769D01*
X10616563Y-14867769D02*
X10607039Y-14905865D01*
X10607039Y-14905865D02*
X10597515Y-14924912D01*
X10597515Y-14924912D02*
X10578467Y-14943960D01*
X10578467Y-14943960D02*
X10549896Y-14953484D01*
X10549896Y-14953484D02*
X10502277Y-14953484D01*
X10702277Y-14953484D02*
X10702277Y-14820150D01*
X10702277Y-14858246D02*
X10711801Y-14839198D01*
X10711801Y-14839198D02*
X10721324Y-14829674D01*
X10721324Y-14829674D02*
X10740372Y-14820150D01*
X10740372Y-14820150D02*
X10759420Y-14820150D01*
X10826086Y-14953484D02*
X10826086Y-14820150D01*
X10826086Y-14753484D02*
X10816563Y-14763008D01*
X10816563Y-14763008D02*
X10826086Y-14772531D01*
X10826086Y-14772531D02*
X10835610Y-14763008D01*
X10835610Y-14763008D02*
X10826086Y-14753484D01*
X10826086Y-14753484D02*
X10826086Y-14772531D01*
X10949896Y-14953484D02*
X10930848Y-14943960D01*
X10930848Y-14943960D02*
X10921324Y-14924912D01*
X10921324Y-14924912D02*
X10921324Y-14753484D01*
X11054658Y-14953484D02*
X11035610Y-14943960D01*
X11035610Y-14943960D02*
X11026086Y-14924912D01*
X11026086Y-14924912D02*
X11026086Y-14753484D01*
X11283229Y-14953484D02*
X11283229Y-14753484D01*
X11283229Y-14753484D02*
X11349896Y-14896341D01*
X11349896Y-14896341D02*
X11416562Y-14753484D01*
X11416562Y-14753484D02*
X11416562Y-14953484D01*
X11597515Y-14953484D02*
X11597515Y-14848722D01*
X11597515Y-14848722D02*
X11587991Y-14829674D01*
X11587991Y-14829674D02*
X11568943Y-14820150D01*
X11568943Y-14820150D02*
X11530848Y-14820150D01*
X11530848Y-14820150D02*
X11511801Y-14829674D01*
X11597515Y-14943960D02*
X11578467Y-14953484D01*
X11578467Y-14953484D02*
X11530848Y-14953484D01*
X11530848Y-14953484D02*
X11511801Y-14943960D01*
X11511801Y-14943960D02*
X11502277Y-14924912D01*
X11502277Y-14924912D02*
X11502277Y-14905865D01*
X11502277Y-14905865D02*
X11511801Y-14886817D01*
X11511801Y-14886817D02*
X11530848Y-14877293D01*
X11530848Y-14877293D02*
X11578467Y-14877293D01*
X11578467Y-14877293D02*
X11597515Y-14867769D01*
X11692753Y-14820150D02*
X11692753Y-15020150D01*
X11692753Y-14829674D02*
X11711801Y-14820150D01*
X11711801Y-14820150D02*
X11749896Y-14820150D01*
X11749896Y-14820150D02*
X11768943Y-14829674D01*
X11768943Y-14829674D02*
X11778467Y-14839198D01*
X11778467Y-14839198D02*
X11787991Y-14858246D01*
X11787991Y-14858246D02*
X11787991Y-14915388D01*
X11787991Y-14915388D02*
X11778467Y-14934436D01*
X11778467Y-14934436D02*
X11768943Y-14943960D01*
X11768943Y-14943960D02*
X11749896Y-14953484D01*
X11749896Y-14953484D02*
X11711801Y-14953484D01*
X11711801Y-14953484D02*
X11692753Y-14943960D01*
X11873705Y-14934436D02*
X11883229Y-14943960D01*
X11883229Y-14943960D02*
X11873705Y-14953484D01*
X11873705Y-14953484D02*
X11864182Y-14943960D01*
X11864182Y-14943960D02*
X11873705Y-14934436D01*
X11873705Y-14934436D02*
X11873705Y-14953484D01*
X11873705Y-14829674D02*
X11883229Y-14839198D01*
X11883229Y-14839198D02*
X11873705Y-14848722D01*
X11873705Y-14848722D02*
X11864182Y-14839198D01*
X11864182Y-14839198D02*
X11873705Y-14829674D01*
X11873705Y-14829674D02*
X11873705Y-14848722D01*
X10041500Y-15182000D02*
X10241500Y-15382000D01*
X10241500Y-15182000D02*
X10041500Y-15382000D01*
X10597515Y-15173484D02*
X10502277Y-15173484D01*
X10502277Y-15173484D02*
X10492753Y-15268722D01*
X10492753Y-15268722D02*
X10502277Y-15259198D01*
X10502277Y-15259198D02*
X10521324Y-15249674D01*
X10521324Y-15249674D02*
X10568944Y-15249674D01*
X10568944Y-15249674D02*
X10587991Y-15259198D01*
X10587991Y-15259198D02*
X10597515Y-15268722D01*
X10597515Y-15268722D02*
X10607039Y-15287769D01*
X10607039Y-15287769D02*
X10607039Y-15335388D01*
X10607039Y-15335388D02*
X10597515Y-15354436D01*
X10597515Y-15354436D02*
X10587991Y-15363960D01*
X10587991Y-15363960D02*
X10568944Y-15373484D01*
X10568944Y-15373484D02*
X10521324Y-15373484D01*
X10521324Y-15373484D02*
X10502277Y-15363960D01*
X10502277Y-15363960D02*
X10492753Y-15354436D01*
X10692753Y-15354436D02*
X10702277Y-15363960D01*
X10702277Y-15363960D02*
X10692753Y-15373484D01*
X10692753Y-15373484D02*
X10683229Y-15363960D01*
X10683229Y-15363960D02*
X10692753Y-15354436D01*
X10692753Y-15354436D02*
X10692753Y-15373484D01*
X10826086Y-15173484D02*
X10845134Y-15173484D01*
X10845134Y-15173484D02*
X10864182Y-15183008D01*
X10864182Y-15183008D02*
X10873705Y-15192531D01*
X10873705Y-15192531D02*
X10883229Y-15211579D01*
X10883229Y-15211579D02*
X10892753Y-15249674D01*
X10892753Y-15249674D02*
X10892753Y-15297293D01*
X10892753Y-15297293D02*
X10883229Y-15335388D01*
X10883229Y-15335388D02*
X10873705Y-15354436D01*
X10873705Y-15354436D02*
X10864182Y-15363960D01*
X10864182Y-15363960D02*
X10845134Y-15373484D01*
X10845134Y-15373484D02*
X10826086Y-15373484D01*
X10826086Y-15373484D02*
X10807039Y-15363960D01*
X10807039Y-15363960D02*
X10797515Y-15354436D01*
X10797515Y-15354436D02*
X10787991Y-15335388D01*
X10787991Y-15335388D02*
X10778467Y-15297293D01*
X10778467Y-15297293D02*
X10778467Y-15249674D01*
X10778467Y-15249674D02*
X10787991Y-15211579D01*
X10787991Y-15211579D02*
X10797515Y-15192531D01*
X10797515Y-15192531D02*
X10807039Y-15183008D01*
X10807039Y-15183008D02*
X10826086Y-15173484D01*
X11016563Y-15173484D02*
X11035610Y-15173484D01*
X11035610Y-15173484D02*
X11054658Y-15183008D01*
X11054658Y-15183008D02*
X11064182Y-15192531D01*
X11064182Y-15192531D02*
X11073705Y-15211579D01*
X11073705Y-15211579D02*
X11083229Y-15249674D01*
X11083229Y-15249674D02*
X11083229Y-15297293D01*
X11083229Y-15297293D02*
X11073705Y-15335388D01*
X11073705Y-15335388D02*
X11064182Y-15354436D01*
X11064182Y-15354436D02*
X11054658Y-15363960D01*
X11054658Y-15363960D02*
X11035610Y-15373484D01*
X11035610Y-15373484D02*
X11016563Y-15373484D01*
X11016563Y-15373484D02*
X10997515Y-15363960D01*
X10997515Y-15363960D02*
X10987991Y-15354436D01*
X10987991Y-15354436D02*
X10978467Y-15335388D01*
X10978467Y-15335388D02*
X10968944Y-15297293D01*
X10968944Y-15297293D02*
X10968944Y-15249674D01*
X10968944Y-15249674D02*
X10978467Y-15211579D01*
X10978467Y-15211579D02*
X10987991Y-15192531D01*
X10987991Y-15192531D02*
X10997515Y-15183008D01*
X10997515Y-15183008D02*
X11016563Y-15173484D01*
X11207039Y-15173484D02*
X11226086Y-15173484D01*
X11226086Y-15173484D02*
X11245134Y-15183008D01*
X11245134Y-15183008D02*
X11254658Y-15192531D01*
X11254658Y-15192531D02*
X11264182Y-15211579D01*
X11264182Y-15211579D02*
X11273705Y-15249674D01*
X11273705Y-15249674D02*
X11273705Y-15297293D01*
X11273705Y-15297293D02*
X11264182Y-15335388D01*
X11264182Y-15335388D02*
X11254658Y-15354436D01*
X11254658Y-15354436D02*
X11245134Y-15363960D01*
X11245134Y-15363960D02*
X11226086Y-15373484D01*
X11226086Y-15373484D02*
X11207039Y-15373484D01*
X11207039Y-15373484D02*
X11187991Y-15363960D01*
X11187991Y-15363960D02*
X11178467Y-15354436D01*
X11178467Y-15354436D02*
X11168944Y-15335388D01*
X11168944Y-15335388D02*
X11159420Y-15297293D01*
X11159420Y-15297293D02*
X11159420Y-15249674D01*
X11159420Y-15249674D02*
X11168944Y-15211579D01*
X11168944Y-15211579D02*
X11178467Y-15192531D01*
X11178467Y-15192531D02*
X11187991Y-15183008D01*
X11187991Y-15183008D02*
X11207039Y-15173484D01*
X11359420Y-15373484D02*
X11359420Y-15240150D01*
X11359420Y-15259198D02*
X11368943Y-15249674D01*
X11368943Y-15249674D02*
X11387991Y-15240150D01*
X11387991Y-15240150D02*
X11416563Y-15240150D01*
X11416563Y-15240150D02*
X11435610Y-15249674D01*
X11435610Y-15249674D02*
X11445134Y-15268722D01*
X11445134Y-15268722D02*
X11445134Y-15373484D01*
X11445134Y-15268722D02*
X11454658Y-15249674D01*
X11454658Y-15249674D02*
X11473705Y-15240150D01*
X11473705Y-15240150D02*
X11502277Y-15240150D01*
X11502277Y-15240150D02*
X11521324Y-15249674D01*
X11521324Y-15249674D02*
X11530848Y-15268722D01*
X11530848Y-15268722D02*
X11530848Y-15373484D01*
X11626086Y-15373484D02*
X11626086Y-15240150D01*
X11626086Y-15259198D02*
X11635610Y-15249674D01*
X11635610Y-15249674D02*
X11654658Y-15240150D01*
X11654658Y-15240150D02*
X11683229Y-15240150D01*
X11683229Y-15240150D02*
X11702277Y-15249674D01*
X11702277Y-15249674D02*
X11711801Y-15268722D01*
X11711801Y-15268722D02*
X11711801Y-15373484D01*
X11711801Y-15268722D02*
X11721324Y-15249674D01*
X11721324Y-15249674D02*
X11740372Y-15240150D01*
X11740372Y-15240150D02*
X11768943Y-15240150D01*
X11768943Y-15240150D02*
X11787991Y-15249674D01*
X11787991Y-15249674D02*
X11797515Y-15268722D01*
X11797515Y-15268722D02*
X11797515Y-15373484D01*
X12187991Y-15163960D02*
X12016563Y-15421103D01*
X12445134Y-15173484D02*
X12464182Y-15173484D01*
X12464182Y-15173484D02*
X12483229Y-15183008D01*
X12483229Y-15183008D02*
X12492753Y-15192531D01*
X12492753Y-15192531D02*
X12502277Y-15211579D01*
X12502277Y-15211579D02*
X12511801Y-15249674D01*
X12511801Y-15249674D02*
X12511801Y-15297293D01*
X12511801Y-15297293D02*
X12502277Y-15335388D01*
X12502277Y-15335388D02*
X12492753Y-15354436D01*
X12492753Y-15354436D02*
X12483229Y-15363960D01*
X12483229Y-15363960D02*
X12464182Y-15373484D01*
X12464182Y-15373484D02*
X12445134Y-15373484D01*
X12445134Y-15373484D02*
X12426086Y-15363960D01*
X12426086Y-15363960D02*
X12416563Y-15354436D01*
X12416563Y-15354436D02*
X12407039Y-15335388D01*
X12407039Y-15335388D02*
X12397515Y-15297293D01*
X12397515Y-15297293D02*
X12397515Y-15249674D01*
X12397515Y-15249674D02*
X12407039Y-15211579D01*
X12407039Y-15211579D02*
X12416563Y-15192531D01*
X12416563Y-15192531D02*
X12426086Y-15183008D01*
X12426086Y-15183008D02*
X12445134Y-15173484D01*
X12597515Y-15354436D02*
X12607039Y-15363960D01*
X12607039Y-15363960D02*
X12597515Y-15373484D01*
X12597515Y-15373484D02*
X12587991Y-15363960D01*
X12587991Y-15363960D02*
X12597515Y-15354436D01*
X12597515Y-15354436D02*
X12597515Y-15373484D01*
X12797515Y-15373484D02*
X12683229Y-15373484D01*
X12740372Y-15373484D02*
X12740372Y-15173484D01*
X12740372Y-15173484D02*
X12721325Y-15202055D01*
X12721325Y-15202055D02*
X12702277Y-15221103D01*
X12702277Y-15221103D02*
X12683229Y-15230627D01*
X12892753Y-15373484D02*
X12930848Y-15373484D01*
X12930848Y-15373484D02*
X12949896Y-15363960D01*
X12949896Y-15363960D02*
X12959420Y-15354436D01*
X12959420Y-15354436D02*
X12978467Y-15325865D01*
X12978467Y-15325865D02*
X12987991Y-15287769D01*
X12987991Y-15287769D02*
X12987991Y-15211579D01*
X12987991Y-15211579D02*
X12978467Y-15192531D01*
X12978467Y-15192531D02*
X12968944Y-15183008D01*
X12968944Y-15183008D02*
X12949896Y-15173484D01*
X12949896Y-15173484D02*
X12911801Y-15173484D01*
X12911801Y-15173484D02*
X12892753Y-15183008D01*
X12892753Y-15183008D02*
X12883229Y-15192531D01*
X12883229Y-15192531D02*
X12873706Y-15211579D01*
X12873706Y-15211579D02*
X12873706Y-15259198D01*
X12873706Y-15259198D02*
X12883229Y-15278246D01*
X12883229Y-15278246D02*
X12892753Y-15287769D01*
X12892753Y-15287769D02*
X12911801Y-15297293D01*
X12911801Y-15297293D02*
X12949896Y-15297293D01*
X12949896Y-15297293D02*
X12968944Y-15287769D01*
X12968944Y-15287769D02*
X12978467Y-15278246D01*
X12978467Y-15278246D02*
X12987991Y-15259198D01*
X13159420Y-15173484D02*
X13121325Y-15173484D01*
X13121325Y-15173484D02*
X13102277Y-15183008D01*
X13102277Y-15183008D02*
X13092753Y-15192531D01*
X13092753Y-15192531D02*
X13073706Y-15221103D01*
X13073706Y-15221103D02*
X13064182Y-15259198D01*
X13064182Y-15259198D02*
X13064182Y-15335388D01*
X13064182Y-15335388D02*
X13073706Y-15354436D01*
X13073706Y-15354436D02*
X13083229Y-15363960D01*
X13083229Y-15363960D02*
X13102277Y-15373484D01*
X13102277Y-15373484D02*
X13140372Y-15373484D01*
X13140372Y-15373484D02*
X13159420Y-15363960D01*
X13159420Y-15363960D02*
X13168944Y-15354436D01*
X13168944Y-15354436D02*
X13178467Y-15335388D01*
X13178467Y-15335388D02*
X13178467Y-15287769D01*
X13178467Y-15287769D02*
X13168944Y-15268722D01*
X13168944Y-15268722D02*
X13159420Y-15259198D01*
X13159420Y-15259198D02*
X13140372Y-15249674D01*
X13140372Y-15249674D02*
X13102277Y-15249674D01*
X13102277Y-15249674D02*
X13083229Y-15259198D01*
X13083229Y-15259198D02*
X13073706Y-15268722D01*
X13073706Y-15268722D02*
X13064182Y-15287769D01*
X13273706Y-15373484D02*
X13311801Y-15373484D01*
X13311801Y-15373484D02*
X13330848Y-15363960D01*
X13330848Y-15363960D02*
X13340372Y-15354436D01*
X13340372Y-15354436D02*
X13359420Y-15325865D01*
X13359420Y-15325865D02*
X13368944Y-15287769D01*
X13368944Y-15287769D02*
X13368944Y-15211579D01*
X13368944Y-15211579D02*
X13359420Y-15192531D01*
X13359420Y-15192531D02*
X13349896Y-15183008D01*
X13349896Y-15183008D02*
X13330848Y-15173484D01*
X13330848Y-15173484D02*
X13292753Y-15173484D01*
X13292753Y-15173484D02*
X13273706Y-15183008D01*
X13273706Y-15183008D02*
X13264182Y-15192531D01*
X13264182Y-15192531D02*
X13254658Y-15211579D01*
X13254658Y-15211579D02*
X13254658Y-15259198D01*
X13254658Y-15259198D02*
X13264182Y-15278246D01*
X13264182Y-15278246D02*
X13273706Y-15287769D01*
X13273706Y-15287769D02*
X13292753Y-15297293D01*
X13292753Y-15297293D02*
X13330848Y-15297293D01*
X13330848Y-15297293D02*
X13349896Y-15287769D01*
X13349896Y-15287769D02*
X13359420Y-15278246D01*
X13359420Y-15278246D02*
X13368944Y-15259198D01*
X13445134Y-15173484D02*
X13445134Y-15211579D01*
X13521325Y-15173484D02*
X13521325Y-15211579D01*
X13816563Y-15449674D02*
X13807039Y-15440150D01*
X13807039Y-15440150D02*
X13787991Y-15411579D01*
X13787991Y-15411579D02*
X13778468Y-15392531D01*
X13778468Y-15392531D02*
X13768944Y-15363960D01*
X13768944Y-15363960D02*
X13759420Y-15316341D01*
X13759420Y-15316341D02*
X13759420Y-15278246D01*
X13759420Y-15278246D02*
X13768944Y-15230627D01*
X13768944Y-15230627D02*
X13778468Y-15202055D01*
X13778468Y-15202055D02*
X13787991Y-15183008D01*
X13787991Y-15183008D02*
X13807039Y-15154436D01*
X13807039Y-15154436D02*
X13816563Y-15144912D01*
X13978468Y-15240150D02*
X13978468Y-15373484D01*
X13930848Y-15163960D02*
X13883229Y-15306817D01*
X13883229Y-15306817D02*
X14007039Y-15306817D01*
X14235610Y-15373484D02*
X14235610Y-15173484D01*
X14321325Y-15373484D02*
X14321325Y-15268722D01*
X14321325Y-15268722D02*
X14311801Y-15249674D01*
X14311801Y-15249674D02*
X14292753Y-15240150D01*
X14292753Y-15240150D02*
X14264182Y-15240150D01*
X14264182Y-15240150D02*
X14245134Y-15249674D01*
X14245134Y-15249674D02*
X14235610Y-15259198D01*
X14445134Y-15373484D02*
X14426087Y-15363960D01*
X14426087Y-15363960D02*
X14416563Y-15354436D01*
X14416563Y-15354436D02*
X14407039Y-15335388D01*
X14407039Y-15335388D02*
X14407039Y-15278246D01*
X14407039Y-15278246D02*
X14416563Y-15259198D01*
X14416563Y-15259198D02*
X14426087Y-15249674D01*
X14426087Y-15249674D02*
X14445134Y-15240150D01*
X14445134Y-15240150D02*
X14473706Y-15240150D01*
X14473706Y-15240150D02*
X14492753Y-15249674D01*
X14492753Y-15249674D02*
X14502277Y-15259198D01*
X14502277Y-15259198D02*
X14511801Y-15278246D01*
X14511801Y-15278246D02*
X14511801Y-15335388D01*
X14511801Y-15335388D02*
X14502277Y-15354436D01*
X14502277Y-15354436D02*
X14492753Y-15363960D01*
X14492753Y-15363960D02*
X14473706Y-15373484D01*
X14473706Y-15373484D02*
X14445134Y-15373484D01*
X14626087Y-15373484D02*
X14607039Y-15363960D01*
X14607039Y-15363960D02*
X14597515Y-15344912D01*
X14597515Y-15344912D02*
X14597515Y-15173484D01*
X14778468Y-15363960D02*
X14759420Y-15373484D01*
X14759420Y-15373484D02*
X14721325Y-15373484D01*
X14721325Y-15373484D02*
X14702277Y-15363960D01*
X14702277Y-15363960D02*
X14692753Y-15344912D01*
X14692753Y-15344912D02*
X14692753Y-15268722D01*
X14692753Y-15268722D02*
X14702277Y-15249674D01*
X14702277Y-15249674D02*
X14721325Y-15240150D01*
X14721325Y-15240150D02*
X14759420Y-15240150D01*
X14759420Y-15240150D02*
X14778468Y-15249674D01*
X14778468Y-15249674D02*
X14787991Y-15268722D01*
X14787991Y-15268722D02*
X14787991Y-15287769D01*
X14787991Y-15287769D02*
X14692753Y-15306817D01*
X14864182Y-15363960D02*
X14883230Y-15373484D01*
X14883230Y-15373484D02*
X14921325Y-15373484D01*
X14921325Y-15373484D02*
X14940372Y-15363960D01*
X14940372Y-15363960D02*
X14949896Y-15344912D01*
X14949896Y-15344912D02*
X14949896Y-15335388D01*
X14949896Y-15335388D02*
X14940372Y-15316341D01*
X14940372Y-15316341D02*
X14921325Y-15306817D01*
X14921325Y-15306817D02*
X14892753Y-15306817D01*
X14892753Y-15306817D02*
X14873706Y-15297293D01*
X14873706Y-15297293D02*
X14864182Y-15278246D01*
X14864182Y-15278246D02*
X14864182Y-15268722D01*
X14864182Y-15268722D02*
X14873706Y-15249674D01*
X14873706Y-15249674D02*
X14892753Y-15240150D01*
X14892753Y-15240150D02*
X14921325Y-15240150D01*
X14921325Y-15240150D02*
X14940372Y-15249674D01*
X15016563Y-15449674D02*
X15026087Y-15440150D01*
X15026087Y-15440150D02*
X15045134Y-15411579D01*
X15045134Y-15411579D02*
X15054658Y-15392531D01*
X15054658Y-15392531D02*
X15064182Y-15363960D01*
X15064182Y-15363960D02*
X15073706Y-15316341D01*
X15073706Y-15316341D02*
X15073706Y-15278246D01*
X15073706Y-15278246D02*
X15064182Y-15230627D01*
X15064182Y-15230627D02*
X15054658Y-15202055D01*
X15054658Y-15202055D02*
X15045134Y-15183008D01*
X15045134Y-15183008D02*
X15026087Y-15154436D01*
X15026087Y-15154436D02*
X15016563Y-15144912D01*
X15378468Y-15449674D02*
X15368944Y-15440150D01*
X15368944Y-15440150D02*
X15349896Y-15411579D01*
X15349896Y-15411579D02*
X15340372Y-15392531D01*
X15340372Y-15392531D02*
X15330849Y-15363960D01*
X15330849Y-15363960D02*
X15321325Y-15316341D01*
X15321325Y-15316341D02*
X15321325Y-15278246D01*
X15321325Y-15278246D02*
X15330849Y-15230627D01*
X15330849Y-15230627D02*
X15340372Y-15202055D01*
X15340372Y-15202055D02*
X15349896Y-15183008D01*
X15349896Y-15183008D02*
X15368944Y-15154436D01*
X15368944Y-15154436D02*
X15378468Y-15144912D01*
X15454658Y-15240150D02*
X15454658Y-15373484D01*
X15454658Y-15259198D02*
X15464182Y-15249674D01*
X15464182Y-15249674D02*
X15483230Y-15240150D01*
X15483230Y-15240150D02*
X15511801Y-15240150D01*
X15511801Y-15240150D02*
X15530849Y-15249674D01*
X15530849Y-15249674D02*
X15540372Y-15268722D01*
X15540372Y-15268722D02*
X15540372Y-15373484D01*
X15664182Y-15373484D02*
X15645134Y-15363960D01*
X15645134Y-15363960D02*
X15635611Y-15354436D01*
X15635611Y-15354436D02*
X15626087Y-15335388D01*
X15626087Y-15335388D02*
X15626087Y-15278246D01*
X15626087Y-15278246D02*
X15635611Y-15259198D01*
X15635611Y-15259198D02*
X15645134Y-15249674D01*
X15645134Y-15249674D02*
X15664182Y-15240150D01*
X15664182Y-15240150D02*
X15692753Y-15240150D01*
X15692753Y-15240150D02*
X15711801Y-15249674D01*
X15711801Y-15249674D02*
X15721325Y-15259198D01*
X15721325Y-15259198D02*
X15730849Y-15278246D01*
X15730849Y-15278246D02*
X15730849Y-15335388D01*
X15730849Y-15335388D02*
X15721325Y-15354436D01*
X15721325Y-15354436D02*
X15711801Y-15363960D01*
X15711801Y-15363960D02*
X15692753Y-15373484D01*
X15692753Y-15373484D02*
X15664182Y-15373484D01*
X15787992Y-15240150D02*
X15864182Y-15240150D01*
X15816563Y-15173484D02*
X15816563Y-15344912D01*
X15816563Y-15344912D02*
X15826087Y-15363960D01*
X15826087Y-15363960D02*
X15845134Y-15373484D01*
X15845134Y-15373484D02*
X15864182Y-15373484D01*
X16083230Y-15240150D02*
X16083230Y-15440150D01*
X16083230Y-15249674D02*
X16102277Y-15240150D01*
X16102277Y-15240150D02*
X16140373Y-15240150D01*
X16140373Y-15240150D02*
X16159420Y-15249674D01*
X16159420Y-15249674D02*
X16168944Y-15259198D01*
X16168944Y-15259198D02*
X16178468Y-15278246D01*
X16178468Y-15278246D02*
X16178468Y-15335388D01*
X16178468Y-15335388D02*
X16168944Y-15354436D01*
X16168944Y-15354436D02*
X16159420Y-15363960D01*
X16159420Y-15363960D02*
X16140373Y-15373484D01*
X16140373Y-15373484D02*
X16102277Y-15373484D01*
X16102277Y-15373484D02*
X16083230Y-15363960D01*
X16292753Y-15373484D02*
X16273706Y-15363960D01*
X16273706Y-15363960D02*
X16264182Y-15344912D01*
X16264182Y-15344912D02*
X16264182Y-15173484D01*
X16454658Y-15373484D02*
X16454658Y-15268722D01*
X16454658Y-15268722D02*
X16445134Y-15249674D01*
X16445134Y-15249674D02*
X16426087Y-15240150D01*
X16426087Y-15240150D02*
X16387992Y-15240150D01*
X16387992Y-15240150D02*
X16368944Y-15249674D01*
X16454658Y-15363960D02*
X16435611Y-15373484D01*
X16435611Y-15373484D02*
X16387992Y-15373484D01*
X16387992Y-15373484D02*
X16368944Y-15363960D01*
X16368944Y-15363960D02*
X16359420Y-15344912D01*
X16359420Y-15344912D02*
X16359420Y-15325865D01*
X16359420Y-15325865D02*
X16368944Y-15306817D01*
X16368944Y-15306817D02*
X16387992Y-15297293D01*
X16387992Y-15297293D02*
X16435611Y-15297293D01*
X16435611Y-15297293D02*
X16454658Y-15287769D01*
X16521325Y-15240150D02*
X16597515Y-15240150D01*
X16549896Y-15173484D02*
X16549896Y-15344912D01*
X16549896Y-15344912D02*
X16559420Y-15363960D01*
X16559420Y-15363960D02*
X16578468Y-15373484D01*
X16578468Y-15373484D02*
X16597515Y-15373484D01*
X16740373Y-15363960D02*
X16721325Y-15373484D01*
X16721325Y-15373484D02*
X16683230Y-15373484D01*
X16683230Y-15373484D02*
X16664182Y-15363960D01*
X16664182Y-15363960D02*
X16654658Y-15344912D01*
X16654658Y-15344912D02*
X16654658Y-15268722D01*
X16654658Y-15268722D02*
X16664182Y-15249674D01*
X16664182Y-15249674D02*
X16683230Y-15240150D01*
X16683230Y-15240150D02*
X16721325Y-15240150D01*
X16721325Y-15240150D02*
X16740373Y-15249674D01*
X16740373Y-15249674D02*
X16749896Y-15268722D01*
X16749896Y-15268722D02*
X16749896Y-15287769D01*
X16749896Y-15287769D02*
X16654658Y-15306817D01*
X16921325Y-15373484D02*
X16921325Y-15173484D01*
X16921325Y-15363960D02*
X16902277Y-15373484D01*
X16902277Y-15373484D02*
X16864182Y-15373484D01*
X16864182Y-15373484D02*
X16845135Y-15363960D01*
X16845135Y-15363960D02*
X16835611Y-15354436D01*
X16835611Y-15354436D02*
X16826087Y-15335388D01*
X16826087Y-15335388D02*
X16826087Y-15278246D01*
X16826087Y-15278246D02*
X16835611Y-15259198D01*
X16835611Y-15259198D02*
X16845135Y-15249674D01*
X16845135Y-15249674D02*
X16864182Y-15240150D01*
X16864182Y-15240150D02*
X16902277Y-15240150D01*
X16902277Y-15240150D02*
X16921325Y-15249674D01*
X16997516Y-15449674D02*
X17007039Y-15440150D01*
X17007039Y-15440150D02*
X17026087Y-15411579D01*
X17026087Y-15411579D02*
X17035611Y-15392531D01*
X17035611Y-15392531D02*
X17045135Y-15363960D01*
X17045135Y-15363960D02*
X17054658Y-15316341D01*
X17054658Y-15316341D02*
X17054658Y-15278246D01*
X17054658Y-15278246D02*
X17045135Y-15230627D01*
X17045135Y-15230627D02*
X17035611Y-15202055D01*
X17035611Y-15202055D02*
X17026087Y-15183008D01*
X17026087Y-15183008D02*
X17007039Y-15154436D01*
X17007039Y-15154436D02*
X16997516Y-15144912D01*
M02*
