%TF.GenerationSoftware,KiCad,Pcbnew,8.0.0*%
%TF.CreationDate,2024-03-19T14:17:14-05:00*%
%TF.ProjectId,MainBoard,4d61696e-426f-4617-9264-2e6b69636164,rev?*%
%TF.SameCoordinates,Original*%
%TF.FileFunction,Drillmap*%
%TF.FilePolarity,Positive*%
%FSLAX45Y45*%
G04 Gerber Fmt 4.5, Leading zero omitted, Abs format (unit mm)*
G04 Created by KiCad (PCBNEW 8.0.0) date 2024-03-19 14:17:14*
%MOMM*%
%LPD*%
G01*
G04 APERTURE LIST*
%ADD10C,0.200000*%
%ADD11C,0.100000*%
%ADD12C,0.110000*%
%ADD13C,0.130000*%
G04 APERTURE END LIST*
D10*
X10251500Y-4632000D02*
X20251500Y-4632000D01*
X20251500Y-14632000D01*
X10251500Y-14632000D01*
X10251500Y-4632000D01*
D11*
X10445000Y-9285000D02*
X10475000Y-9315000D01*
X10475000Y-9285000D02*
X10445000Y-9315000D01*
X10450000Y-11320000D02*
X10480000Y-11350000D01*
X10480000Y-11320000D02*
X10450000Y-11350000D01*
X10925000Y-9310000D02*
X10955000Y-9340000D01*
X10955000Y-9310000D02*
X10925000Y-9340000D01*
X10980000Y-12075000D02*
X11010000Y-12105000D01*
X11010000Y-12075000D02*
X10980000Y-12105000D01*
X11125000Y-10395000D02*
X11155000Y-10425000D01*
X11155000Y-10395000D02*
X11125000Y-10425000D01*
X11160000Y-9185000D02*
X11190000Y-9215000D01*
X11190000Y-9185000D02*
X11160000Y-9215000D01*
X11680000Y-8600000D02*
X11710000Y-8630000D01*
X11710000Y-8600000D02*
X11680000Y-8630000D01*
X12475270Y-10400670D02*
X12505270Y-10430670D01*
X12505270Y-10400670D02*
X12475270Y-10430670D01*
X12485000Y-9485000D02*
X12515000Y-9515000D01*
X12515000Y-9485000D02*
X12485000Y-9515000D01*
X12510000Y-8035000D02*
X12540000Y-8065000D01*
X12540000Y-8035000D02*
X12510000Y-8065000D01*
X12555000Y-12665000D02*
X12585000Y-12695000D01*
X12585000Y-12665000D02*
X12555000Y-12695000D01*
X12560000Y-9010000D02*
X12590000Y-9040000D01*
X12590000Y-9010000D02*
X12560000Y-9040000D01*
X12560000Y-10890000D02*
X12590000Y-10920000D01*
X12590000Y-10890000D02*
X12560000Y-10920000D01*
X12835000Y-9610000D02*
X12865000Y-9640000D01*
X12865000Y-9610000D02*
X12835000Y-9640000D01*
X12835000Y-9860000D02*
X12865000Y-9890000D01*
X12865000Y-9860000D02*
X12835000Y-9890000D01*
X12935000Y-8485000D02*
X12965000Y-8515000D01*
X12965000Y-8485000D02*
X12935000Y-8515000D01*
X13660000Y-13335000D02*
X13690000Y-13365000D01*
X13690000Y-13335000D02*
X13660000Y-13365000D01*
X13868800Y-11810000D02*
X13898800Y-11840000D01*
X13898800Y-11810000D02*
X13868800Y-11840000D01*
X14560000Y-9935000D02*
X14590000Y-9965000D01*
X14590000Y-9935000D02*
X14560000Y-9965000D01*
X15678640Y-10353700D02*
X15708640Y-10383700D01*
X15708640Y-10353700D02*
X15678640Y-10383700D01*
X15760000Y-7260000D02*
X15790000Y-7290000D01*
X15790000Y-7260000D02*
X15760000Y-7290000D01*
X15973350Y-8574040D02*
X16003350Y-8604040D01*
X16003350Y-8574040D02*
X15973350Y-8604040D01*
X17110000Y-10385000D02*
X17140000Y-10415000D01*
X17140000Y-10385000D02*
X17110000Y-10415000D01*
X17135000Y-11020000D02*
X17165000Y-11050000D01*
X17165000Y-11020000D02*
X17135000Y-11050000D01*
X17765000Y-10300000D02*
X17795000Y-10330000D01*
X17795000Y-10300000D02*
X17765000Y-10330000D01*
X17823100Y-10753360D02*
X17853100Y-10783360D01*
X17853100Y-10753360D02*
X17823100Y-10783360D01*
X17868110Y-10677000D02*
X17898110Y-10707000D01*
X17898110Y-10677000D02*
X17868110Y-10707000D01*
X17869330Y-11156960D02*
X17899330Y-11186960D01*
X17899330Y-11156960D02*
X17869330Y-11186960D01*
X17885000Y-12735000D02*
X17915000Y-12765000D01*
X17915000Y-12735000D02*
X17885000Y-12765000D01*
X17973690Y-11094400D02*
X18003690Y-11124400D01*
X18003690Y-11094400D02*
X17973690Y-11124400D01*
X18031250Y-11152510D02*
X18061250Y-11182510D01*
X18061250Y-11152510D02*
X18031250Y-11182510D01*
X18125000Y-11446130D02*
X18155000Y-11476130D01*
X18155000Y-11446130D02*
X18125000Y-11476130D01*
X18274120Y-11071920D02*
X18304120Y-11101920D01*
X18304120Y-11071920D02*
X18274120Y-11101920D01*
X18380000Y-11405000D02*
X18410000Y-11435000D01*
X18410000Y-11405000D02*
X18380000Y-11435000D01*
X18470000Y-10500000D02*
X18500000Y-10530000D01*
X18500000Y-10500000D02*
X18470000Y-10530000D01*
X18560000Y-8160000D02*
X18590000Y-8190000D01*
X18590000Y-8160000D02*
X18560000Y-8190000D01*
X18575000Y-11800000D02*
X18605000Y-11830000D01*
X18605000Y-11800000D02*
X18575000Y-11830000D01*
X18968970Y-9764280D02*
X18998970Y-9794280D01*
X18998970Y-9764280D02*
X18968970Y-9794280D01*
X11882500Y-6037500D02*
G75*
G02*
X11802500Y-6037500I-40000J0D01*
G01*
X11802500Y-6037500D02*
G75*
G02*
X11882500Y-6037500I40000J0D01*
G01*
X11882500Y-6291500D02*
G75*
G02*
X11802500Y-6291500I-40000J0D01*
G01*
X11802500Y-6291500D02*
G75*
G02*
X11882500Y-6291500I40000J0D01*
G01*
X11882500Y-6545500D02*
G75*
G02*
X11802500Y-6545500I-40000J0D01*
G01*
X11802500Y-6545500D02*
G75*
G02*
X11882500Y-6545500I40000J0D01*
G01*
X11882500Y-6799500D02*
G75*
G02*
X11802500Y-6799500I-40000J0D01*
G01*
X11802500Y-6799500D02*
G75*
G02*
X11882500Y-6799500I40000J0D01*
G01*
X11882500Y-7053500D02*
G75*
G02*
X11802500Y-7053500I-40000J0D01*
G01*
X11802500Y-7053500D02*
G75*
G02*
X11882500Y-7053500I40000J0D01*
G01*
X11882500Y-7307500D02*
G75*
G02*
X11802500Y-7307500I-40000J0D01*
G01*
X11802500Y-7307500D02*
G75*
G02*
X11882500Y-7307500I40000J0D01*
G01*
X11882500Y-7561500D02*
G75*
G02*
X11802500Y-7561500I-40000J0D01*
G01*
X11802500Y-7561500D02*
G75*
G02*
X11882500Y-7561500I40000J0D01*
G01*
X12644500Y-6037500D02*
G75*
G02*
X12564500Y-6037500I-40000J0D01*
G01*
X12564500Y-6037500D02*
G75*
G02*
X12644500Y-6037500I40000J0D01*
G01*
X12644500Y-6291500D02*
G75*
G02*
X12564500Y-6291500I-40000J0D01*
G01*
X12564500Y-6291500D02*
G75*
G02*
X12644500Y-6291500I40000J0D01*
G01*
X12644500Y-6545500D02*
G75*
G02*
X12564500Y-6545500I-40000J0D01*
G01*
X12564500Y-6545500D02*
G75*
G02*
X12644500Y-6545500I40000J0D01*
G01*
X12644500Y-6799500D02*
G75*
G02*
X12564500Y-6799500I-40000J0D01*
G01*
X12564500Y-6799500D02*
G75*
G02*
X12644500Y-6799500I40000J0D01*
G01*
X12644500Y-7053500D02*
G75*
G02*
X12564500Y-7053500I-40000J0D01*
G01*
X12564500Y-7053500D02*
G75*
G02*
X12644500Y-7053500I40000J0D01*
G01*
X12644500Y-7307500D02*
G75*
G02*
X12564500Y-7307500I-40000J0D01*
G01*
X12564500Y-7307500D02*
G75*
G02*
X12644500Y-7307500I40000J0D01*
G01*
X12644500Y-7561500D02*
G75*
G02*
X12564500Y-7561500I-40000J0D01*
G01*
X12564500Y-7561500D02*
G75*
G02*
X12644500Y-7561500I40000J0D01*
G01*
X13307500Y-6037500D02*
G75*
G02*
X13227500Y-6037500I-40000J0D01*
G01*
X13227500Y-6037500D02*
G75*
G02*
X13307500Y-6037500I40000J0D01*
G01*
X13307500Y-6291500D02*
G75*
G02*
X13227500Y-6291500I-40000J0D01*
G01*
X13227500Y-6291500D02*
G75*
G02*
X13307500Y-6291500I40000J0D01*
G01*
X13307500Y-6545500D02*
G75*
G02*
X13227500Y-6545500I-40000J0D01*
G01*
X13227500Y-6545500D02*
G75*
G02*
X13307500Y-6545500I40000J0D01*
G01*
X13307500Y-6799500D02*
G75*
G02*
X13227500Y-6799500I-40000J0D01*
G01*
X13227500Y-6799500D02*
G75*
G02*
X13307500Y-6799500I40000J0D01*
G01*
X13307500Y-7053500D02*
G75*
G02*
X13227500Y-7053500I-40000J0D01*
G01*
X13227500Y-7053500D02*
G75*
G02*
X13307500Y-7053500I40000J0D01*
G01*
X13307500Y-7307500D02*
G75*
G02*
X13227500Y-7307500I-40000J0D01*
G01*
X13227500Y-7307500D02*
G75*
G02*
X13307500Y-7307500I40000J0D01*
G01*
X13307500Y-7561500D02*
G75*
G02*
X13227500Y-7561500I-40000J0D01*
G01*
X13227500Y-7561500D02*
G75*
G02*
X13307500Y-7561500I40000J0D01*
G01*
X13892750Y-11300000D02*
G75*
G02*
X13812750Y-11300000I-40000J0D01*
G01*
X13812750Y-11300000D02*
G75*
G02*
X13892750Y-11300000I40000J0D01*
G01*
X13917750Y-13075000D02*
G75*
G02*
X13837750Y-13075000I-40000J0D01*
G01*
X13837750Y-13075000D02*
G75*
G02*
X13917750Y-13075000I40000J0D01*
G01*
X14069500Y-6037500D02*
G75*
G02*
X13989500Y-6037500I-40000J0D01*
G01*
X13989500Y-6037500D02*
G75*
G02*
X14069500Y-6037500I40000J0D01*
G01*
X14069500Y-6291500D02*
G75*
G02*
X13989500Y-6291500I-40000J0D01*
G01*
X13989500Y-6291500D02*
G75*
G02*
X14069500Y-6291500I40000J0D01*
G01*
X14069500Y-6545500D02*
G75*
G02*
X13989500Y-6545500I-40000J0D01*
G01*
X13989500Y-6545500D02*
G75*
G02*
X14069500Y-6545500I40000J0D01*
G01*
X14069500Y-6799500D02*
G75*
G02*
X13989500Y-6799500I-40000J0D01*
G01*
X13989500Y-6799500D02*
G75*
G02*
X14069500Y-6799500I40000J0D01*
G01*
X14069500Y-7053500D02*
G75*
G02*
X13989500Y-7053500I-40000J0D01*
G01*
X13989500Y-7053500D02*
G75*
G02*
X14069500Y-7053500I40000J0D01*
G01*
X14069500Y-7307500D02*
G75*
G02*
X13989500Y-7307500I-40000J0D01*
G01*
X13989500Y-7307500D02*
G75*
G02*
X14069500Y-7307500I40000J0D01*
G01*
X14069500Y-7561500D02*
G75*
G02*
X13989500Y-7561500I-40000J0D01*
G01*
X13989500Y-7561500D02*
G75*
G02*
X14069500Y-7561500I40000J0D01*
G01*
X14359000Y-9450000D02*
G75*
G02*
X14279000Y-9450000I-40000J0D01*
G01*
X14279000Y-9450000D02*
G75*
G02*
X14359000Y-9450000I40000J0D01*
G01*
X14654750Y-11300000D02*
G75*
G02*
X14574750Y-11300000I-40000J0D01*
G01*
X14574750Y-11300000D02*
G75*
G02*
X14654750Y-11300000I40000J0D01*
G01*
X14665000Y-5894000D02*
G75*
G02*
X14585000Y-5894000I-40000J0D01*
G01*
X14585000Y-5894000D02*
G75*
G02*
X14665000Y-5894000I40000J0D01*
G01*
X14665000Y-6656000D02*
G75*
G02*
X14585000Y-6656000I-40000J0D01*
G01*
X14585000Y-6656000D02*
G75*
G02*
X14665000Y-6656000I40000J0D01*
G01*
X14679750Y-13075000D02*
G75*
G02*
X14599750Y-13075000I-40000J0D01*
G01*
X14599750Y-13075000D02*
G75*
G02*
X14679750Y-13075000I40000J0D01*
G01*
X15042750Y-13075000D02*
G75*
G02*
X14962750Y-13075000I-40000J0D01*
G01*
X14962750Y-13075000D02*
G75*
G02*
X15042750Y-13075000I40000J0D01*
G01*
X15092750Y-11300000D02*
G75*
G02*
X15012750Y-11300000I-40000J0D01*
G01*
X15012750Y-11300000D02*
G75*
G02*
X15092750Y-11300000I40000J0D01*
G01*
X15121000Y-9450000D02*
G75*
G02*
X15041000Y-9450000I-40000J0D01*
G01*
X15041000Y-9450000D02*
G75*
G02*
X15121000Y-9450000I40000J0D01*
G01*
X15459000Y-9450000D02*
G75*
G02*
X15379000Y-9450000I-40000J0D01*
G01*
X15379000Y-9450000D02*
G75*
G02*
X15459000Y-9450000I40000J0D01*
G01*
X15465000Y-5894000D02*
G75*
G02*
X15385000Y-5894000I-40000J0D01*
G01*
X15385000Y-5894000D02*
G75*
G02*
X15465000Y-5894000I40000J0D01*
G01*
X15465000Y-6656000D02*
G75*
G02*
X15385000Y-6656000I-40000J0D01*
G01*
X15385000Y-6656000D02*
G75*
G02*
X15465000Y-6656000I40000J0D01*
G01*
X15804750Y-13075000D02*
G75*
G02*
X15724750Y-13075000I-40000J0D01*
G01*
X15724750Y-13075000D02*
G75*
G02*
X15804750Y-13075000I40000J0D01*
G01*
X15854750Y-11300000D02*
G75*
G02*
X15774750Y-11300000I-40000J0D01*
G01*
X15774750Y-11300000D02*
G75*
G02*
X15854750Y-11300000I40000J0D01*
G01*
X16221000Y-9450000D02*
G75*
G02*
X16141000Y-9450000I-40000J0D01*
G01*
X16141000Y-9450000D02*
G75*
G02*
X16221000Y-9450000I40000J0D01*
G01*
X16248330Y-5894000D02*
G75*
G02*
X16168330Y-5894000I-40000J0D01*
G01*
X16168330Y-5894000D02*
G75*
G02*
X16248330Y-5894000I40000J0D01*
G01*
X16248330Y-6656000D02*
G75*
G02*
X16168330Y-6656000I-40000J0D01*
G01*
X16168330Y-6656000D02*
G75*
G02*
X16248330Y-6656000I40000J0D01*
G01*
X17090000Y-5894000D02*
G75*
G02*
X17010000Y-5894000I-40000J0D01*
G01*
X17010000Y-5894000D02*
G75*
G02*
X17090000Y-5894000I40000J0D01*
G01*
X17090000Y-6656000D02*
G75*
G02*
X17010000Y-6656000I-40000J0D01*
G01*
X17010000Y-6656000D02*
G75*
G02*
X17090000Y-6656000I40000J0D01*
G01*
X14700000Y-5201000D02*
X14700000Y-5291000D01*
X14655000Y-5246000D02*
X14745000Y-5246000D01*
X14700000Y-5455000D02*
X14700000Y-5545000D01*
X14655000Y-5500000D02*
X14745000Y-5500000D01*
X15500000Y-5201000D02*
X15500000Y-5291000D01*
X15455000Y-5246000D02*
X15545000Y-5246000D01*
X15500000Y-5455000D02*
X15500000Y-5545000D01*
X15455000Y-5500000D02*
X15545000Y-5500000D01*
X16283330Y-5201000D02*
X16283330Y-5291000D01*
X16238330Y-5246000D02*
X16328330Y-5246000D01*
X16283330Y-5455000D02*
X16283330Y-5545000D01*
X16238330Y-5500000D02*
X16328330Y-5500000D01*
X17050000Y-5192500D02*
X17050000Y-5282500D01*
X17005000Y-5237500D02*
X17095000Y-5237500D01*
X17050000Y-5446500D02*
X17050000Y-5536500D01*
X17005000Y-5491500D02*
X17095000Y-5491500D01*
X19683588Y-6333588D02*
X19683588Y-6266412D01*
X19616412Y-6266412D01*
X19616412Y-6333588D01*
X19683588Y-6333588D01*
X19683588Y-6583588D02*
X19683588Y-6516412D01*
X19616412Y-6516412D01*
X19616412Y-6583588D01*
X19683588Y-6583588D01*
X19683588Y-6833588D02*
X19683588Y-6766412D01*
X19616412Y-6766412D01*
X19616412Y-6833588D01*
X19683588Y-6833588D01*
X19683588Y-7083588D02*
X19683588Y-7016412D01*
X19616412Y-7016412D01*
X19616412Y-7083588D01*
X19683588Y-7083588D01*
X19683588Y-8799588D02*
X19683588Y-8732412D01*
X19616412Y-8732412D01*
X19616412Y-8799588D01*
X19683588Y-8799588D01*
X19683588Y-9049588D02*
X19683588Y-8982412D01*
X19616412Y-8982412D01*
X19616412Y-9049588D01*
X19683588Y-9049588D01*
X19683588Y-9299588D02*
X19683588Y-9232412D01*
X19616412Y-9232412D01*
X19616412Y-9299588D01*
X19683588Y-9299588D01*
X19683588Y-9549588D02*
X19683588Y-9482412D01*
X19616412Y-9482412D01*
X19616412Y-9549588D01*
X19683588Y-9549588D01*
X19683588Y-11265588D02*
X19683588Y-11198412D01*
X19616412Y-11198412D01*
X19616412Y-11265588D01*
X19683588Y-11265588D01*
X19683588Y-11515588D02*
X19683588Y-11448412D01*
X19616412Y-11448412D01*
X19616412Y-11515588D01*
X19683588Y-11515588D01*
X19683588Y-11765588D02*
X19683588Y-11698412D01*
X19616412Y-11698412D01*
X19616412Y-11765588D01*
X19683588Y-11765588D01*
X19683588Y-12015588D02*
X19683588Y-11948412D01*
X19616412Y-11948412D01*
X19616412Y-12015588D01*
X19683588Y-12015588D01*
X10675000Y-8050000D02*
X10725000Y-8000000D01*
X10675000Y-7950000D01*
X10625000Y-8000000D01*
X10675000Y-8050000D01*
X10675000Y-8304000D02*
X10725000Y-8254000D01*
X10675000Y-8204000D01*
X10625000Y-8254000D01*
X10675000Y-8304000D01*
X10675000Y-8558000D02*
X10725000Y-8508000D01*
X10675000Y-8458000D01*
X10625000Y-8508000D01*
X10675000Y-8558000D01*
X10675000Y-8812000D02*
X10725000Y-8762000D01*
X10675000Y-8712000D01*
X10625000Y-8762000D01*
X10675000Y-8812000D01*
X10675000Y-9600000D02*
X10725000Y-9550000D01*
X10675000Y-9500000D01*
X10625000Y-9550000D01*
X10675000Y-9600000D01*
X10675000Y-9854000D02*
X10725000Y-9804000D01*
X10675000Y-9754000D01*
X10625000Y-9804000D01*
X10675000Y-9854000D01*
X10675000Y-10108000D02*
X10725000Y-10058000D01*
X10675000Y-10008000D01*
X10625000Y-10058000D01*
X10675000Y-10108000D01*
X10675000Y-10362000D02*
X10725000Y-10312000D01*
X10675000Y-10262000D01*
X10625000Y-10312000D01*
X10675000Y-10362000D01*
X10675000Y-10616000D02*
X10725000Y-10566000D01*
X10675000Y-10516000D01*
X10625000Y-10566000D01*
X10675000Y-10616000D01*
X10675000Y-10870000D02*
X10725000Y-10820000D01*
X10675000Y-10770000D01*
X10625000Y-10820000D01*
X10675000Y-10870000D01*
X10675000Y-11625000D02*
X10725000Y-11575000D01*
X10675000Y-11525000D01*
X10625000Y-11575000D01*
X10675000Y-11625000D01*
X10675000Y-11879000D02*
X10725000Y-11829000D01*
X10675000Y-11779000D01*
X10625000Y-11829000D01*
X10675000Y-11879000D01*
X10675000Y-12133000D02*
X10725000Y-12083000D01*
X10675000Y-12033000D01*
X10625000Y-12083000D01*
X10675000Y-12133000D01*
X10675000Y-12387000D02*
X10725000Y-12337000D01*
X10675000Y-12287000D01*
X10625000Y-12337000D01*
X10675000Y-12387000D01*
X10675000Y-12641000D02*
X10725000Y-12591000D01*
X10675000Y-12541000D01*
X10625000Y-12591000D01*
X10675000Y-12641000D01*
X10675000Y-12895000D02*
X10725000Y-12845000D01*
X10675000Y-12795000D01*
X10625000Y-12845000D01*
X10675000Y-12895000D01*
X12692000Y-5425000D02*
X12742000Y-5375000D01*
X12692000Y-5325000D01*
X12642000Y-5375000D01*
X12692000Y-5425000D01*
X12946000Y-5425000D02*
X12996000Y-5375000D01*
X12946000Y-5325000D01*
X12896000Y-5375000D01*
X12946000Y-5425000D01*
X13200000Y-5425000D02*
X13250000Y-5375000D01*
X13200000Y-5325000D01*
X13150000Y-5375000D01*
X13200000Y-5425000D01*
X14558750Y-10675000D02*
X14608750Y-10625000D01*
X14558750Y-10575000D01*
X14508750Y-10625000D01*
X14558750Y-10675000D01*
X14558750Y-12400000D02*
X14608750Y-12350000D01*
X14558750Y-12300000D01*
X14508750Y-12350000D01*
X14558750Y-12400000D01*
X14658750Y-8825000D02*
X14708750Y-8775000D01*
X14658750Y-8725000D01*
X14608750Y-8775000D01*
X14658750Y-8825000D01*
X15233750Y-12400000D02*
X15283750Y-12350000D01*
X15233750Y-12300000D01*
X15183750Y-12350000D01*
X15233750Y-12400000D01*
X15258750Y-10675000D02*
X15308750Y-10625000D01*
X15258750Y-10575000D01*
X15208750Y-10625000D01*
X15258750Y-10675000D01*
X15408750Y-8825000D02*
X15458750Y-8775000D01*
X15408750Y-8725000D01*
X15358750Y-8775000D01*
X15408750Y-8825000D01*
X15743500Y-14050000D02*
X15793500Y-14000000D01*
X15743500Y-13950000D01*
X15693500Y-14000000D01*
X15743500Y-14050000D01*
X15997500Y-14050000D02*
X16047500Y-14000000D01*
X15997500Y-13950000D01*
X15947500Y-14000000D01*
X15997500Y-14050000D01*
X16251500Y-14050000D02*
X16301500Y-14000000D01*
X16251500Y-13950000D01*
X16201500Y-14000000D01*
X16251500Y-14050000D01*
X16917750Y-14050000D02*
X16967750Y-14000000D01*
X16917750Y-13950000D01*
X16867750Y-14000000D01*
X16917750Y-14050000D01*
X17171750Y-14050000D02*
X17221750Y-14000000D01*
X17171750Y-13950000D01*
X17121750Y-14000000D01*
X17171750Y-14050000D01*
X17425750Y-14050000D02*
X17475750Y-14000000D01*
X17425750Y-13950000D01*
X17375750Y-14000000D01*
X17425750Y-14050000D01*
X18092000Y-14050000D02*
X18142000Y-14000000D01*
X18092000Y-13950000D01*
X18042000Y-14000000D01*
X18092000Y-14050000D01*
X18346000Y-14050000D02*
X18396000Y-14000000D01*
X18346000Y-13950000D01*
X18296000Y-14000000D01*
X18346000Y-14050000D01*
X18600000Y-14050000D02*
X18650000Y-14000000D01*
X18600000Y-13950000D01*
X18550000Y-14000000D01*
X18600000Y-14050000D01*
D12*
X16653750Y-9395000D02*
X16763750Y-9505000D01*
X16763750Y-9395000D02*
X16653750Y-9505000D01*
X16763750Y-9450000D02*
G75*
G02*
X16653750Y-9450000I-55000J0D01*
G01*
X16653750Y-9450000D02*
G75*
G02*
X16763750Y-9450000I55000J0D01*
G01*
X16653750Y-9845000D02*
X16763750Y-9955000D01*
X16763750Y-9845000D02*
X16653750Y-9955000D01*
X16763750Y-9900000D02*
G75*
G02*
X16653750Y-9900000I-55000J0D01*
G01*
X16653750Y-9900000D02*
G75*
G02*
X16763750Y-9900000I55000J0D01*
G01*
X17303750Y-9395000D02*
X17413750Y-9505000D01*
X17413750Y-9395000D02*
X17303750Y-9505000D01*
X17413750Y-9450000D02*
G75*
G02*
X17303750Y-9450000I-55000J0D01*
G01*
X17303750Y-9450000D02*
G75*
G02*
X17413750Y-9450000I55000J0D01*
G01*
X17303750Y-9845000D02*
X17413750Y-9955000D01*
X17413750Y-9845000D02*
X17303750Y-9955000D01*
X17413750Y-9900000D02*
G75*
G02*
X17303750Y-9900000I-55000J0D01*
G01*
X17303750Y-9900000D02*
G75*
G02*
X17413750Y-9900000I55000J0D01*
G01*
D13*
X10882500Y-6510000D02*
X11012500Y-6640000D01*
X11012500Y-6510000D02*
X10882500Y-6640000D01*
X10947500Y-6510000D02*
X10947500Y-6640000D01*
X10882500Y-6575000D02*
X11012500Y-6575000D01*
X10882500Y-7010000D02*
X11012500Y-7140000D01*
X11012500Y-7010000D02*
X10882500Y-7140000D01*
X10947500Y-7010000D02*
X10947500Y-7140000D01*
X10882500Y-7075000D02*
X11012500Y-7075000D01*
X11835000Y-13860000D02*
X11965000Y-13990000D01*
X11965000Y-13860000D02*
X11835000Y-13990000D01*
X11900000Y-13860000D02*
X11900000Y-13990000D01*
X11835000Y-13925000D02*
X11965000Y-13925000D01*
X12335000Y-13860000D02*
X12465000Y-13990000D01*
X12465000Y-13860000D02*
X12335000Y-13990000D01*
X12400000Y-13860000D02*
X12400000Y-13990000D01*
X12335000Y-13925000D02*
X12465000Y-13925000D01*
X13122500Y-13860000D02*
X13252500Y-13990000D01*
X13252500Y-13860000D02*
X13122500Y-13990000D01*
X13187500Y-13860000D02*
X13187500Y-13990000D01*
X13122500Y-13925000D02*
X13252500Y-13925000D01*
X13622500Y-13860000D02*
X13752500Y-13990000D01*
X13752500Y-13860000D02*
X13622500Y-13990000D01*
X13687500Y-13860000D02*
X13687500Y-13990000D01*
X13622500Y-13925000D02*
X13752500Y-13925000D01*
X14410000Y-13860000D02*
X14540000Y-13990000D01*
X14540000Y-13860000D02*
X14410000Y-13990000D01*
X14475000Y-13860000D02*
X14475000Y-13990000D01*
X14410000Y-13925000D02*
X14540000Y-13925000D01*
X14910000Y-13860000D02*
X15040000Y-13990000D01*
X15040000Y-13860000D02*
X14910000Y-13990000D01*
X14975000Y-13860000D02*
X14975000Y-13990000D01*
X14910000Y-13925000D02*
X15040000Y-13925000D01*
X18035000Y-5185000D02*
X18165000Y-5315000D01*
X18165000Y-5185000D02*
X18035000Y-5315000D01*
X18100000Y-5185000D02*
X18100000Y-5315000D01*
X18035000Y-5250000D02*
X18165000Y-5250000D01*
X18535000Y-5185000D02*
X18665000Y-5315000D01*
X18665000Y-5185000D02*
X18535000Y-5315000D01*
X18600000Y-5185000D02*
X18600000Y-5315000D01*
X18535000Y-5250000D02*
X18665000Y-5250000D01*
D10*
X10502277Y-14953484D02*
X10502277Y-14753484D01*
X10502277Y-14753484D02*
X10549896Y-14753484D01*
X10549896Y-14753484D02*
X10578467Y-14763008D01*
X10578467Y-14763008D02*
X10597515Y-14782055D01*
X10597515Y-14782055D02*
X10607039Y-14801103D01*
X10607039Y-14801103D02*
X10616563Y-14839198D01*
X10616563Y-14839198D02*
X10616563Y-14867769D01*
X10616563Y-14867769D02*
X10607039Y-14905865D01*
X10607039Y-14905865D02*
X10597515Y-14924912D01*
X10597515Y-14924912D02*
X10578467Y-14943960D01*
X10578467Y-14943960D02*
X10549896Y-14953484D01*
X10549896Y-14953484D02*
X10502277Y-14953484D01*
X10702277Y-14953484D02*
X10702277Y-14820150D01*
X10702277Y-14858246D02*
X10711801Y-14839198D01*
X10711801Y-14839198D02*
X10721324Y-14829674D01*
X10721324Y-14829674D02*
X10740372Y-14820150D01*
X10740372Y-14820150D02*
X10759420Y-14820150D01*
X10826086Y-14953484D02*
X10826086Y-14820150D01*
X10826086Y-14753484D02*
X10816563Y-14763008D01*
X10816563Y-14763008D02*
X10826086Y-14772531D01*
X10826086Y-14772531D02*
X10835610Y-14763008D01*
X10835610Y-14763008D02*
X10826086Y-14753484D01*
X10826086Y-14753484D02*
X10826086Y-14772531D01*
X10949896Y-14953484D02*
X10930848Y-14943960D01*
X10930848Y-14943960D02*
X10921324Y-14924912D01*
X10921324Y-14924912D02*
X10921324Y-14753484D01*
X11054658Y-14953484D02*
X11035610Y-14943960D01*
X11035610Y-14943960D02*
X11026086Y-14924912D01*
X11026086Y-14924912D02*
X11026086Y-14753484D01*
X11283229Y-14953484D02*
X11283229Y-14753484D01*
X11283229Y-14753484D02*
X11349896Y-14896341D01*
X11349896Y-14896341D02*
X11416562Y-14753484D01*
X11416562Y-14753484D02*
X11416562Y-14953484D01*
X11597515Y-14953484D02*
X11597515Y-14848722D01*
X11597515Y-14848722D02*
X11587991Y-14829674D01*
X11587991Y-14829674D02*
X11568943Y-14820150D01*
X11568943Y-14820150D02*
X11530848Y-14820150D01*
X11530848Y-14820150D02*
X11511801Y-14829674D01*
X11597515Y-14943960D02*
X11578467Y-14953484D01*
X11578467Y-14953484D02*
X11530848Y-14953484D01*
X11530848Y-14953484D02*
X11511801Y-14943960D01*
X11511801Y-14943960D02*
X11502277Y-14924912D01*
X11502277Y-14924912D02*
X11502277Y-14905865D01*
X11502277Y-14905865D02*
X11511801Y-14886817D01*
X11511801Y-14886817D02*
X11530848Y-14877293D01*
X11530848Y-14877293D02*
X11578467Y-14877293D01*
X11578467Y-14877293D02*
X11597515Y-14867769D01*
X11692753Y-14820150D02*
X11692753Y-15020150D01*
X11692753Y-14829674D02*
X11711801Y-14820150D01*
X11711801Y-14820150D02*
X11749896Y-14820150D01*
X11749896Y-14820150D02*
X11768943Y-14829674D01*
X11768943Y-14829674D02*
X11778467Y-14839198D01*
X11778467Y-14839198D02*
X11787991Y-14858246D01*
X11787991Y-14858246D02*
X11787991Y-14915388D01*
X11787991Y-14915388D02*
X11778467Y-14934436D01*
X11778467Y-14934436D02*
X11768943Y-14943960D01*
X11768943Y-14943960D02*
X11749896Y-14953484D01*
X11749896Y-14953484D02*
X11711801Y-14953484D01*
X11711801Y-14953484D02*
X11692753Y-14943960D01*
X11873705Y-14934436D02*
X11883229Y-14943960D01*
X11883229Y-14943960D02*
X11873705Y-14953484D01*
X11873705Y-14953484D02*
X11864182Y-14943960D01*
X11864182Y-14943960D02*
X11873705Y-14934436D01*
X11873705Y-14934436D02*
X11873705Y-14953484D01*
X11873705Y-14829674D02*
X11883229Y-14839198D01*
X11883229Y-14839198D02*
X11873705Y-14848722D01*
X11873705Y-14848722D02*
X11864182Y-14839198D01*
X11864182Y-14839198D02*
X11873705Y-14829674D01*
X11873705Y-14829674D02*
X11873705Y-14848722D01*
D11*
X10211500Y-15267000D02*
X10241500Y-15297000D01*
X10241500Y-15267000D02*
X10211500Y-15297000D01*
D10*
X10540372Y-15173484D02*
X10559420Y-15173484D01*
X10559420Y-15173484D02*
X10578467Y-15183008D01*
X10578467Y-15183008D02*
X10587991Y-15192531D01*
X10587991Y-15192531D02*
X10597515Y-15211579D01*
X10597515Y-15211579D02*
X10607039Y-15249674D01*
X10607039Y-15249674D02*
X10607039Y-15297293D01*
X10607039Y-15297293D02*
X10597515Y-15335388D01*
X10597515Y-15335388D02*
X10587991Y-15354436D01*
X10587991Y-15354436D02*
X10578467Y-15363960D01*
X10578467Y-15363960D02*
X10559420Y-15373484D01*
X10559420Y-15373484D02*
X10540372Y-15373484D01*
X10540372Y-15373484D02*
X10521324Y-15363960D01*
X10521324Y-15363960D02*
X10511801Y-15354436D01*
X10511801Y-15354436D02*
X10502277Y-15335388D01*
X10502277Y-15335388D02*
X10492753Y-15297293D01*
X10492753Y-15297293D02*
X10492753Y-15249674D01*
X10492753Y-15249674D02*
X10502277Y-15211579D01*
X10502277Y-15211579D02*
X10511801Y-15192531D01*
X10511801Y-15192531D02*
X10521324Y-15183008D01*
X10521324Y-15183008D02*
X10540372Y-15173484D01*
X10692753Y-15354436D02*
X10702277Y-15363960D01*
X10702277Y-15363960D02*
X10692753Y-15373484D01*
X10692753Y-15373484D02*
X10683229Y-15363960D01*
X10683229Y-15363960D02*
X10692753Y-15354436D01*
X10692753Y-15354436D02*
X10692753Y-15373484D01*
X10768944Y-15173484D02*
X10892753Y-15173484D01*
X10892753Y-15173484D02*
X10826086Y-15249674D01*
X10826086Y-15249674D02*
X10854658Y-15249674D01*
X10854658Y-15249674D02*
X10873705Y-15259198D01*
X10873705Y-15259198D02*
X10883229Y-15268722D01*
X10883229Y-15268722D02*
X10892753Y-15287769D01*
X10892753Y-15287769D02*
X10892753Y-15335388D01*
X10892753Y-15335388D02*
X10883229Y-15354436D01*
X10883229Y-15354436D02*
X10873705Y-15363960D01*
X10873705Y-15363960D02*
X10854658Y-15373484D01*
X10854658Y-15373484D02*
X10797515Y-15373484D01*
X10797515Y-15373484D02*
X10778467Y-15363960D01*
X10778467Y-15363960D02*
X10768944Y-15354436D01*
X11016563Y-15173484D02*
X11035610Y-15173484D01*
X11035610Y-15173484D02*
X11054658Y-15183008D01*
X11054658Y-15183008D02*
X11064182Y-15192531D01*
X11064182Y-15192531D02*
X11073705Y-15211579D01*
X11073705Y-15211579D02*
X11083229Y-15249674D01*
X11083229Y-15249674D02*
X11083229Y-15297293D01*
X11083229Y-15297293D02*
X11073705Y-15335388D01*
X11073705Y-15335388D02*
X11064182Y-15354436D01*
X11064182Y-15354436D02*
X11054658Y-15363960D01*
X11054658Y-15363960D02*
X11035610Y-15373484D01*
X11035610Y-15373484D02*
X11016563Y-15373484D01*
X11016563Y-15373484D02*
X10997515Y-15363960D01*
X10997515Y-15363960D02*
X10987991Y-15354436D01*
X10987991Y-15354436D02*
X10978467Y-15335388D01*
X10978467Y-15335388D02*
X10968944Y-15297293D01*
X10968944Y-15297293D02*
X10968944Y-15249674D01*
X10968944Y-15249674D02*
X10978467Y-15211579D01*
X10978467Y-15211579D02*
X10987991Y-15192531D01*
X10987991Y-15192531D02*
X10997515Y-15183008D01*
X10997515Y-15183008D02*
X11016563Y-15173484D01*
X11207039Y-15173484D02*
X11226086Y-15173484D01*
X11226086Y-15173484D02*
X11245134Y-15183008D01*
X11245134Y-15183008D02*
X11254658Y-15192531D01*
X11254658Y-15192531D02*
X11264182Y-15211579D01*
X11264182Y-15211579D02*
X11273705Y-15249674D01*
X11273705Y-15249674D02*
X11273705Y-15297293D01*
X11273705Y-15297293D02*
X11264182Y-15335388D01*
X11264182Y-15335388D02*
X11254658Y-15354436D01*
X11254658Y-15354436D02*
X11245134Y-15363960D01*
X11245134Y-15363960D02*
X11226086Y-15373484D01*
X11226086Y-15373484D02*
X11207039Y-15373484D01*
X11207039Y-15373484D02*
X11187991Y-15363960D01*
X11187991Y-15363960D02*
X11178467Y-15354436D01*
X11178467Y-15354436D02*
X11168944Y-15335388D01*
X11168944Y-15335388D02*
X11159420Y-15297293D01*
X11159420Y-15297293D02*
X11159420Y-15249674D01*
X11159420Y-15249674D02*
X11168944Y-15211579D01*
X11168944Y-15211579D02*
X11178467Y-15192531D01*
X11178467Y-15192531D02*
X11187991Y-15183008D01*
X11187991Y-15183008D02*
X11207039Y-15173484D01*
X11359420Y-15373484D02*
X11359420Y-15240150D01*
X11359420Y-15259198D02*
X11368943Y-15249674D01*
X11368943Y-15249674D02*
X11387991Y-15240150D01*
X11387991Y-15240150D02*
X11416563Y-15240150D01*
X11416563Y-15240150D02*
X11435610Y-15249674D01*
X11435610Y-15249674D02*
X11445134Y-15268722D01*
X11445134Y-15268722D02*
X11445134Y-15373484D01*
X11445134Y-15268722D02*
X11454658Y-15249674D01*
X11454658Y-15249674D02*
X11473705Y-15240150D01*
X11473705Y-15240150D02*
X11502277Y-15240150D01*
X11502277Y-15240150D02*
X11521324Y-15249674D01*
X11521324Y-15249674D02*
X11530848Y-15268722D01*
X11530848Y-15268722D02*
X11530848Y-15373484D01*
X11626086Y-15373484D02*
X11626086Y-15240150D01*
X11626086Y-15259198D02*
X11635610Y-15249674D01*
X11635610Y-15249674D02*
X11654658Y-15240150D01*
X11654658Y-15240150D02*
X11683229Y-15240150D01*
X11683229Y-15240150D02*
X11702277Y-15249674D01*
X11702277Y-15249674D02*
X11711801Y-15268722D01*
X11711801Y-15268722D02*
X11711801Y-15373484D01*
X11711801Y-15268722D02*
X11721324Y-15249674D01*
X11721324Y-15249674D02*
X11740372Y-15240150D01*
X11740372Y-15240150D02*
X11768943Y-15240150D01*
X11768943Y-15240150D02*
X11787991Y-15249674D01*
X11787991Y-15249674D02*
X11797515Y-15268722D01*
X11797515Y-15268722D02*
X11797515Y-15373484D01*
X12187991Y-15163960D02*
X12016563Y-15421103D01*
X12445134Y-15173484D02*
X12464182Y-15173484D01*
X12464182Y-15173484D02*
X12483229Y-15183008D01*
X12483229Y-15183008D02*
X12492753Y-15192531D01*
X12492753Y-15192531D02*
X12502277Y-15211579D01*
X12502277Y-15211579D02*
X12511801Y-15249674D01*
X12511801Y-15249674D02*
X12511801Y-15297293D01*
X12511801Y-15297293D02*
X12502277Y-15335388D01*
X12502277Y-15335388D02*
X12492753Y-15354436D01*
X12492753Y-15354436D02*
X12483229Y-15363960D01*
X12483229Y-15363960D02*
X12464182Y-15373484D01*
X12464182Y-15373484D02*
X12445134Y-15373484D01*
X12445134Y-15373484D02*
X12426086Y-15363960D01*
X12426086Y-15363960D02*
X12416563Y-15354436D01*
X12416563Y-15354436D02*
X12407039Y-15335388D01*
X12407039Y-15335388D02*
X12397515Y-15297293D01*
X12397515Y-15297293D02*
X12397515Y-15249674D01*
X12397515Y-15249674D02*
X12407039Y-15211579D01*
X12407039Y-15211579D02*
X12416563Y-15192531D01*
X12416563Y-15192531D02*
X12426086Y-15183008D01*
X12426086Y-15183008D02*
X12445134Y-15173484D01*
X12597515Y-15354436D02*
X12607039Y-15363960D01*
X12607039Y-15363960D02*
X12597515Y-15373484D01*
X12597515Y-15373484D02*
X12587991Y-15363960D01*
X12587991Y-15363960D02*
X12597515Y-15354436D01*
X12597515Y-15354436D02*
X12597515Y-15373484D01*
X12730848Y-15173484D02*
X12749896Y-15173484D01*
X12749896Y-15173484D02*
X12768944Y-15183008D01*
X12768944Y-15183008D02*
X12778467Y-15192531D01*
X12778467Y-15192531D02*
X12787991Y-15211579D01*
X12787991Y-15211579D02*
X12797515Y-15249674D01*
X12797515Y-15249674D02*
X12797515Y-15297293D01*
X12797515Y-15297293D02*
X12787991Y-15335388D01*
X12787991Y-15335388D02*
X12778467Y-15354436D01*
X12778467Y-15354436D02*
X12768944Y-15363960D01*
X12768944Y-15363960D02*
X12749896Y-15373484D01*
X12749896Y-15373484D02*
X12730848Y-15373484D01*
X12730848Y-15373484D02*
X12711801Y-15363960D01*
X12711801Y-15363960D02*
X12702277Y-15354436D01*
X12702277Y-15354436D02*
X12692753Y-15335388D01*
X12692753Y-15335388D02*
X12683229Y-15297293D01*
X12683229Y-15297293D02*
X12683229Y-15249674D01*
X12683229Y-15249674D02*
X12692753Y-15211579D01*
X12692753Y-15211579D02*
X12702277Y-15192531D01*
X12702277Y-15192531D02*
X12711801Y-15183008D01*
X12711801Y-15183008D02*
X12730848Y-15173484D01*
X12987991Y-15373484D02*
X12873706Y-15373484D01*
X12930848Y-15373484D02*
X12930848Y-15173484D01*
X12930848Y-15173484D02*
X12911801Y-15202055D01*
X12911801Y-15202055D02*
X12892753Y-15221103D01*
X12892753Y-15221103D02*
X12873706Y-15230627D01*
X13178467Y-15373484D02*
X13064182Y-15373484D01*
X13121325Y-15373484D02*
X13121325Y-15173484D01*
X13121325Y-15173484D02*
X13102277Y-15202055D01*
X13102277Y-15202055D02*
X13083229Y-15221103D01*
X13083229Y-15221103D02*
X13064182Y-15230627D01*
X13292753Y-15259198D02*
X13273706Y-15249674D01*
X13273706Y-15249674D02*
X13264182Y-15240150D01*
X13264182Y-15240150D02*
X13254658Y-15221103D01*
X13254658Y-15221103D02*
X13254658Y-15211579D01*
X13254658Y-15211579D02*
X13264182Y-15192531D01*
X13264182Y-15192531D02*
X13273706Y-15183008D01*
X13273706Y-15183008D02*
X13292753Y-15173484D01*
X13292753Y-15173484D02*
X13330848Y-15173484D01*
X13330848Y-15173484D02*
X13349896Y-15183008D01*
X13349896Y-15183008D02*
X13359420Y-15192531D01*
X13359420Y-15192531D02*
X13368944Y-15211579D01*
X13368944Y-15211579D02*
X13368944Y-15221103D01*
X13368944Y-15221103D02*
X13359420Y-15240150D01*
X13359420Y-15240150D02*
X13349896Y-15249674D01*
X13349896Y-15249674D02*
X13330848Y-15259198D01*
X13330848Y-15259198D02*
X13292753Y-15259198D01*
X13292753Y-15259198D02*
X13273706Y-15268722D01*
X13273706Y-15268722D02*
X13264182Y-15278246D01*
X13264182Y-15278246D02*
X13254658Y-15297293D01*
X13254658Y-15297293D02*
X13254658Y-15335388D01*
X13254658Y-15335388D02*
X13264182Y-15354436D01*
X13264182Y-15354436D02*
X13273706Y-15363960D01*
X13273706Y-15363960D02*
X13292753Y-15373484D01*
X13292753Y-15373484D02*
X13330848Y-15373484D01*
X13330848Y-15373484D02*
X13349896Y-15363960D01*
X13349896Y-15363960D02*
X13359420Y-15354436D01*
X13359420Y-15354436D02*
X13368944Y-15335388D01*
X13368944Y-15335388D02*
X13368944Y-15297293D01*
X13368944Y-15297293D02*
X13359420Y-15278246D01*
X13359420Y-15278246D02*
X13349896Y-15268722D01*
X13349896Y-15268722D02*
X13330848Y-15259198D01*
X13445134Y-15173484D02*
X13445134Y-15211579D01*
X13521325Y-15173484D02*
X13521325Y-15211579D01*
X13816563Y-15449674D02*
X13807039Y-15440150D01*
X13807039Y-15440150D02*
X13787991Y-15411579D01*
X13787991Y-15411579D02*
X13778468Y-15392531D01*
X13778468Y-15392531D02*
X13768944Y-15363960D01*
X13768944Y-15363960D02*
X13759420Y-15316341D01*
X13759420Y-15316341D02*
X13759420Y-15278246D01*
X13759420Y-15278246D02*
X13768944Y-15230627D01*
X13768944Y-15230627D02*
X13778468Y-15202055D01*
X13778468Y-15202055D02*
X13787991Y-15183008D01*
X13787991Y-15183008D02*
X13807039Y-15154436D01*
X13807039Y-15154436D02*
X13816563Y-15144912D01*
X13873706Y-15173484D02*
X13997515Y-15173484D01*
X13997515Y-15173484D02*
X13930848Y-15249674D01*
X13930848Y-15249674D02*
X13959420Y-15249674D01*
X13959420Y-15249674D02*
X13978468Y-15259198D01*
X13978468Y-15259198D02*
X13987991Y-15268722D01*
X13987991Y-15268722D02*
X13997515Y-15287769D01*
X13997515Y-15287769D02*
X13997515Y-15335388D01*
X13997515Y-15335388D02*
X13987991Y-15354436D01*
X13987991Y-15354436D02*
X13978468Y-15363960D01*
X13978468Y-15363960D02*
X13959420Y-15373484D01*
X13959420Y-15373484D02*
X13902277Y-15373484D01*
X13902277Y-15373484D02*
X13883229Y-15363960D01*
X13883229Y-15363960D02*
X13873706Y-15354436D01*
X14111801Y-15259198D02*
X14092753Y-15249674D01*
X14092753Y-15249674D02*
X14083229Y-15240150D01*
X14083229Y-15240150D02*
X14073706Y-15221103D01*
X14073706Y-15221103D02*
X14073706Y-15211579D01*
X14073706Y-15211579D02*
X14083229Y-15192531D01*
X14083229Y-15192531D02*
X14092753Y-15183008D01*
X14092753Y-15183008D02*
X14111801Y-15173484D01*
X14111801Y-15173484D02*
X14149896Y-15173484D01*
X14149896Y-15173484D02*
X14168944Y-15183008D01*
X14168944Y-15183008D02*
X14178468Y-15192531D01*
X14178468Y-15192531D02*
X14187991Y-15211579D01*
X14187991Y-15211579D02*
X14187991Y-15221103D01*
X14187991Y-15221103D02*
X14178468Y-15240150D01*
X14178468Y-15240150D02*
X14168944Y-15249674D01*
X14168944Y-15249674D02*
X14149896Y-15259198D01*
X14149896Y-15259198D02*
X14111801Y-15259198D01*
X14111801Y-15259198D02*
X14092753Y-15268722D01*
X14092753Y-15268722D02*
X14083229Y-15278246D01*
X14083229Y-15278246D02*
X14073706Y-15297293D01*
X14073706Y-15297293D02*
X14073706Y-15335388D01*
X14073706Y-15335388D02*
X14083229Y-15354436D01*
X14083229Y-15354436D02*
X14092753Y-15363960D01*
X14092753Y-15363960D02*
X14111801Y-15373484D01*
X14111801Y-15373484D02*
X14149896Y-15373484D01*
X14149896Y-15373484D02*
X14168944Y-15363960D01*
X14168944Y-15363960D02*
X14178468Y-15354436D01*
X14178468Y-15354436D02*
X14187991Y-15335388D01*
X14187991Y-15335388D02*
X14187991Y-15297293D01*
X14187991Y-15297293D02*
X14178468Y-15278246D01*
X14178468Y-15278246D02*
X14168944Y-15268722D01*
X14168944Y-15268722D02*
X14149896Y-15259198D01*
X14426087Y-15373484D02*
X14426087Y-15173484D01*
X14511801Y-15373484D02*
X14511801Y-15268722D01*
X14511801Y-15268722D02*
X14502277Y-15249674D01*
X14502277Y-15249674D02*
X14483230Y-15240150D01*
X14483230Y-15240150D02*
X14454658Y-15240150D01*
X14454658Y-15240150D02*
X14435610Y-15249674D01*
X14435610Y-15249674D02*
X14426087Y-15259198D01*
X14635610Y-15373484D02*
X14616563Y-15363960D01*
X14616563Y-15363960D02*
X14607039Y-15354436D01*
X14607039Y-15354436D02*
X14597515Y-15335388D01*
X14597515Y-15335388D02*
X14597515Y-15278246D01*
X14597515Y-15278246D02*
X14607039Y-15259198D01*
X14607039Y-15259198D02*
X14616563Y-15249674D01*
X14616563Y-15249674D02*
X14635610Y-15240150D01*
X14635610Y-15240150D02*
X14664182Y-15240150D01*
X14664182Y-15240150D02*
X14683230Y-15249674D01*
X14683230Y-15249674D02*
X14692753Y-15259198D01*
X14692753Y-15259198D02*
X14702277Y-15278246D01*
X14702277Y-15278246D02*
X14702277Y-15335388D01*
X14702277Y-15335388D02*
X14692753Y-15354436D01*
X14692753Y-15354436D02*
X14683230Y-15363960D01*
X14683230Y-15363960D02*
X14664182Y-15373484D01*
X14664182Y-15373484D02*
X14635610Y-15373484D01*
X14816563Y-15373484D02*
X14797515Y-15363960D01*
X14797515Y-15363960D02*
X14787991Y-15344912D01*
X14787991Y-15344912D02*
X14787991Y-15173484D01*
X14968944Y-15363960D02*
X14949896Y-15373484D01*
X14949896Y-15373484D02*
X14911801Y-15373484D01*
X14911801Y-15373484D02*
X14892753Y-15363960D01*
X14892753Y-15363960D02*
X14883230Y-15344912D01*
X14883230Y-15344912D02*
X14883230Y-15268722D01*
X14883230Y-15268722D02*
X14892753Y-15249674D01*
X14892753Y-15249674D02*
X14911801Y-15240150D01*
X14911801Y-15240150D02*
X14949896Y-15240150D01*
X14949896Y-15240150D02*
X14968944Y-15249674D01*
X14968944Y-15249674D02*
X14978468Y-15268722D01*
X14978468Y-15268722D02*
X14978468Y-15287769D01*
X14978468Y-15287769D02*
X14883230Y-15306817D01*
X15054658Y-15363960D02*
X15073706Y-15373484D01*
X15073706Y-15373484D02*
X15111801Y-15373484D01*
X15111801Y-15373484D02*
X15130849Y-15363960D01*
X15130849Y-15363960D02*
X15140372Y-15344912D01*
X15140372Y-15344912D02*
X15140372Y-15335388D01*
X15140372Y-15335388D02*
X15130849Y-15316341D01*
X15130849Y-15316341D02*
X15111801Y-15306817D01*
X15111801Y-15306817D02*
X15083230Y-15306817D01*
X15083230Y-15306817D02*
X15064182Y-15297293D01*
X15064182Y-15297293D02*
X15054658Y-15278246D01*
X15054658Y-15278246D02*
X15054658Y-15268722D01*
X15054658Y-15268722D02*
X15064182Y-15249674D01*
X15064182Y-15249674D02*
X15083230Y-15240150D01*
X15083230Y-15240150D02*
X15111801Y-15240150D01*
X15111801Y-15240150D02*
X15130849Y-15249674D01*
X15207039Y-15449674D02*
X15216563Y-15440150D01*
X15216563Y-15440150D02*
X15235611Y-15411579D01*
X15235611Y-15411579D02*
X15245134Y-15392531D01*
X15245134Y-15392531D02*
X15254658Y-15363960D01*
X15254658Y-15363960D02*
X15264182Y-15316341D01*
X15264182Y-15316341D02*
X15264182Y-15278246D01*
X15264182Y-15278246D02*
X15254658Y-15230627D01*
X15254658Y-15230627D02*
X15245134Y-15202055D01*
X15245134Y-15202055D02*
X15235611Y-15183008D01*
X15235611Y-15183008D02*
X15216563Y-15154436D01*
X15216563Y-15154436D02*
X15207039Y-15144912D01*
D11*
X10241500Y-15546000D02*
G75*
G02*
X10161500Y-15546000I-40000J0D01*
G01*
X10161500Y-15546000D02*
G75*
G02*
X10241500Y-15546000I40000J0D01*
G01*
D10*
X10540372Y-15437484D02*
X10559420Y-15437484D01*
X10559420Y-15437484D02*
X10578467Y-15447008D01*
X10578467Y-15447008D02*
X10587991Y-15456531D01*
X10587991Y-15456531D02*
X10597515Y-15475579D01*
X10597515Y-15475579D02*
X10607039Y-15513674D01*
X10607039Y-15513674D02*
X10607039Y-15561293D01*
X10607039Y-15561293D02*
X10597515Y-15599388D01*
X10597515Y-15599388D02*
X10587991Y-15618436D01*
X10587991Y-15618436D02*
X10578467Y-15627960D01*
X10578467Y-15627960D02*
X10559420Y-15637484D01*
X10559420Y-15637484D02*
X10540372Y-15637484D01*
X10540372Y-15637484D02*
X10521324Y-15627960D01*
X10521324Y-15627960D02*
X10511801Y-15618436D01*
X10511801Y-15618436D02*
X10502277Y-15599388D01*
X10502277Y-15599388D02*
X10492753Y-15561293D01*
X10492753Y-15561293D02*
X10492753Y-15513674D01*
X10492753Y-15513674D02*
X10502277Y-15475579D01*
X10502277Y-15475579D02*
X10511801Y-15456531D01*
X10511801Y-15456531D02*
X10521324Y-15447008D01*
X10521324Y-15447008D02*
X10540372Y-15437484D01*
X10692753Y-15618436D02*
X10702277Y-15627960D01*
X10702277Y-15627960D02*
X10692753Y-15637484D01*
X10692753Y-15637484D02*
X10683229Y-15627960D01*
X10683229Y-15627960D02*
X10692753Y-15618436D01*
X10692753Y-15618436D02*
X10692753Y-15637484D01*
X10816563Y-15523198D02*
X10797515Y-15513674D01*
X10797515Y-15513674D02*
X10787991Y-15504150D01*
X10787991Y-15504150D02*
X10778467Y-15485103D01*
X10778467Y-15485103D02*
X10778467Y-15475579D01*
X10778467Y-15475579D02*
X10787991Y-15456531D01*
X10787991Y-15456531D02*
X10797515Y-15447008D01*
X10797515Y-15447008D02*
X10816563Y-15437484D01*
X10816563Y-15437484D02*
X10854658Y-15437484D01*
X10854658Y-15437484D02*
X10873705Y-15447008D01*
X10873705Y-15447008D02*
X10883229Y-15456531D01*
X10883229Y-15456531D02*
X10892753Y-15475579D01*
X10892753Y-15475579D02*
X10892753Y-15485103D01*
X10892753Y-15485103D02*
X10883229Y-15504150D01*
X10883229Y-15504150D02*
X10873705Y-15513674D01*
X10873705Y-15513674D02*
X10854658Y-15523198D01*
X10854658Y-15523198D02*
X10816563Y-15523198D01*
X10816563Y-15523198D02*
X10797515Y-15532722D01*
X10797515Y-15532722D02*
X10787991Y-15542246D01*
X10787991Y-15542246D02*
X10778467Y-15561293D01*
X10778467Y-15561293D02*
X10778467Y-15599388D01*
X10778467Y-15599388D02*
X10787991Y-15618436D01*
X10787991Y-15618436D02*
X10797515Y-15627960D01*
X10797515Y-15627960D02*
X10816563Y-15637484D01*
X10816563Y-15637484D02*
X10854658Y-15637484D01*
X10854658Y-15637484D02*
X10873705Y-15627960D01*
X10873705Y-15627960D02*
X10883229Y-15618436D01*
X10883229Y-15618436D02*
X10892753Y-15599388D01*
X10892753Y-15599388D02*
X10892753Y-15561293D01*
X10892753Y-15561293D02*
X10883229Y-15542246D01*
X10883229Y-15542246D02*
X10873705Y-15532722D01*
X10873705Y-15532722D02*
X10854658Y-15523198D01*
X11016563Y-15437484D02*
X11035610Y-15437484D01*
X11035610Y-15437484D02*
X11054658Y-15447008D01*
X11054658Y-15447008D02*
X11064182Y-15456531D01*
X11064182Y-15456531D02*
X11073705Y-15475579D01*
X11073705Y-15475579D02*
X11083229Y-15513674D01*
X11083229Y-15513674D02*
X11083229Y-15561293D01*
X11083229Y-15561293D02*
X11073705Y-15599388D01*
X11073705Y-15599388D02*
X11064182Y-15618436D01*
X11064182Y-15618436D02*
X11054658Y-15627960D01*
X11054658Y-15627960D02*
X11035610Y-15637484D01*
X11035610Y-15637484D02*
X11016563Y-15637484D01*
X11016563Y-15637484D02*
X10997515Y-15627960D01*
X10997515Y-15627960D02*
X10987991Y-15618436D01*
X10987991Y-15618436D02*
X10978467Y-15599388D01*
X10978467Y-15599388D02*
X10968944Y-15561293D01*
X10968944Y-15561293D02*
X10968944Y-15513674D01*
X10968944Y-15513674D02*
X10978467Y-15475579D01*
X10978467Y-15475579D02*
X10987991Y-15456531D01*
X10987991Y-15456531D02*
X10997515Y-15447008D01*
X10997515Y-15447008D02*
X11016563Y-15437484D01*
X11207039Y-15437484D02*
X11226086Y-15437484D01*
X11226086Y-15437484D02*
X11245134Y-15447008D01*
X11245134Y-15447008D02*
X11254658Y-15456531D01*
X11254658Y-15456531D02*
X11264182Y-15475579D01*
X11264182Y-15475579D02*
X11273705Y-15513674D01*
X11273705Y-15513674D02*
X11273705Y-15561293D01*
X11273705Y-15561293D02*
X11264182Y-15599388D01*
X11264182Y-15599388D02*
X11254658Y-15618436D01*
X11254658Y-15618436D02*
X11245134Y-15627960D01*
X11245134Y-15627960D02*
X11226086Y-15637484D01*
X11226086Y-15637484D02*
X11207039Y-15637484D01*
X11207039Y-15637484D02*
X11187991Y-15627960D01*
X11187991Y-15627960D02*
X11178467Y-15618436D01*
X11178467Y-15618436D02*
X11168944Y-15599388D01*
X11168944Y-15599388D02*
X11159420Y-15561293D01*
X11159420Y-15561293D02*
X11159420Y-15513674D01*
X11159420Y-15513674D02*
X11168944Y-15475579D01*
X11168944Y-15475579D02*
X11178467Y-15456531D01*
X11178467Y-15456531D02*
X11187991Y-15447008D01*
X11187991Y-15447008D02*
X11207039Y-15437484D01*
X11359420Y-15637484D02*
X11359420Y-15504150D01*
X11359420Y-15523198D02*
X11368943Y-15513674D01*
X11368943Y-15513674D02*
X11387991Y-15504150D01*
X11387991Y-15504150D02*
X11416563Y-15504150D01*
X11416563Y-15504150D02*
X11435610Y-15513674D01*
X11435610Y-15513674D02*
X11445134Y-15532722D01*
X11445134Y-15532722D02*
X11445134Y-15637484D01*
X11445134Y-15532722D02*
X11454658Y-15513674D01*
X11454658Y-15513674D02*
X11473705Y-15504150D01*
X11473705Y-15504150D02*
X11502277Y-15504150D01*
X11502277Y-15504150D02*
X11521324Y-15513674D01*
X11521324Y-15513674D02*
X11530848Y-15532722D01*
X11530848Y-15532722D02*
X11530848Y-15637484D01*
X11626086Y-15637484D02*
X11626086Y-15504150D01*
X11626086Y-15523198D02*
X11635610Y-15513674D01*
X11635610Y-15513674D02*
X11654658Y-15504150D01*
X11654658Y-15504150D02*
X11683229Y-15504150D01*
X11683229Y-15504150D02*
X11702277Y-15513674D01*
X11702277Y-15513674D02*
X11711801Y-15532722D01*
X11711801Y-15532722D02*
X11711801Y-15637484D01*
X11711801Y-15532722D02*
X11721324Y-15513674D01*
X11721324Y-15513674D02*
X11740372Y-15504150D01*
X11740372Y-15504150D02*
X11768943Y-15504150D01*
X11768943Y-15504150D02*
X11787991Y-15513674D01*
X11787991Y-15513674D02*
X11797515Y-15532722D01*
X11797515Y-15532722D02*
X11797515Y-15637484D01*
X12187991Y-15427960D02*
X12016563Y-15685103D01*
X12445134Y-15437484D02*
X12464182Y-15437484D01*
X12464182Y-15437484D02*
X12483229Y-15447008D01*
X12483229Y-15447008D02*
X12492753Y-15456531D01*
X12492753Y-15456531D02*
X12502277Y-15475579D01*
X12502277Y-15475579D02*
X12511801Y-15513674D01*
X12511801Y-15513674D02*
X12511801Y-15561293D01*
X12511801Y-15561293D02*
X12502277Y-15599388D01*
X12502277Y-15599388D02*
X12492753Y-15618436D01*
X12492753Y-15618436D02*
X12483229Y-15627960D01*
X12483229Y-15627960D02*
X12464182Y-15637484D01*
X12464182Y-15637484D02*
X12445134Y-15637484D01*
X12445134Y-15637484D02*
X12426086Y-15627960D01*
X12426086Y-15627960D02*
X12416563Y-15618436D01*
X12416563Y-15618436D02*
X12407039Y-15599388D01*
X12407039Y-15599388D02*
X12397515Y-15561293D01*
X12397515Y-15561293D02*
X12397515Y-15513674D01*
X12397515Y-15513674D02*
X12407039Y-15475579D01*
X12407039Y-15475579D02*
X12416563Y-15456531D01*
X12416563Y-15456531D02*
X12426086Y-15447008D01*
X12426086Y-15447008D02*
X12445134Y-15437484D01*
X12597515Y-15618436D02*
X12607039Y-15627960D01*
X12607039Y-15627960D02*
X12597515Y-15637484D01*
X12597515Y-15637484D02*
X12587991Y-15627960D01*
X12587991Y-15627960D02*
X12597515Y-15618436D01*
X12597515Y-15618436D02*
X12597515Y-15637484D01*
X12730848Y-15437484D02*
X12749896Y-15437484D01*
X12749896Y-15437484D02*
X12768944Y-15447008D01*
X12768944Y-15447008D02*
X12778467Y-15456531D01*
X12778467Y-15456531D02*
X12787991Y-15475579D01*
X12787991Y-15475579D02*
X12797515Y-15513674D01*
X12797515Y-15513674D02*
X12797515Y-15561293D01*
X12797515Y-15561293D02*
X12787991Y-15599388D01*
X12787991Y-15599388D02*
X12778467Y-15618436D01*
X12778467Y-15618436D02*
X12768944Y-15627960D01*
X12768944Y-15627960D02*
X12749896Y-15637484D01*
X12749896Y-15637484D02*
X12730848Y-15637484D01*
X12730848Y-15637484D02*
X12711801Y-15627960D01*
X12711801Y-15627960D02*
X12702277Y-15618436D01*
X12702277Y-15618436D02*
X12692753Y-15599388D01*
X12692753Y-15599388D02*
X12683229Y-15561293D01*
X12683229Y-15561293D02*
X12683229Y-15513674D01*
X12683229Y-15513674D02*
X12692753Y-15475579D01*
X12692753Y-15475579D02*
X12702277Y-15456531D01*
X12702277Y-15456531D02*
X12711801Y-15447008D01*
X12711801Y-15447008D02*
X12730848Y-15437484D01*
X12864182Y-15437484D02*
X12987991Y-15437484D01*
X12987991Y-15437484D02*
X12921325Y-15513674D01*
X12921325Y-15513674D02*
X12949896Y-15513674D01*
X12949896Y-15513674D02*
X12968944Y-15523198D01*
X12968944Y-15523198D02*
X12978467Y-15532722D01*
X12978467Y-15532722D02*
X12987991Y-15551769D01*
X12987991Y-15551769D02*
X12987991Y-15599388D01*
X12987991Y-15599388D02*
X12978467Y-15618436D01*
X12978467Y-15618436D02*
X12968944Y-15627960D01*
X12968944Y-15627960D02*
X12949896Y-15637484D01*
X12949896Y-15637484D02*
X12892753Y-15637484D01*
X12892753Y-15637484D02*
X12873706Y-15627960D01*
X12873706Y-15627960D02*
X12864182Y-15618436D01*
X13178467Y-15637484D02*
X13064182Y-15637484D01*
X13121325Y-15637484D02*
X13121325Y-15437484D01*
X13121325Y-15437484D02*
X13102277Y-15466055D01*
X13102277Y-15466055D02*
X13083229Y-15485103D01*
X13083229Y-15485103D02*
X13064182Y-15494627D01*
X13359420Y-15437484D02*
X13264182Y-15437484D01*
X13264182Y-15437484D02*
X13254658Y-15532722D01*
X13254658Y-15532722D02*
X13264182Y-15523198D01*
X13264182Y-15523198D02*
X13283229Y-15513674D01*
X13283229Y-15513674D02*
X13330848Y-15513674D01*
X13330848Y-15513674D02*
X13349896Y-15523198D01*
X13349896Y-15523198D02*
X13359420Y-15532722D01*
X13359420Y-15532722D02*
X13368944Y-15551769D01*
X13368944Y-15551769D02*
X13368944Y-15599388D01*
X13368944Y-15599388D02*
X13359420Y-15618436D01*
X13359420Y-15618436D02*
X13349896Y-15627960D01*
X13349896Y-15627960D02*
X13330848Y-15637484D01*
X13330848Y-15637484D02*
X13283229Y-15637484D01*
X13283229Y-15637484D02*
X13264182Y-15627960D01*
X13264182Y-15627960D02*
X13254658Y-15618436D01*
X13445134Y-15437484D02*
X13445134Y-15475579D01*
X13521325Y-15437484D02*
X13521325Y-15475579D01*
X13816563Y-15713674D02*
X13807039Y-15704150D01*
X13807039Y-15704150D02*
X13787991Y-15675579D01*
X13787991Y-15675579D02*
X13778468Y-15656531D01*
X13778468Y-15656531D02*
X13768944Y-15627960D01*
X13768944Y-15627960D02*
X13759420Y-15580341D01*
X13759420Y-15580341D02*
X13759420Y-15542246D01*
X13759420Y-15542246D02*
X13768944Y-15494627D01*
X13768944Y-15494627D02*
X13778468Y-15466055D01*
X13778468Y-15466055D02*
X13787991Y-15447008D01*
X13787991Y-15447008D02*
X13807039Y-15418436D01*
X13807039Y-15418436D02*
X13816563Y-15408912D01*
X13978468Y-15504150D02*
X13978468Y-15637484D01*
X13930848Y-15427960D02*
X13883229Y-15570817D01*
X13883229Y-15570817D02*
X14007039Y-15570817D01*
X14111801Y-15523198D02*
X14092753Y-15513674D01*
X14092753Y-15513674D02*
X14083229Y-15504150D01*
X14083229Y-15504150D02*
X14073706Y-15485103D01*
X14073706Y-15485103D02*
X14073706Y-15475579D01*
X14073706Y-15475579D02*
X14083229Y-15456531D01*
X14083229Y-15456531D02*
X14092753Y-15447008D01*
X14092753Y-15447008D02*
X14111801Y-15437484D01*
X14111801Y-15437484D02*
X14149896Y-15437484D01*
X14149896Y-15437484D02*
X14168944Y-15447008D01*
X14168944Y-15447008D02*
X14178468Y-15456531D01*
X14178468Y-15456531D02*
X14187991Y-15475579D01*
X14187991Y-15475579D02*
X14187991Y-15485103D01*
X14187991Y-15485103D02*
X14178468Y-15504150D01*
X14178468Y-15504150D02*
X14168944Y-15513674D01*
X14168944Y-15513674D02*
X14149896Y-15523198D01*
X14149896Y-15523198D02*
X14111801Y-15523198D01*
X14111801Y-15523198D02*
X14092753Y-15532722D01*
X14092753Y-15532722D02*
X14083229Y-15542246D01*
X14083229Y-15542246D02*
X14073706Y-15561293D01*
X14073706Y-15561293D02*
X14073706Y-15599388D01*
X14073706Y-15599388D02*
X14083229Y-15618436D01*
X14083229Y-15618436D02*
X14092753Y-15627960D01*
X14092753Y-15627960D02*
X14111801Y-15637484D01*
X14111801Y-15637484D02*
X14149896Y-15637484D01*
X14149896Y-15637484D02*
X14168944Y-15627960D01*
X14168944Y-15627960D02*
X14178468Y-15618436D01*
X14178468Y-15618436D02*
X14187991Y-15599388D01*
X14187991Y-15599388D02*
X14187991Y-15561293D01*
X14187991Y-15561293D02*
X14178468Y-15542246D01*
X14178468Y-15542246D02*
X14168944Y-15532722D01*
X14168944Y-15532722D02*
X14149896Y-15523198D01*
X14426087Y-15637484D02*
X14426087Y-15437484D01*
X14511801Y-15637484D02*
X14511801Y-15532722D01*
X14511801Y-15532722D02*
X14502277Y-15513674D01*
X14502277Y-15513674D02*
X14483230Y-15504150D01*
X14483230Y-15504150D02*
X14454658Y-15504150D01*
X14454658Y-15504150D02*
X14435610Y-15513674D01*
X14435610Y-15513674D02*
X14426087Y-15523198D01*
X14635610Y-15637484D02*
X14616563Y-15627960D01*
X14616563Y-15627960D02*
X14607039Y-15618436D01*
X14607039Y-15618436D02*
X14597515Y-15599388D01*
X14597515Y-15599388D02*
X14597515Y-15542246D01*
X14597515Y-15542246D02*
X14607039Y-15523198D01*
X14607039Y-15523198D02*
X14616563Y-15513674D01*
X14616563Y-15513674D02*
X14635610Y-15504150D01*
X14635610Y-15504150D02*
X14664182Y-15504150D01*
X14664182Y-15504150D02*
X14683230Y-15513674D01*
X14683230Y-15513674D02*
X14692753Y-15523198D01*
X14692753Y-15523198D02*
X14702277Y-15542246D01*
X14702277Y-15542246D02*
X14702277Y-15599388D01*
X14702277Y-15599388D02*
X14692753Y-15618436D01*
X14692753Y-15618436D02*
X14683230Y-15627960D01*
X14683230Y-15627960D02*
X14664182Y-15637484D01*
X14664182Y-15637484D02*
X14635610Y-15637484D01*
X14816563Y-15637484D02*
X14797515Y-15627960D01*
X14797515Y-15627960D02*
X14787991Y-15608912D01*
X14787991Y-15608912D02*
X14787991Y-15437484D01*
X14968944Y-15627960D02*
X14949896Y-15637484D01*
X14949896Y-15637484D02*
X14911801Y-15637484D01*
X14911801Y-15637484D02*
X14892753Y-15627960D01*
X14892753Y-15627960D02*
X14883230Y-15608912D01*
X14883230Y-15608912D02*
X14883230Y-15532722D01*
X14883230Y-15532722D02*
X14892753Y-15513674D01*
X14892753Y-15513674D02*
X14911801Y-15504150D01*
X14911801Y-15504150D02*
X14949896Y-15504150D01*
X14949896Y-15504150D02*
X14968944Y-15513674D01*
X14968944Y-15513674D02*
X14978468Y-15532722D01*
X14978468Y-15532722D02*
X14978468Y-15551769D01*
X14978468Y-15551769D02*
X14883230Y-15570817D01*
X15054658Y-15627960D02*
X15073706Y-15637484D01*
X15073706Y-15637484D02*
X15111801Y-15637484D01*
X15111801Y-15637484D02*
X15130849Y-15627960D01*
X15130849Y-15627960D02*
X15140372Y-15608912D01*
X15140372Y-15608912D02*
X15140372Y-15599388D01*
X15140372Y-15599388D02*
X15130849Y-15580341D01*
X15130849Y-15580341D02*
X15111801Y-15570817D01*
X15111801Y-15570817D02*
X15083230Y-15570817D01*
X15083230Y-15570817D02*
X15064182Y-15561293D01*
X15064182Y-15561293D02*
X15054658Y-15542246D01*
X15054658Y-15542246D02*
X15054658Y-15532722D01*
X15054658Y-15532722D02*
X15064182Y-15513674D01*
X15064182Y-15513674D02*
X15083230Y-15504150D01*
X15083230Y-15504150D02*
X15111801Y-15504150D01*
X15111801Y-15504150D02*
X15130849Y-15513674D01*
X15207039Y-15713674D02*
X15216563Y-15704150D01*
X15216563Y-15704150D02*
X15235611Y-15675579D01*
X15235611Y-15675579D02*
X15245134Y-15656531D01*
X15245134Y-15656531D02*
X15254658Y-15627960D01*
X15254658Y-15627960D02*
X15264182Y-15580341D01*
X15264182Y-15580341D02*
X15264182Y-15542246D01*
X15264182Y-15542246D02*
X15254658Y-15494627D01*
X15254658Y-15494627D02*
X15245134Y-15466055D01*
X15245134Y-15466055D02*
X15235611Y-15447008D01*
X15235611Y-15447008D02*
X15216563Y-15418436D01*
X15216563Y-15418436D02*
X15207039Y-15408912D01*
D11*
X10196500Y-15765000D02*
X10196500Y-15855000D01*
X10151500Y-15810000D02*
X10241500Y-15810000D01*
D10*
X10540372Y-15701484D02*
X10559420Y-15701484D01*
X10559420Y-15701484D02*
X10578467Y-15711008D01*
X10578467Y-15711008D02*
X10587991Y-15720531D01*
X10587991Y-15720531D02*
X10597515Y-15739579D01*
X10597515Y-15739579D02*
X10607039Y-15777674D01*
X10607039Y-15777674D02*
X10607039Y-15825293D01*
X10607039Y-15825293D02*
X10597515Y-15863388D01*
X10597515Y-15863388D02*
X10587991Y-15882436D01*
X10587991Y-15882436D02*
X10578467Y-15891960D01*
X10578467Y-15891960D02*
X10559420Y-15901484D01*
X10559420Y-15901484D02*
X10540372Y-15901484D01*
X10540372Y-15901484D02*
X10521324Y-15891960D01*
X10521324Y-15891960D02*
X10511801Y-15882436D01*
X10511801Y-15882436D02*
X10502277Y-15863388D01*
X10502277Y-15863388D02*
X10492753Y-15825293D01*
X10492753Y-15825293D02*
X10492753Y-15777674D01*
X10492753Y-15777674D02*
X10502277Y-15739579D01*
X10502277Y-15739579D02*
X10511801Y-15720531D01*
X10511801Y-15720531D02*
X10521324Y-15711008D01*
X10521324Y-15711008D02*
X10540372Y-15701484D01*
X10692753Y-15882436D02*
X10702277Y-15891960D01*
X10702277Y-15891960D02*
X10692753Y-15901484D01*
X10692753Y-15901484D02*
X10683229Y-15891960D01*
X10683229Y-15891960D02*
X10692753Y-15882436D01*
X10692753Y-15882436D02*
X10692753Y-15901484D01*
X10797515Y-15901484D02*
X10835610Y-15901484D01*
X10835610Y-15901484D02*
X10854658Y-15891960D01*
X10854658Y-15891960D02*
X10864182Y-15882436D01*
X10864182Y-15882436D02*
X10883229Y-15853865D01*
X10883229Y-15853865D02*
X10892753Y-15815769D01*
X10892753Y-15815769D02*
X10892753Y-15739579D01*
X10892753Y-15739579D02*
X10883229Y-15720531D01*
X10883229Y-15720531D02*
X10873705Y-15711008D01*
X10873705Y-15711008D02*
X10854658Y-15701484D01*
X10854658Y-15701484D02*
X10816563Y-15701484D01*
X10816563Y-15701484D02*
X10797515Y-15711008D01*
X10797515Y-15711008D02*
X10787991Y-15720531D01*
X10787991Y-15720531D02*
X10778467Y-15739579D01*
X10778467Y-15739579D02*
X10778467Y-15787198D01*
X10778467Y-15787198D02*
X10787991Y-15806246D01*
X10787991Y-15806246D02*
X10797515Y-15815769D01*
X10797515Y-15815769D02*
X10816563Y-15825293D01*
X10816563Y-15825293D02*
X10854658Y-15825293D01*
X10854658Y-15825293D02*
X10873705Y-15815769D01*
X10873705Y-15815769D02*
X10883229Y-15806246D01*
X10883229Y-15806246D02*
X10892753Y-15787198D01*
X11016563Y-15701484D02*
X11035610Y-15701484D01*
X11035610Y-15701484D02*
X11054658Y-15711008D01*
X11054658Y-15711008D02*
X11064182Y-15720531D01*
X11064182Y-15720531D02*
X11073705Y-15739579D01*
X11073705Y-15739579D02*
X11083229Y-15777674D01*
X11083229Y-15777674D02*
X11083229Y-15825293D01*
X11083229Y-15825293D02*
X11073705Y-15863388D01*
X11073705Y-15863388D02*
X11064182Y-15882436D01*
X11064182Y-15882436D02*
X11054658Y-15891960D01*
X11054658Y-15891960D02*
X11035610Y-15901484D01*
X11035610Y-15901484D02*
X11016563Y-15901484D01*
X11016563Y-15901484D02*
X10997515Y-15891960D01*
X10997515Y-15891960D02*
X10987991Y-15882436D01*
X10987991Y-15882436D02*
X10978467Y-15863388D01*
X10978467Y-15863388D02*
X10968944Y-15825293D01*
X10968944Y-15825293D02*
X10968944Y-15777674D01*
X10968944Y-15777674D02*
X10978467Y-15739579D01*
X10978467Y-15739579D02*
X10987991Y-15720531D01*
X10987991Y-15720531D02*
X10997515Y-15711008D01*
X10997515Y-15711008D02*
X11016563Y-15701484D01*
X11207039Y-15701484D02*
X11226086Y-15701484D01*
X11226086Y-15701484D02*
X11245134Y-15711008D01*
X11245134Y-15711008D02*
X11254658Y-15720531D01*
X11254658Y-15720531D02*
X11264182Y-15739579D01*
X11264182Y-15739579D02*
X11273705Y-15777674D01*
X11273705Y-15777674D02*
X11273705Y-15825293D01*
X11273705Y-15825293D02*
X11264182Y-15863388D01*
X11264182Y-15863388D02*
X11254658Y-15882436D01*
X11254658Y-15882436D02*
X11245134Y-15891960D01*
X11245134Y-15891960D02*
X11226086Y-15901484D01*
X11226086Y-15901484D02*
X11207039Y-15901484D01*
X11207039Y-15901484D02*
X11187991Y-15891960D01*
X11187991Y-15891960D02*
X11178467Y-15882436D01*
X11178467Y-15882436D02*
X11168944Y-15863388D01*
X11168944Y-15863388D02*
X11159420Y-15825293D01*
X11159420Y-15825293D02*
X11159420Y-15777674D01*
X11159420Y-15777674D02*
X11168944Y-15739579D01*
X11168944Y-15739579D02*
X11178467Y-15720531D01*
X11178467Y-15720531D02*
X11187991Y-15711008D01*
X11187991Y-15711008D02*
X11207039Y-15701484D01*
X11359420Y-15901484D02*
X11359420Y-15768150D01*
X11359420Y-15787198D02*
X11368943Y-15777674D01*
X11368943Y-15777674D02*
X11387991Y-15768150D01*
X11387991Y-15768150D02*
X11416563Y-15768150D01*
X11416563Y-15768150D02*
X11435610Y-15777674D01*
X11435610Y-15777674D02*
X11445134Y-15796722D01*
X11445134Y-15796722D02*
X11445134Y-15901484D01*
X11445134Y-15796722D02*
X11454658Y-15777674D01*
X11454658Y-15777674D02*
X11473705Y-15768150D01*
X11473705Y-15768150D02*
X11502277Y-15768150D01*
X11502277Y-15768150D02*
X11521324Y-15777674D01*
X11521324Y-15777674D02*
X11530848Y-15796722D01*
X11530848Y-15796722D02*
X11530848Y-15901484D01*
X11626086Y-15901484D02*
X11626086Y-15768150D01*
X11626086Y-15787198D02*
X11635610Y-15777674D01*
X11635610Y-15777674D02*
X11654658Y-15768150D01*
X11654658Y-15768150D02*
X11683229Y-15768150D01*
X11683229Y-15768150D02*
X11702277Y-15777674D01*
X11702277Y-15777674D02*
X11711801Y-15796722D01*
X11711801Y-15796722D02*
X11711801Y-15901484D01*
X11711801Y-15796722D02*
X11721324Y-15777674D01*
X11721324Y-15777674D02*
X11740372Y-15768150D01*
X11740372Y-15768150D02*
X11768943Y-15768150D01*
X11768943Y-15768150D02*
X11787991Y-15777674D01*
X11787991Y-15777674D02*
X11797515Y-15796722D01*
X11797515Y-15796722D02*
X11797515Y-15901484D01*
X12187991Y-15691960D02*
X12016563Y-15949103D01*
X12445134Y-15701484D02*
X12464182Y-15701484D01*
X12464182Y-15701484D02*
X12483229Y-15711008D01*
X12483229Y-15711008D02*
X12492753Y-15720531D01*
X12492753Y-15720531D02*
X12502277Y-15739579D01*
X12502277Y-15739579D02*
X12511801Y-15777674D01*
X12511801Y-15777674D02*
X12511801Y-15825293D01*
X12511801Y-15825293D02*
X12502277Y-15863388D01*
X12502277Y-15863388D02*
X12492753Y-15882436D01*
X12492753Y-15882436D02*
X12483229Y-15891960D01*
X12483229Y-15891960D02*
X12464182Y-15901484D01*
X12464182Y-15901484D02*
X12445134Y-15901484D01*
X12445134Y-15901484D02*
X12426086Y-15891960D01*
X12426086Y-15891960D02*
X12416563Y-15882436D01*
X12416563Y-15882436D02*
X12407039Y-15863388D01*
X12407039Y-15863388D02*
X12397515Y-15825293D01*
X12397515Y-15825293D02*
X12397515Y-15777674D01*
X12397515Y-15777674D02*
X12407039Y-15739579D01*
X12407039Y-15739579D02*
X12416563Y-15720531D01*
X12416563Y-15720531D02*
X12426086Y-15711008D01*
X12426086Y-15711008D02*
X12445134Y-15701484D01*
X12597515Y-15882436D02*
X12607039Y-15891960D01*
X12607039Y-15891960D02*
X12597515Y-15901484D01*
X12597515Y-15901484D02*
X12587991Y-15891960D01*
X12587991Y-15891960D02*
X12597515Y-15882436D01*
X12597515Y-15882436D02*
X12597515Y-15901484D01*
X12730848Y-15701484D02*
X12749896Y-15701484D01*
X12749896Y-15701484D02*
X12768944Y-15711008D01*
X12768944Y-15711008D02*
X12778467Y-15720531D01*
X12778467Y-15720531D02*
X12787991Y-15739579D01*
X12787991Y-15739579D02*
X12797515Y-15777674D01*
X12797515Y-15777674D02*
X12797515Y-15825293D01*
X12797515Y-15825293D02*
X12787991Y-15863388D01*
X12787991Y-15863388D02*
X12778467Y-15882436D01*
X12778467Y-15882436D02*
X12768944Y-15891960D01*
X12768944Y-15891960D02*
X12749896Y-15901484D01*
X12749896Y-15901484D02*
X12730848Y-15901484D01*
X12730848Y-15901484D02*
X12711801Y-15891960D01*
X12711801Y-15891960D02*
X12702277Y-15882436D01*
X12702277Y-15882436D02*
X12692753Y-15863388D01*
X12692753Y-15863388D02*
X12683229Y-15825293D01*
X12683229Y-15825293D02*
X12683229Y-15777674D01*
X12683229Y-15777674D02*
X12692753Y-15739579D01*
X12692753Y-15739579D02*
X12702277Y-15720531D01*
X12702277Y-15720531D02*
X12711801Y-15711008D01*
X12711801Y-15711008D02*
X12730848Y-15701484D01*
X12864182Y-15701484D02*
X12987991Y-15701484D01*
X12987991Y-15701484D02*
X12921325Y-15777674D01*
X12921325Y-15777674D02*
X12949896Y-15777674D01*
X12949896Y-15777674D02*
X12968944Y-15787198D01*
X12968944Y-15787198D02*
X12978467Y-15796722D01*
X12978467Y-15796722D02*
X12987991Y-15815769D01*
X12987991Y-15815769D02*
X12987991Y-15863388D01*
X12987991Y-15863388D02*
X12978467Y-15882436D01*
X12978467Y-15882436D02*
X12968944Y-15891960D01*
X12968944Y-15891960D02*
X12949896Y-15901484D01*
X12949896Y-15901484D02*
X12892753Y-15901484D01*
X12892753Y-15901484D02*
X12873706Y-15891960D01*
X12873706Y-15891960D02*
X12864182Y-15882436D01*
X13168944Y-15701484D02*
X13073706Y-15701484D01*
X13073706Y-15701484D02*
X13064182Y-15796722D01*
X13064182Y-15796722D02*
X13073706Y-15787198D01*
X13073706Y-15787198D02*
X13092753Y-15777674D01*
X13092753Y-15777674D02*
X13140372Y-15777674D01*
X13140372Y-15777674D02*
X13159420Y-15787198D01*
X13159420Y-15787198D02*
X13168944Y-15796722D01*
X13168944Y-15796722D02*
X13178467Y-15815769D01*
X13178467Y-15815769D02*
X13178467Y-15863388D01*
X13178467Y-15863388D02*
X13168944Y-15882436D01*
X13168944Y-15882436D02*
X13159420Y-15891960D01*
X13159420Y-15891960D02*
X13140372Y-15901484D01*
X13140372Y-15901484D02*
X13092753Y-15901484D01*
X13092753Y-15901484D02*
X13073706Y-15891960D01*
X13073706Y-15891960D02*
X13064182Y-15882436D01*
X13349896Y-15768150D02*
X13349896Y-15901484D01*
X13302277Y-15691960D02*
X13254658Y-15834817D01*
X13254658Y-15834817D02*
X13378467Y-15834817D01*
X13445134Y-15701484D02*
X13445134Y-15739579D01*
X13521325Y-15701484D02*
X13521325Y-15739579D01*
X13816563Y-15977674D02*
X13807039Y-15968150D01*
X13807039Y-15968150D02*
X13787991Y-15939579D01*
X13787991Y-15939579D02*
X13778468Y-15920531D01*
X13778468Y-15920531D02*
X13768944Y-15891960D01*
X13768944Y-15891960D02*
X13759420Y-15844341D01*
X13759420Y-15844341D02*
X13759420Y-15806246D01*
X13759420Y-15806246D02*
X13768944Y-15758627D01*
X13768944Y-15758627D02*
X13778468Y-15730055D01*
X13778468Y-15730055D02*
X13787991Y-15711008D01*
X13787991Y-15711008D02*
X13807039Y-15682436D01*
X13807039Y-15682436D02*
X13816563Y-15672912D01*
X13921325Y-15787198D02*
X13902277Y-15777674D01*
X13902277Y-15777674D02*
X13892753Y-15768150D01*
X13892753Y-15768150D02*
X13883229Y-15749103D01*
X13883229Y-15749103D02*
X13883229Y-15739579D01*
X13883229Y-15739579D02*
X13892753Y-15720531D01*
X13892753Y-15720531D02*
X13902277Y-15711008D01*
X13902277Y-15711008D02*
X13921325Y-15701484D01*
X13921325Y-15701484D02*
X13959420Y-15701484D01*
X13959420Y-15701484D02*
X13978468Y-15711008D01*
X13978468Y-15711008D02*
X13987991Y-15720531D01*
X13987991Y-15720531D02*
X13997515Y-15739579D01*
X13997515Y-15739579D02*
X13997515Y-15749103D01*
X13997515Y-15749103D02*
X13987991Y-15768150D01*
X13987991Y-15768150D02*
X13978468Y-15777674D01*
X13978468Y-15777674D02*
X13959420Y-15787198D01*
X13959420Y-15787198D02*
X13921325Y-15787198D01*
X13921325Y-15787198D02*
X13902277Y-15796722D01*
X13902277Y-15796722D02*
X13892753Y-15806246D01*
X13892753Y-15806246D02*
X13883229Y-15825293D01*
X13883229Y-15825293D02*
X13883229Y-15863388D01*
X13883229Y-15863388D02*
X13892753Y-15882436D01*
X13892753Y-15882436D02*
X13902277Y-15891960D01*
X13902277Y-15891960D02*
X13921325Y-15901484D01*
X13921325Y-15901484D02*
X13959420Y-15901484D01*
X13959420Y-15901484D02*
X13978468Y-15891960D01*
X13978468Y-15891960D02*
X13987991Y-15882436D01*
X13987991Y-15882436D02*
X13997515Y-15863388D01*
X13997515Y-15863388D02*
X13997515Y-15825293D01*
X13997515Y-15825293D02*
X13987991Y-15806246D01*
X13987991Y-15806246D02*
X13978468Y-15796722D01*
X13978468Y-15796722D02*
X13959420Y-15787198D01*
X14235610Y-15901484D02*
X14235610Y-15701484D01*
X14321325Y-15901484D02*
X14321325Y-15796722D01*
X14321325Y-15796722D02*
X14311801Y-15777674D01*
X14311801Y-15777674D02*
X14292753Y-15768150D01*
X14292753Y-15768150D02*
X14264182Y-15768150D01*
X14264182Y-15768150D02*
X14245134Y-15777674D01*
X14245134Y-15777674D02*
X14235610Y-15787198D01*
X14445134Y-15901484D02*
X14426087Y-15891960D01*
X14426087Y-15891960D02*
X14416563Y-15882436D01*
X14416563Y-15882436D02*
X14407039Y-15863388D01*
X14407039Y-15863388D02*
X14407039Y-15806246D01*
X14407039Y-15806246D02*
X14416563Y-15787198D01*
X14416563Y-15787198D02*
X14426087Y-15777674D01*
X14426087Y-15777674D02*
X14445134Y-15768150D01*
X14445134Y-15768150D02*
X14473706Y-15768150D01*
X14473706Y-15768150D02*
X14492753Y-15777674D01*
X14492753Y-15777674D02*
X14502277Y-15787198D01*
X14502277Y-15787198D02*
X14511801Y-15806246D01*
X14511801Y-15806246D02*
X14511801Y-15863388D01*
X14511801Y-15863388D02*
X14502277Y-15882436D01*
X14502277Y-15882436D02*
X14492753Y-15891960D01*
X14492753Y-15891960D02*
X14473706Y-15901484D01*
X14473706Y-15901484D02*
X14445134Y-15901484D01*
X14626087Y-15901484D02*
X14607039Y-15891960D01*
X14607039Y-15891960D02*
X14597515Y-15872912D01*
X14597515Y-15872912D02*
X14597515Y-15701484D01*
X14778468Y-15891960D02*
X14759420Y-15901484D01*
X14759420Y-15901484D02*
X14721325Y-15901484D01*
X14721325Y-15901484D02*
X14702277Y-15891960D01*
X14702277Y-15891960D02*
X14692753Y-15872912D01*
X14692753Y-15872912D02*
X14692753Y-15796722D01*
X14692753Y-15796722D02*
X14702277Y-15777674D01*
X14702277Y-15777674D02*
X14721325Y-15768150D01*
X14721325Y-15768150D02*
X14759420Y-15768150D01*
X14759420Y-15768150D02*
X14778468Y-15777674D01*
X14778468Y-15777674D02*
X14787991Y-15796722D01*
X14787991Y-15796722D02*
X14787991Y-15815769D01*
X14787991Y-15815769D02*
X14692753Y-15834817D01*
X14864182Y-15891960D02*
X14883230Y-15901484D01*
X14883230Y-15901484D02*
X14921325Y-15901484D01*
X14921325Y-15901484D02*
X14940372Y-15891960D01*
X14940372Y-15891960D02*
X14949896Y-15872912D01*
X14949896Y-15872912D02*
X14949896Y-15863388D01*
X14949896Y-15863388D02*
X14940372Y-15844341D01*
X14940372Y-15844341D02*
X14921325Y-15834817D01*
X14921325Y-15834817D02*
X14892753Y-15834817D01*
X14892753Y-15834817D02*
X14873706Y-15825293D01*
X14873706Y-15825293D02*
X14864182Y-15806246D01*
X14864182Y-15806246D02*
X14864182Y-15796722D01*
X14864182Y-15796722D02*
X14873706Y-15777674D01*
X14873706Y-15777674D02*
X14892753Y-15768150D01*
X14892753Y-15768150D02*
X14921325Y-15768150D01*
X14921325Y-15768150D02*
X14940372Y-15777674D01*
X15016563Y-15977674D02*
X15026087Y-15968150D01*
X15026087Y-15968150D02*
X15045134Y-15939579D01*
X15045134Y-15939579D02*
X15054658Y-15920531D01*
X15054658Y-15920531D02*
X15064182Y-15891960D01*
X15064182Y-15891960D02*
X15073706Y-15844341D01*
X15073706Y-15844341D02*
X15073706Y-15806246D01*
X15073706Y-15806246D02*
X15064182Y-15758627D01*
X15064182Y-15758627D02*
X15054658Y-15730055D01*
X15054658Y-15730055D02*
X15045134Y-15711008D01*
X15045134Y-15711008D02*
X15026087Y-15682436D01*
X15026087Y-15682436D02*
X15016563Y-15672912D01*
D11*
X10227588Y-16107588D02*
X10227588Y-16040412D01*
X10160412Y-16040412D01*
X10160412Y-16107588D01*
X10227588Y-16107588D01*
D10*
X10540372Y-15965484D02*
X10559420Y-15965484D01*
X10559420Y-15965484D02*
X10578467Y-15975008D01*
X10578467Y-15975008D02*
X10587991Y-15984531D01*
X10587991Y-15984531D02*
X10597515Y-16003579D01*
X10597515Y-16003579D02*
X10607039Y-16041674D01*
X10607039Y-16041674D02*
X10607039Y-16089293D01*
X10607039Y-16089293D02*
X10597515Y-16127388D01*
X10597515Y-16127388D02*
X10587991Y-16146436D01*
X10587991Y-16146436D02*
X10578467Y-16155960D01*
X10578467Y-16155960D02*
X10559420Y-16165484D01*
X10559420Y-16165484D02*
X10540372Y-16165484D01*
X10540372Y-16165484D02*
X10521324Y-16155960D01*
X10521324Y-16155960D02*
X10511801Y-16146436D01*
X10511801Y-16146436D02*
X10502277Y-16127388D01*
X10502277Y-16127388D02*
X10492753Y-16089293D01*
X10492753Y-16089293D02*
X10492753Y-16041674D01*
X10492753Y-16041674D02*
X10502277Y-16003579D01*
X10502277Y-16003579D02*
X10511801Y-15984531D01*
X10511801Y-15984531D02*
X10521324Y-15975008D01*
X10521324Y-15975008D02*
X10540372Y-15965484D01*
X10692753Y-16146436D02*
X10702277Y-16155960D01*
X10702277Y-16155960D02*
X10692753Y-16165484D01*
X10692753Y-16165484D02*
X10683229Y-16155960D01*
X10683229Y-16155960D02*
X10692753Y-16146436D01*
X10692753Y-16146436D02*
X10692753Y-16165484D01*
X10797515Y-16165484D02*
X10835610Y-16165484D01*
X10835610Y-16165484D02*
X10854658Y-16155960D01*
X10854658Y-16155960D02*
X10864182Y-16146436D01*
X10864182Y-16146436D02*
X10883229Y-16117865D01*
X10883229Y-16117865D02*
X10892753Y-16079769D01*
X10892753Y-16079769D02*
X10892753Y-16003579D01*
X10892753Y-16003579D02*
X10883229Y-15984531D01*
X10883229Y-15984531D02*
X10873705Y-15975008D01*
X10873705Y-15975008D02*
X10854658Y-15965484D01*
X10854658Y-15965484D02*
X10816563Y-15965484D01*
X10816563Y-15965484D02*
X10797515Y-15975008D01*
X10797515Y-15975008D02*
X10787991Y-15984531D01*
X10787991Y-15984531D02*
X10778467Y-16003579D01*
X10778467Y-16003579D02*
X10778467Y-16051198D01*
X10778467Y-16051198D02*
X10787991Y-16070246D01*
X10787991Y-16070246D02*
X10797515Y-16079769D01*
X10797515Y-16079769D02*
X10816563Y-16089293D01*
X10816563Y-16089293D02*
X10854658Y-16089293D01*
X10854658Y-16089293D02*
X10873705Y-16079769D01*
X10873705Y-16079769D02*
X10883229Y-16070246D01*
X10883229Y-16070246D02*
X10892753Y-16051198D01*
X11073705Y-15965484D02*
X10978467Y-15965484D01*
X10978467Y-15965484D02*
X10968944Y-16060722D01*
X10968944Y-16060722D02*
X10978467Y-16051198D01*
X10978467Y-16051198D02*
X10997515Y-16041674D01*
X10997515Y-16041674D02*
X11045134Y-16041674D01*
X11045134Y-16041674D02*
X11064182Y-16051198D01*
X11064182Y-16051198D02*
X11073705Y-16060722D01*
X11073705Y-16060722D02*
X11083229Y-16079769D01*
X11083229Y-16079769D02*
X11083229Y-16127388D01*
X11083229Y-16127388D02*
X11073705Y-16146436D01*
X11073705Y-16146436D02*
X11064182Y-16155960D01*
X11064182Y-16155960D02*
X11045134Y-16165484D01*
X11045134Y-16165484D02*
X10997515Y-16165484D01*
X10997515Y-16165484D02*
X10978467Y-16155960D01*
X10978467Y-16155960D02*
X10968944Y-16146436D01*
X11207039Y-15965484D02*
X11226086Y-15965484D01*
X11226086Y-15965484D02*
X11245134Y-15975008D01*
X11245134Y-15975008D02*
X11254658Y-15984531D01*
X11254658Y-15984531D02*
X11264182Y-16003579D01*
X11264182Y-16003579D02*
X11273705Y-16041674D01*
X11273705Y-16041674D02*
X11273705Y-16089293D01*
X11273705Y-16089293D02*
X11264182Y-16127388D01*
X11264182Y-16127388D02*
X11254658Y-16146436D01*
X11254658Y-16146436D02*
X11245134Y-16155960D01*
X11245134Y-16155960D02*
X11226086Y-16165484D01*
X11226086Y-16165484D02*
X11207039Y-16165484D01*
X11207039Y-16165484D02*
X11187991Y-16155960D01*
X11187991Y-16155960D02*
X11178467Y-16146436D01*
X11178467Y-16146436D02*
X11168944Y-16127388D01*
X11168944Y-16127388D02*
X11159420Y-16089293D01*
X11159420Y-16089293D02*
X11159420Y-16041674D01*
X11159420Y-16041674D02*
X11168944Y-16003579D01*
X11168944Y-16003579D02*
X11178467Y-15984531D01*
X11178467Y-15984531D02*
X11187991Y-15975008D01*
X11187991Y-15975008D02*
X11207039Y-15965484D01*
X11359420Y-16165484D02*
X11359420Y-16032150D01*
X11359420Y-16051198D02*
X11368943Y-16041674D01*
X11368943Y-16041674D02*
X11387991Y-16032150D01*
X11387991Y-16032150D02*
X11416563Y-16032150D01*
X11416563Y-16032150D02*
X11435610Y-16041674D01*
X11435610Y-16041674D02*
X11445134Y-16060722D01*
X11445134Y-16060722D02*
X11445134Y-16165484D01*
X11445134Y-16060722D02*
X11454658Y-16041674D01*
X11454658Y-16041674D02*
X11473705Y-16032150D01*
X11473705Y-16032150D02*
X11502277Y-16032150D01*
X11502277Y-16032150D02*
X11521324Y-16041674D01*
X11521324Y-16041674D02*
X11530848Y-16060722D01*
X11530848Y-16060722D02*
X11530848Y-16165484D01*
X11626086Y-16165484D02*
X11626086Y-16032150D01*
X11626086Y-16051198D02*
X11635610Y-16041674D01*
X11635610Y-16041674D02*
X11654658Y-16032150D01*
X11654658Y-16032150D02*
X11683229Y-16032150D01*
X11683229Y-16032150D02*
X11702277Y-16041674D01*
X11702277Y-16041674D02*
X11711801Y-16060722D01*
X11711801Y-16060722D02*
X11711801Y-16165484D01*
X11711801Y-16060722D02*
X11721324Y-16041674D01*
X11721324Y-16041674D02*
X11740372Y-16032150D01*
X11740372Y-16032150D02*
X11768943Y-16032150D01*
X11768943Y-16032150D02*
X11787991Y-16041674D01*
X11787991Y-16041674D02*
X11797515Y-16060722D01*
X11797515Y-16060722D02*
X11797515Y-16165484D01*
X12187991Y-15955960D02*
X12016563Y-16213103D01*
X12445134Y-15965484D02*
X12464182Y-15965484D01*
X12464182Y-15965484D02*
X12483229Y-15975008D01*
X12483229Y-15975008D02*
X12492753Y-15984531D01*
X12492753Y-15984531D02*
X12502277Y-16003579D01*
X12502277Y-16003579D02*
X12511801Y-16041674D01*
X12511801Y-16041674D02*
X12511801Y-16089293D01*
X12511801Y-16089293D02*
X12502277Y-16127388D01*
X12502277Y-16127388D02*
X12492753Y-16146436D01*
X12492753Y-16146436D02*
X12483229Y-16155960D01*
X12483229Y-16155960D02*
X12464182Y-16165484D01*
X12464182Y-16165484D02*
X12445134Y-16165484D01*
X12445134Y-16165484D02*
X12426086Y-16155960D01*
X12426086Y-16155960D02*
X12416563Y-16146436D01*
X12416563Y-16146436D02*
X12407039Y-16127388D01*
X12407039Y-16127388D02*
X12397515Y-16089293D01*
X12397515Y-16089293D02*
X12397515Y-16041674D01*
X12397515Y-16041674D02*
X12407039Y-16003579D01*
X12407039Y-16003579D02*
X12416563Y-15984531D01*
X12416563Y-15984531D02*
X12426086Y-15975008D01*
X12426086Y-15975008D02*
X12445134Y-15965484D01*
X12597515Y-16146436D02*
X12607039Y-16155960D01*
X12607039Y-16155960D02*
X12597515Y-16165484D01*
X12597515Y-16165484D02*
X12587991Y-16155960D01*
X12587991Y-16155960D02*
X12597515Y-16146436D01*
X12597515Y-16146436D02*
X12597515Y-16165484D01*
X12730848Y-15965484D02*
X12749896Y-15965484D01*
X12749896Y-15965484D02*
X12768944Y-15975008D01*
X12768944Y-15975008D02*
X12778467Y-15984531D01*
X12778467Y-15984531D02*
X12787991Y-16003579D01*
X12787991Y-16003579D02*
X12797515Y-16041674D01*
X12797515Y-16041674D02*
X12797515Y-16089293D01*
X12797515Y-16089293D02*
X12787991Y-16127388D01*
X12787991Y-16127388D02*
X12778467Y-16146436D01*
X12778467Y-16146436D02*
X12768944Y-16155960D01*
X12768944Y-16155960D02*
X12749896Y-16165484D01*
X12749896Y-16165484D02*
X12730848Y-16165484D01*
X12730848Y-16165484D02*
X12711801Y-16155960D01*
X12711801Y-16155960D02*
X12702277Y-16146436D01*
X12702277Y-16146436D02*
X12692753Y-16127388D01*
X12692753Y-16127388D02*
X12683229Y-16089293D01*
X12683229Y-16089293D02*
X12683229Y-16041674D01*
X12683229Y-16041674D02*
X12692753Y-16003579D01*
X12692753Y-16003579D02*
X12702277Y-15984531D01*
X12702277Y-15984531D02*
X12711801Y-15975008D01*
X12711801Y-15975008D02*
X12730848Y-15965484D01*
X12864182Y-15965484D02*
X12987991Y-15965484D01*
X12987991Y-15965484D02*
X12921325Y-16041674D01*
X12921325Y-16041674D02*
X12949896Y-16041674D01*
X12949896Y-16041674D02*
X12968944Y-16051198D01*
X12968944Y-16051198D02*
X12978467Y-16060722D01*
X12978467Y-16060722D02*
X12987991Y-16079769D01*
X12987991Y-16079769D02*
X12987991Y-16127388D01*
X12987991Y-16127388D02*
X12978467Y-16146436D01*
X12978467Y-16146436D02*
X12968944Y-16155960D01*
X12968944Y-16155960D02*
X12949896Y-16165484D01*
X12949896Y-16165484D02*
X12892753Y-16165484D01*
X12892753Y-16165484D02*
X12873706Y-16155960D01*
X12873706Y-16155960D02*
X12864182Y-16146436D01*
X13054658Y-15965484D02*
X13187991Y-15965484D01*
X13187991Y-15965484D02*
X13102277Y-16165484D01*
X13349896Y-16032150D02*
X13349896Y-16165484D01*
X13302277Y-15955960D02*
X13254658Y-16098817D01*
X13254658Y-16098817D02*
X13378467Y-16098817D01*
X13445134Y-15965484D02*
X13445134Y-16003579D01*
X13521325Y-15965484D02*
X13521325Y-16003579D01*
X13816563Y-16241674D02*
X13807039Y-16232150D01*
X13807039Y-16232150D02*
X13787991Y-16203579D01*
X13787991Y-16203579D02*
X13778468Y-16184531D01*
X13778468Y-16184531D02*
X13768944Y-16155960D01*
X13768944Y-16155960D02*
X13759420Y-16108341D01*
X13759420Y-16108341D02*
X13759420Y-16070246D01*
X13759420Y-16070246D02*
X13768944Y-16022627D01*
X13768944Y-16022627D02*
X13778468Y-15994055D01*
X13778468Y-15994055D02*
X13787991Y-15975008D01*
X13787991Y-15975008D02*
X13807039Y-15946436D01*
X13807039Y-15946436D02*
X13816563Y-15936912D01*
X13997515Y-16165484D02*
X13883229Y-16165484D01*
X13940372Y-16165484D02*
X13940372Y-15965484D01*
X13940372Y-15965484D02*
X13921325Y-15994055D01*
X13921325Y-15994055D02*
X13902277Y-16013103D01*
X13902277Y-16013103D02*
X13883229Y-16022627D01*
X14073706Y-15984531D02*
X14083229Y-15975008D01*
X14083229Y-15975008D02*
X14102277Y-15965484D01*
X14102277Y-15965484D02*
X14149896Y-15965484D01*
X14149896Y-15965484D02*
X14168944Y-15975008D01*
X14168944Y-15975008D02*
X14178468Y-15984531D01*
X14178468Y-15984531D02*
X14187991Y-16003579D01*
X14187991Y-16003579D02*
X14187991Y-16022627D01*
X14187991Y-16022627D02*
X14178468Y-16051198D01*
X14178468Y-16051198D02*
X14064182Y-16165484D01*
X14064182Y-16165484D02*
X14187991Y-16165484D01*
X14426087Y-16165484D02*
X14426087Y-15965484D01*
X14511801Y-16165484D02*
X14511801Y-16060722D01*
X14511801Y-16060722D02*
X14502277Y-16041674D01*
X14502277Y-16041674D02*
X14483230Y-16032150D01*
X14483230Y-16032150D02*
X14454658Y-16032150D01*
X14454658Y-16032150D02*
X14435610Y-16041674D01*
X14435610Y-16041674D02*
X14426087Y-16051198D01*
X14635610Y-16165484D02*
X14616563Y-16155960D01*
X14616563Y-16155960D02*
X14607039Y-16146436D01*
X14607039Y-16146436D02*
X14597515Y-16127388D01*
X14597515Y-16127388D02*
X14597515Y-16070246D01*
X14597515Y-16070246D02*
X14607039Y-16051198D01*
X14607039Y-16051198D02*
X14616563Y-16041674D01*
X14616563Y-16041674D02*
X14635610Y-16032150D01*
X14635610Y-16032150D02*
X14664182Y-16032150D01*
X14664182Y-16032150D02*
X14683230Y-16041674D01*
X14683230Y-16041674D02*
X14692753Y-16051198D01*
X14692753Y-16051198D02*
X14702277Y-16070246D01*
X14702277Y-16070246D02*
X14702277Y-16127388D01*
X14702277Y-16127388D02*
X14692753Y-16146436D01*
X14692753Y-16146436D02*
X14683230Y-16155960D01*
X14683230Y-16155960D02*
X14664182Y-16165484D01*
X14664182Y-16165484D02*
X14635610Y-16165484D01*
X14816563Y-16165484D02*
X14797515Y-16155960D01*
X14797515Y-16155960D02*
X14787991Y-16136912D01*
X14787991Y-16136912D02*
X14787991Y-15965484D01*
X14968944Y-16155960D02*
X14949896Y-16165484D01*
X14949896Y-16165484D02*
X14911801Y-16165484D01*
X14911801Y-16165484D02*
X14892753Y-16155960D01*
X14892753Y-16155960D02*
X14883230Y-16136912D01*
X14883230Y-16136912D02*
X14883230Y-16060722D01*
X14883230Y-16060722D02*
X14892753Y-16041674D01*
X14892753Y-16041674D02*
X14911801Y-16032150D01*
X14911801Y-16032150D02*
X14949896Y-16032150D01*
X14949896Y-16032150D02*
X14968944Y-16041674D01*
X14968944Y-16041674D02*
X14978468Y-16060722D01*
X14978468Y-16060722D02*
X14978468Y-16079769D01*
X14978468Y-16079769D02*
X14883230Y-16098817D01*
X15054658Y-16155960D02*
X15073706Y-16165484D01*
X15073706Y-16165484D02*
X15111801Y-16165484D01*
X15111801Y-16165484D02*
X15130849Y-16155960D01*
X15130849Y-16155960D02*
X15140372Y-16136912D01*
X15140372Y-16136912D02*
X15140372Y-16127388D01*
X15140372Y-16127388D02*
X15130849Y-16108341D01*
X15130849Y-16108341D02*
X15111801Y-16098817D01*
X15111801Y-16098817D02*
X15083230Y-16098817D01*
X15083230Y-16098817D02*
X15064182Y-16089293D01*
X15064182Y-16089293D02*
X15054658Y-16070246D01*
X15054658Y-16070246D02*
X15054658Y-16060722D01*
X15054658Y-16060722D02*
X15064182Y-16041674D01*
X15064182Y-16041674D02*
X15083230Y-16032150D01*
X15083230Y-16032150D02*
X15111801Y-16032150D01*
X15111801Y-16032150D02*
X15130849Y-16041674D01*
X15207039Y-16241674D02*
X15216563Y-16232150D01*
X15216563Y-16232150D02*
X15235611Y-16203579D01*
X15235611Y-16203579D02*
X15245134Y-16184531D01*
X15245134Y-16184531D02*
X15254658Y-16155960D01*
X15254658Y-16155960D02*
X15264182Y-16108341D01*
X15264182Y-16108341D02*
X15264182Y-16070246D01*
X15264182Y-16070246D02*
X15254658Y-16022627D01*
X15254658Y-16022627D02*
X15245134Y-15994055D01*
X15245134Y-15994055D02*
X15235611Y-15975008D01*
X15235611Y-15975008D02*
X15216563Y-15946436D01*
X15216563Y-15946436D02*
X15207039Y-15936912D01*
D11*
X10191500Y-16388000D02*
X10241500Y-16338000D01*
X10191500Y-16288000D01*
X10141500Y-16338000D01*
X10191500Y-16388000D01*
D10*
X10607039Y-16429484D02*
X10492753Y-16429484D01*
X10549896Y-16429484D02*
X10549896Y-16229484D01*
X10549896Y-16229484D02*
X10530848Y-16258055D01*
X10530848Y-16258055D02*
X10511801Y-16277103D01*
X10511801Y-16277103D02*
X10492753Y-16286627D01*
X10692753Y-16410436D02*
X10702277Y-16419960D01*
X10702277Y-16419960D02*
X10692753Y-16429484D01*
X10692753Y-16429484D02*
X10683229Y-16419960D01*
X10683229Y-16419960D02*
X10692753Y-16410436D01*
X10692753Y-16410436D02*
X10692753Y-16429484D01*
X10826086Y-16229484D02*
X10845134Y-16229484D01*
X10845134Y-16229484D02*
X10864182Y-16239008D01*
X10864182Y-16239008D02*
X10873705Y-16248531D01*
X10873705Y-16248531D02*
X10883229Y-16267579D01*
X10883229Y-16267579D02*
X10892753Y-16305674D01*
X10892753Y-16305674D02*
X10892753Y-16353293D01*
X10892753Y-16353293D02*
X10883229Y-16391388D01*
X10883229Y-16391388D02*
X10873705Y-16410436D01*
X10873705Y-16410436D02*
X10864182Y-16419960D01*
X10864182Y-16419960D02*
X10845134Y-16429484D01*
X10845134Y-16429484D02*
X10826086Y-16429484D01*
X10826086Y-16429484D02*
X10807039Y-16419960D01*
X10807039Y-16419960D02*
X10797515Y-16410436D01*
X10797515Y-16410436D02*
X10787991Y-16391388D01*
X10787991Y-16391388D02*
X10778467Y-16353293D01*
X10778467Y-16353293D02*
X10778467Y-16305674D01*
X10778467Y-16305674D02*
X10787991Y-16267579D01*
X10787991Y-16267579D02*
X10797515Y-16248531D01*
X10797515Y-16248531D02*
X10807039Y-16239008D01*
X10807039Y-16239008D02*
X10826086Y-16229484D01*
X11016563Y-16229484D02*
X11035610Y-16229484D01*
X11035610Y-16229484D02*
X11054658Y-16239008D01*
X11054658Y-16239008D02*
X11064182Y-16248531D01*
X11064182Y-16248531D02*
X11073705Y-16267579D01*
X11073705Y-16267579D02*
X11083229Y-16305674D01*
X11083229Y-16305674D02*
X11083229Y-16353293D01*
X11083229Y-16353293D02*
X11073705Y-16391388D01*
X11073705Y-16391388D02*
X11064182Y-16410436D01*
X11064182Y-16410436D02*
X11054658Y-16419960D01*
X11054658Y-16419960D02*
X11035610Y-16429484D01*
X11035610Y-16429484D02*
X11016563Y-16429484D01*
X11016563Y-16429484D02*
X10997515Y-16419960D01*
X10997515Y-16419960D02*
X10987991Y-16410436D01*
X10987991Y-16410436D02*
X10978467Y-16391388D01*
X10978467Y-16391388D02*
X10968944Y-16353293D01*
X10968944Y-16353293D02*
X10968944Y-16305674D01*
X10968944Y-16305674D02*
X10978467Y-16267579D01*
X10978467Y-16267579D02*
X10987991Y-16248531D01*
X10987991Y-16248531D02*
X10997515Y-16239008D01*
X10997515Y-16239008D02*
X11016563Y-16229484D01*
X11207039Y-16229484D02*
X11226086Y-16229484D01*
X11226086Y-16229484D02*
X11245134Y-16239008D01*
X11245134Y-16239008D02*
X11254658Y-16248531D01*
X11254658Y-16248531D02*
X11264182Y-16267579D01*
X11264182Y-16267579D02*
X11273705Y-16305674D01*
X11273705Y-16305674D02*
X11273705Y-16353293D01*
X11273705Y-16353293D02*
X11264182Y-16391388D01*
X11264182Y-16391388D02*
X11254658Y-16410436D01*
X11254658Y-16410436D02*
X11245134Y-16419960D01*
X11245134Y-16419960D02*
X11226086Y-16429484D01*
X11226086Y-16429484D02*
X11207039Y-16429484D01*
X11207039Y-16429484D02*
X11187991Y-16419960D01*
X11187991Y-16419960D02*
X11178467Y-16410436D01*
X11178467Y-16410436D02*
X11168944Y-16391388D01*
X11168944Y-16391388D02*
X11159420Y-16353293D01*
X11159420Y-16353293D02*
X11159420Y-16305674D01*
X11159420Y-16305674D02*
X11168944Y-16267579D01*
X11168944Y-16267579D02*
X11178467Y-16248531D01*
X11178467Y-16248531D02*
X11187991Y-16239008D01*
X11187991Y-16239008D02*
X11207039Y-16229484D01*
X11359420Y-16429484D02*
X11359420Y-16296150D01*
X11359420Y-16315198D02*
X11368943Y-16305674D01*
X11368943Y-16305674D02*
X11387991Y-16296150D01*
X11387991Y-16296150D02*
X11416563Y-16296150D01*
X11416563Y-16296150D02*
X11435610Y-16305674D01*
X11435610Y-16305674D02*
X11445134Y-16324722D01*
X11445134Y-16324722D02*
X11445134Y-16429484D01*
X11445134Y-16324722D02*
X11454658Y-16305674D01*
X11454658Y-16305674D02*
X11473705Y-16296150D01*
X11473705Y-16296150D02*
X11502277Y-16296150D01*
X11502277Y-16296150D02*
X11521324Y-16305674D01*
X11521324Y-16305674D02*
X11530848Y-16324722D01*
X11530848Y-16324722D02*
X11530848Y-16429484D01*
X11626086Y-16429484D02*
X11626086Y-16296150D01*
X11626086Y-16315198D02*
X11635610Y-16305674D01*
X11635610Y-16305674D02*
X11654658Y-16296150D01*
X11654658Y-16296150D02*
X11683229Y-16296150D01*
X11683229Y-16296150D02*
X11702277Y-16305674D01*
X11702277Y-16305674D02*
X11711801Y-16324722D01*
X11711801Y-16324722D02*
X11711801Y-16429484D01*
X11711801Y-16324722D02*
X11721324Y-16305674D01*
X11721324Y-16305674D02*
X11740372Y-16296150D01*
X11740372Y-16296150D02*
X11768943Y-16296150D01*
X11768943Y-16296150D02*
X11787991Y-16305674D01*
X11787991Y-16305674D02*
X11797515Y-16324722D01*
X11797515Y-16324722D02*
X11797515Y-16429484D01*
X12187991Y-16219960D02*
X12016563Y-16477103D01*
X12445134Y-16229484D02*
X12464182Y-16229484D01*
X12464182Y-16229484D02*
X12483229Y-16239008D01*
X12483229Y-16239008D02*
X12492753Y-16248531D01*
X12492753Y-16248531D02*
X12502277Y-16267579D01*
X12502277Y-16267579D02*
X12511801Y-16305674D01*
X12511801Y-16305674D02*
X12511801Y-16353293D01*
X12511801Y-16353293D02*
X12502277Y-16391388D01*
X12502277Y-16391388D02*
X12492753Y-16410436D01*
X12492753Y-16410436D02*
X12483229Y-16419960D01*
X12483229Y-16419960D02*
X12464182Y-16429484D01*
X12464182Y-16429484D02*
X12445134Y-16429484D01*
X12445134Y-16429484D02*
X12426086Y-16419960D01*
X12426086Y-16419960D02*
X12416563Y-16410436D01*
X12416563Y-16410436D02*
X12407039Y-16391388D01*
X12407039Y-16391388D02*
X12397515Y-16353293D01*
X12397515Y-16353293D02*
X12397515Y-16305674D01*
X12397515Y-16305674D02*
X12407039Y-16267579D01*
X12407039Y-16267579D02*
X12416563Y-16248531D01*
X12416563Y-16248531D02*
X12426086Y-16239008D01*
X12426086Y-16239008D02*
X12445134Y-16229484D01*
X12597515Y-16410436D02*
X12607039Y-16419960D01*
X12607039Y-16419960D02*
X12597515Y-16429484D01*
X12597515Y-16429484D02*
X12587991Y-16419960D01*
X12587991Y-16419960D02*
X12597515Y-16410436D01*
X12597515Y-16410436D02*
X12597515Y-16429484D01*
X12730848Y-16229484D02*
X12749896Y-16229484D01*
X12749896Y-16229484D02*
X12768944Y-16239008D01*
X12768944Y-16239008D02*
X12778467Y-16248531D01*
X12778467Y-16248531D02*
X12787991Y-16267579D01*
X12787991Y-16267579D02*
X12797515Y-16305674D01*
X12797515Y-16305674D02*
X12797515Y-16353293D01*
X12797515Y-16353293D02*
X12787991Y-16391388D01*
X12787991Y-16391388D02*
X12778467Y-16410436D01*
X12778467Y-16410436D02*
X12768944Y-16419960D01*
X12768944Y-16419960D02*
X12749896Y-16429484D01*
X12749896Y-16429484D02*
X12730848Y-16429484D01*
X12730848Y-16429484D02*
X12711801Y-16419960D01*
X12711801Y-16419960D02*
X12702277Y-16410436D01*
X12702277Y-16410436D02*
X12692753Y-16391388D01*
X12692753Y-16391388D02*
X12683229Y-16353293D01*
X12683229Y-16353293D02*
X12683229Y-16305674D01*
X12683229Y-16305674D02*
X12692753Y-16267579D01*
X12692753Y-16267579D02*
X12702277Y-16248531D01*
X12702277Y-16248531D02*
X12711801Y-16239008D01*
X12711801Y-16239008D02*
X12730848Y-16229484D01*
X12864182Y-16229484D02*
X12987991Y-16229484D01*
X12987991Y-16229484D02*
X12921325Y-16305674D01*
X12921325Y-16305674D02*
X12949896Y-16305674D01*
X12949896Y-16305674D02*
X12968944Y-16315198D01*
X12968944Y-16315198D02*
X12978467Y-16324722D01*
X12978467Y-16324722D02*
X12987991Y-16343769D01*
X12987991Y-16343769D02*
X12987991Y-16391388D01*
X12987991Y-16391388D02*
X12978467Y-16410436D01*
X12978467Y-16410436D02*
X12968944Y-16419960D01*
X12968944Y-16419960D02*
X12949896Y-16429484D01*
X12949896Y-16429484D02*
X12892753Y-16429484D01*
X12892753Y-16429484D02*
X12873706Y-16419960D01*
X12873706Y-16419960D02*
X12864182Y-16410436D01*
X13083229Y-16429484D02*
X13121325Y-16429484D01*
X13121325Y-16429484D02*
X13140372Y-16419960D01*
X13140372Y-16419960D02*
X13149896Y-16410436D01*
X13149896Y-16410436D02*
X13168944Y-16381865D01*
X13168944Y-16381865D02*
X13178467Y-16343769D01*
X13178467Y-16343769D02*
X13178467Y-16267579D01*
X13178467Y-16267579D02*
X13168944Y-16248531D01*
X13168944Y-16248531D02*
X13159420Y-16239008D01*
X13159420Y-16239008D02*
X13140372Y-16229484D01*
X13140372Y-16229484D02*
X13102277Y-16229484D01*
X13102277Y-16229484D02*
X13083229Y-16239008D01*
X13083229Y-16239008D02*
X13073706Y-16248531D01*
X13073706Y-16248531D02*
X13064182Y-16267579D01*
X13064182Y-16267579D02*
X13064182Y-16315198D01*
X13064182Y-16315198D02*
X13073706Y-16334246D01*
X13073706Y-16334246D02*
X13083229Y-16343769D01*
X13083229Y-16343769D02*
X13102277Y-16353293D01*
X13102277Y-16353293D02*
X13140372Y-16353293D01*
X13140372Y-16353293D02*
X13159420Y-16343769D01*
X13159420Y-16343769D02*
X13168944Y-16334246D01*
X13168944Y-16334246D02*
X13178467Y-16315198D01*
X13349896Y-16296150D02*
X13349896Y-16429484D01*
X13302277Y-16219960D02*
X13254658Y-16362817D01*
X13254658Y-16362817D02*
X13378467Y-16362817D01*
X13445134Y-16229484D02*
X13445134Y-16267579D01*
X13521325Y-16229484D02*
X13521325Y-16267579D01*
X13816563Y-16505674D02*
X13807039Y-16496150D01*
X13807039Y-16496150D02*
X13787991Y-16467579D01*
X13787991Y-16467579D02*
X13778468Y-16448531D01*
X13778468Y-16448531D02*
X13768944Y-16419960D01*
X13768944Y-16419960D02*
X13759420Y-16372341D01*
X13759420Y-16372341D02*
X13759420Y-16334246D01*
X13759420Y-16334246D02*
X13768944Y-16286627D01*
X13768944Y-16286627D02*
X13778468Y-16258055D01*
X13778468Y-16258055D02*
X13787991Y-16239008D01*
X13787991Y-16239008D02*
X13807039Y-16210436D01*
X13807039Y-16210436D02*
X13816563Y-16200912D01*
X13873706Y-16229484D02*
X13997515Y-16229484D01*
X13997515Y-16229484D02*
X13930848Y-16305674D01*
X13930848Y-16305674D02*
X13959420Y-16305674D01*
X13959420Y-16305674D02*
X13978468Y-16315198D01*
X13978468Y-16315198D02*
X13987991Y-16324722D01*
X13987991Y-16324722D02*
X13997515Y-16343769D01*
X13997515Y-16343769D02*
X13997515Y-16391388D01*
X13997515Y-16391388D02*
X13987991Y-16410436D01*
X13987991Y-16410436D02*
X13978468Y-16419960D01*
X13978468Y-16419960D02*
X13959420Y-16429484D01*
X13959420Y-16429484D02*
X13902277Y-16429484D01*
X13902277Y-16429484D02*
X13883229Y-16419960D01*
X13883229Y-16419960D02*
X13873706Y-16410436D01*
X14168944Y-16296150D02*
X14168944Y-16429484D01*
X14121325Y-16219960D02*
X14073706Y-16362817D01*
X14073706Y-16362817D02*
X14197515Y-16362817D01*
X14426087Y-16429484D02*
X14426087Y-16229484D01*
X14511801Y-16429484D02*
X14511801Y-16324722D01*
X14511801Y-16324722D02*
X14502277Y-16305674D01*
X14502277Y-16305674D02*
X14483230Y-16296150D01*
X14483230Y-16296150D02*
X14454658Y-16296150D01*
X14454658Y-16296150D02*
X14435610Y-16305674D01*
X14435610Y-16305674D02*
X14426087Y-16315198D01*
X14635610Y-16429484D02*
X14616563Y-16419960D01*
X14616563Y-16419960D02*
X14607039Y-16410436D01*
X14607039Y-16410436D02*
X14597515Y-16391388D01*
X14597515Y-16391388D02*
X14597515Y-16334246D01*
X14597515Y-16334246D02*
X14607039Y-16315198D01*
X14607039Y-16315198D02*
X14616563Y-16305674D01*
X14616563Y-16305674D02*
X14635610Y-16296150D01*
X14635610Y-16296150D02*
X14664182Y-16296150D01*
X14664182Y-16296150D02*
X14683230Y-16305674D01*
X14683230Y-16305674D02*
X14692753Y-16315198D01*
X14692753Y-16315198D02*
X14702277Y-16334246D01*
X14702277Y-16334246D02*
X14702277Y-16391388D01*
X14702277Y-16391388D02*
X14692753Y-16410436D01*
X14692753Y-16410436D02*
X14683230Y-16419960D01*
X14683230Y-16419960D02*
X14664182Y-16429484D01*
X14664182Y-16429484D02*
X14635610Y-16429484D01*
X14816563Y-16429484D02*
X14797515Y-16419960D01*
X14797515Y-16419960D02*
X14787991Y-16400912D01*
X14787991Y-16400912D02*
X14787991Y-16229484D01*
X14968944Y-16419960D02*
X14949896Y-16429484D01*
X14949896Y-16429484D02*
X14911801Y-16429484D01*
X14911801Y-16429484D02*
X14892753Y-16419960D01*
X14892753Y-16419960D02*
X14883230Y-16400912D01*
X14883230Y-16400912D02*
X14883230Y-16324722D01*
X14883230Y-16324722D02*
X14892753Y-16305674D01*
X14892753Y-16305674D02*
X14911801Y-16296150D01*
X14911801Y-16296150D02*
X14949896Y-16296150D01*
X14949896Y-16296150D02*
X14968944Y-16305674D01*
X14968944Y-16305674D02*
X14978468Y-16324722D01*
X14978468Y-16324722D02*
X14978468Y-16343769D01*
X14978468Y-16343769D02*
X14883230Y-16362817D01*
X15054658Y-16419960D02*
X15073706Y-16429484D01*
X15073706Y-16429484D02*
X15111801Y-16429484D01*
X15111801Y-16429484D02*
X15130849Y-16419960D01*
X15130849Y-16419960D02*
X15140372Y-16400912D01*
X15140372Y-16400912D02*
X15140372Y-16391388D01*
X15140372Y-16391388D02*
X15130849Y-16372341D01*
X15130849Y-16372341D02*
X15111801Y-16362817D01*
X15111801Y-16362817D02*
X15083230Y-16362817D01*
X15083230Y-16362817D02*
X15064182Y-16353293D01*
X15064182Y-16353293D02*
X15054658Y-16334246D01*
X15054658Y-16334246D02*
X15054658Y-16324722D01*
X15054658Y-16324722D02*
X15064182Y-16305674D01*
X15064182Y-16305674D02*
X15083230Y-16296150D01*
X15083230Y-16296150D02*
X15111801Y-16296150D01*
X15111801Y-16296150D02*
X15130849Y-16305674D01*
X15207039Y-16505674D02*
X15216563Y-16496150D01*
X15216563Y-16496150D02*
X15235611Y-16467579D01*
X15235611Y-16467579D02*
X15245134Y-16448531D01*
X15245134Y-16448531D02*
X15254658Y-16419960D01*
X15254658Y-16419960D02*
X15264182Y-16372341D01*
X15264182Y-16372341D02*
X15264182Y-16334246D01*
X15264182Y-16334246D02*
X15254658Y-16286627D01*
X15254658Y-16286627D02*
X15245134Y-16258055D01*
X15245134Y-16258055D02*
X15235611Y-16239008D01*
X15235611Y-16239008D02*
X15216563Y-16210436D01*
X15216563Y-16210436D02*
X15207039Y-16200912D01*
D12*
X10131500Y-16547000D02*
X10241500Y-16657000D01*
X10241500Y-16547000D02*
X10131500Y-16657000D01*
X10241500Y-16602000D02*
G75*
G02*
X10131500Y-16602000I-55000J0D01*
G01*
X10131500Y-16602000D02*
G75*
G02*
X10241500Y-16602000I55000J0D01*
G01*
D10*
X10607039Y-16693484D02*
X10492753Y-16693484D01*
X10549896Y-16693484D02*
X10549896Y-16493484D01*
X10549896Y-16493484D02*
X10530848Y-16522055D01*
X10530848Y-16522055D02*
X10511801Y-16541103D01*
X10511801Y-16541103D02*
X10492753Y-16550627D01*
X10692753Y-16674436D02*
X10702277Y-16683960D01*
X10702277Y-16683960D02*
X10692753Y-16693484D01*
X10692753Y-16693484D02*
X10683229Y-16683960D01*
X10683229Y-16683960D02*
X10692753Y-16674436D01*
X10692753Y-16674436D02*
X10692753Y-16693484D01*
X10892753Y-16693484D02*
X10778467Y-16693484D01*
X10835610Y-16693484D02*
X10835610Y-16493484D01*
X10835610Y-16493484D02*
X10816563Y-16522055D01*
X10816563Y-16522055D02*
X10797515Y-16541103D01*
X10797515Y-16541103D02*
X10778467Y-16550627D01*
X11016563Y-16493484D02*
X11035610Y-16493484D01*
X11035610Y-16493484D02*
X11054658Y-16503008D01*
X11054658Y-16503008D02*
X11064182Y-16512531D01*
X11064182Y-16512531D02*
X11073705Y-16531579D01*
X11073705Y-16531579D02*
X11083229Y-16569674D01*
X11083229Y-16569674D02*
X11083229Y-16617293D01*
X11083229Y-16617293D02*
X11073705Y-16655388D01*
X11073705Y-16655388D02*
X11064182Y-16674436D01*
X11064182Y-16674436D02*
X11054658Y-16683960D01*
X11054658Y-16683960D02*
X11035610Y-16693484D01*
X11035610Y-16693484D02*
X11016563Y-16693484D01*
X11016563Y-16693484D02*
X10997515Y-16683960D01*
X10997515Y-16683960D02*
X10987991Y-16674436D01*
X10987991Y-16674436D02*
X10978467Y-16655388D01*
X10978467Y-16655388D02*
X10968944Y-16617293D01*
X10968944Y-16617293D02*
X10968944Y-16569674D01*
X10968944Y-16569674D02*
X10978467Y-16531579D01*
X10978467Y-16531579D02*
X10987991Y-16512531D01*
X10987991Y-16512531D02*
X10997515Y-16503008D01*
X10997515Y-16503008D02*
X11016563Y-16493484D01*
X11207039Y-16493484D02*
X11226086Y-16493484D01*
X11226086Y-16493484D02*
X11245134Y-16503008D01*
X11245134Y-16503008D02*
X11254658Y-16512531D01*
X11254658Y-16512531D02*
X11264182Y-16531579D01*
X11264182Y-16531579D02*
X11273705Y-16569674D01*
X11273705Y-16569674D02*
X11273705Y-16617293D01*
X11273705Y-16617293D02*
X11264182Y-16655388D01*
X11264182Y-16655388D02*
X11254658Y-16674436D01*
X11254658Y-16674436D02*
X11245134Y-16683960D01*
X11245134Y-16683960D02*
X11226086Y-16693484D01*
X11226086Y-16693484D02*
X11207039Y-16693484D01*
X11207039Y-16693484D02*
X11187991Y-16683960D01*
X11187991Y-16683960D02*
X11178467Y-16674436D01*
X11178467Y-16674436D02*
X11168944Y-16655388D01*
X11168944Y-16655388D02*
X11159420Y-16617293D01*
X11159420Y-16617293D02*
X11159420Y-16569674D01*
X11159420Y-16569674D02*
X11168944Y-16531579D01*
X11168944Y-16531579D02*
X11178467Y-16512531D01*
X11178467Y-16512531D02*
X11187991Y-16503008D01*
X11187991Y-16503008D02*
X11207039Y-16493484D01*
X11359420Y-16693484D02*
X11359420Y-16560150D01*
X11359420Y-16579198D02*
X11368943Y-16569674D01*
X11368943Y-16569674D02*
X11387991Y-16560150D01*
X11387991Y-16560150D02*
X11416563Y-16560150D01*
X11416563Y-16560150D02*
X11435610Y-16569674D01*
X11435610Y-16569674D02*
X11445134Y-16588722D01*
X11445134Y-16588722D02*
X11445134Y-16693484D01*
X11445134Y-16588722D02*
X11454658Y-16569674D01*
X11454658Y-16569674D02*
X11473705Y-16560150D01*
X11473705Y-16560150D02*
X11502277Y-16560150D01*
X11502277Y-16560150D02*
X11521324Y-16569674D01*
X11521324Y-16569674D02*
X11530848Y-16588722D01*
X11530848Y-16588722D02*
X11530848Y-16693484D01*
X11626086Y-16693484D02*
X11626086Y-16560150D01*
X11626086Y-16579198D02*
X11635610Y-16569674D01*
X11635610Y-16569674D02*
X11654658Y-16560150D01*
X11654658Y-16560150D02*
X11683229Y-16560150D01*
X11683229Y-16560150D02*
X11702277Y-16569674D01*
X11702277Y-16569674D02*
X11711801Y-16588722D01*
X11711801Y-16588722D02*
X11711801Y-16693484D01*
X11711801Y-16588722D02*
X11721324Y-16569674D01*
X11721324Y-16569674D02*
X11740372Y-16560150D01*
X11740372Y-16560150D02*
X11768943Y-16560150D01*
X11768943Y-16560150D02*
X11787991Y-16569674D01*
X11787991Y-16569674D02*
X11797515Y-16588722D01*
X11797515Y-16588722D02*
X11797515Y-16693484D01*
X12187991Y-16483960D02*
X12016563Y-16741103D01*
X12445134Y-16493484D02*
X12464182Y-16493484D01*
X12464182Y-16493484D02*
X12483229Y-16503008D01*
X12483229Y-16503008D02*
X12492753Y-16512531D01*
X12492753Y-16512531D02*
X12502277Y-16531579D01*
X12502277Y-16531579D02*
X12511801Y-16569674D01*
X12511801Y-16569674D02*
X12511801Y-16617293D01*
X12511801Y-16617293D02*
X12502277Y-16655388D01*
X12502277Y-16655388D02*
X12492753Y-16674436D01*
X12492753Y-16674436D02*
X12483229Y-16683960D01*
X12483229Y-16683960D02*
X12464182Y-16693484D01*
X12464182Y-16693484D02*
X12445134Y-16693484D01*
X12445134Y-16693484D02*
X12426086Y-16683960D01*
X12426086Y-16683960D02*
X12416563Y-16674436D01*
X12416563Y-16674436D02*
X12407039Y-16655388D01*
X12407039Y-16655388D02*
X12397515Y-16617293D01*
X12397515Y-16617293D02*
X12397515Y-16569674D01*
X12397515Y-16569674D02*
X12407039Y-16531579D01*
X12407039Y-16531579D02*
X12416563Y-16512531D01*
X12416563Y-16512531D02*
X12426086Y-16503008D01*
X12426086Y-16503008D02*
X12445134Y-16493484D01*
X12597515Y-16674436D02*
X12607039Y-16683960D01*
X12607039Y-16683960D02*
X12597515Y-16693484D01*
X12597515Y-16693484D02*
X12587991Y-16683960D01*
X12587991Y-16683960D02*
X12597515Y-16674436D01*
X12597515Y-16674436D02*
X12597515Y-16693484D01*
X12730848Y-16493484D02*
X12749896Y-16493484D01*
X12749896Y-16493484D02*
X12768944Y-16503008D01*
X12768944Y-16503008D02*
X12778467Y-16512531D01*
X12778467Y-16512531D02*
X12787991Y-16531579D01*
X12787991Y-16531579D02*
X12797515Y-16569674D01*
X12797515Y-16569674D02*
X12797515Y-16617293D01*
X12797515Y-16617293D02*
X12787991Y-16655388D01*
X12787991Y-16655388D02*
X12778467Y-16674436D01*
X12778467Y-16674436D02*
X12768944Y-16683960D01*
X12768944Y-16683960D02*
X12749896Y-16693484D01*
X12749896Y-16693484D02*
X12730848Y-16693484D01*
X12730848Y-16693484D02*
X12711801Y-16683960D01*
X12711801Y-16683960D02*
X12702277Y-16674436D01*
X12702277Y-16674436D02*
X12692753Y-16655388D01*
X12692753Y-16655388D02*
X12683229Y-16617293D01*
X12683229Y-16617293D02*
X12683229Y-16569674D01*
X12683229Y-16569674D02*
X12692753Y-16531579D01*
X12692753Y-16531579D02*
X12702277Y-16512531D01*
X12702277Y-16512531D02*
X12711801Y-16503008D01*
X12711801Y-16503008D02*
X12730848Y-16493484D01*
X12968944Y-16560150D02*
X12968944Y-16693484D01*
X12921325Y-16483960D02*
X12873706Y-16626817D01*
X12873706Y-16626817D02*
X12997515Y-16626817D01*
X13054658Y-16493484D02*
X13178467Y-16493484D01*
X13178467Y-16493484D02*
X13111801Y-16569674D01*
X13111801Y-16569674D02*
X13140372Y-16569674D01*
X13140372Y-16569674D02*
X13159420Y-16579198D01*
X13159420Y-16579198D02*
X13168944Y-16588722D01*
X13168944Y-16588722D02*
X13178467Y-16607769D01*
X13178467Y-16607769D02*
X13178467Y-16655388D01*
X13178467Y-16655388D02*
X13168944Y-16674436D01*
X13168944Y-16674436D02*
X13159420Y-16683960D01*
X13159420Y-16683960D02*
X13140372Y-16693484D01*
X13140372Y-16693484D02*
X13083229Y-16693484D01*
X13083229Y-16693484D02*
X13064182Y-16683960D01*
X13064182Y-16683960D02*
X13054658Y-16674436D01*
X13245134Y-16493484D02*
X13368944Y-16493484D01*
X13368944Y-16493484D02*
X13302277Y-16569674D01*
X13302277Y-16569674D02*
X13330848Y-16569674D01*
X13330848Y-16569674D02*
X13349896Y-16579198D01*
X13349896Y-16579198D02*
X13359420Y-16588722D01*
X13359420Y-16588722D02*
X13368944Y-16607769D01*
X13368944Y-16607769D02*
X13368944Y-16655388D01*
X13368944Y-16655388D02*
X13359420Y-16674436D01*
X13359420Y-16674436D02*
X13349896Y-16683960D01*
X13349896Y-16683960D02*
X13330848Y-16693484D01*
X13330848Y-16693484D02*
X13273706Y-16693484D01*
X13273706Y-16693484D02*
X13254658Y-16683960D01*
X13254658Y-16683960D02*
X13245134Y-16674436D01*
X13445134Y-16493484D02*
X13445134Y-16531579D01*
X13521325Y-16493484D02*
X13521325Y-16531579D01*
X13816563Y-16769674D02*
X13807039Y-16760150D01*
X13807039Y-16760150D02*
X13787991Y-16731579D01*
X13787991Y-16731579D02*
X13778468Y-16712531D01*
X13778468Y-16712531D02*
X13768944Y-16683960D01*
X13768944Y-16683960D02*
X13759420Y-16636341D01*
X13759420Y-16636341D02*
X13759420Y-16598246D01*
X13759420Y-16598246D02*
X13768944Y-16550627D01*
X13768944Y-16550627D02*
X13778468Y-16522055D01*
X13778468Y-16522055D02*
X13787991Y-16503008D01*
X13787991Y-16503008D02*
X13807039Y-16474436D01*
X13807039Y-16474436D02*
X13816563Y-16464912D01*
X13978468Y-16560150D02*
X13978468Y-16693484D01*
X13930848Y-16483960D02*
X13883229Y-16626817D01*
X13883229Y-16626817D02*
X14007039Y-16626817D01*
X14235610Y-16693484D02*
X14235610Y-16493484D01*
X14321325Y-16693484D02*
X14321325Y-16588722D01*
X14321325Y-16588722D02*
X14311801Y-16569674D01*
X14311801Y-16569674D02*
X14292753Y-16560150D01*
X14292753Y-16560150D02*
X14264182Y-16560150D01*
X14264182Y-16560150D02*
X14245134Y-16569674D01*
X14245134Y-16569674D02*
X14235610Y-16579198D01*
X14445134Y-16693484D02*
X14426087Y-16683960D01*
X14426087Y-16683960D02*
X14416563Y-16674436D01*
X14416563Y-16674436D02*
X14407039Y-16655388D01*
X14407039Y-16655388D02*
X14407039Y-16598246D01*
X14407039Y-16598246D02*
X14416563Y-16579198D01*
X14416563Y-16579198D02*
X14426087Y-16569674D01*
X14426087Y-16569674D02*
X14445134Y-16560150D01*
X14445134Y-16560150D02*
X14473706Y-16560150D01*
X14473706Y-16560150D02*
X14492753Y-16569674D01*
X14492753Y-16569674D02*
X14502277Y-16579198D01*
X14502277Y-16579198D02*
X14511801Y-16598246D01*
X14511801Y-16598246D02*
X14511801Y-16655388D01*
X14511801Y-16655388D02*
X14502277Y-16674436D01*
X14502277Y-16674436D02*
X14492753Y-16683960D01*
X14492753Y-16683960D02*
X14473706Y-16693484D01*
X14473706Y-16693484D02*
X14445134Y-16693484D01*
X14626087Y-16693484D02*
X14607039Y-16683960D01*
X14607039Y-16683960D02*
X14597515Y-16664912D01*
X14597515Y-16664912D02*
X14597515Y-16493484D01*
X14778468Y-16683960D02*
X14759420Y-16693484D01*
X14759420Y-16693484D02*
X14721325Y-16693484D01*
X14721325Y-16693484D02*
X14702277Y-16683960D01*
X14702277Y-16683960D02*
X14692753Y-16664912D01*
X14692753Y-16664912D02*
X14692753Y-16588722D01*
X14692753Y-16588722D02*
X14702277Y-16569674D01*
X14702277Y-16569674D02*
X14721325Y-16560150D01*
X14721325Y-16560150D02*
X14759420Y-16560150D01*
X14759420Y-16560150D02*
X14778468Y-16569674D01*
X14778468Y-16569674D02*
X14787991Y-16588722D01*
X14787991Y-16588722D02*
X14787991Y-16607769D01*
X14787991Y-16607769D02*
X14692753Y-16626817D01*
X14864182Y-16683960D02*
X14883230Y-16693484D01*
X14883230Y-16693484D02*
X14921325Y-16693484D01*
X14921325Y-16693484D02*
X14940372Y-16683960D01*
X14940372Y-16683960D02*
X14949896Y-16664912D01*
X14949896Y-16664912D02*
X14949896Y-16655388D01*
X14949896Y-16655388D02*
X14940372Y-16636341D01*
X14940372Y-16636341D02*
X14921325Y-16626817D01*
X14921325Y-16626817D02*
X14892753Y-16626817D01*
X14892753Y-16626817D02*
X14873706Y-16617293D01*
X14873706Y-16617293D02*
X14864182Y-16598246D01*
X14864182Y-16598246D02*
X14864182Y-16588722D01*
X14864182Y-16588722D02*
X14873706Y-16569674D01*
X14873706Y-16569674D02*
X14892753Y-16560150D01*
X14892753Y-16560150D02*
X14921325Y-16560150D01*
X14921325Y-16560150D02*
X14940372Y-16569674D01*
X15016563Y-16769674D02*
X15026087Y-16760150D01*
X15026087Y-16760150D02*
X15045134Y-16731579D01*
X15045134Y-16731579D02*
X15054658Y-16712531D01*
X15054658Y-16712531D02*
X15064182Y-16683960D01*
X15064182Y-16683960D02*
X15073706Y-16636341D01*
X15073706Y-16636341D02*
X15073706Y-16598246D01*
X15073706Y-16598246D02*
X15064182Y-16550627D01*
X15064182Y-16550627D02*
X15054658Y-16522055D01*
X15054658Y-16522055D02*
X15045134Y-16503008D01*
X15045134Y-16503008D02*
X15026087Y-16474436D01*
X15026087Y-16474436D02*
X15016563Y-16464912D01*
D13*
X10111500Y-16801000D02*
X10241500Y-16931000D01*
X10241500Y-16801000D02*
X10111500Y-16931000D01*
X10176500Y-16801000D02*
X10176500Y-16931000D01*
X10111500Y-16866000D02*
X10241500Y-16866000D01*
D10*
X10607039Y-16957484D02*
X10492753Y-16957484D01*
X10549896Y-16957484D02*
X10549896Y-16757484D01*
X10549896Y-16757484D02*
X10530848Y-16786055D01*
X10530848Y-16786055D02*
X10511801Y-16805103D01*
X10511801Y-16805103D02*
X10492753Y-16814627D01*
X10692753Y-16938436D02*
X10702277Y-16947960D01*
X10702277Y-16947960D02*
X10692753Y-16957484D01*
X10692753Y-16957484D02*
X10683229Y-16947960D01*
X10683229Y-16947960D02*
X10692753Y-16938436D01*
X10692753Y-16938436D02*
X10692753Y-16957484D01*
X10768944Y-16757484D02*
X10892753Y-16757484D01*
X10892753Y-16757484D02*
X10826086Y-16833674D01*
X10826086Y-16833674D02*
X10854658Y-16833674D01*
X10854658Y-16833674D02*
X10873705Y-16843198D01*
X10873705Y-16843198D02*
X10883229Y-16852722D01*
X10883229Y-16852722D02*
X10892753Y-16871770D01*
X10892753Y-16871770D02*
X10892753Y-16919389D01*
X10892753Y-16919389D02*
X10883229Y-16938436D01*
X10883229Y-16938436D02*
X10873705Y-16947960D01*
X10873705Y-16947960D02*
X10854658Y-16957484D01*
X10854658Y-16957484D02*
X10797515Y-16957484D01*
X10797515Y-16957484D02*
X10778467Y-16947960D01*
X10778467Y-16947960D02*
X10768944Y-16938436D01*
X11016563Y-16757484D02*
X11035610Y-16757484D01*
X11035610Y-16757484D02*
X11054658Y-16767008D01*
X11054658Y-16767008D02*
X11064182Y-16776531D01*
X11064182Y-16776531D02*
X11073705Y-16795579D01*
X11073705Y-16795579D02*
X11083229Y-16833674D01*
X11083229Y-16833674D02*
X11083229Y-16881293D01*
X11083229Y-16881293D02*
X11073705Y-16919389D01*
X11073705Y-16919389D02*
X11064182Y-16938436D01*
X11064182Y-16938436D02*
X11054658Y-16947960D01*
X11054658Y-16947960D02*
X11035610Y-16957484D01*
X11035610Y-16957484D02*
X11016563Y-16957484D01*
X11016563Y-16957484D02*
X10997515Y-16947960D01*
X10997515Y-16947960D02*
X10987991Y-16938436D01*
X10987991Y-16938436D02*
X10978467Y-16919389D01*
X10978467Y-16919389D02*
X10968944Y-16881293D01*
X10968944Y-16881293D02*
X10968944Y-16833674D01*
X10968944Y-16833674D02*
X10978467Y-16795579D01*
X10978467Y-16795579D02*
X10987991Y-16776531D01*
X10987991Y-16776531D02*
X10997515Y-16767008D01*
X10997515Y-16767008D02*
X11016563Y-16757484D01*
X11207039Y-16757484D02*
X11226086Y-16757484D01*
X11226086Y-16757484D02*
X11245134Y-16767008D01*
X11245134Y-16767008D02*
X11254658Y-16776531D01*
X11254658Y-16776531D02*
X11264182Y-16795579D01*
X11264182Y-16795579D02*
X11273705Y-16833674D01*
X11273705Y-16833674D02*
X11273705Y-16881293D01*
X11273705Y-16881293D02*
X11264182Y-16919389D01*
X11264182Y-16919389D02*
X11254658Y-16938436D01*
X11254658Y-16938436D02*
X11245134Y-16947960D01*
X11245134Y-16947960D02*
X11226086Y-16957484D01*
X11226086Y-16957484D02*
X11207039Y-16957484D01*
X11207039Y-16957484D02*
X11187991Y-16947960D01*
X11187991Y-16947960D02*
X11178467Y-16938436D01*
X11178467Y-16938436D02*
X11168944Y-16919389D01*
X11168944Y-16919389D02*
X11159420Y-16881293D01*
X11159420Y-16881293D02*
X11159420Y-16833674D01*
X11159420Y-16833674D02*
X11168944Y-16795579D01*
X11168944Y-16795579D02*
X11178467Y-16776531D01*
X11178467Y-16776531D02*
X11187991Y-16767008D01*
X11187991Y-16767008D02*
X11207039Y-16757484D01*
X11359420Y-16957484D02*
X11359420Y-16824150D01*
X11359420Y-16843198D02*
X11368943Y-16833674D01*
X11368943Y-16833674D02*
X11387991Y-16824150D01*
X11387991Y-16824150D02*
X11416563Y-16824150D01*
X11416563Y-16824150D02*
X11435610Y-16833674D01*
X11435610Y-16833674D02*
X11445134Y-16852722D01*
X11445134Y-16852722D02*
X11445134Y-16957484D01*
X11445134Y-16852722D02*
X11454658Y-16833674D01*
X11454658Y-16833674D02*
X11473705Y-16824150D01*
X11473705Y-16824150D02*
X11502277Y-16824150D01*
X11502277Y-16824150D02*
X11521324Y-16833674D01*
X11521324Y-16833674D02*
X11530848Y-16852722D01*
X11530848Y-16852722D02*
X11530848Y-16957484D01*
X11626086Y-16957484D02*
X11626086Y-16824150D01*
X11626086Y-16843198D02*
X11635610Y-16833674D01*
X11635610Y-16833674D02*
X11654658Y-16824150D01*
X11654658Y-16824150D02*
X11683229Y-16824150D01*
X11683229Y-16824150D02*
X11702277Y-16833674D01*
X11702277Y-16833674D02*
X11711801Y-16852722D01*
X11711801Y-16852722D02*
X11711801Y-16957484D01*
X11711801Y-16852722D02*
X11721324Y-16833674D01*
X11721324Y-16833674D02*
X11740372Y-16824150D01*
X11740372Y-16824150D02*
X11768943Y-16824150D01*
X11768943Y-16824150D02*
X11787991Y-16833674D01*
X11787991Y-16833674D02*
X11797515Y-16852722D01*
X11797515Y-16852722D02*
X11797515Y-16957484D01*
X12187991Y-16747960D02*
X12016563Y-17005103D01*
X12445134Y-16757484D02*
X12464182Y-16757484D01*
X12464182Y-16757484D02*
X12483229Y-16767008D01*
X12483229Y-16767008D02*
X12492753Y-16776531D01*
X12492753Y-16776531D02*
X12502277Y-16795579D01*
X12502277Y-16795579D02*
X12511801Y-16833674D01*
X12511801Y-16833674D02*
X12511801Y-16881293D01*
X12511801Y-16881293D02*
X12502277Y-16919389D01*
X12502277Y-16919389D02*
X12492753Y-16938436D01*
X12492753Y-16938436D02*
X12483229Y-16947960D01*
X12483229Y-16947960D02*
X12464182Y-16957484D01*
X12464182Y-16957484D02*
X12445134Y-16957484D01*
X12445134Y-16957484D02*
X12426086Y-16947960D01*
X12426086Y-16947960D02*
X12416563Y-16938436D01*
X12416563Y-16938436D02*
X12407039Y-16919389D01*
X12407039Y-16919389D02*
X12397515Y-16881293D01*
X12397515Y-16881293D02*
X12397515Y-16833674D01*
X12397515Y-16833674D02*
X12407039Y-16795579D01*
X12407039Y-16795579D02*
X12416563Y-16776531D01*
X12416563Y-16776531D02*
X12426086Y-16767008D01*
X12426086Y-16767008D02*
X12445134Y-16757484D01*
X12597515Y-16938436D02*
X12607039Y-16947960D01*
X12607039Y-16947960D02*
X12597515Y-16957484D01*
X12597515Y-16957484D02*
X12587991Y-16947960D01*
X12587991Y-16947960D02*
X12597515Y-16938436D01*
X12597515Y-16938436D02*
X12597515Y-16957484D01*
X12730848Y-16757484D02*
X12749896Y-16757484D01*
X12749896Y-16757484D02*
X12768944Y-16767008D01*
X12768944Y-16767008D02*
X12778467Y-16776531D01*
X12778467Y-16776531D02*
X12787991Y-16795579D01*
X12787991Y-16795579D02*
X12797515Y-16833674D01*
X12797515Y-16833674D02*
X12797515Y-16881293D01*
X12797515Y-16881293D02*
X12787991Y-16919389D01*
X12787991Y-16919389D02*
X12778467Y-16938436D01*
X12778467Y-16938436D02*
X12768944Y-16947960D01*
X12768944Y-16947960D02*
X12749896Y-16957484D01*
X12749896Y-16957484D02*
X12730848Y-16957484D01*
X12730848Y-16957484D02*
X12711801Y-16947960D01*
X12711801Y-16947960D02*
X12702277Y-16938436D01*
X12702277Y-16938436D02*
X12692753Y-16919389D01*
X12692753Y-16919389D02*
X12683229Y-16881293D01*
X12683229Y-16881293D02*
X12683229Y-16833674D01*
X12683229Y-16833674D02*
X12692753Y-16795579D01*
X12692753Y-16795579D02*
X12702277Y-16776531D01*
X12702277Y-16776531D02*
X12711801Y-16767008D01*
X12711801Y-16767008D02*
X12730848Y-16757484D01*
X12978467Y-16757484D02*
X12883229Y-16757484D01*
X12883229Y-16757484D02*
X12873706Y-16852722D01*
X12873706Y-16852722D02*
X12883229Y-16843198D01*
X12883229Y-16843198D02*
X12902277Y-16833674D01*
X12902277Y-16833674D02*
X12949896Y-16833674D01*
X12949896Y-16833674D02*
X12968944Y-16843198D01*
X12968944Y-16843198D02*
X12978467Y-16852722D01*
X12978467Y-16852722D02*
X12987991Y-16871770D01*
X12987991Y-16871770D02*
X12987991Y-16919389D01*
X12987991Y-16919389D02*
X12978467Y-16938436D01*
X12978467Y-16938436D02*
X12968944Y-16947960D01*
X12968944Y-16947960D02*
X12949896Y-16957484D01*
X12949896Y-16957484D02*
X12902277Y-16957484D01*
X12902277Y-16957484D02*
X12883229Y-16947960D01*
X12883229Y-16947960D02*
X12873706Y-16938436D01*
X13178467Y-16957484D02*
X13064182Y-16957484D01*
X13121325Y-16957484D02*
X13121325Y-16757484D01*
X13121325Y-16757484D02*
X13102277Y-16786055D01*
X13102277Y-16786055D02*
X13083229Y-16805103D01*
X13083229Y-16805103D02*
X13064182Y-16814627D01*
X13254658Y-16776531D02*
X13264182Y-16767008D01*
X13264182Y-16767008D02*
X13283229Y-16757484D01*
X13283229Y-16757484D02*
X13330848Y-16757484D01*
X13330848Y-16757484D02*
X13349896Y-16767008D01*
X13349896Y-16767008D02*
X13359420Y-16776531D01*
X13359420Y-16776531D02*
X13368944Y-16795579D01*
X13368944Y-16795579D02*
X13368944Y-16814627D01*
X13368944Y-16814627D02*
X13359420Y-16843198D01*
X13359420Y-16843198D02*
X13245134Y-16957484D01*
X13245134Y-16957484D02*
X13368944Y-16957484D01*
X13445134Y-16757484D02*
X13445134Y-16795579D01*
X13521325Y-16757484D02*
X13521325Y-16795579D01*
X13816563Y-17033674D02*
X13807039Y-17024150D01*
X13807039Y-17024150D02*
X13787991Y-16995579D01*
X13787991Y-16995579D02*
X13778468Y-16976531D01*
X13778468Y-16976531D02*
X13768944Y-16947960D01*
X13768944Y-16947960D02*
X13759420Y-16900341D01*
X13759420Y-16900341D02*
X13759420Y-16862246D01*
X13759420Y-16862246D02*
X13768944Y-16814627D01*
X13768944Y-16814627D02*
X13778468Y-16786055D01*
X13778468Y-16786055D02*
X13787991Y-16767008D01*
X13787991Y-16767008D02*
X13807039Y-16738436D01*
X13807039Y-16738436D02*
X13816563Y-16728912D01*
X13997515Y-16957484D02*
X13883229Y-16957484D01*
X13940372Y-16957484D02*
X13940372Y-16757484D01*
X13940372Y-16757484D02*
X13921325Y-16786055D01*
X13921325Y-16786055D02*
X13902277Y-16805103D01*
X13902277Y-16805103D02*
X13883229Y-16814627D01*
X14121325Y-16757484D02*
X14140372Y-16757484D01*
X14140372Y-16757484D02*
X14159420Y-16767008D01*
X14159420Y-16767008D02*
X14168944Y-16776531D01*
X14168944Y-16776531D02*
X14178468Y-16795579D01*
X14178468Y-16795579D02*
X14187991Y-16833674D01*
X14187991Y-16833674D02*
X14187991Y-16881293D01*
X14187991Y-16881293D02*
X14178468Y-16919389D01*
X14178468Y-16919389D02*
X14168944Y-16938436D01*
X14168944Y-16938436D02*
X14159420Y-16947960D01*
X14159420Y-16947960D02*
X14140372Y-16957484D01*
X14140372Y-16957484D02*
X14121325Y-16957484D01*
X14121325Y-16957484D02*
X14102277Y-16947960D01*
X14102277Y-16947960D02*
X14092753Y-16938436D01*
X14092753Y-16938436D02*
X14083229Y-16919389D01*
X14083229Y-16919389D02*
X14073706Y-16881293D01*
X14073706Y-16881293D02*
X14073706Y-16833674D01*
X14073706Y-16833674D02*
X14083229Y-16795579D01*
X14083229Y-16795579D02*
X14092753Y-16776531D01*
X14092753Y-16776531D02*
X14102277Y-16767008D01*
X14102277Y-16767008D02*
X14121325Y-16757484D01*
X14426087Y-16957484D02*
X14426087Y-16757484D01*
X14511801Y-16957484D02*
X14511801Y-16852722D01*
X14511801Y-16852722D02*
X14502277Y-16833674D01*
X14502277Y-16833674D02*
X14483230Y-16824150D01*
X14483230Y-16824150D02*
X14454658Y-16824150D01*
X14454658Y-16824150D02*
X14435610Y-16833674D01*
X14435610Y-16833674D02*
X14426087Y-16843198D01*
X14635610Y-16957484D02*
X14616563Y-16947960D01*
X14616563Y-16947960D02*
X14607039Y-16938436D01*
X14607039Y-16938436D02*
X14597515Y-16919389D01*
X14597515Y-16919389D02*
X14597515Y-16862246D01*
X14597515Y-16862246D02*
X14607039Y-16843198D01*
X14607039Y-16843198D02*
X14616563Y-16833674D01*
X14616563Y-16833674D02*
X14635610Y-16824150D01*
X14635610Y-16824150D02*
X14664182Y-16824150D01*
X14664182Y-16824150D02*
X14683230Y-16833674D01*
X14683230Y-16833674D02*
X14692753Y-16843198D01*
X14692753Y-16843198D02*
X14702277Y-16862246D01*
X14702277Y-16862246D02*
X14702277Y-16919389D01*
X14702277Y-16919389D02*
X14692753Y-16938436D01*
X14692753Y-16938436D02*
X14683230Y-16947960D01*
X14683230Y-16947960D02*
X14664182Y-16957484D01*
X14664182Y-16957484D02*
X14635610Y-16957484D01*
X14816563Y-16957484D02*
X14797515Y-16947960D01*
X14797515Y-16947960D02*
X14787991Y-16928912D01*
X14787991Y-16928912D02*
X14787991Y-16757484D01*
X14968944Y-16947960D02*
X14949896Y-16957484D01*
X14949896Y-16957484D02*
X14911801Y-16957484D01*
X14911801Y-16957484D02*
X14892753Y-16947960D01*
X14892753Y-16947960D02*
X14883230Y-16928912D01*
X14883230Y-16928912D02*
X14883230Y-16852722D01*
X14883230Y-16852722D02*
X14892753Y-16833674D01*
X14892753Y-16833674D02*
X14911801Y-16824150D01*
X14911801Y-16824150D02*
X14949896Y-16824150D01*
X14949896Y-16824150D02*
X14968944Y-16833674D01*
X14968944Y-16833674D02*
X14978468Y-16852722D01*
X14978468Y-16852722D02*
X14978468Y-16871770D01*
X14978468Y-16871770D02*
X14883230Y-16890817D01*
X15054658Y-16947960D02*
X15073706Y-16957484D01*
X15073706Y-16957484D02*
X15111801Y-16957484D01*
X15111801Y-16957484D02*
X15130849Y-16947960D01*
X15130849Y-16947960D02*
X15140372Y-16928912D01*
X15140372Y-16928912D02*
X15140372Y-16919389D01*
X15140372Y-16919389D02*
X15130849Y-16900341D01*
X15130849Y-16900341D02*
X15111801Y-16890817D01*
X15111801Y-16890817D02*
X15083230Y-16890817D01*
X15083230Y-16890817D02*
X15064182Y-16881293D01*
X15064182Y-16881293D02*
X15054658Y-16862246D01*
X15054658Y-16862246D02*
X15054658Y-16852722D01*
X15054658Y-16852722D02*
X15064182Y-16833674D01*
X15064182Y-16833674D02*
X15083230Y-16824150D01*
X15083230Y-16824150D02*
X15111801Y-16824150D01*
X15111801Y-16824150D02*
X15130849Y-16833674D01*
X15207039Y-17033674D02*
X15216563Y-17024150D01*
X15216563Y-17024150D02*
X15235611Y-16995579D01*
X15235611Y-16995579D02*
X15245134Y-16976531D01*
X15245134Y-16976531D02*
X15254658Y-16947960D01*
X15254658Y-16947960D02*
X15264182Y-16900341D01*
X15264182Y-16900341D02*
X15264182Y-16862246D01*
X15264182Y-16862246D02*
X15254658Y-16814627D01*
X15254658Y-16814627D02*
X15245134Y-16786055D01*
X15245134Y-16786055D02*
X15235611Y-16767008D01*
X15235611Y-16767008D02*
X15216563Y-16738436D01*
X15216563Y-16738436D02*
X15207039Y-16728912D01*
M02*
