%TF.GenerationSoftware,KiCad,Pcbnew,8.0.0*%
%TF.CreationDate,2024-03-19T00:20:39-05:00*%
%TF.ProjectId,MainBoard,4d61696e-426f-4617-9264-2e6b69636164,rev?*%
%TF.SameCoordinates,Original*%
%TF.FileFunction,Paste,Top*%
%TF.FilePolarity,Positive*%
%FSLAX46Y46*%
G04 Gerber Fmt 4.6, Leading zero omitted, Abs format (unit mm)*
G04 Created by KiCad (PCBNEW 8.0.0) date 2024-03-19 00:20:39*
%MOMM*%
%LPD*%
G01*
G04 APERTURE LIST*
G04 Aperture macros list*
%AMRoundRect*
0 Rectangle with rounded corners*
0 $1 Rounding radius*
0 $2 $3 $4 $5 $6 $7 $8 $9 X,Y pos of 4 corners*
0 Add a 4 corners polygon primitive as box body*
4,1,4,$2,$3,$4,$5,$6,$7,$8,$9,$2,$3,0*
0 Add four circle primitives for the rounded corners*
1,1,$1+$1,$2,$3*
1,1,$1+$1,$4,$5*
1,1,$1+$1,$6,$7*
1,1,$1+$1,$8,$9*
0 Add four rect primitives between the rounded corners*
20,1,$1+$1,$2,$3,$4,$5,0*
20,1,$1+$1,$4,$5,$6,$7,0*
20,1,$1+$1,$6,$7,$8,$9,0*
20,1,$1+$1,$8,$9,$2,$3,0*%
G04 Aperture macros list end*
%ADD10R,7.500000X1.800000*%
%ADD11RoundRect,0.150000X-0.512500X-0.150000X0.512500X-0.150000X0.512500X0.150000X-0.512500X0.150000X0*%
%ADD12RoundRect,0.250000X0.412500X0.650000X-0.412500X0.650000X-0.412500X-0.650000X0.412500X-0.650000X0*%
%ADD13RoundRect,0.250000X0.650000X-0.412500X0.650000X0.412500X-0.650000X0.412500X-0.650000X-0.412500X0*%
%ADD14RoundRect,0.075000X-0.662500X-0.075000X0.662500X-0.075000X0.662500X0.075000X-0.662500X0.075000X0*%
%ADD15RoundRect,0.075000X-0.075000X-0.662500X0.075000X-0.662500X0.075000X0.662500X-0.075000X0.662500X0*%
%ADD16RoundRect,0.250000X0.850000X-0.375000X0.850000X0.375000X-0.850000X0.375000X-0.850000X-0.375000X0*%
%ADD17RoundRect,0.250000X-0.650000X0.412500X-0.650000X-0.412500X0.650000X-0.412500X0.650000X0.412500X0*%
G04 APERTURE END LIST*
D10*
%TO.C,L2*%
X136750000Y-98800000D03*
X136750000Y-93200000D03*
%TD*%
D11*
%TO.C,U5*%
X126950000Y-129550000D03*
X126950000Y-130500000D03*
X126950000Y-131450000D03*
X129225000Y-131450000D03*
X129225000Y-130500000D03*
X129225000Y-129550000D03*
%TD*%
D12*
%TO.C,C11*%
X123150000Y-91000000D03*
X120025000Y-91000000D03*
%TD*%
%TO.C,C16*%
X123150000Y-105250000D03*
X120025000Y-105250000D03*
%TD*%
D13*
%TO.C,C8*%
X134587500Y-125812500D03*
X134587500Y-122687500D03*
%TD*%
%TO.C,C9*%
X139087500Y-125812500D03*
X139087500Y-122687500D03*
%TD*%
%TO.C,C21*%
X139337500Y-108062500D03*
X139337500Y-104937500D03*
%TD*%
D11*
%TO.C,U2*%
X126950000Y-111800000D03*
X126950000Y-112750000D03*
X126950000Y-113700000D03*
X129225000Y-113700000D03*
X129225000Y-112750000D03*
X129225000Y-111800000D03*
%TD*%
D12*
%TO.C,C17*%
X123150000Y-109250000D03*
X120025000Y-109250000D03*
%TD*%
%TO.C,C6*%
X123150000Y-131000000D03*
X120025000Y-131000000D03*
%TD*%
D14*
%TO.C,U3*%
X175925000Y-106250000D03*
X175925000Y-106750000D03*
X175925000Y-107250000D03*
X175925000Y-107750000D03*
X175925000Y-108250000D03*
X175925000Y-108750000D03*
X175925000Y-109250000D03*
X175925000Y-109750000D03*
X175925000Y-110250000D03*
X175925000Y-110750000D03*
X175925000Y-111250000D03*
X175925000Y-111750000D03*
D15*
X177337500Y-113162500D03*
X177837500Y-113162500D03*
X178337500Y-113162500D03*
X178837500Y-113162500D03*
X179337500Y-113162500D03*
X179837500Y-113162500D03*
X180337500Y-113162500D03*
X180837500Y-113162500D03*
X181337500Y-113162500D03*
X181837500Y-113162500D03*
X182337500Y-113162500D03*
X182837500Y-113162500D03*
D14*
X184250000Y-111750000D03*
X184250000Y-111250000D03*
X184250000Y-110750000D03*
X184250000Y-110250000D03*
X184250000Y-109750000D03*
X184250000Y-109250000D03*
X184250000Y-108750000D03*
X184250000Y-108250000D03*
X184250000Y-107750000D03*
X184250000Y-107250000D03*
X184250000Y-106750000D03*
X184250000Y-106250000D03*
D15*
X182837500Y-104837500D03*
X182337500Y-104837500D03*
X181837500Y-104837500D03*
X181337500Y-104837500D03*
X180837500Y-104837500D03*
X180337500Y-104837500D03*
X179837500Y-104837500D03*
X179337500Y-104837500D03*
X178837500Y-104837500D03*
X178337500Y-104837500D03*
X177837500Y-104837500D03*
X177337500Y-104837500D03*
%TD*%
D16*
%TO.C,L3*%
X134337500Y-113575000D03*
X134337500Y-111425000D03*
%TD*%
D11*
%TO.C,U1*%
X127450000Y-93550000D03*
X127450000Y-94500000D03*
X127450000Y-95450000D03*
X129725000Y-95450000D03*
X129725000Y-94500000D03*
X129725000Y-93550000D03*
%TD*%
D12*
%TO.C,C18*%
X123150000Y-113250000D03*
X120025000Y-113250000D03*
%TD*%
D16*
%TO.C,L1*%
X134337500Y-131325000D03*
X134337500Y-129175000D03*
%TD*%
D12*
%TO.C,C19*%
X129900000Y-105250000D03*
X126775000Y-105250000D03*
%TD*%
%TO.C,C2*%
X123150000Y-127000000D03*
X120025000Y-127000000D03*
%TD*%
%TO.C,C3*%
X186062500Y-59000000D03*
X182937500Y-59000000D03*
%TD*%
%TO.C,C13*%
X130150000Y-87000000D03*
X127025000Y-87000000D03*
%TD*%
D13*
%TO.C,C20*%
X134587500Y-108062500D03*
X134587500Y-104937500D03*
%TD*%
D12*
%TO.C,C12*%
X123150000Y-95000000D03*
X120025000Y-95000000D03*
%TD*%
%TO.C,C7*%
X129650000Y-123000000D03*
X126525000Y-123000000D03*
%TD*%
%TO.C,C10*%
X123150000Y-87000000D03*
X120025000Y-87000000D03*
%TD*%
%TO.C,C4*%
X186062500Y-64500000D03*
X182937500Y-64500000D03*
%TD*%
D13*
%TO.C,C15*%
X140087500Y-89812500D03*
X140087500Y-86687500D03*
%TD*%
D12*
%TO.C,C1*%
X123150000Y-123000000D03*
X120025000Y-123000000D03*
%TD*%
D17*
%TO.C,C5*%
X166837500Y-108187500D03*
X166837500Y-111312500D03*
%TD*%
D13*
%TO.C,C14*%
X134837500Y-89812500D03*
X134837500Y-86687500D03*
%TD*%
M02*
