%TF.GenerationSoftware,KiCad,Pcbnew,8.0.0*%
%TF.CreationDate,2024-03-19T00:20:39-05:00*%
%TF.ProjectId,MainBoard,4d61696e-426f-4617-9264-2e6b69636164,rev?*%
%TF.SameCoordinates,Original*%
%TF.FileFunction,Copper,L2,Bot*%
%TF.FilePolarity,Positive*%
%FSLAX46Y46*%
G04 Gerber Fmt 4.6, Leading zero omitted, Abs format (unit mm)*
G04 Created by KiCad (PCBNEW 8.0.0) date 2024-03-19 00:20:39*
%MOMM*%
%LPD*%
G01*
G04 APERTURE LIST*
G04 Aperture macros list*
%AMRoundRect*
0 Rectangle with rounded corners*
0 $1 Rounding radius*
0 $2 $3 $4 $5 $6 $7 $8 $9 X,Y pos of 4 corners*
0 Add a 4 corners polygon primitive as box body*
4,1,4,$2,$3,$4,$5,$6,$7,$8,$9,$2,$3,0*
0 Add four circle primitives for the rounded corners*
1,1,$1+$1,$2,$3*
1,1,$1+$1,$4,$5*
1,1,$1+$1,$6,$7*
1,1,$1+$1,$8,$9*
0 Add four rect primitives between the rounded corners*
20,1,$1+$1,$2,$3,$4,$5,0*
20,1,$1+$1,$4,$5,$6,$7,0*
20,1,$1+$1,$6,$7,$8,$9,0*
20,1,$1+$1,$8,$9,$2,$3,0*%
G04 Aperture macros list end*
%TA.AperFunction,ComponentPad*%
%ADD10R,1.950000X1.950000*%
%TD*%
%TA.AperFunction,ComponentPad*%
%ADD11C,1.950000*%
%TD*%
%TA.AperFunction,ComponentPad*%
%ADD12C,1.600000*%
%TD*%
%TA.AperFunction,ComponentPad*%
%ADD13O,1.600000X1.600000*%
%TD*%
%TA.AperFunction,ComponentPad*%
%ADD14R,1.700000X1.700000*%
%TD*%
%TA.AperFunction,ComponentPad*%
%ADD15O,1.700000X1.700000*%
%TD*%
%TA.AperFunction,ComponentPad*%
%ADD16R,1.800000X1.800000*%
%TD*%
%TA.AperFunction,ComponentPad*%
%ADD17C,1.800000*%
%TD*%
%TA.AperFunction,ComponentPad*%
%ADD18C,2.000000*%
%TD*%
%TA.AperFunction,ComponentPad*%
%ADD19RoundRect,0.250000X0.725000X-0.600000X0.725000X0.600000X-0.725000X0.600000X-0.725000X-0.600000X0*%
%TD*%
%TA.AperFunction,ComponentPad*%
%ADD20O,1.950000X1.700000*%
%TD*%
%TA.AperFunction,ComponentPad*%
%ADD21R,2.400000X1.600000*%
%TD*%
%TA.AperFunction,ComponentPad*%
%ADD22O,2.400000X1.600000*%
%TD*%
%TA.AperFunction,ViaPad*%
%ADD23C,0.600000*%
%TD*%
%TA.AperFunction,Conductor*%
%ADD24C,0.254000*%
%TD*%
%TA.AperFunction,Conductor*%
%ADD25C,0.508000*%
%TD*%
%TA.AperFunction,Conductor*%
%ADD26C,0.200000*%
%TD*%
G04 APERTURE END LIST*
D10*
%TO.P,J8,1,1*%
%TO.N,+5V_3A*%
X109475000Y-65750000D03*
D11*
%TO.P,J8,2,2*%
%TO.N,GND*%
X109475000Y-70750000D03*
%TD*%
D10*
%TO.P,J4,1,1*%
%TO.N,+12V*%
X144750000Y-139250000D03*
D11*
%TO.P,J4,2,2*%
%TO.N,GND*%
X149750000Y-139250000D03*
%TD*%
D10*
%TO.P,J3,1,1*%
%TO.N,+12V*%
X131875000Y-139250000D03*
D11*
%TO.P,J3,2,2*%
%TO.N,GND*%
X136875000Y-139250000D03*
%TD*%
D10*
%TO.P,J2,1,1*%
%TO.N,+12V*%
X119000000Y-139250000D03*
D11*
%TO.P,J2,2,2*%
%TO.N,GND*%
X124000000Y-139250000D03*
%TD*%
D10*
%TO.P,J1,1,1*%
%TO.N,+12V*%
X186000000Y-52500000D03*
D11*
%TO.P,J1,2,2*%
%TO.N,GND*%
X181000000Y-52500000D03*
%TD*%
D12*
%TO.P,R3,1*%
%TO.N,+12V*%
X170500000Y-66560000D03*
D13*
%TO.P,R3,2*%
%TO.N,Net-(D3-A)*%
X170500000Y-58940000D03*
%TD*%
D14*
%TO.P,TP5,1,1*%
%TO.N,Net-(JP3-A)*%
X145587500Y-106250000D03*
%TD*%
%TO.P,TP3,1,1*%
%TO.N,Net-(JP2-A)*%
X146587500Y-87750000D03*
%TD*%
%TO.P,J12,1,Pin_1*%
%TO.N,/SPI2_MOSI*%
X106750000Y-80000000D03*
D15*
%TO.P,J12,2,Pin_2*%
%TO.N,/SPI2_MISO*%
X106750000Y-82540000D03*
%TO.P,J12,3,Pin_3*%
%TO.N,/SPI2_SCK*%
X106750000Y-85080000D03*
%TO.P,J12,4,Pin_4*%
%TO.N,/SPI2_NSS*%
X106750000Y-87620000D03*
%TD*%
D12*
%TO.P,R7,1*%
%TO.N,Net-(U1-FB)*%
X154190000Y-94500000D03*
D13*
%TO.P,R7,2*%
%TO.N,GND*%
X161810000Y-94500000D03*
%TD*%
D14*
%TO.P,J5,1,Pin_1*%
%TO.N,GND*%
X157435000Y-140000000D03*
D15*
%TO.P,J5,2,Pin_2*%
%TO.N,+5V_1.2A*%
X159975000Y-140000000D03*
%TO.P,J5,3,Pin_3*%
%TO.N,Net-(J5-Pin_3)*%
X162515000Y-140000000D03*
%TD*%
D14*
%TO.P,TP2,1,1*%
%TO.N,GND*%
X152337500Y-123500000D03*
%TD*%
D16*
%TO.P,D1,1,K*%
%TO.N,GND*%
X147000000Y-52460000D03*
D17*
%TO.P,D1,2,A*%
%TO.N,Net-(D1-A)*%
X147000000Y-55000000D03*
%TD*%
D18*
%TO.P,SW1,1,1*%
%TO.N,GND*%
X167087500Y-94500000D03*
X173587500Y-94500000D03*
%TO.P,SW1,2,2*%
%TO.N,Net-(U3-NRST)*%
X167087500Y-99000000D03*
X173587500Y-99000000D03*
%TD*%
D16*
%TO.P,D4,1,K*%
%TO.N,GND*%
X162833300Y-52460000D03*
D17*
%TO.P,D4,2,A*%
%TO.N,Net-(D4-A)*%
X162833300Y-55000000D03*
%TD*%
D12*
%TO.P,R4,1*%
%TO.N,Net-(JP1-A)*%
X138777500Y-130750000D03*
D13*
%TO.P,R4,2*%
%TO.N,Net-(U5-FB)*%
X146397500Y-130750000D03*
%TD*%
D12*
%TO.P,R10,1*%
%TO.N,+5V_3A*%
X162083300Y-66560000D03*
D13*
%TO.P,R10,2*%
%TO.N,Net-(D4-A)*%
X162083300Y-58940000D03*
%TD*%
D12*
%TO.P,R8,1*%
%TO.N,Net-(JP3-A)*%
X138527500Y-113000000D03*
D13*
%TO.P,R8,2*%
%TO.N,Net-(U2-FB)*%
X146147500Y-113000000D03*
%TD*%
D12*
%TO.P,R5,1*%
%TO.N,Net-(U5-FB)*%
X150027500Y-130750000D03*
D13*
%TO.P,R5,2*%
%TO.N,GND*%
X157647500Y-130750000D03*
%TD*%
D12*
%TO.P,R9,1*%
%TO.N,Net-(U2-FB)*%
X150527500Y-113000000D03*
D13*
%TO.P,R9,2*%
%TO.N,GND*%
X158147500Y-113000000D03*
%TD*%
D14*
%TO.P,TP4,1,1*%
%TO.N,GND*%
X154087500Y-87750000D03*
%TD*%
D19*
%TO.P,J18,1,Pin_1*%
%TO.N,+3.3V_1.2A*%
X196500000Y-95160000D03*
D20*
%TO.P,J18,2,Pin_2*%
%TO.N,GND*%
X196500000Y-92660000D03*
%TO.P,J18,3,Pin_3*%
%TO.N,/ME2_ChA*%
X196500000Y-90160000D03*
%TO.P,J18,4,Pin_4*%
%TO.N,/ME2_ChB*%
X196500000Y-87660000D03*
%TD*%
D19*
%TO.P,J20,1,Pin_1*%
%TO.N,+3.3V_1.2A*%
X196500000Y-70500000D03*
D20*
%TO.P,J20,2,Pin_2*%
%TO.N,GND*%
X196500000Y-68000000D03*
%TO.P,J20,3,Pin_3*%
%TO.N,/ME3_ChA*%
X196500000Y-65500000D03*
%TO.P,J20,4,Pin_4*%
%TO.N,/ME3_ChB*%
X196500000Y-63000000D03*
%TD*%
D12*
%TO.P,R6,1*%
%TO.N,Net-(JP2-A)*%
X143190000Y-94500000D03*
D13*
%TO.P,R6,2*%
%TO.N,Net-(U1-FB)*%
X150810000Y-94500000D03*
%TD*%
D14*
%TO.P,J7,1,Pin_1*%
%TO.N,GND*%
X180920000Y-140000000D03*
D15*
%TO.P,J7,2,Pin_2*%
%TO.N,+5V_1.2A*%
X183460000Y-140000000D03*
%TO.P,J7,3,Pin_3*%
%TO.N,Net-(J7-Pin_3)*%
X186000000Y-140000000D03*
%TD*%
D14*
%TO.P,J10,1,Pin_1*%
%TO.N,+5V_1.2A*%
X106750000Y-95500000D03*
D15*
%TO.P,J10,2,Pin_2*%
%TO.N,GND*%
X106750000Y-98040000D03*
%TO.P,J10,3,Pin_3*%
%TO.N,/SPI2_MOSI*%
X106750000Y-100580000D03*
%TO.P,J10,4,Pin_4*%
%TO.N,/SPI2_MISO*%
X106750000Y-103120000D03*
%TO.P,J10,5,Pin_5*%
%TO.N,/SPI2_SCK*%
X106750000Y-105660000D03*
%TO.P,J10,6,Pin_6*%
%TO.N,/SPI2_NSS*%
X106750000Y-108200000D03*
%TD*%
D14*
%TO.P,J6,1,Pin_1*%
%TO.N,GND*%
X169177500Y-140000000D03*
D15*
%TO.P,J6,2,Pin_2*%
%TO.N,+5V_1.2A*%
X171717500Y-140000000D03*
%TO.P,J6,3,Pin_3*%
%TO.N,Net-(J6-Pin_3)*%
X174257500Y-140000000D03*
%TD*%
D14*
%TO.P,TP6,1,1*%
%TO.N,GND*%
X152587500Y-106250000D03*
%TD*%
D21*
%TO.P,U4,1,1A*%
%TO.N,Net-(J14-Pin_3)*%
X118425000Y-60375000D03*
D22*
%TO.P,U4,2,1B*%
X118425000Y-62915000D03*
%TO.P,U4,3,1Y*%
%TO.N,Net-(U4-1Y)*%
X118425000Y-65455000D03*
%TO.P,U4,4,2A*%
%TO.N,Net-(J14-Pin_2)*%
X118425000Y-67995000D03*
%TO.P,U4,5,2B*%
X118425000Y-70535000D03*
%TO.P,U4,6,2Y*%
%TO.N,Net-(U4-2Y)*%
X118425000Y-73075000D03*
%TO.P,U4,7,GND*%
%TO.N,GND*%
X118425000Y-75615000D03*
%TO.P,U4,8,3Y*%
%TO.N,Net-(U4-3Y)*%
X126045000Y-75615000D03*
%TO.P,U4,9,3A*%
%TO.N,Net-(J14-Pin_1)*%
X126045000Y-73075000D03*
%TO.P,U4,10,3B*%
X126045000Y-70535000D03*
%TO.P,U4,11,4Y*%
%TO.N,unconnected-(U4-4Y-Pad11)*%
X126045000Y-67995000D03*
%TO.P,U4,12,4A*%
%TO.N,unconnected-(U4-4A-Pad12)*%
X126045000Y-65455000D03*
%TO.P,U4,13,4B*%
%TO.N,unconnected-(U4-4B-Pad13)*%
X126045000Y-62915000D03*
%TO.P,U4,14,VCC*%
%TO.N,+5V_3A*%
X126045000Y-60375000D03*
%TD*%
D16*
%TO.P,D3,1,K*%
%TO.N,GND*%
X170500000Y-52375000D03*
D17*
%TO.P,D3,2,A*%
%TO.N,Net-(D3-A)*%
X170500000Y-54915000D03*
%TD*%
D14*
%TO.P,J11,1,Pin_1*%
%TO.N,+5V_1.2A*%
X106750000Y-115750000D03*
D15*
%TO.P,J11,2,Pin_2*%
%TO.N,GND*%
X106750000Y-118290000D03*
%TO.P,J11,3,Pin_3*%
%TO.N,/SPI2_MOSI*%
X106750000Y-120830000D03*
%TO.P,J11,4,Pin_4*%
%TO.N,/SPI2_MISO*%
X106750000Y-123370000D03*
%TO.P,J11,5,Pin_5*%
%TO.N,/SPI2_SCK*%
X106750000Y-125910000D03*
%TO.P,J11,6,Pin_6*%
%TO.N,/SPI2_NSS*%
X106750000Y-128450000D03*
%TD*%
D21*
%TO.P,U6,1,1A*%
%TO.N,Net-(U4-2Y)*%
X132675000Y-60375000D03*
D22*
%TO.P,U6,2,1B*%
%TO.N,Net-(U4-1Y)*%
X132675000Y-62915000D03*
%TO.P,U6,3,1Y*%
%TO.N,Net-(U6-1Y)*%
X132675000Y-65455000D03*
%TO.P,U6,4,2A*%
%TO.N,Net-(U4-3Y)*%
X132675000Y-67995000D03*
%TO.P,U6,5,2B*%
%TO.N,Net-(U6-1Y)*%
X132675000Y-70535000D03*
%TO.P,U6,6,2Y*%
%TO.N,/LimitSwitchORGates/OR3 Output*%
X132675000Y-73075000D03*
%TO.P,U6,7,GND*%
%TO.N,GND*%
X132675000Y-75615000D03*
%TO.P,U6,8,3Y*%
%TO.N,unconnected-(U6-3Y-Pad8)*%
X140295000Y-75615000D03*
%TO.P,U6,9,3A*%
%TO.N,unconnected-(U6-3A-Pad9)*%
X140295000Y-73075000D03*
%TO.P,U6,10,3B*%
%TO.N,unconnected-(U6-3B-Pad10)*%
X140295000Y-70535000D03*
%TO.P,U6,11,4Y*%
%TO.N,unconnected-(U6-4Y-Pad11)*%
X140295000Y-67995000D03*
%TO.P,U6,12,4A*%
%TO.N,unconnected-(U6-4A-Pad12)*%
X140295000Y-65455000D03*
%TO.P,U6,13,4B*%
%TO.N,unconnected-(U6-4B-Pad13)*%
X140295000Y-62915000D03*
%TO.P,U6,14,VCC*%
%TO.N,+5V_3A*%
X140295000Y-60375000D03*
%TD*%
D12*
%TO.P,R1,1*%
%TO.N,+3.3V_1.2A*%
X146250000Y-66560000D03*
D13*
%TO.P,R1,2*%
%TO.N,Net-(D1-A)*%
X146250000Y-58940000D03*
%TD*%
D16*
%TO.P,D2,1,K*%
%TO.N,GND*%
X155000000Y-52460000D03*
D17*
%TO.P,D2,2,A*%
%TO.N,Net-(D2-A)*%
X155000000Y-55000000D03*
%TD*%
D14*
%TO.P,TP1,1,1*%
%TO.N,Net-(JP1-A)*%
X145587500Y-123500000D03*
%TD*%
%TO.P,J14,1,Pin_1*%
%TO.N,Net-(J14-Pin_1)*%
X126920000Y-53750000D03*
D15*
%TO.P,J14,2,Pin_2*%
%TO.N,Net-(J14-Pin_2)*%
X129460000Y-53750000D03*
%TO.P,J14,3,Pin_3*%
%TO.N,Net-(J14-Pin_3)*%
X132000000Y-53750000D03*
%TD*%
D19*
%TO.P,J19,1,Pin_1*%
%TO.N,+3.3V_1.2A*%
X196500000Y-119820000D03*
D20*
%TO.P,J19,2,Pin_2*%
%TO.N,GND*%
X196500000Y-117320000D03*
%TO.P,J19,3,Pin_3*%
%TO.N,/ME1_ChA*%
X196500000Y-114820000D03*
%TO.P,J19,4,Pin_4*%
%TO.N,/ME1_ChB*%
X196500000Y-112320000D03*
%TD*%
D12*
%TO.P,R2,1*%
%TO.N,+5V_1.2A*%
X154250000Y-66560000D03*
D13*
%TO.P,R2,2*%
%TO.N,Net-(D2-A)*%
X154250000Y-58940000D03*
%TD*%
D23*
%TO.N,Net-(U1-SW)*%
X128500000Y-98750000D03*
X128500000Y-96250000D03*
%TO.N,+12V*%
X125000000Y-95000000D03*
%TO.N,GND*%
X111750000Y-92000000D03*
%TO.N,+12V*%
X129500000Y-85000000D03*
X124902700Y-104156700D03*
%TO.N,GND*%
X136750000Y-133500000D03*
X179000000Y-127500000D03*
X183950000Y-114200000D03*
X138838000Y-118250000D03*
X109950000Y-120900000D03*
X125700000Y-126800000D03*
X125750000Y-90250000D03*
X171250000Y-104000000D03*
X157750000Y-72750000D03*
X185900000Y-118150000D03*
X116950000Y-86150000D03*
X104600000Y-93000000D03*
X171500000Y-110350000D03*
X145750000Y-99500000D03*
X104650000Y-113350000D03*
X111400000Y-104100000D03*
X125250000Y-80500000D03*
X185750000Y-81750000D03*
X177800000Y-103150000D03*
X125750000Y-109050000D03*
X184850000Y-105150000D03*
%TO.N,+5V_3A*%
X159883500Y-85890400D03*
%TO.N,+5V_1.2A*%
X156936400Y-103687000D03*
%TO.N,Net-(J5-Pin_3)*%
X178831100Y-106920000D03*
%TO.N,Net-(J6-Pin_3)*%
X178381000Y-107683600D03*
%TO.N,Net-(J7-Pin_3)*%
X181400000Y-114611300D03*
%TO.N,/SPI2_NSS*%
X109400000Y-93250000D03*
%TO.N,/SPI2_MISO*%
X182891200Y-110869200D03*
%TO.N,/ME2_ChA*%
X180462500Y-111675100D03*
X189839700Y-97792800D03*
%TO.N,/ME3_ChA*%
X178843300Y-111719600D03*
%TO.N,/ME3_ChB*%
X179886900Y-111094000D03*
%TD*%
D24*
%TO.N,Net-(U1-SW)*%
X128500000Y-96250000D02*
X128500000Y-98750000D01*
D25*
%TO.N,+12V*%
X125000000Y-104059400D02*
X124902700Y-104156700D01*
X125000000Y-95000000D02*
X125000000Y-104059400D01*
X131246000Y-83254000D02*
X129500000Y-85000000D01*
X154586576Y-64450000D02*
X135782576Y-83254000D01*
X169390800Y-65440800D02*
X168400000Y-64450000D01*
X169390800Y-65450800D02*
X169390800Y-65440800D01*
X135782576Y-83254000D02*
X131246000Y-83254000D01*
X170500000Y-66560000D02*
X169390800Y-65450800D01*
X168400000Y-64450000D02*
X154586576Y-64450000D01*
D26*
%TO.N,/SPI2_MISO*%
X118653000Y-142000000D02*
X105598100Y-128945100D01*
X173901100Y-142000000D02*
X118653000Y-142000000D01*
X177880800Y-115879600D02*
X177880800Y-138020300D01*
X177880800Y-138020300D02*
X173901100Y-142000000D01*
X105598100Y-125384500D02*
X106750000Y-124232600D01*
X106750000Y-124232600D02*
X106750000Y-123370000D01*
X182891200Y-110869200D02*
X177880800Y-115879600D01*
X105598100Y-128945100D02*
X105598100Y-125384500D01*
%TO.N,Net-(D1-A)*%
X146250000Y-55750000D02*
X146250000Y-58940000D01*
X147000000Y-55000000D02*
X146250000Y-55750000D01*
%TO.N,Net-(D2-A)*%
X154250000Y-55750000D02*
X154250000Y-58940000D01*
X155000000Y-55000000D02*
X154250000Y-55750000D01*
%TO.N,Net-(D3-A)*%
X170500000Y-54915000D02*
X170500000Y-58940000D01*
%TO.N,Net-(D4-A)*%
X162083300Y-55750000D02*
X162083300Y-58940000D01*
X162833300Y-55000000D02*
X162083300Y-55750000D01*
D25*
%TO.N,+5V_3A*%
X162083300Y-83690600D02*
X159883500Y-85890400D01*
X162083300Y-66560000D02*
X162083300Y-83690600D01*
%TO.N,+5V_1.2A*%
X159975000Y-106725600D02*
X159975000Y-140000000D01*
X156936400Y-103687000D02*
X159975000Y-106725600D01*
X156936400Y-69246400D02*
X156936400Y-103687000D01*
X154250000Y-66560000D02*
X156936400Y-69246400D01*
D26*
%TO.N,Net-(J5-Pin_3)*%
X178831100Y-106920000D02*
X173180000Y-106920000D01*
X173180000Y-106920000D02*
X162515000Y-117585000D01*
X162515000Y-117585000D02*
X162515000Y-140000000D01*
%TO.N,Net-(J6-Pin_3)*%
X174257500Y-114292500D02*
X174257500Y-140000000D01*
X178381000Y-107683600D02*
X178381000Y-110169000D01*
X178381000Y-110169000D02*
X174257500Y-114292500D01*
%TO.N,Net-(J7-Pin_3)*%
X181659800Y-114871100D02*
X181659800Y-134509700D01*
X181400000Y-114611300D02*
X181659800Y-114871100D01*
X181659800Y-134509700D02*
X186000000Y-138849900D01*
X186000000Y-138849900D02*
X186000000Y-140000000D01*
%TO.N,/SPI2_NSS*%
X109000000Y-111600100D02*
X106750000Y-109350100D01*
X109400000Y-105621800D02*
X106750000Y-108271800D01*
X106750000Y-128450000D02*
X106750000Y-127587400D01*
X106750000Y-127587400D02*
X109000000Y-125337400D01*
X109400000Y-93250000D02*
X109400000Y-105621800D01*
X106750000Y-108200000D02*
X106750000Y-108271800D01*
X109000000Y-125337400D02*
X109000000Y-111600100D01*
X106750000Y-109350100D02*
X106750000Y-108271800D01*
%TO.N,/SPI2_MISO*%
X105599900Y-103120000D02*
X105599900Y-84601900D01*
X106750000Y-103120000D02*
X105599900Y-103120000D01*
X106511700Y-83690100D02*
X106750000Y-83690100D01*
X103850000Y-120470000D02*
X103850000Y-104869900D01*
X106750000Y-123370000D02*
X103850000Y-120470000D01*
X106750000Y-82540000D02*
X106750000Y-83690100D01*
X105599900Y-84601900D02*
X106511700Y-83690100D01*
X103850000Y-104869900D02*
X105599900Y-103120000D01*
%TO.N,/SPI2_SCK*%
X107908100Y-87108100D02*
X107908100Y-103639300D01*
X106750000Y-104800000D02*
X106750000Y-105660000D01*
X107908100Y-103639300D02*
X107000000Y-104547400D01*
X106750000Y-85950000D02*
X107908100Y-87108100D01*
X106750000Y-85080000D02*
X106750000Y-85950000D01*
X107000000Y-104550000D02*
X106750000Y-104800000D01*
X107000000Y-104547400D02*
X107000000Y-104550000D01*
D25*
%TO.N,+3.3V_1.2A*%
X199500000Y-93600000D02*
X199500000Y-73500000D01*
X197940000Y-95160000D02*
X199500000Y-93600000D01*
X196500000Y-95160000D02*
X197940000Y-95160000D01*
X199500000Y-73500000D02*
X196500000Y-70500000D01*
D26*
%TO.N,Net-(J14-Pin_2)*%
X129150000Y-53750000D02*
X129460000Y-53750000D01*
X118425000Y-70535000D02*
X119925100Y-70535000D01*
X127999800Y-52599800D02*
X129150000Y-53750000D01*
X119925100Y-67995000D02*
X119925100Y-58605800D01*
X119925100Y-58605800D02*
X125931100Y-52599800D01*
X125931100Y-52599800D02*
X127999800Y-52599800D01*
X119925100Y-70535000D02*
X119925100Y-67995000D01*
X118425000Y-67995000D02*
X119925100Y-67995000D01*
%TO.N,Net-(J14-Pin_3)*%
X118425000Y-62915000D02*
X118425000Y-60375000D01*
%TO.N,Net-(J14-Pin_1)*%
X126920000Y-53750000D02*
X126920000Y-54900100D01*
X126045000Y-70535000D02*
X127445100Y-70535000D01*
X127545100Y-55525200D02*
X126920000Y-54900100D01*
X126045000Y-73075000D02*
X127545100Y-73075000D01*
X127445100Y-70535000D02*
X127545100Y-70535000D01*
X127545100Y-70535000D02*
X127545100Y-73075000D01*
X127545100Y-70535000D02*
X127545100Y-55525200D01*
%TO.N,/ME2_ChA*%
X180462500Y-111675100D02*
X189839700Y-102297900D01*
X189839700Y-102297900D02*
X189839700Y-97792800D01*
%TO.N,/ME3_ChA*%
X195493700Y-66650100D02*
X179511300Y-82632500D01*
X196500000Y-65500000D02*
X196500000Y-66650100D01*
X178843400Y-111719600D02*
X178843300Y-111719600D01*
X179511300Y-82632500D02*
X179511300Y-110621000D01*
X179511300Y-110621000D02*
X178843400Y-111288900D01*
X178843400Y-111288900D02*
X178843400Y-111719600D01*
X196500000Y-66650100D02*
X195493700Y-66650100D01*
%TO.N,/ME3_ChB*%
X197829200Y-68483200D02*
X197077700Y-69234700D01*
X196500000Y-63000000D02*
X196500000Y-64150100D01*
X180062300Y-110918600D02*
X179886900Y-111094000D01*
X196500000Y-64150100D02*
X196931300Y-64150100D01*
X195653500Y-69234700D02*
X180062300Y-84825900D01*
X197829200Y-65048000D02*
X197829200Y-68483200D01*
X197077700Y-69234700D02*
X195653500Y-69234700D01*
X196931300Y-64150100D02*
X197829200Y-65048000D01*
X180062300Y-84825900D02*
X180062300Y-110918600D01*
%TO.N,Net-(U5-FB)*%
X150027500Y-130750000D02*
X146397500Y-130750000D01*
%TO.N,Net-(U6-1Y)*%
X131245000Y-65455000D02*
X132675000Y-65455000D01*
X130300000Y-66400000D02*
X131245000Y-65455000D01*
X132675000Y-70535000D02*
X130935000Y-70535000D01*
X130300000Y-69900000D02*
X130300000Y-66400000D01*
X130935000Y-70535000D02*
X130300000Y-69900000D01*
%TD*%
%TA.AperFunction,Conductor*%
%TO.N,GND*%
G36*
X201942121Y-47520002D02*
G01*
X201988614Y-47573658D01*
X202000000Y-47626000D01*
X202000000Y-144923936D01*
X201979998Y-144992057D01*
X201926342Y-145038550D01*
X201873936Y-145049936D01*
X103141436Y-145000070D01*
X103073326Y-144980034D01*
X103026860Y-144926354D01*
X103015500Y-144874070D01*
X103015500Y-139654465D01*
X105749500Y-139654465D01*
X105784089Y-139961456D01*
X105816665Y-140104178D01*
X105852832Y-140262636D01*
X105852834Y-140262642D01*
X105852833Y-140262642D01*
X105954858Y-140554211D01*
X105954869Y-140554238D01*
X106088902Y-140832560D01*
X106088907Y-140832569D01*
X106253265Y-141094143D01*
X106445882Y-141335677D01*
X106664322Y-141554117D01*
X106664326Y-141554120D01*
X106905857Y-141746735D01*
X107167435Y-141911095D01*
X107445771Y-142045135D01*
X107445787Y-142045140D01*
X107445788Y-142045141D01*
X107737357Y-142147166D01*
X107737360Y-142147166D01*
X107737364Y-142147168D01*
X107960290Y-142198049D01*
X108038543Y-142215910D01*
X108038544Y-142215910D01*
X108038548Y-142215911D01*
X108282565Y-142243405D01*
X108345534Y-142250500D01*
X108345535Y-142250500D01*
X108654466Y-142250500D01*
X108706717Y-142244612D01*
X108961452Y-142215911D01*
X109262636Y-142147168D01*
X109554229Y-142045135D01*
X109832565Y-141911095D01*
X110094143Y-141746735D01*
X110335674Y-141554120D01*
X110554120Y-141335674D01*
X110746735Y-141094143D01*
X110911095Y-140832565D01*
X111045135Y-140554229D01*
X111147168Y-140262636D01*
X111215911Y-139961452D01*
X111250500Y-139654465D01*
X111250500Y-139345535D01*
X111250409Y-139344731D01*
X111239736Y-139249999D01*
X111215911Y-139038548D01*
X111147168Y-138737364D01*
X111146255Y-138734756D01*
X111045141Y-138445788D01*
X111045140Y-138445787D01*
X111045135Y-138445771D01*
X110911095Y-138167435D01*
X110868980Y-138100410D01*
X110823983Y-138028797D01*
X110746735Y-137905857D01*
X110554120Y-137664326D01*
X110554117Y-137664322D01*
X110335677Y-137445882D01*
X110094143Y-137253265D01*
X109832569Y-137088907D01*
X109832560Y-137088902D01*
X109554238Y-136954869D01*
X109554233Y-136954867D01*
X109554229Y-136954865D01*
X109554223Y-136954862D01*
X109554211Y-136954858D01*
X109262642Y-136852833D01*
X108961456Y-136784089D01*
X108654466Y-136749500D01*
X108654465Y-136749500D01*
X108345535Y-136749500D01*
X108345534Y-136749500D01*
X108038543Y-136784089D01*
X107737357Y-136852833D01*
X107445788Y-136954858D01*
X107445761Y-136954869D01*
X107167439Y-137088902D01*
X107167430Y-137088907D01*
X106905856Y-137253265D01*
X106664322Y-137445882D01*
X106445882Y-137664322D01*
X106253265Y-137905856D01*
X106088907Y-138167430D01*
X106088902Y-138167439D01*
X105954869Y-138445761D01*
X105954858Y-138445788D01*
X105852833Y-138737357D01*
X105784089Y-139038543D01*
X105749500Y-139345534D01*
X105749500Y-139654465D01*
X103015500Y-139654465D01*
X103015500Y-120663731D01*
X103035502Y-120595610D01*
X103089158Y-120549117D01*
X103159432Y-120539013D01*
X103224012Y-120568507D01*
X103262396Y-120628233D01*
X103263190Y-120631061D01*
X103282968Y-120704873D01*
X103282969Y-120704875D01*
X103282970Y-120704877D01*
X103363075Y-120843623D01*
X103363083Y-120843633D01*
X105407276Y-122887825D01*
X105441301Y-122950137D01*
X105440326Y-123007850D01*
X105405436Y-123145628D01*
X105386844Y-123370000D01*
X105405437Y-123594375D01*
X105460702Y-123812612D01*
X105460703Y-123812613D01*
X105460704Y-123812616D01*
X105551140Y-124018791D01*
X105674278Y-124207268D01*
X105707675Y-124243546D01*
X105739096Y-124307211D01*
X105731109Y-124377757D01*
X105704070Y-124417979D01*
X105111180Y-125010870D01*
X105111175Y-125010876D01*
X105031067Y-125149627D01*
X105031068Y-125149628D01*
X104989600Y-125304389D01*
X104989600Y-128864990D01*
X104989600Y-129025210D01*
X105031068Y-129179973D01*
X105031069Y-129179975D01*
X105031070Y-129179977D01*
X105111175Y-129318723D01*
X105111183Y-129318733D01*
X118279366Y-142486916D01*
X118279371Y-142486920D01*
X118279373Y-142486922D01*
X118418128Y-142567032D01*
X118572889Y-142608500D01*
X118572890Y-142608500D01*
X118572891Y-142608500D01*
X173981210Y-142608500D01*
X173981211Y-142608500D01*
X174058591Y-142587766D01*
X174135973Y-142567032D01*
X174274727Y-142486922D01*
X178367722Y-138393927D01*
X178447832Y-138255172D01*
X178489300Y-138100410D01*
X178489300Y-137940190D01*
X178489300Y-116183838D01*
X178509302Y-116115717D01*
X178526200Y-116094748D01*
X180440396Y-114180552D01*
X180502707Y-114146527D01*
X180573522Y-114151592D01*
X180630358Y-114194139D01*
X180655169Y-114260659D01*
X180648419Y-114311263D01*
X180618066Y-114398009D01*
X180606783Y-114430253D01*
X180586384Y-114611300D01*
X180606783Y-114792347D01*
X180606783Y-114792349D01*
X180606784Y-114792350D01*
X180666957Y-114964315D01*
X180666958Y-114964318D01*
X180763887Y-115118579D01*
X180763888Y-115118581D01*
X180892718Y-115247411D01*
X180892720Y-115247412D01*
X180992336Y-115310005D01*
X181039374Y-115363183D01*
X181051300Y-115416692D01*
X181051300Y-134429590D01*
X181051300Y-134589810D01*
X181092768Y-134744573D01*
X181092769Y-134744575D01*
X181092770Y-134744577D01*
X181172875Y-134883323D01*
X181172883Y-134883333D01*
X185093892Y-138804341D01*
X185127918Y-138866653D01*
X185122853Y-138937468D01*
X185082200Y-138992858D01*
X185076768Y-138997086D01*
X185076753Y-138997100D01*
X184924280Y-139162729D01*
X184924279Y-139162729D01*
X184835483Y-139298643D01*
X184781479Y-139344731D01*
X184711131Y-139354306D01*
X184646774Y-139324329D01*
X184624517Y-139298643D01*
X184535720Y-139162729D01*
X184406600Y-139022470D01*
X184383240Y-138997094D01*
X184383239Y-138997093D01*
X184383237Y-138997091D01*
X184271106Y-138909816D01*
X184205576Y-138858811D01*
X184007574Y-138751658D01*
X184007572Y-138751657D01*
X184007571Y-138751656D01*
X183794639Y-138678557D01*
X183794630Y-138678555D01*
X183750476Y-138671187D01*
X183572569Y-138641500D01*
X183347431Y-138641500D01*
X183199211Y-138666233D01*
X183125369Y-138678555D01*
X183125360Y-138678557D01*
X182912428Y-138751656D01*
X182912426Y-138751658D01*
X182714432Y-138858807D01*
X182714426Y-138858810D01*
X182714424Y-138858811D01*
X182536759Y-138997094D01*
X182475374Y-139063775D01*
X182414521Y-139100346D01*
X182343557Y-139098211D01*
X182285012Y-139058049D01*
X182264618Y-139022470D01*
X182220443Y-138904033D01*
X182132904Y-138787095D01*
X182015965Y-138699555D01*
X181879093Y-138648505D01*
X181818597Y-138642000D01*
X181174000Y-138642000D01*
X181174000Y-139569297D01*
X181112993Y-139534075D01*
X180985826Y-139500000D01*
X180854174Y-139500000D01*
X180727007Y-139534075D01*
X180666000Y-139569297D01*
X180666000Y-138642000D01*
X180021402Y-138642000D01*
X179960906Y-138648505D01*
X179824035Y-138699555D01*
X179824034Y-138699555D01*
X179707095Y-138787095D01*
X179619555Y-138904034D01*
X179619555Y-138904035D01*
X179568505Y-139040906D01*
X179562000Y-139101402D01*
X179562000Y-139746000D01*
X180489297Y-139746000D01*
X180454075Y-139807007D01*
X180420000Y-139934174D01*
X180420000Y-140065826D01*
X180454075Y-140192993D01*
X180489297Y-140254000D01*
X179562000Y-140254000D01*
X179562000Y-140898597D01*
X179568505Y-140959093D01*
X179619555Y-141095964D01*
X179619555Y-141095965D01*
X179707095Y-141212904D01*
X179824034Y-141300444D01*
X179960906Y-141351494D01*
X180021402Y-141357999D01*
X180021415Y-141358000D01*
X180666000Y-141358000D01*
X180666000Y-140430702D01*
X180727007Y-140465925D01*
X180854174Y-140500000D01*
X180985826Y-140500000D01*
X181112993Y-140465925D01*
X181174000Y-140430702D01*
X181174000Y-141358000D01*
X181818585Y-141358000D01*
X181818597Y-141357999D01*
X181879093Y-141351494D01*
X182015964Y-141300444D01*
X182015965Y-141300444D01*
X182132904Y-141212904D01*
X182220444Y-141095965D01*
X182264618Y-140977530D01*
X182307165Y-140920694D01*
X182373685Y-140895883D01*
X182443059Y-140910974D01*
X182475372Y-140936222D01*
X182486763Y-140948595D01*
X182536762Y-141002908D01*
X182591331Y-141045381D01*
X182714424Y-141141189D01*
X182912426Y-141248342D01*
X182912427Y-141248342D01*
X182912428Y-141248343D01*
X182987212Y-141274016D01*
X183125365Y-141321444D01*
X183347431Y-141358500D01*
X183347435Y-141358500D01*
X183572565Y-141358500D01*
X183572569Y-141358500D01*
X183794635Y-141321444D01*
X184007574Y-141248342D01*
X184205576Y-141141189D01*
X184383240Y-141002906D01*
X184535722Y-140837268D01*
X184624518Y-140701354D01*
X184678520Y-140655268D01*
X184748868Y-140645692D01*
X184813225Y-140675669D01*
X184835480Y-140701353D01*
X184856483Y-140733500D01*
X184924275Y-140837265D01*
X184924279Y-140837270D01*
X185076762Y-141002908D01*
X185131331Y-141045381D01*
X185254424Y-141141189D01*
X185452426Y-141248342D01*
X185452427Y-141248342D01*
X185452428Y-141248343D01*
X185527212Y-141274016D01*
X185665365Y-141321444D01*
X185887431Y-141358500D01*
X185887435Y-141358500D01*
X186112565Y-141358500D01*
X186112569Y-141358500D01*
X186334635Y-141321444D01*
X186547574Y-141248342D01*
X186745576Y-141141189D01*
X186923240Y-141002906D01*
X187075722Y-140837268D01*
X187198860Y-140648791D01*
X187289296Y-140442616D01*
X187344564Y-140224368D01*
X187363156Y-140000000D01*
X187344564Y-139775632D01*
X187313880Y-139654465D01*
X193749500Y-139654465D01*
X193784089Y-139961456D01*
X193816665Y-140104178D01*
X193852832Y-140262636D01*
X193852834Y-140262642D01*
X193852833Y-140262642D01*
X193954858Y-140554211D01*
X193954869Y-140554238D01*
X194088902Y-140832560D01*
X194088907Y-140832569D01*
X194253265Y-141094143D01*
X194445882Y-141335677D01*
X194664322Y-141554117D01*
X194664326Y-141554120D01*
X194905857Y-141746735D01*
X195167435Y-141911095D01*
X195445771Y-142045135D01*
X195445787Y-142045140D01*
X195445788Y-142045141D01*
X195737357Y-142147166D01*
X195737360Y-142147166D01*
X195737364Y-142147168D01*
X195960290Y-142198049D01*
X196038543Y-142215910D01*
X196038544Y-142215910D01*
X196038548Y-142215911D01*
X196282565Y-142243405D01*
X196345534Y-142250500D01*
X196345535Y-142250500D01*
X196654466Y-142250500D01*
X196706717Y-142244612D01*
X196961452Y-142215911D01*
X197262636Y-142147168D01*
X197554229Y-142045135D01*
X197832565Y-141911095D01*
X198094143Y-141746735D01*
X198335674Y-141554120D01*
X198554120Y-141335674D01*
X198746735Y-141094143D01*
X198911095Y-140832565D01*
X199045135Y-140554229D01*
X199147168Y-140262636D01*
X199215911Y-139961452D01*
X199250500Y-139654465D01*
X199250500Y-139345535D01*
X199250409Y-139344731D01*
X199239736Y-139249999D01*
X199215911Y-139038548D01*
X199147168Y-138737364D01*
X199146255Y-138734756D01*
X199045141Y-138445788D01*
X199045140Y-138445787D01*
X199045135Y-138445771D01*
X198911095Y-138167435D01*
X198868980Y-138100410D01*
X198823983Y-138028797D01*
X198746735Y-137905857D01*
X198554120Y-137664326D01*
X198554117Y-137664322D01*
X198335677Y-137445882D01*
X198094143Y-137253265D01*
X197832569Y-137088907D01*
X197832560Y-137088902D01*
X197554238Y-136954869D01*
X197554233Y-136954867D01*
X197554229Y-136954865D01*
X197554223Y-136954862D01*
X197554211Y-136954858D01*
X197262642Y-136852833D01*
X196961456Y-136784089D01*
X196654466Y-136749500D01*
X196654465Y-136749500D01*
X196345535Y-136749500D01*
X196345534Y-136749500D01*
X196038543Y-136784089D01*
X195737357Y-136852833D01*
X195445788Y-136954858D01*
X195445761Y-136954869D01*
X195167439Y-137088902D01*
X195167430Y-137088907D01*
X194905856Y-137253265D01*
X194664322Y-137445882D01*
X194445882Y-137664322D01*
X194253265Y-137905856D01*
X194088907Y-138167430D01*
X194088902Y-138167439D01*
X193954869Y-138445761D01*
X193954858Y-138445788D01*
X193852833Y-138737357D01*
X193784089Y-139038543D01*
X193749500Y-139345534D01*
X193749500Y-139654465D01*
X187313880Y-139654465D01*
X187289296Y-139557384D01*
X187198860Y-139351209D01*
X187192140Y-139340924D01*
X187075724Y-139162734D01*
X187075720Y-139162729D01*
X186946600Y-139022470D01*
X186923240Y-138997094D01*
X186923239Y-138997093D01*
X186923237Y-138997091D01*
X186811106Y-138909816D01*
X186745576Y-138858811D01*
X186745569Y-138858807D01*
X186660849Y-138812958D01*
X186610459Y-138762945D01*
X186599114Y-138734763D01*
X186567032Y-138615028D01*
X186551042Y-138587332D01*
X186486922Y-138476273D01*
X186486920Y-138476271D01*
X186486916Y-138476266D01*
X182305205Y-134294555D01*
X182271179Y-134232243D01*
X182268300Y-134205460D01*
X182268300Y-120470544D01*
X195016500Y-120470544D01*
X195027112Y-120574425D01*
X195082885Y-120742738D01*
X195175970Y-120893652D01*
X195175975Y-120893658D01*
X195301341Y-121019024D01*
X195301347Y-121019029D01*
X195301348Y-121019030D01*
X195452262Y-121112115D01*
X195620574Y-121167887D01*
X195724455Y-121178500D01*
X197275544Y-121178499D01*
X197379426Y-121167887D01*
X197547738Y-121112115D01*
X197698652Y-121019030D01*
X197824030Y-120893652D01*
X197917115Y-120742738D01*
X197972887Y-120574426D01*
X197983500Y-120470545D01*
X197983499Y-119169456D01*
X197972887Y-119065574D01*
X197917115Y-118897262D01*
X197824030Y-118746348D01*
X197824029Y-118746347D01*
X197824024Y-118746341D01*
X197698658Y-118620975D01*
X197698652Y-118620970D01*
X197553401Y-118531378D01*
X197505926Y-118478595D01*
X197494523Y-118408520D01*
X197522815Y-118343405D01*
X197530456Y-118335044D01*
X197660823Y-118204677D01*
X197786463Y-118031750D01*
X197883506Y-117841292D01*
X197883509Y-117841286D01*
X197949559Y-117638004D01*
X197959698Y-117574000D01*
X196901836Y-117574000D01*
X196942630Y-117503343D01*
X196975000Y-117382535D01*
X196975000Y-117257465D01*
X196942630Y-117136657D01*
X196901836Y-117066000D01*
X197959697Y-117066000D01*
X197949559Y-117001995D01*
X197883509Y-116798713D01*
X197883506Y-116798707D01*
X197786463Y-116608249D01*
X197660822Y-116435320D01*
X197509679Y-116284177D01*
X197355618Y-116172245D01*
X197312264Y-116116022D01*
X197306189Y-116045286D01*
X197339321Y-115982495D01*
X197355612Y-115968377D01*
X197510004Y-115856206D01*
X197661206Y-115705004D01*
X197786894Y-115532009D01*
X197883972Y-115341483D01*
X197950049Y-115138116D01*
X197983500Y-114926916D01*
X197983500Y-114713084D01*
X197950049Y-114501884D01*
X197883972Y-114298517D01*
X197786894Y-114107991D01*
X197661206Y-113934996D01*
X197661203Y-113934993D01*
X197661201Y-113934990D01*
X197510009Y-113783798D01*
X197510006Y-113783796D01*
X197510004Y-113783794D01*
X197356043Y-113671935D01*
X197312690Y-113615714D01*
X197306615Y-113544978D01*
X197339746Y-113482186D01*
X197356044Y-113468064D01*
X197382190Y-113449068D01*
X197510004Y-113356206D01*
X197661206Y-113205004D01*
X197786894Y-113032009D01*
X197883972Y-112841483D01*
X197950049Y-112638116D01*
X197983500Y-112426916D01*
X197983500Y-112213084D01*
X197950049Y-112001884D01*
X197883972Y-111798517D01*
X197786894Y-111607991D01*
X197661206Y-111434996D01*
X197661203Y-111434993D01*
X197661201Y-111434990D01*
X197510009Y-111283798D01*
X197510006Y-111283796D01*
X197510004Y-111283794D01*
X197337009Y-111158106D01*
X197146483Y-111061028D01*
X197146480Y-111061027D01*
X197146478Y-111061026D01*
X196943120Y-110994952D01*
X196943123Y-110994952D01*
X196903801Y-110988724D01*
X196731916Y-110961500D01*
X196268084Y-110961500D01*
X196056884Y-110994951D01*
X196056878Y-110994952D01*
X195853521Y-111061026D01*
X195853515Y-111061029D01*
X195662987Y-111158108D01*
X195489993Y-111283796D01*
X195489990Y-111283798D01*
X195338798Y-111434990D01*
X195338796Y-111434993D01*
X195213108Y-111607987D01*
X195116029Y-111798515D01*
X195116026Y-111798521D01*
X195049952Y-112001878D01*
X195049951Y-112001883D01*
X195049951Y-112001884D01*
X195016500Y-112213084D01*
X195016500Y-112426916D01*
X195049951Y-112638116D01*
X195049952Y-112638121D01*
X195116026Y-112841478D01*
X195116028Y-112841483D01*
X195196797Y-113000000D01*
X195213108Y-113032012D01*
X195244182Y-113074781D01*
X195338794Y-113205004D01*
X195338796Y-113205006D01*
X195338798Y-113205009D01*
X195489990Y-113356201D01*
X195489993Y-113356203D01*
X195489996Y-113356206D01*
X195590298Y-113429079D01*
X195643955Y-113468064D01*
X195687309Y-113524286D01*
X195693384Y-113595023D01*
X195660252Y-113657814D01*
X195643955Y-113671936D01*
X195489993Y-113783796D01*
X195489990Y-113783798D01*
X195338798Y-113934990D01*
X195338796Y-113934993D01*
X195213108Y-114107987D01*
X195116029Y-114298515D01*
X195116026Y-114298521D01*
X195049952Y-114501878D01*
X195049951Y-114501883D01*
X195049951Y-114501884D01*
X195016500Y-114713084D01*
X195016500Y-114926916D01*
X195022424Y-114964318D01*
X195049952Y-115138121D01*
X195105800Y-115310005D01*
X195116028Y-115341483D01*
X195199840Y-115505973D01*
X195213108Y-115532012D01*
X195338794Y-115705004D01*
X195338798Y-115705009D01*
X195489990Y-115856201D01*
X195489993Y-115856203D01*
X195489996Y-115856206D01*
X195644381Y-115968373D01*
X195687735Y-116024595D01*
X195693810Y-116095331D01*
X195660679Y-116158123D01*
X195644382Y-116172245D01*
X195490316Y-116284181D01*
X195339177Y-116435320D01*
X195213536Y-116608249D01*
X195116493Y-116798707D01*
X195116490Y-116798713D01*
X195050440Y-117001995D01*
X195040302Y-117066000D01*
X196098164Y-117066000D01*
X196057370Y-117136657D01*
X196025000Y-117257465D01*
X196025000Y-117382535D01*
X196057370Y-117503343D01*
X196098164Y-117574000D01*
X195040302Y-117574000D01*
X195050440Y-117638004D01*
X195116490Y-117841286D01*
X195116493Y-117841292D01*
X195213536Y-118031750D01*
X195339177Y-118204679D01*
X195469543Y-118335045D01*
X195503569Y-118397357D01*
X195498504Y-118468172D01*
X195455957Y-118525008D01*
X195446603Y-118531375D01*
X195426136Y-118544000D01*
X195301347Y-118620970D01*
X195301341Y-118620975D01*
X195175975Y-118746341D01*
X195175970Y-118746347D01*
X195082885Y-118897262D01*
X195027113Y-119065572D01*
X195027112Y-119065579D01*
X195016500Y-119169446D01*
X195016500Y-120470544D01*
X182268300Y-120470544D01*
X182268300Y-114790990D01*
X182247425Y-114713084D01*
X182226832Y-114636228D01*
X182226831Y-114636226D01*
X182223670Y-114628594D01*
X182224323Y-114628323D01*
X182210957Y-114587705D01*
X182193217Y-114430253D01*
X182133043Y-114258285D01*
X182133041Y-114258282D01*
X182133041Y-114258281D01*
X182036112Y-114104020D01*
X182036111Y-114104018D01*
X181907281Y-113975188D01*
X181907279Y-113975187D01*
X181753018Y-113878258D01*
X181753015Y-113878257D01*
X181581050Y-113818084D01*
X181581049Y-113818083D01*
X181581047Y-113818083D01*
X181400000Y-113797684D01*
X181218953Y-113818083D01*
X181218950Y-113818083D01*
X181218949Y-113818084D01*
X181099963Y-113859719D01*
X181029058Y-113863338D01*
X180967453Y-113828049D01*
X180934707Y-113765056D01*
X180941215Y-113694358D01*
X180969253Y-113651695D01*
X181941028Y-112679920D01*
X182912917Y-111708030D01*
X182975227Y-111674007D01*
X182987892Y-111671921D01*
X183072247Y-111662417D01*
X183244215Y-111602243D01*
X183398481Y-111505311D01*
X183527311Y-111376481D01*
X183624243Y-111222215D01*
X183684417Y-111050247D01*
X183704816Y-110869200D01*
X183684417Y-110688153D01*
X183624243Y-110516185D01*
X183624241Y-110516182D01*
X183624241Y-110516181D01*
X183527312Y-110361920D01*
X183527311Y-110361918D01*
X183398481Y-110233088D01*
X183398479Y-110233087D01*
X183244218Y-110136158D01*
X183150341Y-110103309D01*
X183092650Y-110061931D01*
X183066488Y-109995930D01*
X183080161Y-109926263D01*
X183102859Y-109895288D01*
X190326621Y-102671528D01*
X190343498Y-102642296D01*
X190406732Y-102532772D01*
X190448200Y-102378011D01*
X190448200Y-98378793D01*
X190468202Y-98310672D01*
X190475699Y-98300221D01*
X190475804Y-98300087D01*
X190475811Y-98300081D01*
X190572743Y-98145815D01*
X190632917Y-97973847D01*
X190653316Y-97792800D01*
X190632917Y-97611753D01*
X190572743Y-97439785D01*
X190572741Y-97439782D01*
X190572741Y-97439781D01*
X190475812Y-97285520D01*
X190475811Y-97285518D01*
X190346981Y-97156688D01*
X190346979Y-97156687D01*
X190192718Y-97059758D01*
X190192715Y-97059757D01*
X190020750Y-96999584D01*
X190020749Y-96999583D01*
X190020747Y-96999583D01*
X189839700Y-96979184D01*
X189658653Y-96999583D01*
X189658650Y-96999583D01*
X189658649Y-96999584D01*
X189486684Y-97059757D01*
X189486681Y-97059758D01*
X189332420Y-97156687D01*
X189332418Y-97156688D01*
X189203588Y-97285518D01*
X189203587Y-97285520D01*
X189106658Y-97439781D01*
X189106657Y-97439784D01*
X189083675Y-97505465D01*
X189046483Y-97611753D01*
X189026084Y-97792800D01*
X189046483Y-97973847D01*
X189046483Y-97973849D01*
X189046484Y-97973850D01*
X189106657Y-98145815D01*
X189106658Y-98145818D01*
X189203583Y-98300073D01*
X189203701Y-98300221D01*
X189203747Y-98300334D01*
X189207353Y-98306073D01*
X189206348Y-98306704D01*
X189230544Y-98365948D01*
X189231200Y-98378793D01*
X189231200Y-101993661D01*
X189211198Y-102061782D01*
X189194295Y-102082756D01*
X180885895Y-110391156D01*
X180823583Y-110425182D01*
X180752768Y-110420117D01*
X180695932Y-110377570D01*
X180671121Y-110311050D01*
X180670800Y-110302061D01*
X180670800Y-85130138D01*
X180690802Y-85062017D01*
X180707700Y-85041048D01*
X194801407Y-70947340D01*
X194863717Y-70913316D01*
X194934532Y-70918381D01*
X194991368Y-70960928D01*
X195016179Y-71027448D01*
X195016500Y-71036436D01*
X195016500Y-71150543D01*
X195027112Y-71254425D01*
X195082885Y-71422738D01*
X195175970Y-71573652D01*
X195175975Y-71573658D01*
X195301341Y-71699024D01*
X195301347Y-71699029D01*
X195301348Y-71699030D01*
X195452262Y-71792115D01*
X195620574Y-71847887D01*
X195724455Y-71858500D01*
X196727971Y-71858499D01*
X196796092Y-71878501D01*
X196817066Y-71895404D01*
X198700595Y-73778933D01*
X198734621Y-73841245D01*
X198737500Y-73868028D01*
X198737500Y-93231970D01*
X198717498Y-93300091D01*
X198700595Y-93321066D01*
X197968766Y-94052894D01*
X197906454Y-94086919D01*
X197835638Y-94081854D01*
X197790576Y-94052893D01*
X197698658Y-93960975D01*
X197698652Y-93960970D01*
X197680867Y-93950000D01*
X197553401Y-93871378D01*
X197505926Y-93818595D01*
X197494523Y-93748520D01*
X197522815Y-93683405D01*
X197530456Y-93675044D01*
X197660823Y-93544677D01*
X197786463Y-93371750D01*
X197883506Y-93181292D01*
X197883509Y-93181286D01*
X197949559Y-92978004D01*
X197959698Y-92914000D01*
X196901836Y-92914000D01*
X196942630Y-92843343D01*
X196975000Y-92722535D01*
X196975000Y-92597465D01*
X196942630Y-92476657D01*
X196901836Y-92406000D01*
X197959697Y-92406000D01*
X197949559Y-92341995D01*
X197883509Y-92138713D01*
X197883506Y-92138707D01*
X197786463Y-91948249D01*
X197660822Y-91775320D01*
X197509679Y-91624177D01*
X197355618Y-91512245D01*
X197312264Y-91456022D01*
X197306189Y-91385286D01*
X197339321Y-91322495D01*
X197355612Y-91308377D01*
X197510004Y-91196206D01*
X197661206Y-91045004D01*
X197786894Y-90872009D01*
X197883972Y-90681483D01*
X197950049Y-90478116D01*
X197983500Y-90266916D01*
X197983500Y-90053084D01*
X197950049Y-89841884D01*
X197883972Y-89638517D01*
X197786894Y-89447991D01*
X197661206Y-89274996D01*
X197661203Y-89274993D01*
X197661201Y-89274990D01*
X197510009Y-89123798D01*
X197510006Y-89123796D01*
X197510004Y-89123794D01*
X197356043Y-89011935D01*
X197312690Y-88955714D01*
X197306615Y-88884978D01*
X197339746Y-88822186D01*
X197356044Y-88808064D01*
X197510004Y-88696206D01*
X197661206Y-88545004D01*
X197786894Y-88372009D01*
X197883972Y-88181483D01*
X197950049Y-87978116D01*
X197983500Y-87766916D01*
X197983500Y-87553084D01*
X197950049Y-87341884D01*
X197883972Y-87138517D01*
X197786894Y-86947991D01*
X197661206Y-86774996D01*
X197661203Y-86774993D01*
X197661201Y-86774990D01*
X197510009Y-86623798D01*
X197510006Y-86623796D01*
X197510004Y-86623794D01*
X197337009Y-86498106D01*
X197146483Y-86401028D01*
X197146480Y-86401027D01*
X197146478Y-86401026D01*
X196943120Y-86334952D01*
X196943123Y-86334952D01*
X196903801Y-86328724D01*
X196731916Y-86301500D01*
X196268084Y-86301500D01*
X196056884Y-86334951D01*
X196056878Y-86334952D01*
X195853521Y-86401026D01*
X195853515Y-86401029D01*
X195662987Y-86498108D01*
X195489993Y-86623796D01*
X195489990Y-86623798D01*
X195338798Y-86774990D01*
X195338796Y-86774993D01*
X195213108Y-86947987D01*
X195116029Y-87138515D01*
X195116026Y-87138521D01*
X195049952Y-87341878D01*
X195049951Y-87341883D01*
X195049951Y-87341884D01*
X195016500Y-87553084D01*
X195016500Y-87766916D01*
X195024247Y-87815826D01*
X195049952Y-87978121D01*
X195116026Y-88181478D01*
X195116028Y-88181483D01*
X195213106Y-88372009D01*
X195338794Y-88545004D01*
X195338796Y-88545006D01*
X195338798Y-88545009D01*
X195489990Y-88696201D01*
X195489993Y-88696203D01*
X195489996Y-88696206D01*
X195590298Y-88769079D01*
X195643955Y-88808064D01*
X195687309Y-88864286D01*
X195693384Y-88935023D01*
X195660252Y-88997814D01*
X195643955Y-89011936D01*
X195489993Y-89123796D01*
X195489990Y-89123798D01*
X195338798Y-89274990D01*
X195338796Y-89274993D01*
X195213108Y-89447987D01*
X195116029Y-89638515D01*
X195116026Y-89638521D01*
X195049952Y-89841878D01*
X195049951Y-89841883D01*
X195049951Y-89841884D01*
X195016500Y-90053084D01*
X195016500Y-90266916D01*
X195049951Y-90478116D01*
X195049952Y-90478121D01*
X195116026Y-90681478D01*
X195116028Y-90681483D01*
X195213106Y-90872009D01*
X195338794Y-91045004D01*
X195338796Y-91045006D01*
X195338798Y-91045009D01*
X195489990Y-91196201D01*
X195489993Y-91196203D01*
X195489996Y-91196206D01*
X195644381Y-91308373D01*
X195687735Y-91364595D01*
X195693810Y-91435331D01*
X195660679Y-91498123D01*
X195644382Y-91512245D01*
X195490316Y-91624181D01*
X195339177Y-91775320D01*
X195213536Y-91948249D01*
X195116493Y-92138707D01*
X195116490Y-92138713D01*
X195050440Y-92341995D01*
X195040302Y-92406000D01*
X196098164Y-92406000D01*
X196057370Y-92476657D01*
X196025000Y-92597465D01*
X196025000Y-92722535D01*
X196057370Y-92843343D01*
X196098164Y-92914000D01*
X195040302Y-92914000D01*
X195050440Y-92978004D01*
X195116490Y-93181286D01*
X195116493Y-93181292D01*
X195213536Y-93371750D01*
X195339177Y-93544679D01*
X195469543Y-93675045D01*
X195503569Y-93737357D01*
X195498504Y-93808172D01*
X195455957Y-93865008D01*
X195446603Y-93871375D01*
X195378283Y-93913515D01*
X195301347Y-93960970D01*
X195301341Y-93960975D01*
X195175975Y-94086341D01*
X195175970Y-94086347D01*
X195082885Y-94237262D01*
X195027113Y-94405572D01*
X195027112Y-94405579D01*
X195016500Y-94509446D01*
X195016500Y-95810544D01*
X195027112Y-95914425D01*
X195082885Y-96082738D01*
X195175970Y-96233652D01*
X195175975Y-96233658D01*
X195301341Y-96359024D01*
X195301347Y-96359029D01*
X195301348Y-96359030D01*
X195452262Y-96452115D01*
X195620574Y-96507887D01*
X195724455Y-96518500D01*
X197275544Y-96518499D01*
X197379426Y-96507887D01*
X197547738Y-96452115D01*
X197698652Y-96359030D01*
X197824030Y-96233652D01*
X197917115Y-96082738D01*
X197943970Y-96001691D01*
X197984383Y-95943322D01*
X198038990Y-95917747D01*
X198162413Y-95893197D01*
X198301179Y-95835718D01*
X198334434Y-95813498D01*
X198426065Y-95752273D01*
X200092273Y-94086065D01*
X200175718Y-93961179D01*
X200233197Y-93822413D01*
X200238785Y-93794322D01*
X200262500Y-93675100D01*
X200262500Y-73424900D01*
X200233197Y-73277587D01*
X200191939Y-73177981D01*
X200175719Y-73138821D01*
X200092273Y-73013935D01*
X198020404Y-70942066D01*
X197986378Y-70879754D01*
X197983499Y-70852971D01*
X197983499Y-69849455D01*
X197972887Y-69745574D01*
X197952008Y-69682564D01*
X197917115Y-69577262D01*
X197846791Y-69463249D01*
X197828055Y-69394773D01*
X197849314Y-69327034D01*
X197864932Y-69308015D01*
X198316121Y-68856828D01*
X198371831Y-68760335D01*
X198396232Y-68718072D01*
X198437700Y-68563311D01*
X198437700Y-64967889D01*
X198413042Y-64875865D01*
X198396232Y-64813127D01*
X198316121Y-64674372D01*
X197680719Y-64038970D01*
X197646696Y-63976660D01*
X197651760Y-63905845D01*
X197667873Y-63875826D01*
X197786894Y-63712009D01*
X197883972Y-63521483D01*
X197950049Y-63318116D01*
X197983500Y-63106916D01*
X197983500Y-62893084D01*
X197950049Y-62681884D01*
X197883972Y-62478517D01*
X197786894Y-62287991D01*
X197661206Y-62114996D01*
X197661203Y-62114993D01*
X197661201Y-62114990D01*
X197510009Y-61963798D01*
X197510006Y-61963796D01*
X197510004Y-61963794D01*
X197337009Y-61838106D01*
X197146483Y-61741028D01*
X197146480Y-61741027D01*
X197146478Y-61741026D01*
X196943120Y-61674952D01*
X196943123Y-61674952D01*
X196903801Y-61668724D01*
X196731916Y-61641500D01*
X196268084Y-61641500D01*
X196056884Y-61674951D01*
X196056878Y-61674952D01*
X195853521Y-61741026D01*
X195853515Y-61741029D01*
X195662987Y-61838108D01*
X195489993Y-61963796D01*
X195489990Y-61963798D01*
X195338798Y-62114990D01*
X195338796Y-62114993D01*
X195213108Y-62287987D01*
X195116029Y-62478515D01*
X195116026Y-62478521D01*
X195049952Y-62681878D01*
X195049951Y-62681883D01*
X195049951Y-62681884D01*
X195016500Y-62893084D01*
X195016500Y-63106916D01*
X195049951Y-63318116D01*
X195049952Y-63318121D01*
X195082174Y-63417290D01*
X195116028Y-63521483D01*
X195213106Y-63712009D01*
X195338794Y-63885004D01*
X195338796Y-63885006D01*
X195338798Y-63885009D01*
X195489990Y-64036201D01*
X195489993Y-64036203D01*
X195489996Y-64036206D01*
X195590298Y-64109079D01*
X195643955Y-64148064D01*
X195687309Y-64204286D01*
X195693384Y-64275023D01*
X195660252Y-64337814D01*
X195643955Y-64351936D01*
X195489993Y-64463796D01*
X195489990Y-64463798D01*
X195338798Y-64614990D01*
X195338796Y-64614993D01*
X195213108Y-64787987D01*
X195116029Y-64978515D01*
X195116026Y-64978521D01*
X195049952Y-65181878D01*
X195049951Y-65181883D01*
X195049951Y-65181884D01*
X195016500Y-65393084D01*
X195016500Y-65606916D01*
X195040970Y-65761412D01*
X195049952Y-65818121D01*
X195082094Y-65917043D01*
X195116028Y-66021483D01*
X195118516Y-66026366D01*
X195123662Y-66036466D01*
X195136764Y-66106244D01*
X195110062Y-66172027D01*
X195100488Y-66182761D01*
X179024383Y-82258866D01*
X179024375Y-82258876D01*
X178944267Y-82397627D01*
X178944268Y-82397628D01*
X178911264Y-82520803D01*
X178902800Y-82552390D01*
X178902800Y-105985704D01*
X178882798Y-106053825D01*
X178829142Y-106100318D01*
X178790909Y-106110912D01*
X178730169Y-106117756D01*
X178650053Y-106126783D01*
X178650050Y-106126783D01*
X178650049Y-106126784D01*
X178478084Y-106186957D01*
X178478081Y-106186958D01*
X178323825Y-106283883D01*
X178323670Y-106284008D01*
X178323550Y-106284056D01*
X178317827Y-106287653D01*
X178317197Y-106286650D01*
X178257941Y-106310845D01*
X178245106Y-106311500D01*
X173099889Y-106311500D01*
X172958709Y-106349329D01*
X172958708Y-106349328D01*
X172945124Y-106352968D01*
X172806376Y-106433075D01*
X172806366Y-106433083D01*
X162028083Y-117211366D01*
X162028075Y-117211376D01*
X161947967Y-117350127D01*
X161947968Y-117350128D01*
X161906915Y-117503343D01*
X161906500Y-117504890D01*
X161906500Y-138709549D01*
X161886498Y-138777670D01*
X161840470Y-138820362D01*
X161769430Y-138858807D01*
X161769424Y-138858811D01*
X161591762Y-138997091D01*
X161439279Y-139162729D01*
X161350483Y-139298643D01*
X161296479Y-139344731D01*
X161226131Y-139354306D01*
X161161774Y-139324329D01*
X161139517Y-139298643D01*
X161050720Y-139162729D01*
X160984791Y-139091112D01*
X160898240Y-138997094D01*
X160821634Y-138937468D01*
X160786108Y-138909816D01*
X160744637Y-138852190D01*
X160737500Y-138810385D01*
X160737500Y-106650499D01*
X160737499Y-106650496D01*
X160737420Y-106650099D01*
X160708197Y-106503187D01*
X160650718Y-106364421D01*
X160567272Y-106239535D01*
X160461065Y-106133328D01*
X159114189Y-104786452D01*
X157735805Y-103408067D01*
X157701779Y-103345755D01*
X157698900Y-103318972D01*
X157698900Y-99000000D01*
X165574335Y-99000000D01*
X165592965Y-99236711D01*
X165598210Y-99258556D01*
X165648394Y-99467592D01*
X165739259Y-99686961D01*
X165863325Y-99889417D01*
X165863326Y-99889419D01*
X166017530Y-100069969D01*
X166198080Y-100224173D01*
X166198084Y-100224176D01*
X166400537Y-100348240D01*
X166619906Y-100439105D01*
X166850789Y-100494535D01*
X167087500Y-100513165D01*
X167324211Y-100494535D01*
X167555094Y-100439105D01*
X167774463Y-100348240D01*
X167976916Y-100224176D01*
X168157469Y-100069969D01*
X168311676Y-99889416D01*
X168435740Y-99686963D01*
X168526605Y-99467594D01*
X168582035Y-99236711D01*
X168600665Y-99000000D01*
X172074335Y-99000000D01*
X172092965Y-99236711D01*
X172098210Y-99258556D01*
X172148394Y-99467592D01*
X172239259Y-99686961D01*
X172363325Y-99889417D01*
X172363326Y-99889419D01*
X172517530Y-100069969D01*
X172698080Y-100224173D01*
X172698084Y-100224176D01*
X172900537Y-100348240D01*
X173119906Y-100439105D01*
X173350789Y-100494535D01*
X173587500Y-100513165D01*
X173824211Y-100494535D01*
X174055094Y-100439105D01*
X174274463Y-100348240D01*
X174476916Y-100224176D01*
X174657469Y-100069969D01*
X174811676Y-99889416D01*
X174935740Y-99686963D01*
X175026605Y-99467594D01*
X175082035Y-99236711D01*
X175100665Y-99000000D01*
X175082035Y-98763289D01*
X175026605Y-98532406D01*
X174935740Y-98313037D01*
X174811676Y-98110584D01*
X174811673Y-98110580D01*
X174657469Y-97930030D01*
X174476919Y-97775826D01*
X174476917Y-97775825D01*
X174476916Y-97775824D01*
X174274463Y-97651760D01*
X174177868Y-97611749D01*
X174055092Y-97560894D01*
X173897151Y-97522976D01*
X173824211Y-97505465D01*
X173587500Y-97486835D01*
X173350789Y-97505465D01*
X173119907Y-97560894D01*
X172900538Y-97651759D01*
X172698082Y-97775825D01*
X172698080Y-97775826D01*
X172517530Y-97930030D01*
X172363326Y-98110580D01*
X172363325Y-98110582D01*
X172239259Y-98313038D01*
X172148394Y-98532407D01*
X172096155Y-98750000D01*
X172092965Y-98763289D01*
X172074335Y-99000000D01*
X168600665Y-99000000D01*
X168582035Y-98763289D01*
X168526605Y-98532406D01*
X168435740Y-98313037D01*
X168311676Y-98110584D01*
X168311673Y-98110580D01*
X168157469Y-97930030D01*
X167976919Y-97775826D01*
X167976917Y-97775825D01*
X167976916Y-97775824D01*
X167774463Y-97651760D01*
X167677868Y-97611749D01*
X167555092Y-97560894D01*
X167397151Y-97522976D01*
X167324211Y-97505465D01*
X167087500Y-97486835D01*
X166850789Y-97505465D01*
X166619907Y-97560894D01*
X166400538Y-97651759D01*
X166198082Y-97775825D01*
X166198080Y-97775826D01*
X166017530Y-97930030D01*
X165863326Y-98110580D01*
X165863325Y-98110582D01*
X165739259Y-98313038D01*
X165648394Y-98532407D01*
X165596155Y-98750000D01*
X165592965Y-98763289D01*
X165574335Y-99000000D01*
X157698900Y-99000000D01*
X157698900Y-94246000D01*
X160523917Y-94246000D01*
X161498314Y-94246000D01*
X161489920Y-94254394D01*
X161437259Y-94345606D01*
X161410000Y-94447339D01*
X161410000Y-94552661D01*
X161437259Y-94654394D01*
X161489920Y-94745606D01*
X161498314Y-94754000D01*
X160523918Y-94754000D01*
X160576186Y-94949068D01*
X160576188Y-94949073D01*
X160672912Y-95156498D01*
X160804184Y-95343974D01*
X160804189Y-95343980D01*
X160966019Y-95505810D01*
X160966025Y-95505815D01*
X161153501Y-95637087D01*
X161360926Y-95733811D01*
X161360931Y-95733813D01*
X161556000Y-95786081D01*
X161556000Y-94811686D01*
X161564394Y-94820080D01*
X161655606Y-94872741D01*
X161757339Y-94900000D01*
X161862661Y-94900000D01*
X161964394Y-94872741D01*
X162055606Y-94820080D01*
X162064000Y-94811686D01*
X162064000Y-95786081D01*
X162259068Y-95733813D01*
X162259073Y-95733811D01*
X162466498Y-95637087D01*
X162653974Y-95505815D01*
X162653980Y-95505810D01*
X162815810Y-95343980D01*
X162815815Y-95343974D01*
X162947087Y-95156498D01*
X163043811Y-94949073D01*
X163043813Y-94949068D01*
X163096082Y-94754000D01*
X162121686Y-94754000D01*
X162130080Y-94745606D01*
X162182741Y-94654394D01*
X162210000Y-94552661D01*
X162210000Y-94500000D01*
X165574837Y-94500000D01*
X165593460Y-94736632D01*
X165648871Y-94967437D01*
X165739708Y-95186738D01*
X165854396Y-95373890D01*
X165854397Y-95373890D01*
X166562516Y-94665771D01*
X166574982Y-94712292D01*
X166647390Y-94837708D01*
X166749792Y-94940110D01*
X166875208Y-95012518D01*
X166921726Y-95024982D01*
X166213607Y-95733101D01*
X166213608Y-95733102D01*
X166400761Y-95847791D01*
X166620062Y-95938628D01*
X166850867Y-95994039D01*
X167087500Y-96012662D01*
X167324132Y-95994039D01*
X167554937Y-95938628D01*
X167774238Y-95847791D01*
X167961390Y-95733102D01*
X167961391Y-95733102D01*
X167253272Y-95024982D01*
X167299792Y-95012518D01*
X167425208Y-94940110D01*
X167527610Y-94837708D01*
X167600018Y-94712292D01*
X167612483Y-94665772D01*
X168320602Y-95373891D01*
X168320602Y-95373890D01*
X168435291Y-95186738D01*
X168526128Y-94967437D01*
X168581539Y-94736632D01*
X168600162Y-94500000D01*
X172074837Y-94500000D01*
X172093460Y-94736632D01*
X172148871Y-94967437D01*
X172239708Y-95186738D01*
X172354396Y-95373890D01*
X172354397Y-95373890D01*
X173062516Y-94665771D01*
X173074982Y-94712292D01*
X173147390Y-94837708D01*
X173249792Y-94940110D01*
X173375208Y-95012518D01*
X173421726Y-95024982D01*
X172713607Y-95733101D01*
X172713608Y-95733102D01*
X172900761Y-95847791D01*
X173120062Y-95938628D01*
X173350867Y-95994039D01*
X173587500Y-96012662D01*
X173824132Y-95994039D01*
X174054937Y-95938628D01*
X174274238Y-95847791D01*
X174461390Y-95733102D01*
X174461391Y-95733102D01*
X173753272Y-95024982D01*
X173799792Y-95012518D01*
X173925208Y-94940110D01*
X174027610Y-94837708D01*
X174100018Y-94712292D01*
X174112483Y-94665772D01*
X174820602Y-95373891D01*
X174820602Y-95373890D01*
X174935291Y-95186738D01*
X175026128Y-94967437D01*
X175081539Y-94736632D01*
X175100162Y-94500000D01*
X175081539Y-94263367D01*
X175026128Y-94032562D01*
X174935291Y-93813261D01*
X174820602Y-93626108D01*
X174820601Y-93626107D01*
X174112482Y-94334226D01*
X174100018Y-94287708D01*
X174027610Y-94162292D01*
X173925208Y-94059890D01*
X173799792Y-93987482D01*
X173753271Y-93975016D01*
X174461390Y-93266897D01*
X174461390Y-93266896D01*
X174274238Y-93152208D01*
X174054937Y-93061371D01*
X173824132Y-93005960D01*
X173587500Y-92987337D01*
X173350867Y-93005960D01*
X173120062Y-93061371D01*
X172900766Y-93152206D01*
X172713608Y-93266897D01*
X172713608Y-93266898D01*
X173421727Y-93975017D01*
X173375208Y-93987482D01*
X173249792Y-94059890D01*
X173147390Y-94162292D01*
X173074982Y-94287708D01*
X173062517Y-94334227D01*
X172354398Y-93626108D01*
X172354397Y-93626108D01*
X172239706Y-93813266D01*
X172148871Y-94032562D01*
X172093460Y-94263367D01*
X172074837Y-94500000D01*
X168600162Y-94500000D01*
X168581539Y-94263367D01*
X168526128Y-94032562D01*
X168435291Y-93813261D01*
X168320602Y-93626108D01*
X168320601Y-93626107D01*
X167612482Y-94334226D01*
X167600018Y-94287708D01*
X167527610Y-94162292D01*
X167425208Y-94059890D01*
X167299792Y-93987482D01*
X167253271Y-93975016D01*
X167961390Y-93266897D01*
X167961390Y-93266896D01*
X167774238Y-93152208D01*
X167554937Y-93061371D01*
X167324132Y-93005960D01*
X167087500Y-92987337D01*
X166850867Y-93005960D01*
X166620062Y-93061371D01*
X166400766Y-93152206D01*
X166213608Y-93266897D01*
X166213608Y-93266898D01*
X166921727Y-93975017D01*
X166875208Y-93987482D01*
X166749792Y-94059890D01*
X166647390Y-94162292D01*
X166574982Y-94287708D01*
X166562517Y-94334227D01*
X165854398Y-93626108D01*
X165854397Y-93626108D01*
X165739706Y-93813266D01*
X165648871Y-94032562D01*
X165593460Y-94263367D01*
X165574837Y-94500000D01*
X162210000Y-94500000D01*
X162210000Y-94447339D01*
X162182741Y-94345606D01*
X162130080Y-94254394D01*
X162121686Y-94246000D01*
X163096082Y-94246000D01*
X163043813Y-94050931D01*
X163043811Y-94050926D01*
X162947087Y-93843501D01*
X162815815Y-93656025D01*
X162815810Y-93656019D01*
X162653980Y-93494189D01*
X162653974Y-93494184D01*
X162466498Y-93362912D01*
X162259073Y-93266188D01*
X162259071Y-93266187D01*
X162064000Y-93213917D01*
X162064000Y-94188314D01*
X162055606Y-94179920D01*
X161964394Y-94127259D01*
X161862661Y-94100000D01*
X161757339Y-94100000D01*
X161655606Y-94127259D01*
X161564394Y-94179920D01*
X161556000Y-94188314D01*
X161556000Y-93213917D01*
X161555999Y-93213917D01*
X161360928Y-93266187D01*
X161360926Y-93266188D01*
X161153501Y-93362912D01*
X160966025Y-93494184D01*
X160966019Y-93494189D01*
X160804189Y-93656019D01*
X160804184Y-93656025D01*
X160672912Y-93843501D01*
X160576188Y-94050926D01*
X160576186Y-94050931D01*
X160523917Y-94246000D01*
X157698900Y-94246000D01*
X157698900Y-69171299D01*
X157698899Y-69171296D01*
X157669597Y-69023987D01*
X157612118Y-68885221D01*
X157528672Y-68760335D01*
X157422465Y-68654128D01*
X155586125Y-66817787D01*
X155552099Y-66755475D01*
X155549700Y-66717710D01*
X155555414Y-66652402D01*
X155563498Y-66560000D01*
X155543543Y-66331913D01*
X155484284Y-66110757D01*
X155387523Y-65903251D01*
X155256198Y-65715700D01*
X155094300Y-65553802D01*
X155094296Y-65553799D01*
X155094291Y-65553795D01*
X154934221Y-65441713D01*
X154889892Y-65386256D01*
X154882583Y-65315637D01*
X154914613Y-65252276D01*
X154975815Y-65216291D01*
X155006491Y-65212500D01*
X161326808Y-65212500D01*
X161394929Y-65232502D01*
X161441422Y-65286158D01*
X161451526Y-65356432D01*
X161422032Y-65421012D01*
X161399079Y-65441713D01*
X161239003Y-65553799D01*
X161238997Y-65553804D01*
X161077104Y-65715697D01*
X161077099Y-65715703D01*
X160945777Y-65903250D01*
X160849017Y-66110753D01*
X160849015Y-66110759D01*
X160829722Y-66182761D01*
X160789757Y-66331913D01*
X160769802Y-66560000D01*
X160789757Y-66788087D01*
X160823970Y-66915771D01*
X160849015Y-67009240D01*
X160849017Y-67009246D01*
X160945777Y-67216749D01*
X161077099Y-67404296D01*
X161077104Y-67404302D01*
X161238997Y-67566195D01*
X161239005Y-67566202D01*
X161267069Y-67585852D01*
X161311399Y-67641308D01*
X161320800Y-67689066D01*
X161320800Y-83322571D01*
X161300798Y-83390692D01*
X161283895Y-83411666D01*
X159560513Y-85135047D01*
X159535830Y-85152567D01*
X159536475Y-85153593D01*
X159376220Y-85254287D01*
X159376218Y-85254288D01*
X159247388Y-85383118D01*
X159247387Y-85383120D01*
X159150458Y-85537381D01*
X159150457Y-85537384D01*
X159150457Y-85537385D01*
X159090283Y-85709353D01*
X159069884Y-85890400D01*
X159090283Y-86071447D01*
X159090283Y-86071449D01*
X159090284Y-86071450D01*
X159150457Y-86243415D01*
X159150458Y-86243418D01*
X159247387Y-86397679D01*
X159247388Y-86397681D01*
X159376218Y-86526511D01*
X159376220Y-86526512D01*
X159530481Y-86623441D01*
X159530482Y-86623441D01*
X159530485Y-86623443D01*
X159702453Y-86683617D01*
X159883500Y-86704016D01*
X160064547Y-86683617D01*
X160236515Y-86623443D01*
X160390781Y-86526511D01*
X160519611Y-86397681D01*
X160549571Y-86350000D01*
X160620309Y-86237423D01*
X160621341Y-86238072D01*
X160638850Y-86213386D01*
X162675573Y-84176665D01*
X162759018Y-84051779D01*
X162816497Y-83913013D01*
X162826755Y-83861444D01*
X162845800Y-83765700D01*
X162845800Y-67689066D01*
X162865802Y-67620945D01*
X162899531Y-67585852D01*
X162927594Y-67566202D01*
X162927600Y-67566198D01*
X163089498Y-67404300D01*
X163220823Y-67216749D01*
X163317584Y-67009243D01*
X163376843Y-66788087D01*
X163396798Y-66560000D01*
X163376843Y-66331913D01*
X163317584Y-66110757D01*
X163220823Y-65903251D01*
X163089498Y-65715700D01*
X162927600Y-65553802D01*
X162767521Y-65441713D01*
X162723193Y-65386256D01*
X162715884Y-65315636D01*
X162747915Y-65252276D01*
X162809116Y-65216291D01*
X162839792Y-65212500D01*
X168031972Y-65212500D01*
X168100093Y-65232502D01*
X168121067Y-65249405D01*
X168769612Y-65897950D01*
X168785282Y-65917043D01*
X168798525Y-65936863D01*
X168798526Y-65936864D01*
X168798527Y-65936865D01*
X169163874Y-66302212D01*
X169197898Y-66364523D01*
X169200299Y-66402286D01*
X169186502Y-66559998D01*
X169186502Y-66560000D01*
X169206457Y-66788087D01*
X169240670Y-66915771D01*
X169265715Y-67009240D01*
X169265717Y-67009246D01*
X169362477Y-67216749D01*
X169374205Y-67233499D01*
X169493802Y-67404300D01*
X169655700Y-67566198D01*
X169843251Y-67697523D01*
X170050757Y-67794284D01*
X170271913Y-67853543D01*
X170500000Y-67873498D01*
X170728087Y-67853543D01*
X170949243Y-67794284D01*
X171156749Y-67697523D01*
X171344300Y-67566198D01*
X171506198Y-67404300D01*
X171637523Y-67216749D01*
X171734284Y-67009243D01*
X171793543Y-66788087D01*
X171813498Y-66560000D01*
X171793543Y-66331913D01*
X171734284Y-66110757D01*
X171637523Y-65903251D01*
X171506198Y-65715700D01*
X171344300Y-65553802D01*
X171156749Y-65422477D01*
X171093715Y-65393084D01*
X170949246Y-65325717D01*
X170949240Y-65325715D01*
X170855771Y-65300670D01*
X170728087Y-65266457D01*
X170500000Y-65246502D01*
X170499998Y-65246502D01*
X170342286Y-65260299D01*
X170272682Y-65246309D01*
X170242211Y-65223873D01*
X170011985Y-64993647D01*
X169996313Y-64974551D01*
X169991991Y-64968083D01*
X169983073Y-64954735D01*
X169983069Y-64954730D01*
X168886069Y-63857730D01*
X168886065Y-63857727D01*
X168761179Y-63774282D01*
X168744637Y-63767430D01*
X168622416Y-63716804D01*
X168622413Y-63716803D01*
X168598312Y-63712009D01*
X168598310Y-63712008D01*
X168598309Y-63712008D01*
X168475100Y-63687500D01*
X154661676Y-63687500D01*
X154511476Y-63687500D01*
X154511472Y-63687500D01*
X154364161Y-63716803D01*
X154364160Y-63716804D01*
X154225396Y-63774282D01*
X154100510Y-63857727D01*
X154100506Y-63857730D01*
X142218595Y-75739642D01*
X142156283Y-75773668D01*
X142085468Y-75768603D01*
X142028632Y-75726056D01*
X142003821Y-75659536D01*
X142003500Y-75650547D01*
X142003500Y-75512022D01*
X142003500Y-75512019D01*
X141971280Y-75308592D01*
X141907634Y-75112710D01*
X141814129Y-74929197D01*
X141693068Y-74762570D01*
X141693065Y-74762567D01*
X141693063Y-74762564D01*
X141547435Y-74616936D01*
X141547432Y-74616934D01*
X141547430Y-74616932D01*
X141380803Y-74495871D01*
X141305034Y-74457265D01*
X141253422Y-74408519D01*
X141236356Y-74339604D01*
X141259257Y-74272402D01*
X141305034Y-74232735D01*
X141380803Y-74194129D01*
X141547430Y-74073068D01*
X141693068Y-73927430D01*
X141814129Y-73760803D01*
X141907634Y-73577290D01*
X141971280Y-73381408D01*
X142003500Y-73177981D01*
X142003500Y-72972019D01*
X141971280Y-72768592D01*
X141907634Y-72572710D01*
X141814129Y-72389197D01*
X141693068Y-72222570D01*
X141693065Y-72222567D01*
X141693063Y-72222564D01*
X141547435Y-72076936D01*
X141547432Y-72076934D01*
X141547430Y-72076932D01*
X141380803Y-71955871D01*
X141305034Y-71917265D01*
X141253422Y-71868519D01*
X141236356Y-71799604D01*
X141259257Y-71732402D01*
X141305034Y-71692735D01*
X141380803Y-71654129D01*
X141547430Y-71533068D01*
X141693068Y-71387430D01*
X141814129Y-71220803D01*
X141907634Y-71037290D01*
X141971280Y-70841408D01*
X142003500Y-70637981D01*
X142003500Y-70432019D01*
X141971280Y-70228592D01*
X141907634Y-70032710D01*
X141814129Y-69849197D01*
X141693068Y-69682570D01*
X141693065Y-69682567D01*
X141693063Y-69682564D01*
X141547435Y-69536936D01*
X141547432Y-69536934D01*
X141547430Y-69536932D01*
X141421999Y-69445802D01*
X141380806Y-69415873D01*
X141380805Y-69415872D01*
X141380803Y-69415871D01*
X141305034Y-69377265D01*
X141253422Y-69328519D01*
X141236356Y-69259604D01*
X141259257Y-69192402D01*
X141305034Y-69152735D01*
X141380803Y-69114129D01*
X141547430Y-68993068D01*
X141693068Y-68847430D01*
X141814129Y-68680803D01*
X141907634Y-68497290D01*
X141971280Y-68301408D01*
X142003500Y-68097981D01*
X142003500Y-67892019D01*
X141971280Y-67688592D01*
X141907634Y-67492710D01*
X141814129Y-67309197D01*
X141693068Y-67142570D01*
X141693065Y-67142567D01*
X141693063Y-67142564D01*
X141547435Y-66996936D01*
X141547432Y-66996934D01*
X141547430Y-66996932D01*
X141380803Y-66875871D01*
X141305034Y-66837265D01*
X141253422Y-66788519D01*
X141236356Y-66719604D01*
X141259257Y-66652402D01*
X141305034Y-66612735D01*
X141380803Y-66574129D01*
X141400250Y-66560000D01*
X144936502Y-66560000D01*
X144956457Y-66788087D01*
X144990670Y-66915771D01*
X145015715Y-67009240D01*
X145015717Y-67009246D01*
X145112477Y-67216749D01*
X145124205Y-67233499D01*
X145243802Y-67404300D01*
X145405700Y-67566198D01*
X145593251Y-67697523D01*
X145800757Y-67794284D01*
X146021913Y-67853543D01*
X146250000Y-67873498D01*
X146478087Y-67853543D01*
X146699243Y-67794284D01*
X146906749Y-67697523D01*
X147094300Y-67566198D01*
X147256198Y-67404300D01*
X147387523Y-67216749D01*
X147484284Y-67009243D01*
X147543543Y-66788087D01*
X147563498Y-66560000D01*
X147543543Y-66331913D01*
X147484284Y-66110757D01*
X147387523Y-65903251D01*
X147256198Y-65715700D01*
X147094300Y-65553802D01*
X146906749Y-65422477D01*
X146843715Y-65393084D01*
X146699246Y-65325717D01*
X146699240Y-65325715D01*
X146605771Y-65300670D01*
X146478087Y-65266457D01*
X146250000Y-65246502D01*
X146021913Y-65266457D01*
X145800759Y-65325715D01*
X145800753Y-65325717D01*
X145593250Y-65422477D01*
X145405703Y-65553799D01*
X145405697Y-65553804D01*
X145243804Y-65715697D01*
X145243799Y-65715703D01*
X145112477Y-65903250D01*
X145015717Y-66110753D01*
X145015715Y-66110759D01*
X144996422Y-66182761D01*
X144956457Y-66331913D01*
X144936502Y-66560000D01*
X141400250Y-66560000D01*
X141547430Y-66453068D01*
X141693068Y-66307430D01*
X141814129Y-66140803D01*
X141907634Y-65957290D01*
X141971280Y-65761408D01*
X142003500Y-65557981D01*
X142003500Y-65352019D01*
X141971280Y-65148592D01*
X141907634Y-64952710D01*
X141814129Y-64769197D01*
X141693068Y-64602570D01*
X141693065Y-64602567D01*
X141693063Y-64602564D01*
X141547435Y-64456936D01*
X141547432Y-64456934D01*
X141547430Y-64456932D01*
X141383879Y-64338106D01*
X141380806Y-64335873D01*
X141380805Y-64335872D01*
X141380803Y-64335871D01*
X141305034Y-64297265D01*
X141253422Y-64248519D01*
X141236356Y-64179604D01*
X141259257Y-64112402D01*
X141305034Y-64072735D01*
X141380803Y-64034129D01*
X141547430Y-63913068D01*
X141693068Y-63767430D01*
X141814129Y-63600803D01*
X141907634Y-63417290D01*
X141971280Y-63221408D01*
X142003500Y-63017981D01*
X142003500Y-62812019D01*
X141971280Y-62608592D01*
X141907634Y-62412710D01*
X141814129Y-62229197D01*
X141693068Y-62062570D01*
X141693065Y-62062567D01*
X141693063Y-62062564D01*
X141547435Y-61916936D01*
X141547432Y-61916934D01*
X141547431Y-61916933D01*
X141547430Y-61916932D01*
X141380803Y-61795871D01*
X141305034Y-61757265D01*
X141253422Y-61708519D01*
X141236356Y-61639604D01*
X141259257Y-61572402D01*
X141305034Y-61532735D01*
X141380803Y-61494129D01*
X141547430Y-61373068D01*
X141693068Y-61227430D01*
X141814129Y-61060803D01*
X141907634Y-60877290D01*
X141971280Y-60681408D01*
X142003500Y-60477981D01*
X142003500Y-60272019D01*
X141971280Y-60068592D01*
X141907634Y-59872710D01*
X141814129Y-59689197D01*
X141693068Y-59522570D01*
X141693065Y-59522567D01*
X141693063Y-59522564D01*
X141547435Y-59376936D01*
X141547432Y-59376934D01*
X141547430Y-59376932D01*
X141380803Y-59255871D01*
X141197290Y-59162366D01*
X141197287Y-59162365D01*
X141197285Y-59162364D01*
X141001412Y-59098721D01*
X141001410Y-59098720D01*
X141001408Y-59098720D01*
X140797981Y-59066500D01*
X139792019Y-59066500D01*
X139588592Y-59098720D01*
X139588590Y-59098720D01*
X139588587Y-59098721D01*
X139392714Y-59162364D01*
X139392708Y-59162367D01*
X139209193Y-59255873D01*
X139042567Y-59376934D01*
X139042564Y-59376936D01*
X138896936Y-59522564D01*
X138896934Y-59522567D01*
X138775873Y-59689193D01*
X138682367Y-59872708D01*
X138682364Y-59872714D01*
X138618721Y-60068587D01*
X138618720Y-60068590D01*
X138618720Y-60068592D01*
X138586500Y-60272019D01*
X138586500Y-60477981D01*
X138618720Y-60681408D01*
X138682366Y-60877290D01*
X138775871Y-61060803D01*
X138896932Y-61227430D01*
X138896934Y-61227432D01*
X138896936Y-61227435D01*
X139042564Y-61373063D01*
X139042567Y-61373065D01*
X139042570Y-61373068D01*
X139209197Y-61494129D01*
X139284962Y-61532733D01*
X139336577Y-61581482D01*
X139353643Y-61650397D01*
X139330742Y-61717598D01*
X139284963Y-61757266D01*
X139216033Y-61792387D01*
X139209193Y-61795873D01*
X139042567Y-61916934D01*
X139042564Y-61916936D01*
X138896936Y-62062564D01*
X138896934Y-62062567D01*
X138775873Y-62229193D01*
X138682367Y-62412708D01*
X138682364Y-62412714D01*
X138618721Y-62608587D01*
X138618720Y-62608590D01*
X138618720Y-62608592D01*
X138586500Y-62812019D01*
X138586500Y-63017981D01*
X138618720Y-63221408D01*
X138682366Y-63417290D01*
X138775871Y-63600803D01*
X138896932Y-63767430D01*
X138896934Y-63767432D01*
X138896936Y-63767435D01*
X139042564Y-63913063D01*
X139042567Y-63913065D01*
X139042570Y-63913068D01*
X139209197Y-64034129D01*
X139284962Y-64072733D01*
X139336577Y-64121482D01*
X139353643Y-64190397D01*
X139330742Y-64257598D01*
X139284963Y-64297266D01*
X139232279Y-64324110D01*
X139209193Y-64335873D01*
X139042567Y-64456934D01*
X139042564Y-64456936D01*
X138896936Y-64602564D01*
X138896934Y-64602567D01*
X138775873Y-64769193D01*
X138682367Y-64952708D01*
X138682364Y-64952714D01*
X138618721Y-65148587D01*
X138618720Y-65148590D01*
X138618720Y-65148592D01*
X138586500Y-65352019D01*
X138586500Y-65557981D01*
X138611481Y-65715703D01*
X138618721Y-65761412D01*
X138675729Y-65936865D01*
X138682366Y-65957290D01*
X138775871Y-66140803D01*
X138896932Y-66307430D01*
X138896934Y-66307432D01*
X138896936Y-66307435D01*
X139042564Y-66453063D01*
X139042567Y-66453065D01*
X139042570Y-66453068D01*
X139209197Y-66574129D01*
X139284962Y-66612733D01*
X139336577Y-66661482D01*
X139353643Y-66730397D01*
X139330742Y-66797598D01*
X139284963Y-66837266D01*
X139216033Y-66872387D01*
X139209193Y-66875873D01*
X139042567Y-66996934D01*
X139042564Y-66996936D01*
X138896936Y-67142564D01*
X138896934Y-67142567D01*
X138775873Y-67309193D01*
X138682367Y-67492708D01*
X138682364Y-67492714D01*
X138618721Y-67688587D01*
X138618720Y-67688590D01*
X138618720Y-67688592D01*
X138586500Y-67892019D01*
X138586500Y-68097981D01*
X138617176Y-68291657D01*
X138618721Y-68301412D01*
X138675123Y-68475000D01*
X138682366Y-68497290D01*
X138775871Y-68680803D01*
X138896932Y-68847430D01*
X138896934Y-68847432D01*
X138896936Y-68847435D01*
X139042564Y-68993063D01*
X139042567Y-68993065D01*
X139042570Y-68993068D01*
X139209197Y-69114129D01*
X139284962Y-69152733D01*
X139336577Y-69201482D01*
X139353643Y-69270397D01*
X139330742Y-69337598D01*
X139284963Y-69377266D01*
X139265367Y-69387251D01*
X139209193Y-69415873D01*
X139042567Y-69536934D01*
X139042564Y-69536936D01*
X138896936Y-69682564D01*
X138896934Y-69682567D01*
X138775873Y-69849193D01*
X138682367Y-70032708D01*
X138682364Y-70032714D01*
X138618721Y-70228587D01*
X138618720Y-70228590D01*
X138618720Y-70228592D01*
X138586500Y-70432019D01*
X138586500Y-70637981D01*
X138614382Y-70814019D01*
X138618721Y-70841412D01*
X138682088Y-71036436D01*
X138682366Y-71037290D01*
X138775871Y-71220803D01*
X138896932Y-71387430D01*
X138896934Y-71387432D01*
X138896936Y-71387435D01*
X139042564Y-71533063D01*
X139042567Y-71533065D01*
X139042570Y-71533068D01*
X139209197Y-71654129D01*
X139284962Y-71692733D01*
X139336577Y-71741482D01*
X139353643Y-71810397D01*
X139330742Y-71877598D01*
X139284963Y-71917266D01*
X139216033Y-71952387D01*
X139209193Y-71955873D01*
X139042567Y-72076934D01*
X139042564Y-72076936D01*
X138896936Y-72222564D01*
X138896934Y-72222567D01*
X138775873Y-72389193D01*
X138682367Y-72572708D01*
X138682364Y-72572714D01*
X138618721Y-72768587D01*
X138618720Y-72768590D01*
X138618720Y-72768592D01*
X138586500Y-72972019D01*
X138586500Y-73177981D01*
X138618720Y-73381408D01*
X138682366Y-73577290D01*
X138775871Y-73760803D01*
X138896932Y-73927430D01*
X138896934Y-73927432D01*
X138896936Y-73927435D01*
X139042564Y-74073063D01*
X139042567Y-74073065D01*
X139042570Y-74073068D01*
X139209197Y-74194129D01*
X139284962Y-74232733D01*
X139336577Y-74281482D01*
X139353643Y-74350397D01*
X139330742Y-74417598D01*
X139284963Y-74457266D01*
X139284416Y-74457545D01*
X139209193Y-74495873D01*
X139042567Y-74616934D01*
X139042564Y-74616936D01*
X138896936Y-74762564D01*
X138896934Y-74762567D01*
X138775873Y-74929193D01*
X138682367Y-75112708D01*
X138682364Y-75112714D01*
X138618721Y-75308587D01*
X138618720Y-75308590D01*
X138618720Y-75308592D01*
X138586500Y-75512019D01*
X138586500Y-75717981D01*
X138618720Y-75921408D01*
X138682366Y-76117290D01*
X138775871Y-76300803D01*
X138896932Y-76467430D01*
X138896934Y-76467432D01*
X138896936Y-76467435D01*
X139042564Y-76613063D01*
X139042567Y-76613065D01*
X139042570Y-76613068D01*
X139209197Y-76734129D01*
X139392710Y-76827634D01*
X139588592Y-76891280D01*
X139792019Y-76923500D01*
X139792022Y-76923500D01*
X140730547Y-76923500D01*
X140798668Y-76943502D01*
X140845161Y-76997158D01*
X140855265Y-77067432D01*
X140825771Y-77132012D01*
X140819642Y-77138595D01*
X135503643Y-82454595D01*
X135441331Y-82488621D01*
X135414548Y-82491500D01*
X131170896Y-82491500D01*
X131023585Y-82520803D01*
X131023584Y-82520804D01*
X130884820Y-82578282D01*
X130759934Y-82661727D01*
X130759930Y-82661730D01*
X129177013Y-84244647D01*
X129152330Y-84262167D01*
X129152975Y-84263193D01*
X128992720Y-84363887D01*
X128992718Y-84363888D01*
X128863888Y-84492718D01*
X128863887Y-84492720D01*
X128766958Y-84646981D01*
X128766957Y-84646984D01*
X128766957Y-84646985D01*
X128706783Y-84818953D01*
X128686384Y-85000000D01*
X128706783Y-85181047D01*
X128706783Y-85181049D01*
X128706784Y-85181050D01*
X128766957Y-85353015D01*
X128766958Y-85353018D01*
X128863887Y-85507279D01*
X128863888Y-85507281D01*
X128992718Y-85636111D01*
X128992720Y-85636112D01*
X129146981Y-85733041D01*
X129146982Y-85733041D01*
X129146985Y-85733043D01*
X129318953Y-85793217D01*
X129500000Y-85813616D01*
X129681047Y-85793217D01*
X129853015Y-85733043D01*
X130007281Y-85636111D01*
X130136111Y-85507281D01*
X130214127Y-85383120D01*
X130236809Y-85347023D01*
X130237841Y-85347672D01*
X130255350Y-85322986D01*
X131524935Y-84053402D01*
X131587245Y-84019379D01*
X131614028Y-84016500D01*
X135857676Y-84016500D01*
X136004989Y-83987197D01*
X136143755Y-83929718D01*
X136168756Y-83913013D01*
X136268641Y-83846273D01*
X152918037Y-67196875D01*
X152980347Y-67162851D01*
X153051162Y-67167916D01*
X153107998Y-67210463D01*
X153110343Y-67213701D01*
X153112476Y-67216748D01*
X153112477Y-67216749D01*
X153243802Y-67404300D01*
X153405700Y-67566198D01*
X153593251Y-67697523D01*
X153800757Y-67794284D01*
X154021913Y-67853543D01*
X154250000Y-67873498D01*
X154383397Y-67861827D01*
X154407710Y-67859700D01*
X154477315Y-67873688D01*
X154507787Y-67896125D01*
X156136995Y-69525332D01*
X156171020Y-69587644D01*
X156173900Y-69614427D01*
X156173900Y-103396760D01*
X156166830Y-103438372D01*
X156143183Y-103505953D01*
X156122784Y-103687000D01*
X156143183Y-103868047D01*
X156143183Y-103868049D01*
X156143184Y-103868050D01*
X156203357Y-104040015D01*
X156203358Y-104040018D01*
X156300287Y-104194279D01*
X156300288Y-104194281D01*
X156429118Y-104323111D01*
X156429120Y-104323112D01*
X156589377Y-104423808D01*
X156588730Y-104424837D01*
X156613415Y-104442353D01*
X159175595Y-107004532D01*
X159209620Y-107066844D01*
X159212500Y-107093627D01*
X159212500Y-111911018D01*
X159192498Y-111979139D01*
X159138842Y-112025632D01*
X159068568Y-112035736D01*
X159003988Y-112006242D01*
X158997409Y-112000118D01*
X158991476Y-111994186D01*
X158991474Y-111994184D01*
X158803998Y-111862912D01*
X158596573Y-111766188D01*
X158596571Y-111766187D01*
X158401500Y-111713917D01*
X158401500Y-112688314D01*
X158393106Y-112679920D01*
X158301894Y-112627259D01*
X158200161Y-112600000D01*
X158094839Y-112600000D01*
X157993106Y-112627259D01*
X157901894Y-112679920D01*
X157893500Y-112688314D01*
X157893500Y-111713917D01*
X157893499Y-111713917D01*
X157698428Y-111766187D01*
X157698426Y-111766188D01*
X157491001Y-111862912D01*
X157303525Y-111994184D01*
X157303519Y-111994189D01*
X157141689Y-112156019D01*
X157141684Y-112156025D01*
X157010412Y-112343501D01*
X156913688Y-112550926D01*
X156913686Y-112550931D01*
X156861417Y-112746000D01*
X157835814Y-112746000D01*
X157827420Y-112754394D01*
X157774759Y-112845606D01*
X157747500Y-112947339D01*
X157747500Y-113052661D01*
X157774759Y-113154394D01*
X157827420Y-113245606D01*
X157835814Y-113254000D01*
X156861418Y-113254000D01*
X156913686Y-113449068D01*
X156913688Y-113449073D01*
X157010412Y-113656498D01*
X157141684Y-113843974D01*
X157141689Y-113843980D01*
X157303519Y-114005810D01*
X157303525Y-114005815D01*
X157491001Y-114137087D01*
X157698426Y-114233811D01*
X157698431Y-114233813D01*
X157893500Y-114286081D01*
X157893500Y-113311686D01*
X157901894Y-113320080D01*
X157993106Y-113372741D01*
X158094839Y-113400000D01*
X158200161Y-113400000D01*
X158301894Y-113372741D01*
X158393106Y-113320080D01*
X158401500Y-113311686D01*
X158401500Y-114286081D01*
X158596568Y-114233813D01*
X158596573Y-114233811D01*
X158803998Y-114137087D01*
X158991474Y-114005815D01*
X158991480Y-114005810D01*
X158997405Y-113999886D01*
X159059717Y-113965860D01*
X159130532Y-113970925D01*
X159187368Y-114013472D01*
X159212179Y-114079992D01*
X159212500Y-114088981D01*
X159212500Y-138810385D01*
X159192498Y-138878506D01*
X159163892Y-138909816D01*
X159051760Y-138997094D01*
X159051753Y-138997100D01*
X158990374Y-139063775D01*
X158929521Y-139100346D01*
X158858557Y-139098211D01*
X158800012Y-139058049D01*
X158779618Y-139022470D01*
X158735443Y-138904033D01*
X158647904Y-138787095D01*
X158530965Y-138699555D01*
X158394093Y-138648505D01*
X158333597Y-138642000D01*
X157689000Y-138642000D01*
X157689000Y-139569297D01*
X157627993Y-139534075D01*
X157500826Y-139500000D01*
X157369174Y-139500000D01*
X157242007Y-139534075D01*
X157181000Y-139569297D01*
X157181000Y-138642000D01*
X156536402Y-138642000D01*
X156475906Y-138648505D01*
X156339035Y-138699555D01*
X156339034Y-138699555D01*
X156222095Y-138787095D01*
X156134555Y-138904034D01*
X156134555Y-138904035D01*
X156083505Y-139040906D01*
X156077000Y-139101402D01*
X156077000Y-139746000D01*
X157004297Y-139746000D01*
X156969075Y-139807007D01*
X156935000Y-139934174D01*
X156935000Y-140065826D01*
X156969075Y-140192993D01*
X157004297Y-140254000D01*
X156077000Y-140254000D01*
X156077000Y-140898597D01*
X156083505Y-140959093D01*
X156134555Y-141095964D01*
X156134555Y-141095965D01*
X156204943Y-141189991D01*
X156229754Y-141256511D01*
X156214663Y-141325885D01*
X156164461Y-141376087D01*
X156104075Y-141391500D01*
X118957239Y-141391500D01*
X118889118Y-141371498D01*
X118868144Y-141354595D01*
X118462144Y-140948595D01*
X118428118Y-140886283D01*
X118433183Y-140815468D01*
X118475730Y-140758632D01*
X118542250Y-140733821D01*
X118551239Y-140733500D01*
X120023632Y-140733500D01*
X120023638Y-140733500D01*
X120023645Y-140733499D01*
X120023649Y-140733499D01*
X120084196Y-140726990D01*
X120084199Y-140726989D01*
X120084201Y-140726989D01*
X120221204Y-140675889D01*
X120248751Y-140655268D01*
X120338261Y-140588261D01*
X120425887Y-140471207D01*
X120425887Y-140471206D01*
X120425889Y-140471204D01*
X120476989Y-140334201D01*
X120483500Y-140273638D01*
X120483500Y-139250000D01*
X122511917Y-139250000D01*
X122532213Y-139494931D01*
X122592547Y-139733185D01*
X122691265Y-139958239D01*
X122691267Y-139958242D01*
X122786610Y-140104178D01*
X123397301Y-139493487D01*
X123423978Y-139557890D01*
X123495112Y-139664351D01*
X123585649Y-139754888D01*
X123692110Y-139826022D01*
X123756511Y-139852698D01*
X123145238Y-140463971D01*
X123186087Y-140495766D01*
X123186093Y-140495770D01*
X123402248Y-140612748D01*
X123634692Y-140692546D01*
X123634701Y-140692548D01*
X123877119Y-140733000D01*
X124122881Y-140733000D01*
X124365298Y-140692548D01*
X124365307Y-140692546D01*
X124597753Y-140612748D01*
X124597755Y-140612747D01*
X124813897Y-140495776D01*
X124854760Y-140463969D01*
X124664440Y-140273649D01*
X130391500Y-140273649D01*
X130398009Y-140334196D01*
X130398011Y-140334204D01*
X130449110Y-140471202D01*
X130449112Y-140471207D01*
X130536738Y-140588261D01*
X130653792Y-140675887D01*
X130653794Y-140675888D01*
X130653796Y-140675889D01*
X130698455Y-140692546D01*
X130790795Y-140726988D01*
X130790803Y-140726990D01*
X130851350Y-140733499D01*
X130851355Y-140733499D01*
X130851362Y-140733500D01*
X130851368Y-140733500D01*
X132898632Y-140733500D01*
X132898638Y-140733500D01*
X132898645Y-140733499D01*
X132898649Y-140733499D01*
X132959196Y-140726990D01*
X132959199Y-140726989D01*
X132959201Y-140726989D01*
X133096204Y-140675889D01*
X133123751Y-140655268D01*
X133213261Y-140588261D01*
X133300887Y-140471207D01*
X133300887Y-140471206D01*
X133300889Y-140471204D01*
X133351989Y-140334201D01*
X133358500Y-140273638D01*
X133358500Y-139250000D01*
X135386917Y-139250000D01*
X135407213Y-139494931D01*
X135467547Y-139733185D01*
X135566265Y-139958239D01*
X135566267Y-139958242D01*
X135661610Y-140104178D01*
X136272301Y-139493487D01*
X136298978Y-139557890D01*
X136370112Y-139664351D01*
X136460649Y-139754888D01*
X136567110Y-139826022D01*
X136631511Y-139852698D01*
X136020238Y-140463971D01*
X136061087Y-140495766D01*
X136061093Y-140495770D01*
X136277248Y-140612748D01*
X136509692Y-140692546D01*
X136509701Y-140692548D01*
X136752119Y-140733000D01*
X136997881Y-140733000D01*
X137240298Y-140692548D01*
X137240307Y-140692546D01*
X137472753Y-140612748D01*
X137472755Y-140612747D01*
X137688897Y-140495776D01*
X137729760Y-140463969D01*
X137539440Y-140273649D01*
X143266500Y-140273649D01*
X143273009Y-140334196D01*
X143273011Y-140334204D01*
X143324110Y-140471202D01*
X143324112Y-140471207D01*
X143411738Y-140588261D01*
X143528792Y-140675887D01*
X143528794Y-140675888D01*
X143528796Y-140675889D01*
X143573455Y-140692546D01*
X143665795Y-140726988D01*
X143665803Y-140726990D01*
X143726350Y-140733499D01*
X143726355Y-140733499D01*
X143726362Y-140733500D01*
X143726368Y-140733500D01*
X145773632Y-140733500D01*
X145773638Y-140733500D01*
X145773645Y-140733499D01*
X145773649Y-140733499D01*
X145834196Y-140726990D01*
X145834199Y-140726989D01*
X145834201Y-140726989D01*
X145971204Y-140675889D01*
X145998751Y-140655268D01*
X146088261Y-140588261D01*
X146175887Y-140471207D01*
X146175887Y-140471206D01*
X146175889Y-140471204D01*
X146226989Y-140334201D01*
X146233500Y-140273638D01*
X146233500Y-139250000D01*
X148261917Y-139250000D01*
X148282213Y-139494931D01*
X148342547Y-139733185D01*
X148441265Y-139958239D01*
X148441267Y-139958242D01*
X148536610Y-140104178D01*
X149147301Y-139493487D01*
X149173978Y-139557890D01*
X149245112Y-139664351D01*
X149335649Y-139754888D01*
X149442110Y-139826022D01*
X149506511Y-139852698D01*
X148895238Y-140463971D01*
X148936087Y-140495766D01*
X148936093Y-140495770D01*
X149152248Y-140612748D01*
X149384692Y-140692546D01*
X149384701Y-140692548D01*
X149627119Y-140733000D01*
X149872881Y-140733000D01*
X150115298Y-140692548D01*
X150115307Y-140692546D01*
X150347753Y-140612748D01*
X150347755Y-140612747D01*
X150563897Y-140495776D01*
X150604760Y-140463969D01*
X149993489Y-139852698D01*
X150057890Y-139826022D01*
X150164351Y-139754888D01*
X150254888Y-139664351D01*
X150326022Y-139557890D01*
X150352698Y-139493487D01*
X150963389Y-140104178D01*
X151058731Y-139958245D01*
X151157452Y-139733185D01*
X151217786Y-139494931D01*
X151238082Y-139250000D01*
X151217786Y-139005068D01*
X151157452Y-138766814D01*
X151058730Y-138541751D01*
X150963388Y-138395820D01*
X150352698Y-139006510D01*
X150326022Y-138942110D01*
X150254888Y-138835649D01*
X150164351Y-138745112D01*
X150057890Y-138673978D01*
X149993488Y-138647301D01*
X150604761Y-138036028D01*
X150563905Y-138004228D01*
X150347751Y-137887251D01*
X150115307Y-137807453D01*
X150115298Y-137807451D01*
X149872881Y-137767000D01*
X149627119Y-137767000D01*
X149384701Y-137807451D01*
X149384692Y-137807453D01*
X149152248Y-137887251D01*
X148936092Y-138004229D01*
X148936087Y-138004232D01*
X148895238Y-138036027D01*
X148895238Y-138036029D01*
X149506510Y-138647301D01*
X149442110Y-138673978D01*
X149335649Y-138745112D01*
X149245112Y-138835649D01*
X149173978Y-138942110D01*
X149147301Y-139006510D01*
X148536610Y-138395819D01*
X148536609Y-138395820D01*
X148441274Y-138541742D01*
X148441267Y-138541756D01*
X148342547Y-138766814D01*
X148282213Y-139005068D01*
X148261917Y-139250000D01*
X146233500Y-139250000D01*
X146233500Y-138226362D01*
X146233499Y-138226350D01*
X146226990Y-138165803D01*
X146226988Y-138165795D01*
X146197924Y-138087875D01*
X146175889Y-138028796D01*
X146175888Y-138028794D01*
X146175887Y-138028792D01*
X146088261Y-137911738D01*
X145971207Y-137824112D01*
X145971202Y-137824110D01*
X145834204Y-137773011D01*
X145834196Y-137773009D01*
X145773649Y-137766500D01*
X145773638Y-137766500D01*
X143726362Y-137766500D01*
X143726350Y-137766500D01*
X143665803Y-137773009D01*
X143665795Y-137773011D01*
X143528797Y-137824110D01*
X143528792Y-137824112D01*
X143411738Y-137911738D01*
X143324112Y-138028792D01*
X143324110Y-138028797D01*
X143273011Y-138165795D01*
X143273009Y-138165803D01*
X143266500Y-138226350D01*
X143266500Y-140273649D01*
X137539440Y-140273649D01*
X137118489Y-139852698D01*
X137182890Y-139826022D01*
X137289351Y-139754888D01*
X137379888Y-139664351D01*
X137451022Y-139557890D01*
X137477698Y-139493487D01*
X138088389Y-140104178D01*
X138183731Y-139958245D01*
X138282452Y-139733185D01*
X138342786Y-139494931D01*
X138363082Y-139250000D01*
X138342786Y-139005068D01*
X138282452Y-138766814D01*
X138183730Y-138541751D01*
X138088388Y-138395820D01*
X137477698Y-139006510D01*
X137451022Y-138942110D01*
X137379888Y-138835649D01*
X137289351Y-138745112D01*
X137182890Y-138673978D01*
X137118488Y-138647301D01*
X137729761Y-138036028D01*
X137688905Y-138004228D01*
X137472751Y-137887251D01*
X137240307Y-137807453D01*
X137240298Y-137807451D01*
X136997881Y-137767000D01*
X136752119Y-137767000D01*
X136509701Y-137807451D01*
X136509692Y-137807453D01*
X136277248Y-137887251D01*
X136061092Y-138004229D01*
X136061087Y-138004232D01*
X136020238Y-138036027D01*
X136020238Y-138036029D01*
X136631510Y-138647301D01*
X136567110Y-138673978D01*
X136460649Y-138745112D01*
X136370112Y-138835649D01*
X136298978Y-138942110D01*
X136272301Y-139006510D01*
X135661610Y-138395819D01*
X135661609Y-138395820D01*
X135566274Y-138541742D01*
X135566267Y-138541756D01*
X135467547Y-138766814D01*
X135407213Y-139005068D01*
X135386917Y-139250000D01*
X133358500Y-139250000D01*
X133358500Y-138226362D01*
X133358499Y-138226350D01*
X133351990Y-138165803D01*
X133351988Y-138165795D01*
X133322924Y-138087875D01*
X133300889Y-138028796D01*
X133300888Y-138028794D01*
X133300887Y-138028792D01*
X133213261Y-137911738D01*
X133096207Y-137824112D01*
X133096202Y-137824110D01*
X132959204Y-137773011D01*
X132959196Y-137773009D01*
X132898649Y-137766500D01*
X132898638Y-137766500D01*
X130851362Y-137766500D01*
X130851350Y-137766500D01*
X130790803Y-137773009D01*
X130790795Y-137773011D01*
X130653797Y-137824110D01*
X130653792Y-137824112D01*
X130536738Y-137911738D01*
X130449112Y-138028792D01*
X130449110Y-138028797D01*
X130398011Y-138165795D01*
X130398009Y-138165803D01*
X130391500Y-138226350D01*
X130391500Y-140273649D01*
X124664440Y-140273649D01*
X124243489Y-139852698D01*
X124307890Y-139826022D01*
X124414351Y-139754888D01*
X124504888Y-139664351D01*
X124576022Y-139557890D01*
X124602698Y-139493487D01*
X125213389Y-140104178D01*
X125308731Y-139958245D01*
X125407452Y-139733185D01*
X125467786Y-139494931D01*
X125488082Y-139250000D01*
X125467786Y-139005068D01*
X125407452Y-138766814D01*
X125308730Y-138541751D01*
X125213388Y-138395820D01*
X124602698Y-139006510D01*
X124576022Y-138942110D01*
X124504888Y-138835649D01*
X124414351Y-138745112D01*
X124307890Y-138673978D01*
X124243488Y-138647301D01*
X124854761Y-138036028D01*
X124813905Y-138004228D01*
X124597751Y-137887251D01*
X124365307Y-137807453D01*
X124365298Y-137807451D01*
X124122881Y-137767000D01*
X123877119Y-137767000D01*
X123634701Y-137807451D01*
X123634692Y-137807453D01*
X123402248Y-137887251D01*
X123186092Y-138004229D01*
X123186087Y-138004232D01*
X123145238Y-138036027D01*
X123145238Y-138036029D01*
X123756510Y-138647301D01*
X123692110Y-138673978D01*
X123585649Y-138745112D01*
X123495112Y-138835649D01*
X123423978Y-138942110D01*
X123397301Y-139006510D01*
X122786610Y-138395819D01*
X122786609Y-138395820D01*
X122691274Y-138541742D01*
X122691267Y-138541756D01*
X122592547Y-138766814D01*
X122532213Y-139005068D01*
X122511917Y-139250000D01*
X120483500Y-139250000D01*
X120483500Y-138226362D01*
X120483499Y-138226350D01*
X120476990Y-138165803D01*
X120476988Y-138165795D01*
X120447924Y-138087875D01*
X120425889Y-138028796D01*
X120425888Y-138028794D01*
X120425887Y-138028792D01*
X120338261Y-137911738D01*
X120221207Y-137824112D01*
X120221202Y-137824110D01*
X120084204Y-137773011D01*
X120084196Y-137773009D01*
X120023649Y-137766500D01*
X120023638Y-137766500D01*
X117976362Y-137766500D01*
X117976350Y-137766500D01*
X117915803Y-137773009D01*
X117915795Y-137773011D01*
X117778797Y-137824110D01*
X117778792Y-137824112D01*
X117661738Y-137911738D01*
X117574112Y-138028792D01*
X117574110Y-138028797D01*
X117523011Y-138165795D01*
X117523009Y-138165803D01*
X117516500Y-138226350D01*
X117516500Y-139698761D01*
X117496498Y-139766882D01*
X117442842Y-139813375D01*
X117372568Y-139823479D01*
X117307988Y-139793985D01*
X117301405Y-139787856D01*
X108263549Y-130750000D01*
X137464002Y-130750000D01*
X137483957Y-130978087D01*
X137508607Y-131070080D01*
X137543215Y-131199240D01*
X137543217Y-131199246D01*
X137639977Y-131406749D01*
X137771295Y-131594291D01*
X137771302Y-131594300D01*
X137933200Y-131756198D01*
X138120751Y-131887523D01*
X138328257Y-131984284D01*
X138549413Y-132043543D01*
X138777500Y-132063498D01*
X139005587Y-132043543D01*
X139226743Y-131984284D01*
X139434249Y-131887523D01*
X139621800Y-131756198D01*
X139783698Y-131594300D01*
X139915023Y-131406749D01*
X140011784Y-131199243D01*
X140071043Y-130978087D01*
X140090998Y-130750000D01*
X145084002Y-130750000D01*
X145103957Y-130978087D01*
X145128607Y-131070080D01*
X145163215Y-131199240D01*
X145163217Y-131199246D01*
X145259977Y-131406749D01*
X145391295Y-131594291D01*
X145391302Y-131594300D01*
X145553200Y-131756198D01*
X145740751Y-131887523D01*
X145948257Y-131984284D01*
X146169413Y-132043543D01*
X146397500Y-132063498D01*
X146625587Y-132043543D01*
X146846743Y-131984284D01*
X147054249Y-131887523D01*
X147241800Y-131756198D01*
X147403698Y-131594300D01*
X147531185Y-131412229D01*
X147586642Y-131367901D01*
X147634398Y-131358500D01*
X148790602Y-131358500D01*
X148858723Y-131378502D01*
X148893815Y-131412230D01*
X149021295Y-131594291D01*
X149021299Y-131594296D01*
X149021302Y-131594300D01*
X149183200Y-131756198D01*
X149370751Y-131887523D01*
X149578257Y-131984284D01*
X149799413Y-132043543D01*
X150027500Y-132063498D01*
X150255587Y-132043543D01*
X150476743Y-131984284D01*
X150684249Y-131887523D01*
X150871800Y-131756198D01*
X151033698Y-131594300D01*
X151165023Y-131406749D01*
X151261784Y-131199243D01*
X151321043Y-130978087D01*
X151340998Y-130750000D01*
X151321043Y-130521913D01*
X151314100Y-130496000D01*
X156361417Y-130496000D01*
X157335814Y-130496000D01*
X157327420Y-130504394D01*
X157274759Y-130595606D01*
X157247500Y-130697339D01*
X157247500Y-130802661D01*
X157274759Y-130904394D01*
X157327420Y-130995606D01*
X157335814Y-131004000D01*
X156361418Y-131004000D01*
X156413686Y-131199068D01*
X156413688Y-131199073D01*
X156510412Y-131406498D01*
X156641684Y-131593974D01*
X156641689Y-131593980D01*
X156803519Y-131755810D01*
X156803525Y-131755815D01*
X156991001Y-131887087D01*
X157198426Y-131983811D01*
X157198431Y-131983813D01*
X157393500Y-132036081D01*
X157393500Y-131061686D01*
X157401894Y-131070080D01*
X157493106Y-131122741D01*
X157594839Y-131150000D01*
X157700161Y-131150000D01*
X157801894Y-131122741D01*
X157893106Y-131070080D01*
X157901500Y-131061686D01*
X157901500Y-132036081D01*
X158096568Y-131983813D01*
X158096573Y-131983811D01*
X158303998Y-131887087D01*
X158491474Y-131755815D01*
X158491480Y-131755810D01*
X158653310Y-131593980D01*
X158653315Y-131593974D01*
X158784587Y-131406498D01*
X158881311Y-131199073D01*
X158881313Y-131199068D01*
X158933582Y-131004000D01*
X157959186Y-131004000D01*
X157967580Y-130995606D01*
X158020241Y-130904394D01*
X158047500Y-130802661D01*
X158047500Y-130697339D01*
X158020241Y-130595606D01*
X157967580Y-130504394D01*
X157959186Y-130496000D01*
X158933582Y-130496000D01*
X158881313Y-130300931D01*
X158881311Y-130300926D01*
X158784587Y-130093501D01*
X158653315Y-129906025D01*
X158653310Y-129906019D01*
X158491480Y-129744189D01*
X158491474Y-129744184D01*
X158303998Y-129612912D01*
X158096573Y-129516188D01*
X158096571Y-129516187D01*
X157901500Y-129463917D01*
X157901500Y-130438314D01*
X157893106Y-130429920D01*
X157801894Y-130377259D01*
X157700161Y-130350000D01*
X157594839Y-130350000D01*
X157493106Y-130377259D01*
X157401894Y-130429920D01*
X157393500Y-130438314D01*
X157393500Y-129463917D01*
X157393499Y-129463917D01*
X157198428Y-129516187D01*
X157198426Y-129516188D01*
X156991001Y-129612912D01*
X156803525Y-129744184D01*
X156803519Y-129744189D01*
X156641689Y-129906019D01*
X156641684Y-129906025D01*
X156510412Y-130093501D01*
X156413688Y-130300926D01*
X156413686Y-130300931D01*
X156361417Y-130496000D01*
X151314100Y-130496000D01*
X151261784Y-130300757D01*
X151165023Y-130093251D01*
X151033698Y-129905700D01*
X150871800Y-129743802D01*
X150684249Y-129612477D01*
X150638603Y-129591192D01*
X150476746Y-129515717D01*
X150476740Y-129515715D01*
X150383271Y-129490670D01*
X150255587Y-129456457D01*
X150027500Y-129436502D01*
X149799413Y-129456457D01*
X149578259Y-129515715D01*
X149578253Y-129515717D01*
X149370750Y-129612477D01*
X149183203Y-129743799D01*
X149183197Y-129743804D01*
X149021304Y-129905697D01*
X149021295Y-129905708D01*
X148893815Y-130087770D01*
X148838358Y-130132099D01*
X148790602Y-130141500D01*
X147634398Y-130141500D01*
X147566277Y-130121498D01*
X147531185Y-130087770D01*
X147403704Y-129905708D01*
X147403700Y-129905703D01*
X147403698Y-129905700D01*
X147241800Y-129743802D01*
X147054249Y-129612477D01*
X147008603Y-129591192D01*
X146846746Y-129515717D01*
X146846740Y-129515715D01*
X146753271Y-129490670D01*
X146625587Y-129456457D01*
X146397500Y-129436502D01*
X146169413Y-129456457D01*
X145948259Y-129515715D01*
X145948253Y-129515717D01*
X145740750Y-129612477D01*
X145553203Y-129743799D01*
X145553197Y-129743804D01*
X145391304Y-129905697D01*
X145391299Y-129905703D01*
X145259977Y-130093250D01*
X145163217Y-130300753D01*
X145163215Y-130300759D01*
X145110900Y-130496000D01*
X145103957Y-130521913D01*
X145084002Y-130750000D01*
X140090998Y-130750000D01*
X140071043Y-130521913D01*
X140011784Y-130300757D01*
X139915023Y-130093251D01*
X139783698Y-129905700D01*
X139621800Y-129743802D01*
X139434249Y-129612477D01*
X139388603Y-129591192D01*
X139226746Y-129515717D01*
X139226740Y-129515715D01*
X139133271Y-129490670D01*
X139005587Y-129456457D01*
X138777500Y-129436502D01*
X138549413Y-129456457D01*
X138328259Y-129515715D01*
X138328253Y-129515717D01*
X138120750Y-129612477D01*
X137933203Y-129743799D01*
X137933197Y-129743804D01*
X137771304Y-129905697D01*
X137771299Y-129905703D01*
X137639977Y-130093250D01*
X137543217Y-130300753D01*
X137543215Y-130300759D01*
X137490900Y-130496000D01*
X137483957Y-130521913D01*
X137464002Y-130750000D01*
X108263549Y-130750000D01*
X107361462Y-129847913D01*
X107327436Y-129785601D01*
X107332501Y-129714786D01*
X107375048Y-129657950D01*
X107390579Y-129648010D01*
X107495576Y-129591189D01*
X107673240Y-129452906D01*
X107825722Y-129287268D01*
X107948860Y-129098791D01*
X108039296Y-128892616D01*
X108094564Y-128674368D01*
X108113156Y-128450000D01*
X108094564Y-128225632D01*
X108039296Y-128007384D01*
X107948860Y-127801209D01*
X107825722Y-127612732D01*
X107792322Y-127576450D01*
X107760902Y-127512785D01*
X107768889Y-127442239D01*
X107795924Y-127402023D01*
X109486922Y-125711027D01*
X109567032Y-125572272D01*
X109608500Y-125417511D01*
X109608500Y-124398649D01*
X144229000Y-124398649D01*
X144235509Y-124459196D01*
X144235511Y-124459204D01*
X144286610Y-124596202D01*
X144286612Y-124596207D01*
X144374238Y-124713261D01*
X144491292Y-124800887D01*
X144491294Y-124800888D01*
X144491296Y-124800889D01*
X144550375Y-124822924D01*
X144628295Y-124851988D01*
X144628303Y-124851990D01*
X144688850Y-124858499D01*
X144688855Y-124858499D01*
X144688862Y-124858500D01*
X144688868Y-124858500D01*
X146486132Y-124858500D01*
X146486138Y-124858500D01*
X146486145Y-124858499D01*
X146486149Y-124858499D01*
X146546696Y-124851990D01*
X146546699Y-124851989D01*
X146546701Y-124851989D01*
X146683704Y-124800889D01*
X146684299Y-124800444D01*
X146800761Y-124713261D01*
X146888387Y-124596207D01*
X146888387Y-124596206D01*
X146888389Y-124596204D01*
X146939489Y-124459201D01*
X146946000Y-124398638D01*
X146946000Y-124398597D01*
X150979500Y-124398597D01*
X150986005Y-124459093D01*
X151037055Y-124595964D01*
X151037055Y-124595965D01*
X151124595Y-124712904D01*
X151241534Y-124800444D01*
X151378406Y-124851494D01*
X151438902Y-124857999D01*
X151438915Y-124858000D01*
X152083500Y-124858000D01*
X152083500Y-123930702D01*
X152144507Y-123965925D01*
X152271674Y-124000000D01*
X152403326Y-124000000D01*
X152530493Y-123965925D01*
X152591500Y-123930702D01*
X152591500Y-124858000D01*
X153236085Y-124858000D01*
X153236097Y-124857999D01*
X153296593Y-124851494D01*
X153433464Y-124800444D01*
X153433465Y-124800444D01*
X153550404Y-124712904D01*
X153637944Y-124595965D01*
X153637944Y-124595964D01*
X153688994Y-124459093D01*
X153695499Y-124398597D01*
X153695500Y-124398585D01*
X153695500Y-123754000D01*
X152768203Y-123754000D01*
X152803425Y-123692993D01*
X152837500Y-123565826D01*
X152837500Y-123434174D01*
X152803425Y-123307007D01*
X152768203Y-123246000D01*
X153695500Y-123246000D01*
X153695500Y-122601414D01*
X153695499Y-122601402D01*
X153688994Y-122540906D01*
X153637944Y-122404035D01*
X153637944Y-122404034D01*
X153550404Y-122287095D01*
X153433465Y-122199555D01*
X153296593Y-122148505D01*
X153236097Y-122142000D01*
X152591500Y-122142000D01*
X152591500Y-123069297D01*
X152530493Y-123034075D01*
X152403326Y-123000000D01*
X152271674Y-123000000D01*
X152144507Y-123034075D01*
X152083500Y-123069297D01*
X152083500Y-122142000D01*
X151438902Y-122142000D01*
X151378406Y-122148505D01*
X151241535Y-122199555D01*
X151241534Y-122199555D01*
X151124595Y-122287095D01*
X151037055Y-122404034D01*
X151037055Y-122404035D01*
X150986005Y-122540906D01*
X150979500Y-122601402D01*
X150979500Y-123246000D01*
X151906797Y-123246000D01*
X151871575Y-123307007D01*
X151837500Y-123434174D01*
X151837500Y-123565826D01*
X151871575Y-123692993D01*
X151906797Y-123754000D01*
X150979500Y-123754000D01*
X150979500Y-124398597D01*
X146946000Y-124398597D01*
X146946000Y-122601362D01*
X146939501Y-122540906D01*
X146939490Y-122540803D01*
X146939488Y-122540795D01*
X146888478Y-122404035D01*
X146888389Y-122403796D01*
X146888388Y-122403794D01*
X146888387Y-122403792D01*
X146800761Y-122286738D01*
X146683707Y-122199112D01*
X146683702Y-122199110D01*
X146546704Y-122148011D01*
X146546696Y-122148009D01*
X146486149Y-122141500D01*
X146486138Y-122141500D01*
X144688862Y-122141500D01*
X144688850Y-122141500D01*
X144628303Y-122148009D01*
X144628295Y-122148011D01*
X144491297Y-122199110D01*
X144491292Y-122199112D01*
X144374238Y-122286738D01*
X144286612Y-122403792D01*
X144286610Y-122403797D01*
X144235511Y-122540795D01*
X144235509Y-122540803D01*
X144229000Y-122601350D01*
X144229000Y-124398649D01*
X109608500Y-124398649D01*
X109608500Y-113000000D01*
X137214002Y-113000000D01*
X137233957Y-113228087D01*
X137258607Y-113320080D01*
X137293215Y-113449240D01*
X137293217Y-113449246D01*
X137389977Y-113656749D01*
X137502944Y-113818083D01*
X137521302Y-113844300D01*
X137683200Y-114006198D01*
X137870751Y-114137523D01*
X138078257Y-114234284D01*
X138299413Y-114293543D01*
X138527500Y-114313498D01*
X138755587Y-114293543D01*
X138976743Y-114234284D01*
X139184249Y-114137523D01*
X139371800Y-114006198D01*
X139533698Y-113844300D01*
X139665023Y-113656749D01*
X139761784Y-113449243D01*
X139821043Y-113228087D01*
X139840998Y-113000000D01*
X144834002Y-113000000D01*
X144853957Y-113228087D01*
X144878607Y-113320080D01*
X144913215Y-113449240D01*
X144913217Y-113449246D01*
X145009977Y-113656749D01*
X145122944Y-113818083D01*
X145141302Y-113844300D01*
X145303200Y-114006198D01*
X145490751Y-114137523D01*
X145698257Y-114234284D01*
X145919413Y-114293543D01*
X146147500Y-114313498D01*
X146375587Y-114293543D01*
X146596743Y-114234284D01*
X146804249Y-114137523D01*
X146991800Y-114006198D01*
X147153698Y-113844300D01*
X147285023Y-113656749D01*
X147381784Y-113449243D01*
X147441043Y-113228087D01*
X147460998Y-113000000D01*
X149214002Y-113000000D01*
X149233957Y-113228087D01*
X149258607Y-113320080D01*
X149293215Y-113449240D01*
X149293217Y-113449246D01*
X149389977Y-113656749D01*
X149502944Y-113818083D01*
X149521302Y-113844300D01*
X149683200Y-114006198D01*
X149870751Y-114137523D01*
X150078257Y-114234284D01*
X150299413Y-114293543D01*
X150527500Y-114313498D01*
X150755587Y-114293543D01*
X150976743Y-114234284D01*
X151184249Y-114137523D01*
X151371800Y-114006198D01*
X151533698Y-113844300D01*
X151665023Y-113656749D01*
X151761784Y-113449243D01*
X151821043Y-113228087D01*
X151840998Y-113000000D01*
X151821043Y-112771913D01*
X151761784Y-112550757D01*
X151665023Y-112343251D01*
X151533698Y-112155700D01*
X151371800Y-111993802D01*
X151184249Y-111862477D01*
X151082957Y-111815244D01*
X150976746Y-111765717D01*
X150976740Y-111765715D01*
X150883271Y-111740670D01*
X150755587Y-111706457D01*
X150527500Y-111686502D01*
X150299413Y-111706457D01*
X150078259Y-111765715D01*
X150078253Y-111765717D01*
X149870750Y-111862477D01*
X149683203Y-111993799D01*
X149683197Y-111993804D01*
X149521304Y-112155697D01*
X149521299Y-112155703D01*
X149389977Y-112343250D01*
X149293217Y-112550753D01*
X149293215Y-112550759D01*
X149240900Y-112746000D01*
X149233957Y-112771913D01*
X149214002Y-113000000D01*
X147460998Y-113000000D01*
X147441043Y-112771913D01*
X147381784Y-112550757D01*
X147285023Y-112343251D01*
X147153698Y-112155700D01*
X146991800Y-111993802D01*
X146804249Y-111862477D01*
X146702957Y-111815244D01*
X146596746Y-111765717D01*
X146596740Y-111765715D01*
X146503271Y-111740670D01*
X146375587Y-111706457D01*
X146147500Y-111686502D01*
X145919413Y-111706457D01*
X145698259Y-111765715D01*
X145698253Y-111765717D01*
X145490750Y-111862477D01*
X145303203Y-111993799D01*
X145303197Y-111993804D01*
X145141304Y-112155697D01*
X145141299Y-112155703D01*
X145009977Y-112343250D01*
X144913217Y-112550753D01*
X144913215Y-112550759D01*
X144860900Y-112746000D01*
X144853957Y-112771913D01*
X144834002Y-113000000D01*
X139840998Y-113000000D01*
X139821043Y-112771913D01*
X139761784Y-112550757D01*
X139665023Y-112343251D01*
X139533698Y-112155700D01*
X139371800Y-111993802D01*
X139184249Y-111862477D01*
X139082957Y-111815244D01*
X138976746Y-111765717D01*
X138976740Y-111765715D01*
X138883271Y-111740670D01*
X138755587Y-111706457D01*
X138527500Y-111686502D01*
X138299413Y-111706457D01*
X138078259Y-111765715D01*
X138078253Y-111765717D01*
X137870750Y-111862477D01*
X137683203Y-111993799D01*
X137683197Y-111993804D01*
X137521304Y-112155697D01*
X137521299Y-112155703D01*
X137389977Y-112343250D01*
X137293217Y-112550753D01*
X137293215Y-112550759D01*
X137240900Y-112746000D01*
X137233957Y-112771913D01*
X137214002Y-113000000D01*
X109608500Y-113000000D01*
X109608500Y-111519989D01*
X109567032Y-111365228D01*
X109530223Y-111301473D01*
X109486922Y-111226473D01*
X109486920Y-111226471D01*
X109486916Y-111226466D01*
X107656107Y-109395658D01*
X107622082Y-109333346D01*
X107627146Y-109262531D01*
X107667817Y-109207127D01*
X107673236Y-109202909D01*
X107673237Y-109202908D01*
X107673240Y-109202906D01*
X107825722Y-109037268D01*
X107948860Y-108848791D01*
X108039296Y-108642616D01*
X108094564Y-108424368D01*
X108113156Y-108200000D01*
X108094564Y-107975632D01*
X108074181Y-107895143D01*
X108076847Y-107824198D01*
X108107226Y-107775121D01*
X108733699Y-107148649D01*
X144229000Y-107148649D01*
X144235509Y-107209196D01*
X144235511Y-107209204D01*
X144286610Y-107346202D01*
X144286612Y-107346207D01*
X144374238Y-107463261D01*
X144491292Y-107550887D01*
X144491294Y-107550888D01*
X144491296Y-107550889D01*
X144530215Y-107565405D01*
X144628295Y-107601988D01*
X144628303Y-107601990D01*
X144688850Y-107608499D01*
X144688855Y-107608499D01*
X144688862Y-107608500D01*
X144688868Y-107608500D01*
X146486132Y-107608500D01*
X146486138Y-107608500D01*
X146486145Y-107608499D01*
X146486149Y-107608499D01*
X146546696Y-107601990D01*
X146546699Y-107601989D01*
X146546701Y-107601989D01*
X146683704Y-107550889D01*
X146684299Y-107550444D01*
X146800761Y-107463261D01*
X146888387Y-107346207D01*
X146888387Y-107346206D01*
X146888389Y-107346204D01*
X146939489Y-107209201D01*
X146946000Y-107148638D01*
X146946000Y-107148597D01*
X151229500Y-107148597D01*
X151236005Y-107209093D01*
X151287055Y-107345964D01*
X151287055Y-107345965D01*
X151374595Y-107462904D01*
X151491534Y-107550444D01*
X151628406Y-107601494D01*
X151688902Y-107607999D01*
X151688915Y-107608000D01*
X152333500Y-107608000D01*
X152333500Y-106680702D01*
X152394507Y-106715925D01*
X152521674Y-106750000D01*
X152653326Y-106750000D01*
X152780493Y-106715925D01*
X152841500Y-106680702D01*
X152841500Y-107608000D01*
X153486085Y-107608000D01*
X153486097Y-107607999D01*
X153546593Y-107601494D01*
X153683464Y-107550444D01*
X153683465Y-107550444D01*
X153800404Y-107462904D01*
X153887944Y-107345965D01*
X153887944Y-107345964D01*
X153938994Y-107209093D01*
X153945499Y-107148597D01*
X153945500Y-107148585D01*
X153945500Y-106504000D01*
X153018203Y-106504000D01*
X153053425Y-106442993D01*
X153087500Y-106315826D01*
X153087500Y-106184174D01*
X153053425Y-106057007D01*
X153018203Y-105996000D01*
X153945500Y-105996000D01*
X153945500Y-105351414D01*
X153945499Y-105351402D01*
X153938994Y-105290906D01*
X153887944Y-105154035D01*
X153887944Y-105154034D01*
X153800404Y-105037095D01*
X153683465Y-104949555D01*
X153546593Y-104898505D01*
X153486097Y-104892000D01*
X152841500Y-104892000D01*
X152841500Y-105819297D01*
X152780493Y-105784075D01*
X152653326Y-105750000D01*
X152521674Y-105750000D01*
X152394507Y-105784075D01*
X152333500Y-105819297D01*
X152333500Y-104892000D01*
X151688902Y-104892000D01*
X151628406Y-104898505D01*
X151491535Y-104949555D01*
X151491534Y-104949555D01*
X151374595Y-105037095D01*
X151287055Y-105154034D01*
X151287055Y-105154035D01*
X151236005Y-105290906D01*
X151229500Y-105351402D01*
X151229500Y-105996000D01*
X152156797Y-105996000D01*
X152121575Y-106057007D01*
X152087500Y-106184174D01*
X152087500Y-106315826D01*
X152121575Y-106442993D01*
X152156797Y-106504000D01*
X151229500Y-106504000D01*
X151229500Y-107148597D01*
X146946000Y-107148597D01*
X146946000Y-105351362D01*
X146939501Y-105290906D01*
X146939490Y-105290803D01*
X146939488Y-105290795D01*
X146888478Y-105154035D01*
X146888389Y-105153796D01*
X146888388Y-105153794D01*
X146888387Y-105153792D01*
X146800761Y-105036738D01*
X146683707Y-104949112D01*
X146683702Y-104949110D01*
X146546704Y-104898011D01*
X146546696Y-104898009D01*
X146486149Y-104891500D01*
X146486138Y-104891500D01*
X144688862Y-104891500D01*
X144688850Y-104891500D01*
X144628303Y-104898009D01*
X144628295Y-104898011D01*
X144491297Y-104949110D01*
X144491292Y-104949112D01*
X144374238Y-105036738D01*
X144286612Y-105153792D01*
X144286610Y-105153797D01*
X144235511Y-105290795D01*
X144235509Y-105290803D01*
X144229000Y-105351350D01*
X144229000Y-107148649D01*
X108733699Y-107148649D01*
X109886922Y-105995427D01*
X109967032Y-105856673D01*
X110008500Y-105701910D01*
X110008500Y-105541690D01*
X110008500Y-104156700D01*
X124089084Y-104156700D01*
X124109483Y-104337747D01*
X124109483Y-104337749D01*
X124109484Y-104337750D01*
X124169657Y-104509715D01*
X124169658Y-104509718D01*
X124266587Y-104663979D01*
X124266588Y-104663981D01*
X124395418Y-104792811D01*
X124395420Y-104792812D01*
X124549681Y-104889741D01*
X124549682Y-104889741D01*
X124549685Y-104889743D01*
X124721653Y-104949917D01*
X124902700Y-104970316D01*
X125083747Y-104949917D01*
X125255715Y-104889743D01*
X125409981Y-104792811D01*
X125538811Y-104663981D01*
X125635743Y-104509715D01*
X125651991Y-104463277D01*
X125666161Y-104434881D01*
X125675718Y-104420579D01*
X125733197Y-104281813D01*
X125742913Y-104232968D01*
X125762500Y-104134500D01*
X125762500Y-98750000D01*
X127686384Y-98750000D01*
X127706783Y-98931047D01*
X127706783Y-98931049D01*
X127706784Y-98931050D01*
X127766957Y-99103015D01*
X127766958Y-99103018D01*
X127863887Y-99257279D01*
X127863888Y-99257281D01*
X127992718Y-99386111D01*
X127992720Y-99386112D01*
X128146981Y-99483041D01*
X128146982Y-99483041D01*
X128146985Y-99483043D01*
X128318953Y-99543217D01*
X128500000Y-99563616D01*
X128681047Y-99543217D01*
X128853015Y-99483043D01*
X129007281Y-99386111D01*
X129136111Y-99257281D01*
X129233043Y-99103015D01*
X129293217Y-98931047D01*
X129313616Y-98750000D01*
X129293217Y-98568953D01*
X129233043Y-98396985D01*
X129233041Y-98396982D01*
X129233041Y-98396981D01*
X129154813Y-98272481D01*
X129135500Y-98205445D01*
X129135500Y-96794554D01*
X129154813Y-96727518D01*
X129190383Y-96670907D01*
X129233043Y-96603015D01*
X129293217Y-96431047D01*
X129313616Y-96250000D01*
X129293217Y-96068953D01*
X129233043Y-95896985D01*
X129233041Y-95896982D01*
X129233041Y-95896981D01*
X129136112Y-95742720D01*
X129136111Y-95742718D01*
X129007281Y-95613888D01*
X129007279Y-95613887D01*
X128853018Y-95516958D01*
X128853015Y-95516957D01*
X128681050Y-95456784D01*
X128681049Y-95456783D01*
X128681047Y-95456783D01*
X128500000Y-95436384D01*
X128318953Y-95456783D01*
X128318950Y-95456783D01*
X128318949Y-95456784D01*
X128146984Y-95516957D01*
X128146981Y-95516958D01*
X127992720Y-95613887D01*
X127992718Y-95613888D01*
X127863888Y-95742718D01*
X127863887Y-95742720D01*
X127766958Y-95896981D01*
X127766957Y-95896984D01*
X127730318Y-96001694D01*
X127706783Y-96068953D01*
X127686384Y-96250000D01*
X127706783Y-96431047D01*
X127706783Y-96431049D01*
X127706784Y-96431050D01*
X127766957Y-96603015D01*
X127766958Y-96603017D01*
X127845187Y-96727518D01*
X127864500Y-96794554D01*
X127864500Y-98205445D01*
X127845187Y-98272481D01*
X127766958Y-98396981D01*
X127766957Y-98396984D01*
X127751871Y-98440099D01*
X127706783Y-98568953D01*
X127686384Y-98750000D01*
X125762500Y-98750000D01*
X125762500Y-95290238D01*
X125769571Y-95248623D01*
X125793217Y-95181047D01*
X125813616Y-95000000D01*
X125793217Y-94818953D01*
X125733043Y-94646985D01*
X125733041Y-94646982D01*
X125733041Y-94646981D01*
X125640686Y-94500000D01*
X141876502Y-94500000D01*
X141896457Y-94728087D01*
X141955716Y-94949243D01*
X142052477Y-95156749D01*
X142183802Y-95344300D01*
X142345700Y-95506198D01*
X142533251Y-95637523D01*
X142740757Y-95734284D01*
X142961913Y-95793543D01*
X143190000Y-95813498D01*
X143418087Y-95793543D01*
X143639243Y-95734284D01*
X143846749Y-95637523D01*
X144034300Y-95506198D01*
X144196198Y-95344300D01*
X144327523Y-95156749D01*
X144424284Y-94949243D01*
X144483543Y-94728087D01*
X144503498Y-94500000D01*
X149496502Y-94500000D01*
X149516457Y-94728087D01*
X149575716Y-94949243D01*
X149672477Y-95156749D01*
X149803802Y-95344300D01*
X149965700Y-95506198D01*
X150153251Y-95637523D01*
X150360757Y-95734284D01*
X150581913Y-95793543D01*
X150810000Y-95813498D01*
X151038087Y-95793543D01*
X151259243Y-95734284D01*
X151466749Y-95637523D01*
X151654300Y-95506198D01*
X151816198Y-95344300D01*
X151947523Y-95156749D01*
X152044284Y-94949243D01*
X152103543Y-94728087D01*
X152123498Y-94500000D01*
X152876502Y-94500000D01*
X152896457Y-94728087D01*
X152955716Y-94949243D01*
X153052477Y-95156749D01*
X153183802Y-95344300D01*
X153345700Y-95506198D01*
X153533251Y-95637523D01*
X153740757Y-95734284D01*
X153961913Y-95793543D01*
X154190000Y-95813498D01*
X154418087Y-95793543D01*
X154639243Y-95734284D01*
X154846749Y-95637523D01*
X155034300Y-95506198D01*
X155196198Y-95344300D01*
X155327523Y-95156749D01*
X155424284Y-94949243D01*
X155483543Y-94728087D01*
X155503498Y-94500000D01*
X155483543Y-94271913D01*
X155424284Y-94050757D01*
X155327523Y-93843251D01*
X155196198Y-93655700D01*
X155034300Y-93493802D01*
X154846749Y-93362477D01*
X154639246Y-93265717D01*
X154639240Y-93265715D01*
X154513302Y-93231970D01*
X154418087Y-93206457D01*
X154190000Y-93186502D01*
X153961913Y-93206457D01*
X153740759Y-93265715D01*
X153740753Y-93265717D01*
X153533250Y-93362477D01*
X153345703Y-93493799D01*
X153345697Y-93493804D01*
X153183804Y-93655697D01*
X153183799Y-93655703D01*
X153052477Y-93843250D01*
X152955717Y-94050753D01*
X152955715Y-94050759D01*
X152913909Y-94206783D01*
X152896457Y-94271913D01*
X152876502Y-94500000D01*
X152123498Y-94500000D01*
X152103543Y-94271913D01*
X152044284Y-94050757D01*
X151947523Y-93843251D01*
X151816198Y-93655700D01*
X151654300Y-93493802D01*
X151466749Y-93362477D01*
X151259246Y-93265717D01*
X151259240Y-93265715D01*
X151133302Y-93231970D01*
X151038087Y-93206457D01*
X150810000Y-93186502D01*
X150581913Y-93206457D01*
X150360759Y-93265715D01*
X150360753Y-93265717D01*
X150153250Y-93362477D01*
X149965703Y-93493799D01*
X149965697Y-93493804D01*
X149803804Y-93655697D01*
X149803799Y-93655703D01*
X149672477Y-93843250D01*
X149575717Y-94050753D01*
X149575715Y-94050759D01*
X149533909Y-94206783D01*
X149516457Y-94271913D01*
X149496502Y-94500000D01*
X144503498Y-94500000D01*
X144483543Y-94271913D01*
X144424284Y-94050757D01*
X144327523Y-93843251D01*
X144196198Y-93655700D01*
X144034300Y-93493802D01*
X143846749Y-93362477D01*
X143639246Y-93265717D01*
X143639240Y-93265715D01*
X143513302Y-93231970D01*
X143418087Y-93206457D01*
X143190000Y-93186502D01*
X142961913Y-93206457D01*
X142740759Y-93265715D01*
X142740753Y-93265717D01*
X142533250Y-93362477D01*
X142345703Y-93493799D01*
X142345697Y-93493804D01*
X142183804Y-93655697D01*
X142183799Y-93655703D01*
X142052477Y-93843250D01*
X141955717Y-94050753D01*
X141955715Y-94050759D01*
X141913909Y-94206783D01*
X141896457Y-94271913D01*
X141876502Y-94500000D01*
X125640686Y-94500000D01*
X125636112Y-94492720D01*
X125636111Y-94492718D01*
X125507281Y-94363888D01*
X125507279Y-94363887D01*
X125353018Y-94266958D01*
X125353015Y-94266957D01*
X125181050Y-94206784D01*
X125181049Y-94206783D01*
X125181047Y-94206783D01*
X125000000Y-94186384D01*
X124818953Y-94206783D01*
X124818950Y-94206783D01*
X124818949Y-94206784D01*
X124646984Y-94266957D01*
X124646981Y-94266958D01*
X124492720Y-94363887D01*
X124492718Y-94363888D01*
X124363888Y-94492718D01*
X124363887Y-94492720D01*
X124266958Y-94646981D01*
X124266957Y-94646984D01*
X124238579Y-94728086D01*
X124206783Y-94818953D01*
X124186384Y-95000000D01*
X124206783Y-95181047D01*
X124230429Y-95248623D01*
X124237500Y-95290238D01*
X124237500Y-103659413D01*
X124218188Y-103726448D01*
X124169656Y-103803686D01*
X124115916Y-103957268D01*
X124109483Y-103975653D01*
X124089084Y-104156700D01*
X110008500Y-104156700D01*
X110008500Y-93835993D01*
X110028502Y-93767872D01*
X110035999Y-93757421D01*
X110036104Y-93757287D01*
X110036111Y-93757281D01*
X110133043Y-93603015D01*
X110193217Y-93431047D01*
X110213616Y-93250000D01*
X110193217Y-93068953D01*
X110133043Y-92896985D01*
X110133041Y-92896982D01*
X110133041Y-92896981D01*
X110036112Y-92742720D01*
X110036111Y-92742718D01*
X109907281Y-92613888D01*
X109907279Y-92613887D01*
X109753018Y-92516958D01*
X109753015Y-92516957D01*
X109581050Y-92456784D01*
X109581049Y-92456783D01*
X109581047Y-92456783D01*
X109400000Y-92436384D01*
X109218953Y-92456783D01*
X109218950Y-92456783D01*
X109218949Y-92456784D01*
X109046984Y-92516957D01*
X109046981Y-92516958D01*
X108892720Y-92613887D01*
X108892718Y-92613888D01*
X108763889Y-92742717D01*
X108749287Y-92765957D01*
X108696108Y-92812994D01*
X108625941Y-92823814D01*
X108561063Y-92794981D01*
X108522072Y-92735649D01*
X108516600Y-92698920D01*
X108516600Y-88648649D01*
X145229000Y-88648649D01*
X145235509Y-88709196D01*
X145235511Y-88709204D01*
X145286610Y-88846202D01*
X145286612Y-88846207D01*
X145374238Y-88963261D01*
X145491292Y-89050887D01*
X145491294Y-89050888D01*
X145491296Y-89050889D01*
X145550375Y-89072924D01*
X145628295Y-89101988D01*
X145628303Y-89101990D01*
X145688850Y-89108499D01*
X145688855Y-89108499D01*
X145688862Y-89108500D01*
X145688868Y-89108500D01*
X147486132Y-89108500D01*
X147486138Y-89108500D01*
X147486145Y-89108499D01*
X147486149Y-89108499D01*
X147546696Y-89101990D01*
X147546699Y-89101989D01*
X147546701Y-89101989D01*
X147683704Y-89050889D01*
X147684299Y-89050444D01*
X147800761Y-88963261D01*
X147888387Y-88846207D01*
X147888387Y-88846206D01*
X147888389Y-88846204D01*
X147939489Y-88709201D01*
X147940887Y-88696203D01*
X147945999Y-88648649D01*
X147946000Y-88648632D01*
X147946000Y-88648597D01*
X152729500Y-88648597D01*
X152736005Y-88709093D01*
X152787055Y-88845964D01*
X152787055Y-88845965D01*
X152874595Y-88962904D01*
X152991534Y-89050444D01*
X153128406Y-89101494D01*
X153188902Y-89107999D01*
X153188915Y-89108000D01*
X153833500Y-89108000D01*
X153833500Y-88180702D01*
X153894507Y-88215925D01*
X154021674Y-88250000D01*
X154153326Y-88250000D01*
X154280493Y-88215925D01*
X154341500Y-88180702D01*
X154341500Y-89108000D01*
X154986085Y-89108000D01*
X154986097Y-89107999D01*
X155046593Y-89101494D01*
X155183464Y-89050444D01*
X155183465Y-89050444D01*
X155300404Y-88962904D01*
X155387944Y-88845965D01*
X155387944Y-88845964D01*
X155438994Y-88709093D01*
X155445499Y-88648597D01*
X155445500Y-88648585D01*
X155445500Y-88004000D01*
X154518203Y-88004000D01*
X154553425Y-87942993D01*
X154587500Y-87815826D01*
X154587500Y-87684174D01*
X154553425Y-87557007D01*
X154518203Y-87496000D01*
X155445500Y-87496000D01*
X155445500Y-86851414D01*
X155445499Y-86851402D01*
X155438994Y-86790906D01*
X155387944Y-86654035D01*
X155387944Y-86654034D01*
X155300404Y-86537095D01*
X155183465Y-86449555D01*
X155046593Y-86398505D01*
X154986097Y-86392000D01*
X154341500Y-86392000D01*
X154341500Y-87319297D01*
X154280493Y-87284075D01*
X154153326Y-87250000D01*
X154021674Y-87250000D01*
X153894507Y-87284075D01*
X153833500Y-87319297D01*
X153833500Y-86392000D01*
X153188902Y-86392000D01*
X153128406Y-86398505D01*
X152991535Y-86449555D01*
X152991534Y-86449555D01*
X152874595Y-86537095D01*
X152787055Y-86654034D01*
X152787055Y-86654035D01*
X152736005Y-86790906D01*
X152729500Y-86851402D01*
X152729500Y-87496000D01*
X153656797Y-87496000D01*
X153621575Y-87557007D01*
X153587500Y-87684174D01*
X153587500Y-87815826D01*
X153621575Y-87942993D01*
X153656797Y-88004000D01*
X152729500Y-88004000D01*
X152729500Y-88648597D01*
X147946000Y-88648597D01*
X147946000Y-86851367D01*
X147945999Y-86851350D01*
X147939490Y-86790803D01*
X147939488Y-86790795D01*
X147888478Y-86654035D01*
X147888389Y-86653796D01*
X147888388Y-86653794D01*
X147888387Y-86653792D01*
X147800761Y-86536738D01*
X147683707Y-86449112D01*
X147683702Y-86449110D01*
X147546704Y-86398011D01*
X147546696Y-86398009D01*
X147486149Y-86391500D01*
X147486138Y-86391500D01*
X145688862Y-86391500D01*
X145688850Y-86391500D01*
X145628303Y-86398009D01*
X145628295Y-86398011D01*
X145491297Y-86449110D01*
X145491292Y-86449112D01*
X145374238Y-86536738D01*
X145286612Y-86653792D01*
X145286610Y-86653797D01*
X145235511Y-86790795D01*
X145235509Y-86790803D01*
X145229000Y-86851350D01*
X145229000Y-88648649D01*
X108516600Y-88648649D01*
X108516600Y-87027990D01*
X108516600Y-87027989D01*
X108475132Y-86873228D01*
X108427542Y-86790799D01*
X108395024Y-86734476D01*
X108395019Y-86734470D01*
X108109659Y-86449110D01*
X107792380Y-86131831D01*
X107758357Y-86069521D01*
X107763421Y-85998706D01*
X107788774Y-85957402D01*
X107825722Y-85917268D01*
X107948860Y-85728791D01*
X108039296Y-85522616D01*
X108094564Y-85304368D01*
X108113156Y-85080000D01*
X108094564Y-84855632D01*
X108085275Y-84818949D01*
X108039297Y-84637387D01*
X108039296Y-84637386D01*
X108039296Y-84637384D01*
X107948860Y-84431209D01*
X107904877Y-84363888D01*
X107825724Y-84242734D01*
X107825720Y-84242729D01*
X107673237Y-84077091D01*
X107591382Y-84013381D01*
X107495576Y-83938811D01*
X107495569Y-83938807D01*
X107462318Y-83920812D01*
X107411928Y-83870798D01*
X107396576Y-83801481D01*
X107421137Y-83734869D01*
X107462316Y-83699188D01*
X107495576Y-83681189D01*
X107673240Y-83542906D01*
X107825722Y-83377268D01*
X107948860Y-83188791D01*
X108039296Y-82982616D01*
X108094564Y-82764368D01*
X108113156Y-82540000D01*
X108094564Y-82315632D01*
X108039296Y-82097384D01*
X107948860Y-81891209D01*
X107942140Y-81880924D01*
X107825724Y-81702734D01*
X107825719Y-81702729D01*
X107682524Y-81547179D01*
X107651103Y-81483514D01*
X107659090Y-81412968D01*
X107703948Y-81357939D01*
X107731183Y-81343789D01*
X107846204Y-81300889D01*
X107963261Y-81213261D01*
X108050889Y-81096204D01*
X108101989Y-80959201D01*
X108108500Y-80898638D01*
X108108500Y-79101362D01*
X108108499Y-79101350D01*
X108101990Y-79040803D01*
X108101988Y-79040795D01*
X108050889Y-78903797D01*
X108050887Y-78903792D01*
X107963261Y-78786738D01*
X107846207Y-78699112D01*
X107846202Y-78699110D01*
X107709204Y-78648011D01*
X107709196Y-78648009D01*
X107648649Y-78641500D01*
X107648638Y-78641500D01*
X105851362Y-78641500D01*
X105851350Y-78641500D01*
X105790803Y-78648009D01*
X105790795Y-78648011D01*
X105653797Y-78699110D01*
X105653792Y-78699112D01*
X105536738Y-78786738D01*
X105449112Y-78903792D01*
X105449110Y-78903797D01*
X105398011Y-79040795D01*
X105398009Y-79040803D01*
X105391500Y-79101350D01*
X105391500Y-80898649D01*
X105398009Y-80959196D01*
X105398011Y-80959204D01*
X105449110Y-81096202D01*
X105449112Y-81096207D01*
X105536738Y-81213261D01*
X105653791Y-81300886D01*
X105653792Y-81300886D01*
X105653796Y-81300889D01*
X105768810Y-81343787D01*
X105825642Y-81386332D01*
X105850453Y-81452852D01*
X105835362Y-81522226D01*
X105817475Y-81547179D01*
X105674280Y-81702729D01*
X105674275Y-81702734D01*
X105551141Y-81891206D01*
X105460703Y-82097386D01*
X105460702Y-82097387D01*
X105405437Y-82315624D01*
X105405436Y-82315630D01*
X105405436Y-82315632D01*
X105390863Y-82491500D01*
X105386844Y-82540000D01*
X105405437Y-82764375D01*
X105460702Y-82982612D01*
X105460703Y-82982613D01*
X105551141Y-83188793D01*
X105674275Y-83377265D01*
X105674279Y-83377270D01*
X105731257Y-83439163D01*
X105762679Y-83502827D01*
X105754693Y-83573373D01*
X105727653Y-83613596D01*
X105112980Y-84228270D01*
X105112975Y-84228276D01*
X105032867Y-84367027D01*
X105032868Y-84367028D01*
X104991400Y-84521790D01*
X104991400Y-102815760D01*
X104971398Y-102883881D01*
X104954495Y-102904855D01*
X103363083Y-104496266D01*
X103363075Y-104496276D01*
X103282967Y-104635027D01*
X103282968Y-104635028D01*
X103263207Y-104708777D01*
X103226255Y-104769400D01*
X103162395Y-104800421D01*
X103091900Y-104791993D01*
X103037153Y-104746790D01*
X103015536Y-104679164D01*
X103015500Y-104676166D01*
X103015500Y-73177981D01*
X116716500Y-73177981D01*
X116748720Y-73381408D01*
X116812366Y-73577290D01*
X116905871Y-73760803D01*
X117026932Y-73927430D01*
X117026934Y-73927432D01*
X117026936Y-73927435D01*
X117172564Y-74073063D01*
X117172567Y-74073065D01*
X117172570Y-74073068D01*
X117339197Y-74194129D01*
X117415511Y-74233013D01*
X117467126Y-74281760D01*
X117484192Y-74350675D01*
X117461292Y-74417876D01*
X117415513Y-74457545D01*
X117339455Y-74496299D01*
X117172892Y-74617315D01*
X117172889Y-74617317D01*
X117027317Y-74762889D01*
X117027315Y-74762892D01*
X116906300Y-74929454D01*
X116812829Y-75112900D01*
X116812826Y-75112906D01*
X116749208Y-75308704D01*
X116740926Y-75361000D01*
X118113314Y-75361000D01*
X118104920Y-75369394D01*
X118052259Y-75460606D01*
X118025000Y-75562339D01*
X118025000Y-75667661D01*
X118052259Y-75769394D01*
X118104920Y-75860606D01*
X118113314Y-75869000D01*
X116740926Y-75869000D01*
X116749208Y-75921295D01*
X116812826Y-76117093D01*
X116812829Y-76117099D01*
X116906300Y-76300545D01*
X117027315Y-76467107D01*
X117027317Y-76467110D01*
X117172889Y-76612682D01*
X117172892Y-76612684D01*
X117339454Y-76733699D01*
X117522900Y-76827170D01*
X117522906Y-76827173D01*
X117718705Y-76890791D01*
X117718701Y-76890791D01*
X117922061Y-76923000D01*
X118171000Y-76923000D01*
X118171000Y-75926686D01*
X118179394Y-75935080D01*
X118270606Y-75987741D01*
X118372339Y-76015000D01*
X118477661Y-76015000D01*
X118579394Y-75987741D01*
X118670606Y-75935080D01*
X118679000Y-75926686D01*
X118679000Y-76923000D01*
X118927939Y-76923000D01*
X119131296Y-76890791D01*
X119327093Y-76827173D01*
X119327099Y-76827170D01*
X119510545Y-76733699D01*
X119677107Y-76612684D01*
X119677110Y-76612682D01*
X119822682Y-76467110D01*
X119822684Y-76467107D01*
X119943699Y-76300545D01*
X120037170Y-76117099D01*
X120037173Y-76117093D01*
X120100791Y-75921295D01*
X120109074Y-75869000D01*
X118736686Y-75869000D01*
X118745080Y-75860606D01*
X118797741Y-75769394D01*
X118825000Y-75667661D01*
X118825000Y-75562339D01*
X118797741Y-75460606D01*
X118745080Y-75369394D01*
X118736686Y-75361000D01*
X120109074Y-75361000D01*
X120100791Y-75308704D01*
X120037173Y-75112906D01*
X120037170Y-75112900D01*
X119943699Y-74929454D01*
X119822684Y-74762892D01*
X119822682Y-74762889D01*
X119677110Y-74617317D01*
X119677107Y-74617315D01*
X119510542Y-74496298D01*
X119434487Y-74457545D01*
X119382872Y-74408797D01*
X119365807Y-74339882D01*
X119388708Y-74272680D01*
X119434485Y-74233014D01*
X119510803Y-74194129D01*
X119677430Y-74073068D01*
X119823068Y-73927430D01*
X119944129Y-73760803D01*
X120037634Y-73577290D01*
X120101280Y-73381408D01*
X120133500Y-73177981D01*
X120133500Y-72972019D01*
X120101280Y-72768592D01*
X120037634Y-72572710D01*
X119944129Y-72389197D01*
X119823068Y-72222570D01*
X119823065Y-72222567D01*
X119823063Y-72222564D01*
X119677435Y-72076936D01*
X119677432Y-72076934D01*
X119677430Y-72076932D01*
X119510803Y-71955871D01*
X119435034Y-71917265D01*
X119383422Y-71868519D01*
X119366356Y-71799604D01*
X119389257Y-71732402D01*
X119435034Y-71692735D01*
X119510803Y-71654129D01*
X119677430Y-71533068D01*
X119823068Y-71387430D01*
X119944129Y-71220803D01*
X119954618Y-71200216D01*
X120003366Y-71148601D01*
X120034269Y-71135713D01*
X120159972Y-71102032D01*
X120298728Y-71021921D01*
X120412021Y-70908628D01*
X120492132Y-70769872D01*
X120533600Y-70615111D01*
X120533600Y-67914889D01*
X120533600Y-58910039D01*
X120553602Y-58841918D01*
X120570505Y-58820944D01*
X125346405Y-54045044D01*
X125408717Y-54011018D01*
X125479532Y-54016083D01*
X125536368Y-54058630D01*
X125561179Y-54125150D01*
X125561500Y-54134139D01*
X125561500Y-54648649D01*
X125568009Y-54709196D01*
X125568011Y-54709204D01*
X125619110Y-54846202D01*
X125619112Y-54846207D01*
X125706738Y-54963261D01*
X125823792Y-55050887D01*
X125823794Y-55050888D01*
X125823796Y-55050889D01*
X125832451Y-55054117D01*
X125960795Y-55101988D01*
X125960803Y-55101990D01*
X126021350Y-55108499D01*
X126021355Y-55108499D01*
X126021362Y-55108500D01*
X126264937Y-55108500D01*
X126333058Y-55128502D01*
X126374056Y-55171499D01*
X126433078Y-55273727D01*
X126899696Y-55740345D01*
X126933720Y-55802656D01*
X126936600Y-55829439D01*
X126936600Y-58985468D01*
X126916598Y-59053589D01*
X126862942Y-59100082D01*
X126792668Y-59110186D01*
X126771665Y-59105302D01*
X126751409Y-59098720D01*
X126700551Y-59090665D01*
X126547981Y-59066500D01*
X125542019Y-59066500D01*
X125338592Y-59098720D01*
X125338590Y-59098720D01*
X125338587Y-59098721D01*
X125142714Y-59162364D01*
X125142708Y-59162367D01*
X124959193Y-59255873D01*
X124792567Y-59376934D01*
X124792564Y-59376936D01*
X124646936Y-59522564D01*
X124646934Y-59522567D01*
X124525873Y-59689193D01*
X124432367Y-59872708D01*
X124432364Y-59872714D01*
X124368721Y-60068587D01*
X124368720Y-60068590D01*
X124368720Y-60068592D01*
X124336500Y-60272019D01*
X124336500Y-60477981D01*
X124368720Y-60681408D01*
X124432366Y-60877290D01*
X124525871Y-61060803D01*
X124646932Y-61227430D01*
X124646934Y-61227432D01*
X124646936Y-61227435D01*
X124792564Y-61373063D01*
X124792567Y-61373065D01*
X124792570Y-61373068D01*
X124959197Y-61494129D01*
X125034962Y-61532733D01*
X125086577Y-61581482D01*
X125103643Y-61650397D01*
X125080742Y-61717598D01*
X125034963Y-61757266D01*
X124966033Y-61792387D01*
X124959193Y-61795873D01*
X124792567Y-61916934D01*
X124792564Y-61916936D01*
X124646936Y-62062564D01*
X124646934Y-62062567D01*
X124525873Y-62229193D01*
X124432367Y-62412708D01*
X124432364Y-62412714D01*
X124368721Y-62608587D01*
X124368720Y-62608590D01*
X124368720Y-62608592D01*
X124336500Y-62812019D01*
X124336500Y-63017981D01*
X124368720Y-63221408D01*
X124432366Y-63417290D01*
X124525871Y-63600803D01*
X124646932Y-63767430D01*
X124646934Y-63767432D01*
X124646936Y-63767435D01*
X124792564Y-63913063D01*
X124792567Y-63913065D01*
X124792570Y-63913068D01*
X124959197Y-64034129D01*
X125034962Y-64072733D01*
X125086577Y-64121482D01*
X125103643Y-64190397D01*
X125080742Y-64257598D01*
X125034963Y-64297266D01*
X124982279Y-64324110D01*
X124959193Y-64335873D01*
X124792567Y-64456934D01*
X124792564Y-64456936D01*
X124646936Y-64602564D01*
X124646934Y-64602567D01*
X124525873Y-64769193D01*
X124432367Y-64952708D01*
X124432364Y-64952714D01*
X124368721Y-65148587D01*
X124368720Y-65148590D01*
X124368720Y-65148592D01*
X124336500Y-65352019D01*
X124336500Y-65557981D01*
X124361481Y-65715703D01*
X124368721Y-65761412D01*
X124425729Y-65936865D01*
X124432366Y-65957290D01*
X124525871Y-66140803D01*
X124646932Y-66307430D01*
X124646934Y-66307432D01*
X124646936Y-66307435D01*
X124792564Y-66453063D01*
X124792567Y-66453065D01*
X124792570Y-66453068D01*
X124959197Y-66574129D01*
X125034962Y-66612733D01*
X125086577Y-66661482D01*
X125103643Y-66730397D01*
X125080742Y-66797598D01*
X125034963Y-66837266D01*
X124966033Y-66872387D01*
X124959193Y-66875873D01*
X124792567Y-66996934D01*
X124792564Y-66996936D01*
X124646936Y-67142564D01*
X124646934Y-67142567D01*
X124525873Y-67309193D01*
X124432367Y-67492708D01*
X124432364Y-67492714D01*
X124368721Y-67688587D01*
X124368720Y-67688590D01*
X124368720Y-67688592D01*
X124336500Y-67892019D01*
X124336500Y-68097981D01*
X124367176Y-68291657D01*
X124368721Y-68301412D01*
X124425123Y-68475000D01*
X124432366Y-68497290D01*
X124525871Y-68680803D01*
X124646932Y-68847430D01*
X124646934Y-68847432D01*
X124646936Y-68847435D01*
X124792564Y-68993063D01*
X124792567Y-68993065D01*
X124792570Y-68993068D01*
X124959197Y-69114129D01*
X125034962Y-69152733D01*
X125086577Y-69201482D01*
X125103643Y-69270397D01*
X125080742Y-69337598D01*
X125034963Y-69377266D01*
X125015367Y-69387251D01*
X124959193Y-69415873D01*
X124792567Y-69536934D01*
X124792564Y-69536936D01*
X124646936Y-69682564D01*
X124646934Y-69682567D01*
X124525873Y-69849193D01*
X124432367Y-70032708D01*
X124432364Y-70032714D01*
X124368721Y-70228587D01*
X124368720Y-70228590D01*
X124368720Y-70228592D01*
X124336500Y-70432019D01*
X124336500Y-70637981D01*
X124364382Y-70814019D01*
X124368721Y-70841412D01*
X124432088Y-71036436D01*
X124432366Y-71037290D01*
X124525871Y-71220803D01*
X124646932Y-71387430D01*
X124646934Y-71387432D01*
X124646936Y-71387435D01*
X124792564Y-71533063D01*
X124792567Y-71533065D01*
X124792570Y-71533068D01*
X124959197Y-71654129D01*
X125034962Y-71692733D01*
X125086577Y-71741482D01*
X125103643Y-71810397D01*
X125080742Y-71877598D01*
X125034963Y-71917266D01*
X124966033Y-71952387D01*
X124959193Y-71955873D01*
X124792567Y-72076934D01*
X124792564Y-72076936D01*
X124646936Y-72222564D01*
X124646934Y-72222567D01*
X124525873Y-72389193D01*
X124432367Y-72572708D01*
X124432364Y-72572714D01*
X124368721Y-72768587D01*
X124368720Y-72768590D01*
X124368720Y-72768592D01*
X124336500Y-72972019D01*
X124336500Y-73177981D01*
X124368720Y-73381408D01*
X124432366Y-73577290D01*
X124525871Y-73760803D01*
X124646932Y-73927430D01*
X124646934Y-73927432D01*
X124646936Y-73927435D01*
X124792564Y-74073063D01*
X124792567Y-74073065D01*
X124792570Y-74073068D01*
X124959197Y-74194129D01*
X125034962Y-74232733D01*
X125086577Y-74281482D01*
X125103643Y-74350397D01*
X125080742Y-74417598D01*
X125034963Y-74457266D01*
X125034416Y-74457545D01*
X124959193Y-74495873D01*
X124792567Y-74616934D01*
X124792564Y-74616936D01*
X124646936Y-74762564D01*
X124646934Y-74762567D01*
X124525873Y-74929193D01*
X124432367Y-75112708D01*
X124432364Y-75112714D01*
X124368721Y-75308587D01*
X124368720Y-75308590D01*
X124368720Y-75308592D01*
X124336500Y-75512019D01*
X124336500Y-75717981D01*
X124368720Y-75921408D01*
X124432366Y-76117290D01*
X124525871Y-76300803D01*
X124646932Y-76467430D01*
X124646934Y-76467432D01*
X124646936Y-76467435D01*
X124792564Y-76613063D01*
X124792567Y-76613065D01*
X124792570Y-76613068D01*
X124959197Y-76734129D01*
X125142710Y-76827634D01*
X125338592Y-76891280D01*
X125542019Y-76923500D01*
X125542022Y-76923500D01*
X126547978Y-76923500D01*
X126547981Y-76923500D01*
X126751408Y-76891280D01*
X126947290Y-76827634D01*
X127130803Y-76734129D01*
X127297430Y-76613068D01*
X127443068Y-76467430D01*
X127564129Y-76300803D01*
X127657634Y-76117290D01*
X127721280Y-75921408D01*
X127753500Y-75717981D01*
X127753500Y-75512019D01*
X127721280Y-75308592D01*
X127657634Y-75112710D01*
X127564129Y-74929197D01*
X127443068Y-74762570D01*
X127443065Y-74762567D01*
X127443063Y-74762564D01*
X127297435Y-74616936D01*
X127297432Y-74616934D01*
X127297430Y-74616932D01*
X127130803Y-74495871D01*
X127055034Y-74457265D01*
X127003422Y-74408519D01*
X126986356Y-74339604D01*
X127009257Y-74272402D01*
X127055034Y-74232735D01*
X127130803Y-74194129D01*
X127297430Y-74073068D01*
X127443068Y-73927430D01*
X127564129Y-73760803D01*
X127574618Y-73740216D01*
X127623366Y-73688601D01*
X127654269Y-73675713D01*
X127779972Y-73642032D01*
X127918728Y-73561921D01*
X128032021Y-73448628D01*
X128112132Y-73309872D01*
X128153600Y-73155111D01*
X128153600Y-70454889D01*
X128153600Y-69980111D01*
X129691500Y-69980111D01*
X129705593Y-70032708D01*
X129709712Y-70048079D01*
X129732967Y-70134870D01*
X129732970Y-70134877D01*
X129813075Y-70273623D01*
X129813083Y-70273633D01*
X130561366Y-71021916D01*
X130561371Y-71021920D01*
X130561373Y-71021922D01*
X130561374Y-71021923D01*
X130561376Y-71021924D01*
X130658901Y-71078229D01*
X130700128Y-71102032D01*
X130854889Y-71143500D01*
X130854890Y-71143500D01*
X131015111Y-71143500D01*
X131039270Y-71143500D01*
X131107391Y-71163502D01*
X131151535Y-71212294D01*
X131155870Y-71220803D01*
X131232317Y-71326022D01*
X131276932Y-71387430D01*
X131276934Y-71387432D01*
X131276936Y-71387435D01*
X131422564Y-71533063D01*
X131422567Y-71533065D01*
X131422570Y-71533068D01*
X131589197Y-71654129D01*
X131664962Y-71692733D01*
X131716577Y-71741482D01*
X131733643Y-71810397D01*
X131710742Y-71877598D01*
X131664963Y-71917266D01*
X131596033Y-71952387D01*
X131589193Y-71955873D01*
X131422567Y-72076934D01*
X131422564Y-72076936D01*
X131276936Y-72222564D01*
X131276934Y-72222567D01*
X131155873Y-72389193D01*
X131062367Y-72572708D01*
X131062364Y-72572714D01*
X130998721Y-72768587D01*
X130998720Y-72768590D01*
X130998720Y-72768592D01*
X130966500Y-72972019D01*
X130966500Y-73177981D01*
X130998720Y-73381408D01*
X131062366Y-73577290D01*
X131155871Y-73760803D01*
X131276932Y-73927430D01*
X131276934Y-73927432D01*
X131276936Y-73927435D01*
X131422564Y-74073063D01*
X131422567Y-74073065D01*
X131422570Y-74073068D01*
X131589197Y-74194129D01*
X131665511Y-74233013D01*
X131717126Y-74281760D01*
X131734192Y-74350675D01*
X131711292Y-74417876D01*
X131665513Y-74457545D01*
X131589455Y-74496299D01*
X131422892Y-74617315D01*
X131422889Y-74617317D01*
X131277317Y-74762889D01*
X131277315Y-74762892D01*
X131156300Y-74929454D01*
X131062829Y-75112900D01*
X131062826Y-75112906D01*
X130999208Y-75308704D01*
X130990926Y-75361000D01*
X132363314Y-75361000D01*
X132354920Y-75369394D01*
X132302259Y-75460606D01*
X132275000Y-75562339D01*
X132275000Y-75667661D01*
X132302259Y-75769394D01*
X132354920Y-75860606D01*
X132363314Y-75869000D01*
X130990926Y-75869000D01*
X130999208Y-75921295D01*
X131062826Y-76117093D01*
X131062829Y-76117099D01*
X131156300Y-76300545D01*
X131277315Y-76467107D01*
X131277317Y-76467110D01*
X131422889Y-76612682D01*
X131422892Y-76612684D01*
X131589454Y-76733699D01*
X131772900Y-76827170D01*
X131772906Y-76827173D01*
X131968705Y-76890791D01*
X131968701Y-76890791D01*
X132172061Y-76923000D01*
X132421000Y-76923000D01*
X132421000Y-75926686D01*
X132429394Y-75935080D01*
X132520606Y-75987741D01*
X132622339Y-76015000D01*
X132727661Y-76015000D01*
X132829394Y-75987741D01*
X132920606Y-75935080D01*
X132929000Y-75926686D01*
X132929000Y-76923000D01*
X133177939Y-76923000D01*
X133381296Y-76890791D01*
X133577093Y-76827173D01*
X133577099Y-76827170D01*
X133760545Y-76733699D01*
X133927107Y-76612684D01*
X133927110Y-76612682D01*
X134072682Y-76467110D01*
X134072684Y-76467107D01*
X134193699Y-76300545D01*
X134287170Y-76117099D01*
X134287173Y-76117093D01*
X134350791Y-75921295D01*
X134359074Y-75869000D01*
X132986686Y-75869000D01*
X132995080Y-75860606D01*
X133047741Y-75769394D01*
X133075000Y-75667661D01*
X133075000Y-75562339D01*
X133047741Y-75460606D01*
X132995080Y-75369394D01*
X132986686Y-75361000D01*
X134359074Y-75361000D01*
X134350791Y-75308704D01*
X134287173Y-75112906D01*
X134287170Y-75112900D01*
X134193699Y-74929454D01*
X134072684Y-74762892D01*
X134072682Y-74762889D01*
X133927110Y-74617317D01*
X133927107Y-74617315D01*
X133760542Y-74496298D01*
X133684487Y-74457545D01*
X133632872Y-74408797D01*
X133615807Y-74339882D01*
X133638708Y-74272680D01*
X133684485Y-74233014D01*
X133760803Y-74194129D01*
X133927430Y-74073068D01*
X134073068Y-73927430D01*
X134194129Y-73760803D01*
X134287634Y-73577290D01*
X134351280Y-73381408D01*
X134383500Y-73177981D01*
X134383500Y-72972019D01*
X134351280Y-72768592D01*
X134287634Y-72572710D01*
X134194129Y-72389197D01*
X134073068Y-72222570D01*
X134073065Y-72222567D01*
X134073063Y-72222564D01*
X133927435Y-72076936D01*
X133927432Y-72076934D01*
X133927430Y-72076932D01*
X133760803Y-71955871D01*
X133685034Y-71917265D01*
X133633422Y-71868519D01*
X133616356Y-71799604D01*
X133639257Y-71732402D01*
X133685034Y-71692735D01*
X133760803Y-71654129D01*
X133927430Y-71533068D01*
X134073068Y-71387430D01*
X134194129Y-71220803D01*
X134287634Y-71037290D01*
X134351280Y-70841408D01*
X134383500Y-70637981D01*
X134383500Y-70432019D01*
X134351280Y-70228592D01*
X134287634Y-70032710D01*
X134194129Y-69849197D01*
X134073068Y-69682570D01*
X134073065Y-69682567D01*
X134073063Y-69682564D01*
X133927435Y-69536936D01*
X133927432Y-69536934D01*
X133927430Y-69536932D01*
X133801999Y-69445802D01*
X133760806Y-69415873D01*
X133760805Y-69415872D01*
X133760803Y-69415871D01*
X133685034Y-69377265D01*
X133633422Y-69328519D01*
X133616356Y-69259604D01*
X133639257Y-69192402D01*
X133685034Y-69152735D01*
X133760803Y-69114129D01*
X133927430Y-68993068D01*
X134073068Y-68847430D01*
X134194129Y-68680803D01*
X134287634Y-68497290D01*
X134351280Y-68301408D01*
X134383500Y-68097981D01*
X134383500Y-67892019D01*
X134351280Y-67688592D01*
X134287634Y-67492710D01*
X134194129Y-67309197D01*
X134073068Y-67142570D01*
X134073065Y-67142567D01*
X134073063Y-67142564D01*
X133927435Y-66996936D01*
X133927432Y-66996934D01*
X133927430Y-66996932D01*
X133760803Y-66875871D01*
X133685034Y-66837265D01*
X133633422Y-66788519D01*
X133616356Y-66719604D01*
X133639257Y-66652402D01*
X133685034Y-66612735D01*
X133760803Y-66574129D01*
X133927430Y-66453068D01*
X134073068Y-66307430D01*
X134194129Y-66140803D01*
X134287634Y-65957290D01*
X134351280Y-65761408D01*
X134383500Y-65557981D01*
X134383500Y-65352019D01*
X134351280Y-65148592D01*
X134287634Y-64952710D01*
X134194129Y-64769197D01*
X134073068Y-64602570D01*
X134073065Y-64602567D01*
X134073063Y-64602564D01*
X133927435Y-64456936D01*
X133927432Y-64456934D01*
X133927430Y-64456932D01*
X133763879Y-64338106D01*
X133760806Y-64335873D01*
X133760805Y-64335872D01*
X133760803Y-64335871D01*
X133685034Y-64297265D01*
X133633422Y-64248519D01*
X133616356Y-64179604D01*
X133639257Y-64112402D01*
X133685034Y-64072735D01*
X133760803Y-64034129D01*
X133927430Y-63913068D01*
X134073068Y-63767430D01*
X134194129Y-63600803D01*
X134287634Y-63417290D01*
X134351280Y-63221408D01*
X134383500Y-63017981D01*
X134383500Y-62812019D01*
X134351280Y-62608592D01*
X134287634Y-62412710D01*
X134194129Y-62229197D01*
X134073068Y-62062570D01*
X134073065Y-62062567D01*
X134073063Y-62062564D01*
X133927436Y-61916937D01*
X133927432Y-61916934D01*
X133927430Y-61916932D01*
X133911673Y-61905484D01*
X133868322Y-61849263D01*
X133862247Y-61778527D01*
X133895379Y-61715735D01*
X133957199Y-61680824D01*
X133972271Y-61678272D01*
X133984196Y-61676990D01*
X133984199Y-61676989D01*
X133984201Y-61676989D01*
X133989663Y-61674952D01*
X134003045Y-61669960D01*
X134121204Y-61625889D01*
X134238261Y-61538261D01*
X134325889Y-61421204D01*
X134376989Y-61284201D01*
X134383093Y-61227430D01*
X134383499Y-61223649D01*
X134383500Y-61223632D01*
X134383500Y-59526367D01*
X134383499Y-59526350D01*
X134376990Y-59465803D01*
X134376988Y-59465795D01*
X134325889Y-59328797D01*
X134325887Y-59328792D01*
X134238261Y-59211738D01*
X134121207Y-59124112D01*
X134121202Y-59124110D01*
X133984204Y-59073011D01*
X133984196Y-59073009D01*
X133923649Y-59066500D01*
X133923638Y-59066500D01*
X131426362Y-59066500D01*
X131426350Y-59066500D01*
X131365803Y-59073009D01*
X131365795Y-59073011D01*
X131228797Y-59124110D01*
X131228792Y-59124112D01*
X131111738Y-59211738D01*
X131024112Y-59328792D01*
X131024110Y-59328797D01*
X130973011Y-59465795D01*
X130973009Y-59465803D01*
X130966500Y-59526350D01*
X130966500Y-61223649D01*
X130973009Y-61284196D01*
X130973011Y-61284204D01*
X131024110Y-61421202D01*
X131024112Y-61421207D01*
X131111738Y-61538261D01*
X131228792Y-61625887D01*
X131228794Y-61625888D01*
X131228796Y-61625889D01*
X131280034Y-61645000D01*
X131365795Y-61676988D01*
X131365798Y-61676988D01*
X131365799Y-61676989D01*
X131365804Y-61676990D01*
X131377728Y-61678272D01*
X131443321Y-61705440D01*
X131483813Y-61763757D01*
X131486349Y-61834708D01*
X131450122Y-61895767D01*
X131438326Y-61905484D01*
X131422567Y-61916933D01*
X131276936Y-62062564D01*
X131276934Y-62062567D01*
X131155873Y-62229193D01*
X131062367Y-62412708D01*
X131062364Y-62412714D01*
X130998721Y-62608587D01*
X130998720Y-62608590D01*
X130998720Y-62608592D01*
X130966500Y-62812019D01*
X130966500Y-63017981D01*
X130998720Y-63221408D01*
X131062366Y-63417290D01*
X131155871Y-63600803D01*
X131276932Y-63767430D01*
X131276934Y-63767432D01*
X131276936Y-63767435D01*
X131422564Y-63913063D01*
X131422567Y-63913065D01*
X131422570Y-63913068D01*
X131589197Y-64034129D01*
X131664962Y-64072733D01*
X131716577Y-64121482D01*
X131733643Y-64190397D01*
X131710742Y-64257598D01*
X131664963Y-64297266D01*
X131612279Y-64324110D01*
X131589193Y-64335873D01*
X131422567Y-64456934D01*
X131422564Y-64456936D01*
X131276936Y-64602564D01*
X131276934Y-64602567D01*
X131155870Y-64769196D01*
X131134295Y-64811539D01*
X131085546Y-64863153D01*
X131054644Y-64876039D01*
X131010133Y-64887966D01*
X131010123Y-64887970D01*
X130871376Y-64968075D01*
X130871366Y-64968083D01*
X129813083Y-66026366D01*
X129813075Y-66026376D01*
X129732970Y-66165122D01*
X129732965Y-66165134D01*
X129723939Y-66198820D01*
X129723940Y-66198821D01*
X129691500Y-66319889D01*
X129691500Y-69980111D01*
X128153600Y-69980111D01*
X128153600Y-58940000D01*
X144936502Y-58940000D01*
X144956457Y-59168087D01*
X144968154Y-59211739D01*
X145015715Y-59389240D01*
X145015717Y-59389246D01*
X145112477Y-59596749D01*
X145243802Y-59784300D01*
X145405700Y-59946198D01*
X145593251Y-60077523D01*
X145800757Y-60174284D01*
X146021913Y-60233543D01*
X146250000Y-60253498D01*
X146478087Y-60233543D01*
X146699243Y-60174284D01*
X146906749Y-60077523D01*
X147094300Y-59946198D01*
X147256198Y-59784300D01*
X147387523Y-59596749D01*
X147484284Y-59389243D01*
X147543543Y-59168087D01*
X147563498Y-58940000D01*
X152936502Y-58940000D01*
X152956457Y-59168087D01*
X152968154Y-59211739D01*
X153015715Y-59389240D01*
X153015717Y-59389246D01*
X153112477Y-59596749D01*
X153243802Y-59784300D01*
X153405700Y-59946198D01*
X153593251Y-60077523D01*
X153800757Y-60174284D01*
X154021913Y-60233543D01*
X154250000Y-60253498D01*
X154478087Y-60233543D01*
X154699243Y-60174284D01*
X154906749Y-60077523D01*
X155094300Y-59946198D01*
X155256198Y-59784300D01*
X155387523Y-59596749D01*
X155484284Y-59389243D01*
X155543543Y-59168087D01*
X155563498Y-58940000D01*
X160769802Y-58940000D01*
X160789757Y-59168087D01*
X160801454Y-59211739D01*
X160849015Y-59389240D01*
X160849017Y-59389246D01*
X160945777Y-59596749D01*
X161077102Y-59784300D01*
X161239000Y-59946198D01*
X161426551Y-60077523D01*
X161634057Y-60174284D01*
X161855213Y-60233543D01*
X162083300Y-60253498D01*
X162311387Y-60233543D01*
X162532543Y-60174284D01*
X162740049Y-60077523D01*
X162927600Y-59946198D01*
X163089498Y-59784300D01*
X163220823Y-59596749D01*
X163317584Y-59389243D01*
X163376843Y-59168087D01*
X163396798Y-58940000D01*
X163376843Y-58711913D01*
X163317584Y-58490757D01*
X163220823Y-58283251D01*
X163089498Y-58095700D01*
X162927600Y-57933802D01*
X162745529Y-57806314D01*
X162701201Y-57750857D01*
X162691800Y-57703101D01*
X162691800Y-56534500D01*
X162711802Y-56466379D01*
X162765458Y-56419886D01*
X162817800Y-56408500D01*
X162950008Y-56408500D01*
X162950012Y-56408500D01*
X163180251Y-56370080D01*
X163401027Y-56294287D01*
X163606317Y-56183190D01*
X163790520Y-56039818D01*
X163868769Y-55954818D01*
X163948614Y-55868083D01*
X164004147Y-55783083D01*
X164076284Y-55672669D01*
X164170049Y-55458907D01*
X164227351Y-55232626D01*
X164246627Y-55000000D01*
X164239584Y-54915000D01*
X169086673Y-54915000D01*
X169104364Y-55128502D01*
X169105950Y-55147633D01*
X169163249Y-55373903D01*
X169163252Y-55373910D01*
X169257015Y-55587668D01*
X169384685Y-55783083D01*
X169542774Y-55954813D01*
X169542778Y-55954817D01*
X169619588Y-56014600D01*
X169726983Y-56098190D01*
X169726988Y-56098192D01*
X169726990Y-56098194D01*
X169825468Y-56151487D01*
X169875859Y-56201500D01*
X169891500Y-56262301D01*
X169891500Y-57703101D01*
X169871498Y-57771222D01*
X169837771Y-57806314D01*
X169655703Y-57933799D01*
X169655697Y-57933804D01*
X169493804Y-58095697D01*
X169493799Y-58095703D01*
X169362477Y-58283250D01*
X169265717Y-58490753D01*
X169265715Y-58490759D01*
X169206457Y-58711913D01*
X169186502Y-58940000D01*
X169206457Y-59168087D01*
X169218154Y-59211739D01*
X169265715Y-59389240D01*
X169265717Y-59389246D01*
X169362477Y-59596749D01*
X169493802Y-59784300D01*
X169655700Y-59946198D01*
X169843251Y-60077523D01*
X170050757Y-60174284D01*
X170271913Y-60233543D01*
X170500000Y-60253498D01*
X170728087Y-60233543D01*
X170949243Y-60174284D01*
X171156749Y-60077523D01*
X171344300Y-59946198D01*
X171506198Y-59784300D01*
X171637523Y-59596749D01*
X171734284Y-59389243D01*
X171793543Y-59168087D01*
X171813498Y-58940000D01*
X171793543Y-58711913D01*
X171734284Y-58490757D01*
X171637523Y-58283251D01*
X171506198Y-58095700D01*
X171344300Y-57933802D01*
X171162229Y-57806314D01*
X171117901Y-57750857D01*
X171108500Y-57703101D01*
X171108500Y-56262301D01*
X171128502Y-56194180D01*
X171174532Y-56151487D01*
X171218948Y-56127450D01*
X171273017Y-56098190D01*
X171457220Y-55954818D01*
X171615314Y-55783083D01*
X171742984Y-55587669D01*
X171836749Y-55373907D01*
X171894051Y-55147626D01*
X171913327Y-54915000D01*
X171894051Y-54682374D01*
X171871708Y-54594143D01*
X171836750Y-54456096D01*
X171836747Y-54456089D01*
X171810254Y-54395692D01*
X171742984Y-54242331D01*
X171666426Y-54125150D01*
X171615316Y-54046920D01*
X171615315Y-54046919D01*
X171615314Y-54046917D01*
X171529789Y-53954013D01*
X171498370Y-53890351D01*
X171506356Y-53819805D01*
X171551215Y-53764776D01*
X171578460Y-53750622D01*
X171645965Y-53725444D01*
X171762904Y-53637904D01*
X171850444Y-53520965D01*
X171850444Y-53520964D01*
X171901494Y-53384093D01*
X171907999Y-53323597D01*
X171908000Y-53323585D01*
X171908000Y-52629000D01*
X170872968Y-52629000D01*
X170919333Y-52548694D01*
X170932381Y-52500000D01*
X179511917Y-52500000D01*
X179532213Y-52744931D01*
X179592547Y-52983185D01*
X179691265Y-53208239D01*
X179691267Y-53208242D01*
X179786610Y-53354178D01*
X180397301Y-52743487D01*
X180423978Y-52807890D01*
X180495112Y-52914351D01*
X180585649Y-53004888D01*
X180692110Y-53076022D01*
X180756511Y-53102698D01*
X180145238Y-53713971D01*
X180186087Y-53745766D01*
X180186093Y-53745770D01*
X180402248Y-53862748D01*
X180634692Y-53942546D01*
X180634701Y-53942548D01*
X180877119Y-53983000D01*
X181122881Y-53983000D01*
X181365298Y-53942548D01*
X181365307Y-53942546D01*
X181597753Y-53862748D01*
X181597755Y-53862747D01*
X181813897Y-53745776D01*
X181854760Y-53713969D01*
X181664440Y-53523649D01*
X184516500Y-53523649D01*
X184523009Y-53584196D01*
X184523011Y-53584204D01*
X184574110Y-53721202D01*
X184574112Y-53721207D01*
X184661738Y-53838261D01*
X184778792Y-53925887D01*
X184778794Y-53925888D01*
X184778796Y-53925889D01*
X184823455Y-53942546D01*
X184915795Y-53976988D01*
X184915803Y-53976990D01*
X184976350Y-53983499D01*
X184976355Y-53983499D01*
X184976362Y-53983500D01*
X184976368Y-53983500D01*
X187023632Y-53983500D01*
X187023638Y-53983500D01*
X187023645Y-53983499D01*
X187023649Y-53983499D01*
X187084196Y-53976990D01*
X187084199Y-53976989D01*
X187084201Y-53976989D01*
X187091210Y-53974375D01*
X187103045Y-53969960D01*
X187221204Y-53925889D01*
X187288941Y-53875182D01*
X187338261Y-53838261D01*
X187425887Y-53721207D01*
X187425887Y-53721206D01*
X187425889Y-53721204D01*
X187476989Y-53584201D01*
X187483287Y-53525624D01*
X187483499Y-53523649D01*
X187483500Y-53523632D01*
X187483500Y-53154465D01*
X193749500Y-53154465D01*
X193784089Y-53461456D01*
X193812106Y-53584204D01*
X193852832Y-53762636D01*
X193852834Y-53762642D01*
X193852833Y-53762642D01*
X193954858Y-54054211D01*
X193954869Y-54054238D01*
X194088902Y-54332560D01*
X194088907Y-54332569D01*
X194253265Y-54594143D01*
X194445882Y-54835677D01*
X194664322Y-55054117D01*
X194689183Y-55073943D01*
X194905857Y-55246735D01*
X194975235Y-55290328D01*
X195108250Y-55373907D01*
X195167435Y-55411095D01*
X195445771Y-55545135D01*
X195445787Y-55545140D01*
X195445788Y-55545141D01*
X195737357Y-55647166D01*
X195737360Y-55647166D01*
X195737364Y-55647168D01*
X195960290Y-55698049D01*
X196038543Y-55715910D01*
X196038544Y-55715910D01*
X196038548Y-55715911D01*
X196255389Y-55740343D01*
X196345534Y-55750500D01*
X196345535Y-55750500D01*
X196654466Y-55750500D01*
X196706717Y-55744612D01*
X196961452Y-55715911D01*
X197262636Y-55647168D01*
X197554229Y-55545135D01*
X197832565Y-55411095D01*
X198094143Y-55246735D01*
X198335674Y-55054120D01*
X198554120Y-54835674D01*
X198746735Y-54594143D01*
X198911095Y-54332565D01*
X199045135Y-54054229D01*
X199147168Y-53762636D01*
X199215911Y-53461452D01*
X199250500Y-53154465D01*
X199250500Y-52845535D01*
X199215911Y-52538548D01*
X199147168Y-52237364D01*
X199136193Y-52206000D01*
X199045141Y-51945788D01*
X199045140Y-51945787D01*
X199045135Y-51945771D01*
X198911095Y-51667435D01*
X198897513Y-51645820D01*
X198791036Y-51476362D01*
X198746735Y-51405857D01*
X198605723Y-51229034D01*
X198554117Y-51164322D01*
X198335677Y-50945882D01*
X198094143Y-50753265D01*
X197832569Y-50588907D01*
X197832560Y-50588902D01*
X197554238Y-50454869D01*
X197554233Y-50454867D01*
X197554229Y-50454865D01*
X197554223Y-50454862D01*
X197554211Y-50454858D01*
X197262642Y-50352833D01*
X196961456Y-50284089D01*
X196654466Y-50249500D01*
X196654465Y-50249500D01*
X196345535Y-50249500D01*
X196345534Y-50249500D01*
X196038543Y-50284089D01*
X195737357Y-50352833D01*
X195445788Y-50454858D01*
X195445761Y-50454869D01*
X195167439Y-50588902D01*
X195167430Y-50588907D01*
X194905856Y-50753265D01*
X194664322Y-50945882D01*
X194445882Y-51164322D01*
X194253265Y-51405856D01*
X194088907Y-51667430D01*
X194088902Y-51667439D01*
X193954869Y-51945761D01*
X193954858Y-51945788D01*
X193852833Y-52237357D01*
X193784089Y-52538543D01*
X193749500Y-52845534D01*
X193749500Y-53154465D01*
X187483500Y-53154465D01*
X187483500Y-51476367D01*
X187483499Y-51476350D01*
X187476990Y-51415803D01*
X187476988Y-51415795D01*
X187447924Y-51337875D01*
X187425889Y-51278796D01*
X187425888Y-51278794D01*
X187425887Y-51278792D01*
X187338261Y-51161738D01*
X187221207Y-51074112D01*
X187221202Y-51074110D01*
X187084204Y-51023011D01*
X187084196Y-51023009D01*
X187023649Y-51016500D01*
X187023638Y-51016500D01*
X184976362Y-51016500D01*
X184976350Y-51016500D01*
X184915803Y-51023009D01*
X184915795Y-51023011D01*
X184778797Y-51074110D01*
X184778792Y-51074112D01*
X184661738Y-51161738D01*
X184574112Y-51278792D01*
X184574110Y-51278797D01*
X184523011Y-51415795D01*
X184523009Y-51415803D01*
X184516500Y-51476350D01*
X184516500Y-53523649D01*
X181664440Y-53523649D01*
X181243489Y-53102698D01*
X181307890Y-53076022D01*
X181414351Y-53004888D01*
X181504888Y-52914351D01*
X181576022Y-52807890D01*
X181602698Y-52743487D01*
X182213389Y-53354178D01*
X182308731Y-53208245D01*
X182407452Y-52983185D01*
X182467786Y-52744931D01*
X182488082Y-52500000D01*
X182467786Y-52255068D01*
X182407452Y-52016814D01*
X182308730Y-51791751D01*
X182213388Y-51645820D01*
X181602698Y-52256510D01*
X181576022Y-52192110D01*
X181504888Y-52085649D01*
X181414351Y-51995112D01*
X181307890Y-51923978D01*
X181243488Y-51897301D01*
X181854761Y-51286028D01*
X181813905Y-51254228D01*
X181597751Y-51137251D01*
X181365307Y-51057453D01*
X181365298Y-51057451D01*
X181122881Y-51017000D01*
X180877119Y-51017000D01*
X180634701Y-51057451D01*
X180634692Y-51057453D01*
X180402248Y-51137251D01*
X180186092Y-51254229D01*
X180186087Y-51254232D01*
X180145238Y-51286027D01*
X180145238Y-51286029D01*
X180756510Y-51897301D01*
X180692110Y-51923978D01*
X180585649Y-51995112D01*
X180495112Y-52085649D01*
X180423978Y-52192110D01*
X180397301Y-52256510D01*
X179786610Y-51645819D01*
X179786609Y-51645820D01*
X179691274Y-51791742D01*
X179691267Y-51791756D01*
X179592547Y-52016814D01*
X179532213Y-52255068D01*
X179511917Y-52500000D01*
X170932381Y-52500000D01*
X170950000Y-52434244D01*
X170950000Y-52315756D01*
X170919333Y-52201306D01*
X170872968Y-52121000D01*
X171908000Y-52121000D01*
X171908000Y-51426414D01*
X171907999Y-51426402D01*
X171901494Y-51365906D01*
X171850444Y-51229035D01*
X171850444Y-51229034D01*
X171762904Y-51112095D01*
X171645965Y-51024555D01*
X171509093Y-50973505D01*
X171448597Y-50967000D01*
X170754000Y-50967000D01*
X170754000Y-52002031D01*
X170673694Y-51955667D01*
X170559244Y-51925000D01*
X170440756Y-51925000D01*
X170326306Y-51955667D01*
X170246000Y-52002031D01*
X170246000Y-50967000D01*
X169551402Y-50967000D01*
X169490906Y-50973505D01*
X169354035Y-51024555D01*
X169354034Y-51024555D01*
X169237095Y-51112095D01*
X169149555Y-51229034D01*
X169149555Y-51229035D01*
X169098505Y-51365906D01*
X169092000Y-51426402D01*
X169092000Y-52121000D01*
X170127032Y-52121000D01*
X170080667Y-52201306D01*
X170050000Y-52315756D01*
X170050000Y-52434244D01*
X170080667Y-52548694D01*
X170127032Y-52629000D01*
X169092000Y-52629000D01*
X169092000Y-53323597D01*
X169098505Y-53384093D01*
X169149555Y-53520964D01*
X169149555Y-53520965D01*
X169237095Y-53637904D01*
X169354034Y-53725444D01*
X169421539Y-53750622D01*
X169478375Y-53793169D01*
X169503186Y-53859689D01*
X169488095Y-53929063D01*
X169470208Y-53954015D01*
X169449061Y-53976988D01*
X169384683Y-54046920D01*
X169257015Y-54242331D01*
X169163252Y-54456089D01*
X169163249Y-54456096D01*
X169105950Y-54682366D01*
X169105949Y-54682372D01*
X169105949Y-54682374D01*
X169086673Y-54915000D01*
X164239584Y-54915000D01*
X164227351Y-54767374D01*
X164223687Y-54752906D01*
X164170050Y-54541096D01*
X164170047Y-54541089D01*
X164130686Y-54451356D01*
X164076284Y-54327331D01*
X163948614Y-54131917D01*
X163863089Y-54039013D01*
X163831670Y-53975351D01*
X163839656Y-53904805D01*
X163884515Y-53849776D01*
X163911760Y-53835622D01*
X163979265Y-53810444D01*
X164096204Y-53722904D01*
X164183744Y-53605965D01*
X164183744Y-53605964D01*
X164234794Y-53469093D01*
X164241299Y-53408597D01*
X164241300Y-53408585D01*
X164241300Y-52714000D01*
X163206268Y-52714000D01*
X163252633Y-52633694D01*
X163283300Y-52519244D01*
X163283300Y-52400756D01*
X163252633Y-52286306D01*
X163206268Y-52206000D01*
X164241300Y-52206000D01*
X164241300Y-51511414D01*
X164241299Y-51511402D01*
X164234794Y-51450906D01*
X164183744Y-51314035D01*
X164183744Y-51314034D01*
X164096204Y-51197095D01*
X163979265Y-51109555D01*
X163842393Y-51058505D01*
X163781897Y-51052000D01*
X163087300Y-51052000D01*
X163087300Y-52087031D01*
X163006994Y-52040667D01*
X162892544Y-52010000D01*
X162774056Y-52010000D01*
X162659606Y-52040667D01*
X162579300Y-52087031D01*
X162579300Y-51052000D01*
X161884702Y-51052000D01*
X161824206Y-51058505D01*
X161687335Y-51109555D01*
X161687334Y-51109555D01*
X161570395Y-51197095D01*
X161482855Y-51314034D01*
X161482855Y-51314035D01*
X161431805Y-51450906D01*
X161425300Y-51511402D01*
X161425300Y-52206000D01*
X162460332Y-52206000D01*
X162413967Y-52286306D01*
X162383300Y-52400756D01*
X162383300Y-52519244D01*
X162413967Y-52633694D01*
X162460332Y-52714000D01*
X161425300Y-52714000D01*
X161425300Y-53408597D01*
X161431805Y-53469093D01*
X161482855Y-53605964D01*
X161482855Y-53605965D01*
X161570395Y-53722904D01*
X161687334Y-53810444D01*
X161754839Y-53835622D01*
X161811675Y-53878169D01*
X161836486Y-53944689D01*
X161821395Y-54014063D01*
X161803508Y-54039015D01*
X161796232Y-54046920D01*
X161717983Y-54131920D01*
X161590315Y-54327331D01*
X161496552Y-54541089D01*
X161496549Y-54541096D01*
X161439250Y-54767366D01*
X161439249Y-54767372D01*
X161439249Y-54767374D01*
X161419973Y-55000000D01*
X161432206Y-55147633D01*
X161439250Y-55232633D01*
X161496549Y-55458903D01*
X161496553Y-55458914D01*
X161500377Y-55467632D01*
X161509421Y-55538050D01*
X161506695Y-55550851D01*
X161474800Y-55669888D01*
X161474800Y-57703101D01*
X161454798Y-57771222D01*
X161421071Y-57806314D01*
X161239003Y-57933799D01*
X161238997Y-57933804D01*
X161077104Y-58095697D01*
X161077099Y-58095703D01*
X160945777Y-58283250D01*
X160849017Y-58490753D01*
X160849015Y-58490759D01*
X160789757Y-58711913D01*
X160769802Y-58940000D01*
X155563498Y-58940000D01*
X155543543Y-58711913D01*
X155484284Y-58490757D01*
X155387523Y-58283251D01*
X155256198Y-58095700D01*
X155094300Y-57933802D01*
X154912229Y-57806314D01*
X154867901Y-57750857D01*
X154858500Y-57703101D01*
X154858500Y-56534500D01*
X154878502Y-56466379D01*
X154932158Y-56419886D01*
X154984500Y-56408500D01*
X155116708Y-56408500D01*
X155116712Y-56408500D01*
X155346951Y-56370080D01*
X155567727Y-56294287D01*
X155773017Y-56183190D01*
X155957220Y-56039818D01*
X156035469Y-55954818D01*
X156115314Y-55868083D01*
X156170847Y-55783083D01*
X156242984Y-55672669D01*
X156336749Y-55458907D01*
X156394051Y-55232626D01*
X156413327Y-55000000D01*
X156394051Y-54767374D01*
X156390387Y-54752906D01*
X156336750Y-54541096D01*
X156336747Y-54541089D01*
X156297386Y-54451356D01*
X156242984Y-54327331D01*
X156115314Y-54131917D01*
X156029789Y-54039013D01*
X155998370Y-53975351D01*
X156006356Y-53904805D01*
X156051215Y-53849776D01*
X156078460Y-53835622D01*
X156145965Y-53810444D01*
X156262904Y-53722904D01*
X156350444Y-53605965D01*
X156350444Y-53605964D01*
X156401494Y-53469093D01*
X156407999Y-53408597D01*
X156408000Y-53408585D01*
X156408000Y-52714000D01*
X155372968Y-52714000D01*
X155419333Y-52633694D01*
X155450000Y-52519244D01*
X155450000Y-52400756D01*
X155419333Y-52286306D01*
X155372968Y-52206000D01*
X156408000Y-52206000D01*
X156408000Y-51511414D01*
X156407999Y-51511402D01*
X156401494Y-51450906D01*
X156350444Y-51314035D01*
X156350444Y-51314034D01*
X156262904Y-51197095D01*
X156145965Y-51109555D01*
X156009093Y-51058505D01*
X155948597Y-51052000D01*
X155254000Y-51052000D01*
X155254000Y-52087031D01*
X155173694Y-52040667D01*
X155059244Y-52010000D01*
X154940756Y-52010000D01*
X154826306Y-52040667D01*
X154746000Y-52087031D01*
X154746000Y-51052000D01*
X154051402Y-51052000D01*
X153990906Y-51058505D01*
X153854035Y-51109555D01*
X153854034Y-51109555D01*
X153737095Y-51197095D01*
X153649555Y-51314034D01*
X153649555Y-51314035D01*
X153598505Y-51450906D01*
X153592000Y-51511402D01*
X153592000Y-52206000D01*
X154627032Y-52206000D01*
X154580667Y-52286306D01*
X154550000Y-52400756D01*
X154550000Y-52519244D01*
X154580667Y-52633694D01*
X154627032Y-52714000D01*
X153592000Y-52714000D01*
X153592000Y-53408597D01*
X153598505Y-53469093D01*
X153649555Y-53605964D01*
X153649555Y-53605965D01*
X153737095Y-53722904D01*
X153854034Y-53810444D01*
X153921539Y-53835622D01*
X153978375Y-53878169D01*
X154003186Y-53944689D01*
X153988095Y-54014063D01*
X153970208Y-54039015D01*
X153962932Y-54046920D01*
X153884683Y-54131920D01*
X153757015Y-54327331D01*
X153663252Y-54541089D01*
X153663249Y-54541096D01*
X153605950Y-54767366D01*
X153605949Y-54767372D01*
X153605949Y-54767374D01*
X153586673Y-55000000D01*
X153598906Y-55147633D01*
X153605950Y-55232633D01*
X153663249Y-55458903D01*
X153663253Y-55458914D01*
X153667077Y-55467632D01*
X153676121Y-55538050D01*
X153673395Y-55550851D01*
X153641500Y-55669888D01*
X153641500Y-57703101D01*
X153621498Y-57771222D01*
X153587771Y-57806314D01*
X153405703Y-57933799D01*
X153405697Y-57933804D01*
X153243804Y-58095697D01*
X153243799Y-58095703D01*
X153112477Y-58283250D01*
X153015717Y-58490753D01*
X153015715Y-58490759D01*
X152956457Y-58711913D01*
X152936502Y-58940000D01*
X147563498Y-58940000D01*
X147543543Y-58711913D01*
X147484284Y-58490757D01*
X147387523Y-58283251D01*
X147256198Y-58095700D01*
X147094300Y-57933802D01*
X146912229Y-57806314D01*
X146867901Y-57750857D01*
X146858500Y-57703101D01*
X146858500Y-56534500D01*
X146878502Y-56466379D01*
X146932158Y-56419886D01*
X146984500Y-56408500D01*
X147116708Y-56408500D01*
X147116712Y-56408500D01*
X147346951Y-56370080D01*
X147567727Y-56294287D01*
X147773017Y-56183190D01*
X147957220Y-56039818D01*
X148035469Y-55954818D01*
X148115314Y-55868083D01*
X148170847Y-55783083D01*
X148242984Y-55672669D01*
X148336749Y-55458907D01*
X148394051Y-55232626D01*
X148413327Y-55000000D01*
X148394051Y-54767374D01*
X148390387Y-54752906D01*
X148336750Y-54541096D01*
X148336747Y-54541089D01*
X148297386Y-54451356D01*
X148242984Y-54327331D01*
X148115314Y-54131917D01*
X148029789Y-54039013D01*
X147998370Y-53975351D01*
X148006356Y-53904805D01*
X148051215Y-53849776D01*
X148078460Y-53835622D01*
X148145965Y-53810444D01*
X148262904Y-53722904D01*
X148350444Y-53605965D01*
X148350444Y-53605964D01*
X148401494Y-53469093D01*
X148407999Y-53408597D01*
X148408000Y-53408585D01*
X148408000Y-52714000D01*
X147372968Y-52714000D01*
X147419333Y-52633694D01*
X147450000Y-52519244D01*
X147450000Y-52400756D01*
X147419333Y-52286306D01*
X147372968Y-52206000D01*
X148408000Y-52206000D01*
X148408000Y-51511414D01*
X148407999Y-51511402D01*
X148401494Y-51450906D01*
X148350444Y-51314035D01*
X148350444Y-51314034D01*
X148262904Y-51197095D01*
X148145965Y-51109555D01*
X148009093Y-51058505D01*
X147948597Y-51052000D01*
X147254000Y-51052000D01*
X147254000Y-52087031D01*
X147173694Y-52040667D01*
X147059244Y-52010000D01*
X146940756Y-52010000D01*
X146826306Y-52040667D01*
X146746000Y-52087031D01*
X146746000Y-51052000D01*
X146051402Y-51052000D01*
X145990906Y-51058505D01*
X145854035Y-51109555D01*
X145854034Y-51109555D01*
X145737095Y-51197095D01*
X145649555Y-51314034D01*
X145649555Y-51314035D01*
X145598505Y-51450906D01*
X145592000Y-51511402D01*
X145592000Y-52206000D01*
X146627032Y-52206000D01*
X146580667Y-52286306D01*
X146550000Y-52400756D01*
X146550000Y-52519244D01*
X146580667Y-52633694D01*
X146627032Y-52714000D01*
X145592000Y-52714000D01*
X145592000Y-53408597D01*
X145598505Y-53469093D01*
X145649555Y-53605964D01*
X145649555Y-53605965D01*
X145737095Y-53722904D01*
X145854034Y-53810444D01*
X145921539Y-53835622D01*
X145978375Y-53878169D01*
X146003186Y-53944689D01*
X145988095Y-54014063D01*
X145970208Y-54039015D01*
X145962932Y-54046920D01*
X145884683Y-54131920D01*
X145757015Y-54327331D01*
X145663252Y-54541089D01*
X145663249Y-54541096D01*
X145605950Y-54767366D01*
X145605949Y-54767372D01*
X145605949Y-54767374D01*
X145586673Y-55000000D01*
X145598906Y-55147633D01*
X145605950Y-55232633D01*
X145663249Y-55458903D01*
X145663253Y-55458914D01*
X145667077Y-55467632D01*
X145676121Y-55538050D01*
X145673395Y-55550851D01*
X145641500Y-55669888D01*
X145641500Y-57703101D01*
X145621498Y-57771222D01*
X145587771Y-57806314D01*
X145405703Y-57933799D01*
X145405697Y-57933804D01*
X145243804Y-58095697D01*
X145243799Y-58095703D01*
X145112477Y-58283250D01*
X145015717Y-58490753D01*
X145015715Y-58490759D01*
X144956457Y-58711913D01*
X144936502Y-58940000D01*
X128153600Y-58940000D01*
X128153600Y-55445089D01*
X128112132Y-55290328D01*
X128112132Y-55290327D01*
X128086964Y-55246735D01*
X128042577Y-55169854D01*
X128025839Y-55100858D01*
X128049060Y-55033767D01*
X128076187Y-55005986D01*
X128084184Y-55000000D01*
X128133261Y-54963261D01*
X128220889Y-54846204D01*
X128264999Y-54727939D01*
X128307545Y-54671107D01*
X128374066Y-54646296D01*
X128443440Y-54661388D01*
X128475753Y-54686635D01*
X128496529Y-54709204D01*
X128536762Y-54752908D01*
X128555338Y-54767366D01*
X128714424Y-54891189D01*
X128912426Y-54998342D01*
X128912427Y-54998342D01*
X128912428Y-54998343D01*
X129015616Y-55033767D01*
X129125365Y-55071444D01*
X129347431Y-55108500D01*
X129347435Y-55108500D01*
X129572565Y-55108500D01*
X129572569Y-55108500D01*
X129794635Y-55071444D01*
X130007574Y-54998342D01*
X130205576Y-54891189D01*
X130383240Y-54752906D01*
X130535722Y-54587268D01*
X130624518Y-54451354D01*
X130678520Y-54405268D01*
X130748868Y-54395692D01*
X130813225Y-54425669D01*
X130835480Y-54451353D01*
X130868607Y-54502058D01*
X130924275Y-54587265D01*
X130924279Y-54587270D01*
X131076762Y-54752908D01*
X131095338Y-54767366D01*
X131254424Y-54891189D01*
X131452426Y-54998342D01*
X131452427Y-54998342D01*
X131452428Y-54998343D01*
X131555616Y-55033767D01*
X131665365Y-55071444D01*
X131887431Y-55108500D01*
X131887435Y-55108500D01*
X132112565Y-55108500D01*
X132112569Y-55108500D01*
X132334635Y-55071444D01*
X132547574Y-54998342D01*
X132745576Y-54891189D01*
X132923240Y-54752906D01*
X133075722Y-54587268D01*
X133198860Y-54398791D01*
X133289296Y-54192616D01*
X133344564Y-53974368D01*
X133363156Y-53750000D01*
X133344564Y-53525632D01*
X133314924Y-53408585D01*
X133289297Y-53307387D01*
X133289296Y-53307386D01*
X133289296Y-53307384D01*
X133198860Y-53101209D01*
X133182405Y-53076022D01*
X133075724Y-52912734D01*
X133075720Y-52912729D01*
X132923237Y-52747091D01*
X132777545Y-52633694D01*
X132745576Y-52608811D01*
X132547574Y-52501658D01*
X132547572Y-52501657D01*
X132547571Y-52501656D01*
X132334639Y-52428557D01*
X132334630Y-52428555D01*
X132290476Y-52421187D01*
X132112569Y-52391500D01*
X131887431Y-52391500D01*
X131739211Y-52416233D01*
X131665369Y-52428555D01*
X131665360Y-52428557D01*
X131452428Y-52501656D01*
X131452426Y-52501658D01*
X131254426Y-52608810D01*
X131254424Y-52608811D01*
X131076762Y-52747091D01*
X130924279Y-52912729D01*
X130835483Y-53048643D01*
X130781479Y-53094731D01*
X130711131Y-53104306D01*
X130646774Y-53074329D01*
X130624517Y-53048643D01*
X130535720Y-52912729D01*
X130383237Y-52747091D01*
X130237545Y-52633694D01*
X130205576Y-52608811D01*
X130007574Y-52501658D01*
X130007572Y-52501657D01*
X130007571Y-52501656D01*
X129794639Y-52428557D01*
X129794630Y-52428555D01*
X129750476Y-52421187D01*
X129572569Y-52391500D01*
X129347431Y-52391500D01*
X129199211Y-52416233D01*
X129125369Y-52428555D01*
X129125360Y-52428557D01*
X128912428Y-52501656D01*
X128912420Y-52501660D01*
X128897583Y-52509690D01*
X128828153Y-52524520D01*
X128761726Y-52499459D01*
X128748526Y-52487977D01*
X128373427Y-52112878D01*
X128373425Y-52112877D01*
X128373423Y-52112875D01*
X128234677Y-52032770D01*
X128234674Y-52032769D01*
X128234673Y-52032768D01*
X128234671Y-52032767D01*
X128234670Y-52032767D01*
X128157291Y-52012034D01*
X128149700Y-52010000D01*
X128079911Y-51991300D01*
X125850989Y-51991300D01*
X125768055Y-52013522D01*
X125696230Y-52032767D01*
X125696223Y-52032770D01*
X125557476Y-52112875D01*
X125557466Y-52112883D01*
X119438183Y-58232166D01*
X119438175Y-58232176D01*
X119358067Y-58370927D01*
X119358068Y-58370928D01*
X119325960Y-58490759D01*
X119316600Y-58525690D01*
X119316600Y-58940500D01*
X119296598Y-59008621D01*
X119242942Y-59055114D01*
X119190600Y-59066500D01*
X117176350Y-59066500D01*
X117115803Y-59073009D01*
X117115795Y-59073011D01*
X116978797Y-59124110D01*
X116978792Y-59124112D01*
X116861738Y-59211738D01*
X116774112Y-59328792D01*
X116774110Y-59328797D01*
X116723011Y-59465795D01*
X116723009Y-59465803D01*
X116716500Y-59526350D01*
X116716500Y-61223649D01*
X116723009Y-61284196D01*
X116723011Y-61284204D01*
X116774110Y-61421202D01*
X116774112Y-61421207D01*
X116861738Y-61538261D01*
X116978792Y-61625887D01*
X116978794Y-61625888D01*
X116978796Y-61625889D01*
X117030034Y-61645000D01*
X117115795Y-61676988D01*
X117115798Y-61676988D01*
X117115799Y-61676989D01*
X117115804Y-61676990D01*
X117127728Y-61678272D01*
X117193321Y-61705440D01*
X117233813Y-61763757D01*
X117236349Y-61834708D01*
X117200122Y-61895767D01*
X117188326Y-61905484D01*
X117172567Y-61916933D01*
X117026936Y-62062564D01*
X117026934Y-62062567D01*
X116905873Y-62229193D01*
X116812367Y-62412708D01*
X116812364Y-62412714D01*
X116748721Y-62608587D01*
X116748720Y-62608590D01*
X116748720Y-62608592D01*
X116716500Y-62812019D01*
X116716500Y-63017981D01*
X116748720Y-63221408D01*
X116812366Y-63417290D01*
X116905871Y-63600803D01*
X117026932Y-63767430D01*
X117026934Y-63767432D01*
X117026936Y-63767435D01*
X117172564Y-63913063D01*
X117172567Y-63913065D01*
X117172570Y-63913068D01*
X117339197Y-64034129D01*
X117414962Y-64072733D01*
X117466577Y-64121482D01*
X117483643Y-64190397D01*
X117460742Y-64257598D01*
X117414963Y-64297266D01*
X117362279Y-64324110D01*
X117339193Y-64335873D01*
X117172567Y-64456934D01*
X117172564Y-64456936D01*
X117026936Y-64602564D01*
X117026934Y-64602567D01*
X116905873Y-64769193D01*
X116812367Y-64952708D01*
X116812364Y-64952714D01*
X116748721Y-65148587D01*
X116748720Y-65148590D01*
X116748720Y-65148592D01*
X116716500Y-65352019D01*
X116716500Y-65557981D01*
X116741481Y-65715703D01*
X116748721Y-65761412D01*
X116805729Y-65936865D01*
X116812366Y-65957290D01*
X116905871Y-66140803D01*
X117026932Y-66307430D01*
X117026934Y-66307432D01*
X117026936Y-66307435D01*
X117172564Y-66453063D01*
X117172567Y-66453065D01*
X117172570Y-66453068D01*
X117339197Y-66574129D01*
X117414962Y-66612733D01*
X117466577Y-66661482D01*
X117483643Y-66730397D01*
X117460742Y-66797598D01*
X117414963Y-66837266D01*
X117346033Y-66872387D01*
X117339193Y-66875873D01*
X117172567Y-66996934D01*
X117172564Y-66996936D01*
X117026936Y-67142564D01*
X117026934Y-67142567D01*
X116905873Y-67309193D01*
X116812367Y-67492708D01*
X116812364Y-67492714D01*
X116748721Y-67688587D01*
X116748720Y-67688590D01*
X116748720Y-67688592D01*
X116716500Y-67892019D01*
X116716500Y-68097981D01*
X116747176Y-68291657D01*
X116748721Y-68301412D01*
X116805123Y-68475000D01*
X116812366Y-68497290D01*
X116905871Y-68680803D01*
X117026932Y-68847430D01*
X117026934Y-68847432D01*
X117026936Y-68847435D01*
X117172564Y-68993063D01*
X117172567Y-68993065D01*
X117172570Y-68993068D01*
X117339197Y-69114129D01*
X117414962Y-69152733D01*
X117466577Y-69201482D01*
X117483643Y-69270397D01*
X117460742Y-69337598D01*
X117414963Y-69377266D01*
X117395367Y-69387251D01*
X117339193Y-69415873D01*
X117172567Y-69536934D01*
X117172564Y-69536936D01*
X117026936Y-69682564D01*
X117026934Y-69682567D01*
X116905873Y-69849193D01*
X116812367Y-70032708D01*
X116812364Y-70032714D01*
X116748721Y-70228587D01*
X116748720Y-70228590D01*
X116748720Y-70228592D01*
X116716500Y-70432019D01*
X116716500Y-70637981D01*
X116744382Y-70814019D01*
X116748721Y-70841412D01*
X116812088Y-71036436D01*
X116812366Y-71037290D01*
X116905871Y-71220803D01*
X117026932Y-71387430D01*
X117026934Y-71387432D01*
X117026936Y-71387435D01*
X117172564Y-71533063D01*
X117172567Y-71533065D01*
X117172570Y-71533068D01*
X117339197Y-71654129D01*
X117414962Y-71692733D01*
X117466577Y-71741482D01*
X117483643Y-71810397D01*
X117460742Y-71877598D01*
X117414963Y-71917266D01*
X117346033Y-71952387D01*
X117339193Y-71955873D01*
X117172567Y-72076934D01*
X117172564Y-72076936D01*
X117026936Y-72222564D01*
X117026934Y-72222567D01*
X116905873Y-72389193D01*
X116812367Y-72572708D01*
X116812364Y-72572714D01*
X116748721Y-72768587D01*
X116748720Y-72768590D01*
X116748720Y-72768592D01*
X116716500Y-72972019D01*
X116716500Y-73177981D01*
X103015500Y-73177981D01*
X103015500Y-70750000D01*
X107986917Y-70750000D01*
X108007213Y-70994931D01*
X108067547Y-71233185D01*
X108166265Y-71458239D01*
X108166267Y-71458242D01*
X108261610Y-71604178D01*
X108872301Y-70993487D01*
X108898978Y-71057890D01*
X108970112Y-71164351D01*
X109060649Y-71254888D01*
X109167110Y-71326022D01*
X109231511Y-71352698D01*
X108620238Y-71963971D01*
X108661087Y-71995766D01*
X108661093Y-71995770D01*
X108877248Y-72112748D01*
X109109692Y-72192546D01*
X109109701Y-72192548D01*
X109352119Y-72233000D01*
X109597881Y-72233000D01*
X109840298Y-72192548D01*
X109840307Y-72192546D01*
X110072753Y-72112748D01*
X110072755Y-72112747D01*
X110288897Y-71995776D01*
X110329760Y-71963969D01*
X109718489Y-71352698D01*
X109782890Y-71326022D01*
X109889351Y-71254888D01*
X109979888Y-71164351D01*
X110051022Y-71057890D01*
X110077698Y-70993487D01*
X110688389Y-71604178D01*
X110783731Y-71458245D01*
X110882452Y-71233185D01*
X110942786Y-70994931D01*
X110963082Y-70750000D01*
X110942786Y-70505068D01*
X110882452Y-70266814D01*
X110783730Y-70041751D01*
X110688388Y-69895820D01*
X110077698Y-70506510D01*
X110051022Y-70442110D01*
X109979888Y-70335649D01*
X109889351Y-70245112D01*
X109782890Y-70173978D01*
X109718488Y-70147301D01*
X110329761Y-69536028D01*
X110288905Y-69504228D01*
X110072751Y-69387251D01*
X109840307Y-69307453D01*
X109840298Y-69307451D01*
X109597881Y-69267000D01*
X109352119Y-69267000D01*
X109109701Y-69307451D01*
X109109692Y-69307453D01*
X108877248Y-69387251D01*
X108661092Y-69504229D01*
X108661087Y-69504232D01*
X108620238Y-69536027D01*
X108620238Y-69536029D01*
X109231510Y-70147301D01*
X109167110Y-70173978D01*
X109060649Y-70245112D01*
X108970112Y-70335649D01*
X108898978Y-70442110D01*
X108872301Y-70506510D01*
X108261610Y-69895819D01*
X108261609Y-69895820D01*
X108166274Y-70041742D01*
X108166267Y-70041756D01*
X108067547Y-70266814D01*
X108007213Y-70505068D01*
X107986917Y-70750000D01*
X103015500Y-70750000D01*
X103015500Y-66773649D01*
X107991500Y-66773649D01*
X107998009Y-66834196D01*
X107998011Y-66834204D01*
X108049110Y-66971202D01*
X108049112Y-66971207D01*
X108136738Y-67088261D01*
X108253792Y-67175887D01*
X108253794Y-67175888D01*
X108253796Y-67175889D01*
X108310066Y-67196877D01*
X108390795Y-67226988D01*
X108390803Y-67226990D01*
X108451350Y-67233499D01*
X108451355Y-67233499D01*
X108451362Y-67233500D01*
X108451368Y-67233500D01*
X110498632Y-67233500D01*
X110498638Y-67233500D01*
X110498645Y-67233499D01*
X110498649Y-67233499D01*
X110559196Y-67226990D01*
X110559199Y-67226989D01*
X110559201Y-67226989D01*
X110696204Y-67175889D01*
X110748126Y-67137021D01*
X110813261Y-67088261D01*
X110900887Y-66971207D01*
X110900887Y-66971206D01*
X110900889Y-66971204D01*
X110944960Y-66853045D01*
X110951988Y-66834204D01*
X110951990Y-66834196D01*
X110958499Y-66773649D01*
X110958500Y-66773632D01*
X110958500Y-64726367D01*
X110958499Y-64726350D01*
X110951990Y-64665803D01*
X110951988Y-64665795D01*
X110900889Y-64528797D01*
X110900887Y-64528792D01*
X110813261Y-64411738D01*
X110696207Y-64324112D01*
X110696202Y-64324110D01*
X110559204Y-64273011D01*
X110559196Y-64273009D01*
X110498649Y-64266500D01*
X110498638Y-64266500D01*
X108451362Y-64266500D01*
X108451350Y-64266500D01*
X108390803Y-64273009D01*
X108390795Y-64273011D01*
X108253797Y-64324110D01*
X108253792Y-64324112D01*
X108136738Y-64411738D01*
X108049112Y-64528792D01*
X108049110Y-64528797D01*
X107998011Y-64665795D01*
X107998009Y-64665803D01*
X107991500Y-64726350D01*
X107991500Y-66773649D01*
X103015500Y-66773649D01*
X103015500Y-53154465D01*
X105749500Y-53154465D01*
X105784089Y-53461456D01*
X105812106Y-53584204D01*
X105852832Y-53762636D01*
X105852834Y-53762642D01*
X105852833Y-53762642D01*
X105954858Y-54054211D01*
X105954869Y-54054238D01*
X106088902Y-54332560D01*
X106088907Y-54332569D01*
X106253265Y-54594143D01*
X106445882Y-54835677D01*
X106664322Y-55054117D01*
X106689183Y-55073943D01*
X106905857Y-55246735D01*
X106975235Y-55290328D01*
X107108250Y-55373907D01*
X107167435Y-55411095D01*
X107445771Y-55545135D01*
X107445787Y-55545140D01*
X107445788Y-55545141D01*
X107737357Y-55647166D01*
X107737360Y-55647166D01*
X107737364Y-55647168D01*
X107960290Y-55698049D01*
X108038543Y-55715910D01*
X108038544Y-55715910D01*
X108038548Y-55715911D01*
X108255389Y-55740343D01*
X108345534Y-55750500D01*
X108345535Y-55750500D01*
X108654466Y-55750500D01*
X108706717Y-55744612D01*
X108961452Y-55715911D01*
X109262636Y-55647168D01*
X109554229Y-55545135D01*
X109832565Y-55411095D01*
X110094143Y-55246735D01*
X110335674Y-55054120D01*
X110554120Y-54835674D01*
X110746735Y-54594143D01*
X110911095Y-54332565D01*
X111045135Y-54054229D01*
X111147168Y-53762636D01*
X111215911Y-53461452D01*
X111250500Y-53154465D01*
X111250500Y-52845535D01*
X111215911Y-52538548D01*
X111147168Y-52237364D01*
X111136193Y-52206000D01*
X111045141Y-51945788D01*
X111045140Y-51945787D01*
X111045135Y-51945771D01*
X110911095Y-51667435D01*
X110897513Y-51645820D01*
X110791036Y-51476362D01*
X110746735Y-51405857D01*
X110605723Y-51229034D01*
X110554117Y-51164322D01*
X110335677Y-50945882D01*
X110094143Y-50753265D01*
X109832569Y-50588907D01*
X109832560Y-50588902D01*
X109554238Y-50454869D01*
X109554233Y-50454867D01*
X109554229Y-50454865D01*
X109554223Y-50454862D01*
X109554211Y-50454858D01*
X109262642Y-50352833D01*
X108961456Y-50284089D01*
X108654466Y-50249500D01*
X108654465Y-50249500D01*
X108345535Y-50249500D01*
X108345534Y-50249500D01*
X108038543Y-50284089D01*
X107737357Y-50352833D01*
X107445788Y-50454858D01*
X107445761Y-50454869D01*
X107167439Y-50588902D01*
X107167430Y-50588907D01*
X106905856Y-50753265D01*
X106664322Y-50945882D01*
X106445882Y-51164322D01*
X106253265Y-51405856D01*
X106088907Y-51667430D01*
X106088902Y-51667439D01*
X105954869Y-51945761D01*
X105954858Y-51945788D01*
X105852833Y-52237357D01*
X105784089Y-52538543D01*
X105749500Y-52845534D01*
X105749500Y-53154465D01*
X103015500Y-53154465D01*
X103015500Y-47626000D01*
X103035502Y-47557879D01*
X103089158Y-47511386D01*
X103141500Y-47500000D01*
X201874000Y-47500000D01*
X201942121Y-47520002D01*
G37*
%TD.AperFunction*%
%TA.AperFunction,Conductor*%
G36*
X177511986Y-107548502D02*
G01*
X177558479Y-107602158D01*
X177569073Y-107668605D01*
X177567384Y-107683600D01*
X177587783Y-107864647D01*
X177587783Y-107864649D01*
X177587784Y-107864650D01*
X177647957Y-108036615D01*
X177647958Y-108036618D01*
X177744883Y-108190873D01*
X177745001Y-108191021D01*
X177745047Y-108191134D01*
X177748653Y-108196873D01*
X177747648Y-108197504D01*
X177771844Y-108256748D01*
X177772500Y-108269593D01*
X177772500Y-109864760D01*
X177752498Y-109932881D01*
X177735595Y-109953855D01*
X173770583Y-113918866D01*
X173770575Y-113918876D01*
X173690470Y-114057622D01*
X173690465Y-114057634D01*
X173676972Y-114107989D01*
X173676973Y-114107990D01*
X173649000Y-114212388D01*
X173649000Y-138709549D01*
X173628998Y-138777670D01*
X173582970Y-138820362D01*
X173511930Y-138858807D01*
X173511924Y-138858811D01*
X173334262Y-138997091D01*
X173181779Y-139162729D01*
X173092983Y-139298643D01*
X173038979Y-139344731D01*
X172968631Y-139354306D01*
X172904274Y-139324329D01*
X172882017Y-139298643D01*
X172793220Y-139162729D01*
X172664100Y-139022470D01*
X172640740Y-138997094D01*
X172640739Y-138997093D01*
X172640737Y-138997091D01*
X172528606Y-138909816D01*
X172463076Y-138858811D01*
X172265074Y-138751658D01*
X172265072Y-138751657D01*
X172265071Y-138751656D01*
X172052139Y-138678557D01*
X172052130Y-138678555D01*
X172007976Y-138671187D01*
X171830069Y-138641500D01*
X171604931Y-138641500D01*
X171456711Y-138666233D01*
X171382869Y-138678555D01*
X171382860Y-138678557D01*
X171169928Y-138751656D01*
X171169926Y-138751658D01*
X170971932Y-138858807D01*
X170971926Y-138858810D01*
X170971924Y-138858811D01*
X170794259Y-138997094D01*
X170732874Y-139063775D01*
X170672021Y-139100346D01*
X170601057Y-139098211D01*
X170542512Y-139058049D01*
X170522118Y-139022470D01*
X170477943Y-138904033D01*
X170390404Y-138787095D01*
X170273465Y-138699555D01*
X170136593Y-138648505D01*
X170076097Y-138642000D01*
X169431500Y-138642000D01*
X169431500Y-139569297D01*
X169370493Y-139534075D01*
X169243326Y-139500000D01*
X169111674Y-139500000D01*
X168984507Y-139534075D01*
X168923500Y-139569297D01*
X168923500Y-138642000D01*
X168278902Y-138642000D01*
X168218406Y-138648505D01*
X168081535Y-138699555D01*
X168081534Y-138699555D01*
X167964595Y-138787095D01*
X167877055Y-138904034D01*
X167877055Y-138904035D01*
X167826005Y-139040906D01*
X167819500Y-139101402D01*
X167819500Y-139746000D01*
X168746797Y-139746000D01*
X168711575Y-139807007D01*
X168677500Y-139934174D01*
X168677500Y-140065826D01*
X168711575Y-140192993D01*
X168746797Y-140254000D01*
X167819500Y-140254000D01*
X167819500Y-140898597D01*
X167826005Y-140959093D01*
X167877055Y-141095964D01*
X167877055Y-141095965D01*
X167947443Y-141189991D01*
X167972254Y-141256511D01*
X167957163Y-141325885D01*
X167906961Y-141376087D01*
X167846575Y-141391500D01*
X163295604Y-141391500D01*
X163227483Y-141371498D01*
X163180990Y-141317842D01*
X163170886Y-141247568D01*
X163200380Y-141182988D01*
X163235633Y-141154687D01*
X163260576Y-141141189D01*
X163438240Y-141002906D01*
X163590722Y-140837268D01*
X163713860Y-140648791D01*
X163804296Y-140442616D01*
X163859564Y-140224368D01*
X163878156Y-140000000D01*
X163859564Y-139775632D01*
X163804296Y-139557384D01*
X163713860Y-139351209D01*
X163707140Y-139340924D01*
X163590724Y-139162734D01*
X163590720Y-139162729D01*
X163461600Y-139022470D01*
X163438240Y-138997094D01*
X163438239Y-138997093D01*
X163438237Y-138997091D01*
X163326106Y-138909816D01*
X163260576Y-138858811D01*
X163260569Y-138858807D01*
X163189530Y-138820362D01*
X163139140Y-138770349D01*
X163123500Y-138709549D01*
X163123500Y-117889239D01*
X163143502Y-117821118D01*
X163160405Y-117800144D01*
X173395144Y-107565405D01*
X173457456Y-107531379D01*
X173484239Y-107528500D01*
X177443865Y-107528500D01*
X177511986Y-107548502D01*
G37*
%TD.AperFunction*%
%TA.AperFunction,Conductor*%
G36*
X105690056Y-103994557D02*
G01*
X105738723Y-104027274D01*
X105826760Y-104122906D01*
X105826762Y-104122908D01*
X105870178Y-104156700D01*
X106004424Y-104261189D01*
X106037680Y-104279186D01*
X106088071Y-104329200D01*
X106103423Y-104398516D01*
X106078862Y-104465129D01*
X106037680Y-104500813D01*
X106004426Y-104518810D01*
X106004424Y-104518811D01*
X105826762Y-104657091D01*
X105674279Y-104822729D01*
X105674275Y-104822734D01*
X105551141Y-105011206D01*
X105460703Y-105217386D01*
X105460702Y-105217387D01*
X105405437Y-105435624D01*
X105405436Y-105435630D01*
X105405436Y-105435632D01*
X105386844Y-105660000D01*
X105404168Y-105869069D01*
X105405437Y-105884375D01*
X105460702Y-106102612D01*
X105460703Y-106102613D01*
X105460704Y-106102616D01*
X105540217Y-106283889D01*
X105551141Y-106308793D01*
X105674275Y-106497265D01*
X105674279Y-106497270D01*
X105680475Y-106504000D01*
X105815338Y-106650499D01*
X105826762Y-106662908D01*
X105881331Y-106705381D01*
X106004424Y-106801189D01*
X106037680Y-106819186D01*
X106088071Y-106869200D01*
X106103423Y-106938516D01*
X106078862Y-107005129D01*
X106037680Y-107040813D01*
X106004426Y-107058810D01*
X106004424Y-107058811D01*
X105826762Y-107197091D01*
X105674279Y-107362729D01*
X105674275Y-107362734D01*
X105551141Y-107551206D01*
X105460703Y-107757386D01*
X105460702Y-107757387D01*
X105405437Y-107975624D01*
X105405437Y-107975627D01*
X105405436Y-107975632D01*
X105387600Y-108190873D01*
X105386844Y-108200000D01*
X105405437Y-108424375D01*
X105460702Y-108642612D01*
X105460703Y-108642613D01*
X105551141Y-108848793D01*
X105674275Y-109037265D01*
X105674279Y-109037270D01*
X105826762Y-109202908D01*
X105832183Y-109207127D01*
X106004424Y-109341189D01*
X106089149Y-109387039D01*
X106139540Y-109437052D01*
X106150887Y-109465242D01*
X106182967Y-109584970D01*
X106182970Y-109584977D01*
X106263075Y-109723723D01*
X106263083Y-109723733D01*
X108354595Y-111815244D01*
X108388620Y-111877556D01*
X108391500Y-111904339D01*
X108391500Y-125033159D01*
X108371498Y-125101280D01*
X108354595Y-125122254D01*
X108160604Y-125316245D01*
X108098292Y-125350271D01*
X108027477Y-125345206D01*
X107970641Y-125302659D01*
X107956122Y-125277764D01*
X107948860Y-125261209D01*
X107825724Y-125072734D01*
X107825720Y-125072729D01*
X107673237Y-124907091D01*
X107536789Y-124800889D01*
X107495576Y-124768811D01*
X107462319Y-124750813D01*
X107411929Y-124700802D01*
X107396576Y-124631485D01*
X107421136Y-124564872D01*
X107462320Y-124529186D01*
X107495576Y-124511189D01*
X107673240Y-124372906D01*
X107825722Y-124207268D01*
X107948860Y-124018791D01*
X108039296Y-123812616D01*
X108094564Y-123594368D01*
X108113156Y-123370000D01*
X108094564Y-123145632D01*
X108045058Y-122950137D01*
X108039297Y-122927387D01*
X108039296Y-122927386D01*
X108039296Y-122927384D01*
X107948860Y-122721209D01*
X107942140Y-122710924D01*
X107825724Y-122532734D01*
X107825720Y-122532729D01*
X107673237Y-122367091D01*
X107570000Y-122286738D01*
X107495576Y-122228811D01*
X107462319Y-122210813D01*
X107411929Y-122160802D01*
X107396576Y-122091485D01*
X107421136Y-122024872D01*
X107462320Y-121989186D01*
X107495576Y-121971189D01*
X107673240Y-121832906D01*
X107825722Y-121667268D01*
X107948860Y-121478791D01*
X108039296Y-121272616D01*
X108094564Y-121054368D01*
X108113156Y-120830000D01*
X108094564Y-120605632D01*
X108080504Y-120550110D01*
X108039297Y-120387387D01*
X108039296Y-120387386D01*
X108039296Y-120387384D01*
X107948860Y-120181209D01*
X107938767Y-120165761D01*
X107825724Y-119992734D01*
X107825720Y-119992729D01*
X107673237Y-119827091D01*
X107591382Y-119763381D01*
X107495576Y-119688811D01*
X107461792Y-119670528D01*
X107411402Y-119620516D01*
X107396050Y-119551199D01*
X107420610Y-119484586D01*
X107461793Y-119448901D01*
X107495300Y-119430767D01*
X107495301Y-119430767D01*
X107672902Y-119292534D01*
X107825325Y-119126958D01*
X107948419Y-118938548D01*
X108038820Y-118732456D01*
X108038823Y-118732449D01*
X108086544Y-118544000D01*
X107180703Y-118544000D01*
X107215925Y-118482993D01*
X107250000Y-118355826D01*
X107250000Y-118224174D01*
X107215925Y-118097007D01*
X107180703Y-118036000D01*
X108086544Y-118036000D01*
X108086544Y-118035999D01*
X108038823Y-117847550D01*
X108038820Y-117847543D01*
X107948419Y-117641451D01*
X107825325Y-117453041D01*
X107682018Y-117297367D01*
X107650598Y-117233702D01*
X107658585Y-117163156D01*
X107703444Y-117108127D01*
X107730679Y-117093977D01*
X107846204Y-117050889D01*
X107963261Y-116963261D01*
X107980745Y-116939905D01*
X108050887Y-116846207D01*
X108050887Y-116846206D01*
X108050889Y-116846204D01*
X108101989Y-116709201D01*
X108108500Y-116648638D01*
X108108500Y-114851362D01*
X108102156Y-114792350D01*
X108101990Y-114790803D01*
X108101988Y-114790795D01*
X108050889Y-114653797D01*
X108050887Y-114653792D01*
X107963261Y-114536738D01*
X107846207Y-114449112D01*
X107846202Y-114449110D01*
X107709204Y-114398011D01*
X107709196Y-114398009D01*
X107648649Y-114391500D01*
X107648638Y-114391500D01*
X105851362Y-114391500D01*
X105851350Y-114391500D01*
X105790803Y-114398009D01*
X105790795Y-114398011D01*
X105653797Y-114449110D01*
X105653792Y-114449112D01*
X105536738Y-114536738D01*
X105449112Y-114653792D01*
X105449110Y-114653797D01*
X105398011Y-114790795D01*
X105398009Y-114790803D01*
X105391500Y-114851350D01*
X105391500Y-116648649D01*
X105398009Y-116709196D01*
X105398011Y-116709204D01*
X105449110Y-116846202D01*
X105449112Y-116846207D01*
X105536738Y-116963261D01*
X105653792Y-117050887D01*
X105653796Y-117050889D01*
X105769312Y-117093975D01*
X105826148Y-117136522D01*
X105850958Y-117203042D01*
X105835866Y-117272416D01*
X105817981Y-117297367D01*
X105674674Y-117453041D01*
X105551580Y-117641451D01*
X105461179Y-117847543D01*
X105461176Y-117847550D01*
X105413455Y-118035999D01*
X105413456Y-118036000D01*
X106319297Y-118036000D01*
X106284075Y-118097007D01*
X106250000Y-118224174D01*
X106250000Y-118355826D01*
X106284075Y-118482993D01*
X106319297Y-118544000D01*
X105413455Y-118544000D01*
X105461176Y-118732449D01*
X105461179Y-118732456D01*
X105551580Y-118938548D01*
X105674674Y-119126958D01*
X105827097Y-119292534D01*
X106004698Y-119430767D01*
X106004704Y-119430771D01*
X106038207Y-119448902D01*
X106088597Y-119498915D01*
X106103949Y-119568232D01*
X106079388Y-119634845D01*
X106038207Y-119670528D01*
X106004430Y-119688807D01*
X106004424Y-119688811D01*
X105826762Y-119827091D01*
X105674279Y-119992729D01*
X105674275Y-119992734D01*
X105551141Y-120181206D01*
X105460703Y-120387386D01*
X105460702Y-120387387D01*
X105405437Y-120605624D01*
X105405436Y-120605630D01*
X105405436Y-120605632D01*
X105403324Y-120631120D01*
X105386844Y-120830003D01*
X105387037Y-120832335D01*
X105386844Y-120833272D01*
X105386844Y-120835211D01*
X105386445Y-120835211D01*
X105372721Y-120901874D01*
X105323083Y-120952633D01*
X105253881Y-120968499D01*
X105187088Y-120944432D01*
X105172371Y-120931822D01*
X104495405Y-120254856D01*
X104461379Y-120192544D01*
X104458500Y-120165761D01*
X104458500Y-105174138D01*
X104478502Y-105106017D01*
X104495400Y-105085047D01*
X105556931Y-104023516D01*
X105619241Y-103989493D01*
X105690056Y-103994557D01*
G37*
%TD.AperFunction*%
%TD*%
M02*
